<svg width="122" height="66" viewBox="0 0 122 66" fill="none" xmlns="http://www.w3.org/2000/svg">
<path fill-rule="evenodd" clip-rule="evenodd" d="M46.6784 41.1794C44.6962 40.4397 41.9359 39.9811 38.8712 39.9811C38.3909 39.9811 37.9407 39.9867 37.5263 40.0046L36.8139 40.0469C36.734 40.404 36.5958 40.7564 36.4088 41.0901L36.3938 41.1145L36.3703 41.1559L36.3581 41.1794L36.3458 41.2038L36.3308 41.2273L36.3214 41.2395L36.3186 41.2452L36.3036 41.2687L36.2913 41.2922L36.2791 41.31L36.2613 41.3335L36.249 41.357L36.234 41.3749L36.1588 41.482L36.1297 41.5356C35.8364 41.9472 35.4615 42.3467 35.0084 42.7226L35.0319 42.7405L35.0348 42.7461L35.0517 42.7583L35.093 42.794L35.1024 42.7997L35.1325 42.8297H35.1363L35.1569 42.8467L35.1692 42.8589L35.1786 42.8645L35.1992 42.8824L35.2208 42.9002L35.2331 42.9124L35.2425 42.9247L35.281 42.9604L35.296 42.9726L35.3017 42.9782L35.3233 42.9961L35.3261 43.0017L35.3411 43.0139L35.3599 43.0318H35.3628L35.3797 43.0487L35.3891 43.0544L35.4013 43.0666L35.422 43.0844V43.0901L35.4408 43.1079L35.453 43.1136L35.4586 43.1258L35.4802 43.1436H35.4831L35.4981 43.1615L35.5103 43.1737L35.5197 43.1794L35.5376 43.1972L35.5404 43.2029L35.5554 43.2151L35.5676 43.2329L35.5742 43.2386L35.5921 43.2564L35.5987 43.2621L35.6099 43.2743L35.6287 43.2921L35.6457 43.31L35.6551 43.3213L35.6645 43.3269L35.6823 43.3513L35.6992 43.3692L35.7114 43.3805L35.718 43.3861L35.7359 43.404V43.4096C36.3383 44.0891 36.734 44.7686 36.875 45.6991L36.8778 45.7348L36.8815 45.7705L36.8872 45.8062L36.89 45.8419L36.8938 45.8776V45.9133L36.8994 45.9491V46.0618L36.9022 46.0919V46.1812L36.8994 46.1934V46.2959L36.8966 46.3194V46.3372L36.8938 46.3428V46.3851L36.89 46.3974V46.4218L36.8872 46.4387V46.4631L36.8815 46.4876V46.5111L36.8778 46.5233L36.875 46.5355V46.5656L36.8721 46.5769L36.8693 46.5891V46.6135L36.8656 46.6257L36.8628 46.638L36.8581 46.6586L36.8552 46.6643L36.8524 46.6821L36.8374 46.7658L36.8186 46.8551L36.8158 46.8673L36.7979 46.9453H36.8505L36.874 46.9509H36.9483L36.9718 46.9566H36.9953L37.1409 46.9622L37.1644 46.9678H37.2622L37.2857 46.9735H37.3787L37.3975 46.9791H37.5178L37.5347 46.9848H37.6372L37.6541 46.9904H37.8045L37.8214 46.996H37.8505C39.9821 47.0853 42.4267 46.8945 44.4754 46.4415C44.6568 46.4058 44.8335 46.3645 45.0093 46.3165L45.0478 46.3109L45.0835 46.2996L45.232 46.2639L45.2677 46.2517L45.3034 46.246L45.3749 46.2291V46.2235L45.45 46.2056L45.4792 46.2L45.5205 46.1878L45.5835 46.1643H45.5891L45.6615 46.1464L45.7329 46.122L45.7931 46.1041H45.8025L45.8711 46.0806L45.8946 46.075L45.9416 46.0628L45.9951 46.0449L46.0074 46.0393L46.0769 46.0224L46.0976 46.0167L46.1455 45.9989L46.1963 45.981L46.2113 45.9754L46.2771 45.9519L46.294 45.9462L46.3419 45.934L46.3899 45.9162L46.4068 45.9105L46.4726 45.887L46.4848 45.8814L46.5356 45.8635L46.5797 45.8513L46.5985 45.8391L46.6643 45.8156H46.6756L46.7235 45.7977L46.7564 45.7799L46.7856 45.7742L46.8363 45.7507H46.8485L46.9077 45.7207H46.9143L46.9679 45.6972L46.997 45.6915L47.0262 45.6737L47.0741 45.6558L47.0863 45.6502L47.1455 45.6267H47.1493C47.6323 45.418 48.0553 45.1972 48.4096 44.9585C48.4481 44.935 48.4848 44.9115 48.5233 44.8936C49.1615 44.4519 49.5186 43.9754 49.5186 43.498C49.5233 42.6643 48.435 41.841 46.6784 41.1794ZM48.0561 46.8794L48.0176 46.8973L47.746 47.0166L47.7338 47.0223L47.6746 47.0514L47.6445 47.0636L47.6154 47.0758L47.4396 47.1473H47.4302C46.652 47.4574 45.7667 47.7253 44.8005 47.9339C42.6238 48.417 40.1078 48.6134 37.8541 48.5241L37.8316 48.5185H37.6981L37.6746 48.5128H37.5666L37.5449 48.5072H37.4105L37.3889 48.5016H37.3043L37.2827 48.4959H37.1981C36.8344 48.4781 36.4735 48.4489 36.1183 48.4179L36.091 48.4123H36.0882C35.903 48.6688 35.6878 48.9132 35.45 49.1519L35.0027 49.5514L35.0149 49.557L35.0271 49.5683H35.0299L35.0356 49.5739L35.045 49.5861L35.1587 49.682H35.1643L35.1671 49.6876L35.1888 49.7046L35.1944 49.7102L35.1982 49.7158L35.2188 49.7337L35.2282 49.7393L35.2376 49.7515L35.2762 49.7807L35.2846 49.7929L35.2912 49.7985H35.2968L35.3062 49.8108L35.3156 49.8164L35.3269 49.8277L35.3335 49.8333L35.3457 49.8455L35.3551 49.8512L35.3636 49.8634L35.373 49.869L35.3824 49.8812H35.3852L35.3937 49.8869L35.4002 49.8991L35.4124 49.9047L35.4181 49.9104L35.4218 49.916L35.4303 49.9217L35.4397 49.9339L35.4491 49.9395L35.4576 49.9517L35.467 49.9574L35.4792 49.9687L35.497 49.9865L35.5036 49.9921L35.5064 49.9978L35.5158 50.0034L35.5337 50.0213L35.5365 50.0269H35.5393L35.5487 50.0382L35.5581 50.0438L35.5638 50.0561H35.5666L35.576 50.0617L35.5854 50.0739L35.5948 50.0796V50.0852L35.6032 50.0908L35.6126 50.0965L35.6183 50.1077L35.6249 50.1134L35.6371 50.119L35.6493 50.1369L35.6521 50.1425L35.6615 50.1482L35.6765 50.166H35.6794L35.6916 50.1782L35.7038 50.1961L35.7094 50.2017L35.716 50.2074L35.7311 50.2252H35.7339L35.7461 50.2374L35.7583 50.2553L35.7639 50.2609L35.7705 50.2666L35.7827 50.2788L35.7884 50.291L35.7978 50.2967L35.8128 50.3079L35.8185 50.3201L35.825 50.3258L35.8373 50.338L35.8429 50.3502L35.8495 50.3559L35.8617 50.3681L35.8701 50.3803L35.8739 50.3859L35.8889 50.3982L35.8946 50.4104L35.9012 50.416L35.9124 50.4282L35.9218 50.4395L35.9247 50.4451L35.9876 50.5232L35.9942 50.5288L35.9998 50.5344L36.0092 50.5523L36.0177 50.5579L36.0243 50.5636L36.0337 50.5805L36.0421 50.5927H36.0459L36.0572 50.6106L36.0666 50.6228L36.0788 50.6406L36.091 50.6529L36.1032 50.6707L36.1126 50.6829L36.1154 50.6886L36.1239 50.7008L36.1361 50.713V50.7186L36.1483 50.7309L36.1577 50.7431V50.7487L36.17 50.7609L36.1822 50.7779L36.1906 50.7901L36.2 50.8079H36.2029L36.2122 50.8258L36.2245 50.838V50.8436L36.2339 50.8559L36.2423 50.8681L36.2489 50.8737L36.2545 50.8859L36.2639 50.9038L36.2696 50.9094L36.2733 50.9151L36.2856 50.9329L36.2912 50.9386L36.294 50.9442L36.3034 50.9621L36.3128 50.9743H36.3156L36.3241 50.9912L36.3335 51.0034V51.0091L36.3429 51.0213L36.3523 51.0391L36.3636 51.057L36.3701 51.0692H36.388L37.3607 51.135L37.3833 51.1406H37.4049C39.6915 51.2544 42.2282 51.1115 44.4612 50.6162C46.1125 50.2525 47.4752 49.7393 48.3935 49.1312C48.4321 49.1077 48.4744 49.089 48.5157 49.0655C49.1689 48.6181 49.5354 48.1406 49.5354 47.6576C49.5354 47.4433 49.4556 47.229 49.3052 47.0081C49.183 46.8352 49.0167 46.6567 48.8108 46.4837C48.5684 46.635 48.3184 46.76 48.0561 46.8794ZM47.6445 51.2383H47.6417C47.4058 51.3398 47.1652 51.4291 46.9114 51.5184L46.903 51.5241C46.2498 51.7506 45.5346 51.9526 44.7705 52.1199C42.3467 52.6444 39.7978 52.7938 37.3242 52.6744H37.2734L37.2499 52.6688H37.1531L37.1296 52.6632H37.0591L37.0356 52.6575H36.9661L36.9426 52.6519H36.89C36.8994 52.7534 36.905 52.8605 36.905 52.962V52.9921L36.9022 53.0222V53.1105L36.8994 53.1406L36.8965 53.1697V53.2054L36.89 53.2656V53.2957L36.8843 53.3192L36.8806 53.3549L36.8778 53.3784V53.384L36.8749 53.4075L36.8721 53.4366L36.8655 53.4667L36.8627 53.4846L36.8599 53.4968L36.8571 53.5259L36.8505 53.556L36.8477 53.5851L36.8449 53.5908L36.8411 53.6143L36.8355 53.6434L36.8261 53.6735L36.8232 53.6913L36.8204 53.7036L36.8138 53.7327L36.8054 53.7628L36.7988 53.7919L36.7932 53.822L36.7838 53.8455L36.7744 53.8755L36.7715 53.8934C36.7424 53.9949 36.7086 54.0964 36.6738 54.197H36.67C36.592 54.4056 36.4943 54.6143 36.3749 54.8173C36.2856 54.9723 36.1832 55.1218 36.0714 55.2759L36.6428 55.3238L36.6785 55.3295H36.7509L36.78 55.3351H36.8167L36.8458 55.3407H36.9163L36.9464 55.3464H37.015L37.0441 55.352H37.0826L37.1118 55.3577H37.2161L37.2433 55.3633H37.3176L37.3467 55.3689H37.4153L37.4473 55.3746H37.5507L37.5836 55.3802H37.7217L37.7518 55.3858H37.8514C40.2076 55.3858 42.046 55.368 44.4433 54.8426C46.0975 54.4845 47.4573 53.9667 48.3783 53.3633C48.4169 53.3342 48.4592 53.3154 48.5005 53.2975C49.1537 52.8502 49.5202 52.3671 49.5202 51.885C49.5202 51.6707 49.4375 51.4498 49.2843 51.2289C49.1556 51.0438 48.9808 50.8652 48.7627 50.6857C48.4253 50.8859 48.0496 51.071 47.6445 51.2383ZM47.5825 55.4892L47.5374 55.5071L47.5251 55.5127L47.4659 55.5362L47.4302 55.5484L47.2094 55.6321L47.1614 55.6499L46.9114 55.7449H46.8992L46.8456 55.7637L46.7986 55.7815L46.7827 55.7872C46.5778 55.8586 46.3626 55.9244 46.1417 55.9902L46.1238 55.9958L45.8015 56.0851L45.778 56.0907L45.7056 56.1142H45.6887L45.2178 56.2392H45.2084L45.1333 56.2571L45.0947 56.2627L44.7667 56.3407L44.7282 56.3464L44.6868 56.3576L44.5195 56.3934L44.4782 56.399C42.4688 56.8163 39.935 57.0315 37.8504 56.9178H37.7414L37.7057 56.9121H37.5609L37.528 56.9065H37.4547L37.4218 56.9009H37.3091L37.2799 56.8952H37.2029L37.1737 56.8896H37.0967L37.0675 56.8839H36.9905L36.9613 56.8783H36.8871L36.8542 56.8727H36.8157L36.7837 56.867H36.748L36.716 56.8614H36.6418L36.6126 56.8557H36.5704L36.5412 56.8501C36.1897 56.8266 35.841 56.79 35.4924 56.7486H35.4566L35.436 56.743L35.4595 56.7721H35.4632L35.4754 56.7843L35.4867 56.7965L35.4933 56.8022L35.5234 56.8323H35.5262L35.5422 56.8492L35.5534 56.8614L35.5779 56.8858L35.5807 56.8915L35.5901 56.8971L35.6023 56.9093L35.6089 56.915L35.6145 56.9272L35.6268 56.9394L35.639 56.945V56.9507L35.654 56.9629L35.6662 56.9742H35.669L35.6784 56.9864L35.6907 57.0042H35.6935L35.7057 57.0165L35.7151 57.0287L35.7236 57.0343L35.7264 57.04L35.7508 57.0644L35.763 57.0822L35.7752 57.0945H35.7781L35.7875 57.1057L35.7969 57.118L35.8053 57.1236L35.8091 57.1292L35.8213 57.1471L35.8326 57.1593L35.8448 57.1715L35.857 57.1828V57.1884L35.8692 57.1941L35.8814 57.2119L35.8843 57.2176L35.8908 57.2232L35.9031 57.2354L35.9115 57.2467L35.9237 57.2589L35.936 57.2768L35.9482 57.289L35.9576 57.3012L35.9604 57.3069L35.9782 57.3304L35.9848 57.336L35.9905 57.3416L36.0093 57.3661L36.0215 57.3774L36.0328 57.3952L36.0516 57.4197L36.0572 57.4253L36.0638 57.4309L36.0722 57.4488L36.1051 57.4911L36.1108 57.5033L36.1324 57.5268L36.1418 57.539L36.1502 57.5512L36.154 57.5569L36.1625 57.5691L36.1719 57.5804L36.2132 57.6405L36.216 57.6462L36.232 57.6706L36.2376 57.6828L36.2527 57.7007L36.2621 57.7129L36.2828 57.7486L36.2922 57.7608L36.3251 57.8144L36.3279 57.82L36.3448 57.8445L36.3476 57.8501L36.3636 57.8792H36.3664L36.3833 57.9093L36.3984 57.9394L36.4049 57.945L36.4172 57.9685L36.4228 57.9741L36.435 57.9976L36.4407 58.0099L36.4529 58.0277L36.4594 58.0456L36.4717 58.0569L36.4773 58.0747L36.4867 58.0869L36.4961 58.1114L36.5017 58.1226L36.514 58.1405L36.5168 58.1527L36.5318 58.1762V58.1819L36.5469 58.211H36.5506L36.5628 58.2411L36.5779 58.2702L36.5929 58.3003L36.5957 58.3125L36.6051 58.336L36.6108 58.3482L36.6202 58.3661L36.6258 58.3783L36.6352 58.3952L36.6418 58.4131L36.6474 58.4253L36.6568 58.4497L36.6596 58.4553L36.6719 58.4788V58.4845L36.6841 58.5146V58.5202L36.7085 58.5803V58.586L36.7198 58.6095V58.6151L36.732 58.6452V58.6508L36.7442 58.6743L36.748 58.6865L36.7536 58.7044L36.7564 58.7223L36.763 58.7335L36.7687 58.758L36.7752 58.7702L36.7809 58.788V58.8003L36.7903 58.8238L36.7931 58.8294L36.7987 58.8595L36.8109 58.8952L36.8175 58.9253V58.9309L36.826 58.9544L36.8297 58.9666L36.8354 58.9911V59.0023L36.842 59.0202L36.8448 59.0324L36.8476 59.0559L36.8532 59.0681V59.086L36.8598 59.1038L36.8626 59.1161L36.8655 59.1395L36.8692 59.1518L36.872 59.1762L36.8749 59.1818L36.8777 59.211H36.8814L36.8843 59.2467L36.8899 59.2768V59.2824L36.8965 59.3125V59.3181L36.8993 59.3416L36.9021 59.3538V59.3717L36.9049 59.3895L36.9087 59.4074V59.4243L36.9115 59.4365L36.9143 59.461V59.4666L36.9172 59.4957V59.5014L36.9209 59.5315V59.5672H36.9557L36.9792 59.5728H37.0196L37.42 59.5973H37.4858L37.5036 59.6029H37.5271C39.8889 59.71 42.1567 59.5493 44.4773 59.0719C46.1314 58.7082 47.4932 58.195 48.4123 57.5869C48.4508 57.5634 48.4931 57.539 48.5345 57.5211C49.1876 57.0747 49.5542 56.5973 49.5542 56.1142C49.5542 55.8933 49.4715 55.6725 49.3183 55.4525C49.1895 55.274 49.0147 55.0888 48.7967 54.9159C48.4085 55.1198 48.0148 55.3107 47.5825 55.4892ZM47.6445 59.6865H47.6417L47.5853 59.71C46.762 60.0502 45.8109 60.3359 44.7676 60.569C42.3861 61.0878 39.8664 61.2372 37.4313 61.1291C37.2048 61.1169 36.9746 61.1056 36.7462 61.0878H36.7029L36.6794 61.0821H36.6437L36.6315 61.1113L36.6249 61.1291L36.6193 61.1348L36.6071 61.1648L36.5948 61.1883L36.5854 61.2184L36.5798 61.224L36.5742 61.2419C36.3439 61.7607 35.9952 62.2494 35.5385 62.7146C35.2584 62.9947 34.9398 63.2757 34.5789 63.5379L35.6371 63.6817C36.6503 63.7945 37.7396 63.8603 38.8684 63.8603C41.9331 63.8603 44.6945 63.4017 46.6756 62.6564C48.4321 62.0004 49.5204 61.1714 49.5204 60.3425C49.5204 60.1282 49.4377 59.9073 49.2845 59.6865C49.1557 59.5013 48.9837 59.3228 48.7629 59.1442C48.4255 59.335 48.0496 59.5192 47.6445 59.6865ZM30.467 28.3822C27.2114 27.1594 22.6927 26.4085 17.6871 26.4085C12.6814 26.4085 8.16176 27.1594 4.91175 28.3822C1.87973 29.5213 0.00473958 31.0052 0.00473958 32.5626C0.00473958 33.5043 0.689893 34.4225 1.90039 35.2515C1.94175 35.2694 1.98028 35.2872 2.01694 35.3173C8.68032 39.7599 26.4546 39.9385 33.3694 35.3051C33.4051 35.2816 33.4417 35.2637 33.4774 35.2449C34.6842 34.416 35.3694 33.5043 35.3694 32.5627C35.3694 31.0054 33.4953 29.5213 30.4662 28.3823L30.467 28.3822ZM32.6013 37.4807L32.5948 37.4863L32.5055 37.5286L32.4491 37.5521L32.1418 37.6949L32.1361 37.7006L32.0412 37.7419L31.981 37.7654L31.9453 37.7833L31.8504 37.8246L31.8232 37.8303L31.7545 37.8603L31.6653 37.9017H31.6559L31.5581 37.944L31.498 37.9675L31.4594 37.9853L31.3617 38.0211L31.3344 38.0333L31.2593 38.0634L31.1643 38.0991L31.1577 38.1047L31.0562 38.1404L30.997 38.1639L30.9519 38.1818L30.8476 38.2175L30.8363 38.2231L30.747 38.2588L30.669 38.2823L30.5346 38.3303L30.5046 38.3425L30.341 38.3961L30.3194 38.4017L30.0008 38.5088L29.9942 38.5145L29.8843 38.5502L29.8269 38.5681L29.6606 38.616L29.654 38.6216C22.5705 40.834 12.0583 40.7983 5.05038 38.4008L5.03346 38.3951L4.86617 38.3415L4.83891 38.3293L4.7017 38.2814L4.62745 38.2579L4.53817 38.2222L4.52313 38.2165L4.41881 38.1808L4.37746 38.163L4.31731 38.1395L4.21299 38.1038L4.20735 38.0981L4.11148 38.0624L4.04005 38.0323L4.0128 38.0201L3.9113 37.9844L3.87276 37.9666L3.81261 37.9431L3.71487 37.9008H3.70829L3.61619 37.8594L3.54758 37.8293L3.52032 37.8237L3.4254 37.7823L3.38968 37.7645L3.33048 37.741L3.23461 37.6996L3.23179 37.694L3.14251 37.6583L3.07672 37.6226L3.04946 37.6103L2.92352 37.5502L2.86432 37.5267L2.77503 37.4844L2.77221 37.4788C2.35492 37.2758 1.96394 37.0671 1.60023 36.8528C1.11716 37.2165 0.729937 37.6038 0.456448 37.9975C0.161329 38.4205 0.00344914 38.8622 0.00344914 39.3096C0.00344914 40.2635 0.707392 41.1883 1.94703 42.0286C1.98556 42.0408 2.02504 42.0643 2.05981 42.0887C2.99307 42.7034 4.19794 43.2635 5.61346 43.7344L5.69052 43.7644L5.71966 43.7701L5.83056 43.8114C12.7853 46.0708 22.5108 45.9693 29.4562 43.8349L29.5699 43.7983L29.5877 43.7926L29.6028 43.787L29.6845 43.7635L29.7146 43.7522L30.1732 43.5906H30.1883V43.5849H30.2033L30.2184 43.5793L30.2813 43.5549L30.2935 43.5492L30.5022 43.4712L30.5144 43.4656L30.5652 43.4477L30.6037 43.4355L30.6159 43.4299L30.8058 43.3528H30.8123C31.7785 42.9712 32.6187 42.5417 33.3134 42.0831L33.3369 42.0709L33.3463 42.0652H33.3491L33.3519 42.0596C34.0192 41.6132 34.5445 41.1414 34.8904 40.6526L34.9195 40.6103C35.1404 40.2889 35.2833 39.9609 35.3425 39.6329V39.6085L35.3462 39.6028L35.349 39.5906V39.5737L35.3547 39.5493V39.5258L35.3613 39.4901V39.4543L35.3641 39.4487L35.3669 39.3115C35.3669 38.8641 35.209 38.4224 34.9139 37.9995C34.6395 37.6066 34.2513 37.2185 33.7682 36.8548C33.4092 37.069 33.0192 37.2843 32.6019 37.4807L32.6013 37.4807ZM33.3645 48.8819L33.3739 48.8763H33.3767C33.7649 48.6075 34.107 48.3396 34.3898 48.0652C34.6558 47.802 34.8767 47.5342 35.0346 47.2597L35.0402 47.2541L35.0468 47.2428L35.0553 47.2306L35.0581 47.225L35.0675 47.2071H35.0703C35.169 47.0285 35.2442 46.849 35.2949 46.6761C35.3156 46.6047 35.3297 46.5332 35.3419 46.4675L35.3447 46.4552L35.3513 46.4073V46.3951L35.3569 46.3772V46.3537H35.3607V46.3302L35.3635 46.3246V46.2898L35.3663 46.2842V46.272L35.3692 46.2663V46.1846L35.372 46.1723V46.1197L35.3692 46.0962V46.0135L35.3635 45.9957V45.9543L35.3607 45.9308L35.3569 45.913L35.3541 45.8895L35.3513 45.8716L35.3485 45.8481L35.3447 45.8312L35.3391 45.8067V45.7889L35.3325 45.7654L35.3269 45.7475L35.324 45.7231L35.3212 45.7052C35.2348 45.366 35.0769 45.038 34.8616 44.757L34.8504 44.74L34.8344 44.7222L34.8193 44.7043L34.8071 44.6865L34.8043 44.6808H34.8015L34.778 44.6451L34.7601 44.6273L34.7301 44.5915L34.7009 44.5558V44.5502L34.606 44.443H34.6032L34.5524 44.3895V44.3838C34.3165 44.1338 34.0365 43.8829 33.7113 43.6442C33.1521 43.9778 32.5214 44.2936 31.8307 44.5925L31.7921 44.6103H31.7855L31.7414 44.6282L31.6963 44.6461L31.6493 44.6639L31.5121 44.7231L31.4998 44.7288L31.4228 44.7588L31.4021 44.7645L31.3748 44.7767L30.9989 44.9195V44.9252C23.6532 47.6798 11.7755 47.7043 4.37905 44.9252V44.9195L4.27472 44.8838L4.20893 44.8603L4.17322 44.8481L4.07453 44.8068L4.04258 44.7945L3.97679 44.7645L3.87529 44.7288L3.71082 44.6573L3.67886 44.6451L3.58394 44.6038L3.55104 44.5915L3.39315 44.5257V44.5201L3.29823 44.4844C2.70142 44.2156 2.15914 43.9355 1.66478 43.6442C1.16101 44.0201 0.757841 44.413 0.47213 44.819C0.167628 45.2485 0.00690929 45.6958 0.00690929 46.1488C0.00690929 47.1028 0.710852 48.0266 1.95049 48.8621C1.98902 48.8799 2.0285 48.8978 2.06327 48.9222C8.79523 53.3639 26.4119 53.4832 33.3147 48.9222L33.3645 48.8819ZM33.3617 55.7089C33.5788 55.566 33.7818 55.411 33.9782 55.2559L34.0055 55.2315L34.0149 55.2258C34.4679 54.8499 34.8222 54.457 35.0515 54.0576C35.2122 53.7832 35.3137 53.5031 35.3494 53.223L35.3551 53.2052L35.3588 53.1817V53.1694L35.3617 53.1525V53.1168L35.3645 53.1112V53.099L35.3673 53.0867V53.0162L35.3701 52.9984V52.9223H35.3673V52.8349L35.3617 52.7991V52.7757L35.3588 52.7634C35.3429 52.6149 35.3081 52.4599 35.2545 52.3048L35.2479 52.2992V52.2935L35.2188 52.2164V52.2108L35.2122 52.1986V52.193L35.2066 52.1873L35.2 52.1751L35.1944 52.1629V52.1516H35.1887L35.185 52.1337H35.1821L35.1793 52.1215L35.1727 52.1093L35.1699 52.1037L35.1643 52.0915L35.1577 52.0736L35.1549 52.068L35.1493 52.0557L35.1455 52.0501L35.1427 52.0445L35.1333 52.0266L35.1276 52.0153L35.122 52.0097L35.1182 52.004L35.1126 51.9918L35.1032 51.974V51.9683L35.0976 51.9561L35.091 51.9505L35.0882 51.9448L35.0788 51.927L35.0731 51.9148L35.0665 51.9091L35.0637 51.9035L35.0543 51.8856L35.0487 51.8744L35.043 51.8687L35.0365 51.8565L35.0308 51.8509V51.8452L35.0186 51.8274L35.012 51.8151L35.0064 51.8095L35.0036 51.8039L34.9942 51.786L34.9848 51.7738L34.982 51.7681L34.9763 51.7559L34.9669 51.7447H34.9641L34.9575 51.7324L34.9519 51.7268L34.9453 51.7146L34.9397 51.7024H34.9368L34.9152 51.6732L34.9096 51.6676L34.9058 51.6554L34.8974 51.6432L34.8852 51.6309V51.6253L34.8758 51.6131L34.8701 51.6074L34.8664 51.6018L34.8541 51.5896L34.8429 51.5717L34.8335 51.5595L34.8269 51.5473L34.8118 51.5294L34.7996 51.5172V51.5116L34.779 51.4881L34.7696 51.4768L34.7667 51.4712L34.7573 51.4589H34.7517L34.7216 51.4232V51.4176L34.6991 51.3885L34.6925 51.3828C34.4303 51.0727 34.0995 50.7682 33.7028 50.4768C33.2414 50.7512 32.731 51.0135 32.1775 51.2635L32.1624 51.2691L32.1324 51.286L31.9566 51.364L31.9115 51.3819L31.8796 51.3941L31.8673 51.3997L31.826 51.4166L31.7846 51.4345H31.7781L31.7339 51.4589L31.6888 51.4768L31.6418 51.4937L31.5967 51.5116L31.591 51.5172L31.5525 51.5294L31.5046 51.5473L31.4923 51.5595L31.4604 51.5717L31.4153 51.5896L31.3946 51.5952L31.3673 51.6074L31.3194 51.6244L31.2959 51.6366L31.2724 51.6422L31.2282 51.6601L31.1361 51.6958L31.0948 51.7136H31.0882L31.0412 51.7315L30.9933 51.7484L30.889 51.7907L30.8326 51.8086L30.6803 51.8621L30.6653 51.8678L30.576 51.9035L30.5008 51.927L30.4717 51.9392C23.4681 54.3714 13.0254 54.4251 5.8921 52.2606L5.87989 52.255L5.54531 52.1535H5.53967L5.21448 52.0454L5.19944 52.0398L5.10733 52.0106L5.03027 51.9862L5.00019 51.974L4.89587 51.9383L4.86674 51.926L4.78967 51.9025L4.58103 51.8245L4.53686 51.8067L4.47671 51.7888L4.37614 51.7465L4.27182 51.7108L4.20603 51.6807L4.17032 51.6695L4.07163 51.6337L4.03968 51.6215L3.97389 51.5924L3.87239 51.5501L3.7737 51.5144L3.71167 51.4843L3.67596 51.473L3.58104 51.4307L3.55096 51.4185L3.48517 51.3894L3.39025 51.3471L3.29532 51.3057L3.23235 51.2757L3.20322 51.2644C2.64496 51.0134 2.12993 50.7456 1.6619 50.4712C1.15813 50.8471 0.754959 51.2399 0.469248 51.6394C0.164746 52.0745 0.00402552 52.5219 0.00402552 52.9692C0.00402552 53.9232 0.70797 54.8536 1.94761 55.6883C1.98614 55.7061 2.02561 55.724 2.06039 55.7484C2.77843 56.2258 3.65905 56.6601 4.66655 57.0595L4.76712 57.0952L4.87144 57.1365L4.90997 57.1488L4.97576 57.1723C5.18441 57.2493 5.39681 57.3273 5.6139 57.3988L5.69097 57.4288L5.7201 57.4345L5.831 57.4702L5.8545 57.4824C12.5359 59.6469 22.1907 59.6525 28.9765 57.6497L29.0903 57.614L29.1824 57.5849L29.204 57.5792L29.5169 57.4833L29.5404 57.4711L29.6476 57.4354L29.6767 57.4298L29.7575 57.3997C30.0113 57.3161 30.2613 57.2268 30.5 57.1375L30.5122 57.1319L30.563 57.114L30.6015 57.0961L30.6137 57.0905C31.6626 56.6911 32.5723 56.2371 33.3111 55.7494L33.3617 55.7089ZM32.0976 63.2632C32.1267 63.2454 32.1606 63.2266 32.1925 63.2097C33.1436 62.7266 33.9068 62.2012 34.4556 61.6476C34.8851 61.2059 35.1774 60.7539 35.3024 60.2999V60.2943L35.309 60.2764L35.3146 60.252L35.3212 60.2275L35.3269 60.204L35.3297 60.1805L35.3363 60.157L35.3391 60.1514V60.1335L35.3447 60.1157L35.3513 60.08L35.3607 60.0085V59.9963L35.3663 59.9315L35.372 59.7886V59.7651L35.3691 59.7482V59.6655L35.3635 59.6411V59.5997L35.3607 59.5819L35.3569 59.5584L35.3541 59.5405L35.3513 59.517L35.3485 59.4992L35.3447 59.4757L35.3391 59.4578V59.4343L35.3325 59.4108L35.3269 59.393L35.324 59.3751V59.3695L35.3212 59.3516L35.3146 59.3281L35.309 59.3102L35.3024 59.2868L35.2968 59.2689L35.2902 59.2454L35.2846 59.2275L35.278 59.2106V59.205L35.2723 59.1871L35.2658 59.1627L35.2573 59.1458L35.2479 59.1223L35.2423 59.1044L35.2357 59.0809L35.2263 59.0631L35.2178 59.0452L35.2113 59.0217L35.199 58.9982L35.1934 58.9804L35.1812 58.9625L35.1755 58.939H35.1718L35.1633 58.9212L35.1539 58.8967L35.1445 58.8798L35.1323 58.8563L35.1238 58.8384H35.121L35.1116 58.815L35.1022 58.7971L35.09 58.7792V58.7736L35.0778 58.7557L35.0656 58.7388L35.0534 58.7144L35.0421 58.6965L35.0299 58.673L35.0176 58.6552L35.0054 58.6307L34.9932 58.6129L34.981 58.596V58.5903L34.9509 58.5546L34.9387 58.5311L34.9265 58.5133L34.9096 58.4898L34.8973 58.4729L34.8851 58.455L34.8701 58.4371L34.8278 58.3779L34.8128 58.3601L34.8005 58.3422H34.7977L34.7536 58.2886V58.283L34.7413 58.2651L34.6633 58.1759L34.6605 58.1702H34.6567L34.5787 58.0809L34.4932 57.9917L34.4904 57.986C34.2667 57.7529 34.0036 57.5274 33.7028 57.3065C33.3156 57.5387 32.8917 57.7595 32.4397 57.9738H32.4331L32.3917 57.9917L32.3504 58.0151H32.3476L32.3053 58.033L32.2639 58.0509L32.2555 58.0565L32.2197 58.0734L32.0882 58.1336L32.0694 58.1392L32.0459 58.1514L32.0008 58.1693L31.9735 58.1815L31.9566 58.1871L31.9115 58.2106L31.8795 58.2229L31.8673 58.2285L31.7846 58.2642H31.778L31.7339 58.2821L31.6887 58.3056L31.6418 58.3234L31.5966 58.3403H31.591L31.5525 58.3582L31.5045 58.376L31.4923 58.3817L31.4604 58.3939L31.4153 58.4174L31.3946 58.423L31.3673 58.4353L31.3194 58.4531L31.2959 58.4653L31.2724 58.471L31.2282 58.4879L31.1953 58.5001L31.1803 58.5057L31.1361 58.5236L31.0948 58.5415H31.0882L31.0412 58.5584L30.9933 58.5762L30.8889 58.6176L30.8326 58.6354L30.7846 58.6533C23.4124 61.3422 11.5997 61.3365 4.27063 58.5405L4.20484 58.5104L4.16912 58.4982L3.87025 58.3789L3.70954 58.3131L3.67382 58.3009L3.38717 58.1759C2.7556 57.9014 2.17667 57.6035 1.65787 57.2933C1.1541 57.6693 0.750933 58.0631 0.465222 58.4681C0.16072 58.9033 0 59.3507 0 59.7971C0 61.3535 1.87499 62.8385 4.90413 63.9765C11.9465 66.6118 23.4209 66.6183 30.4629 63.9765C31.055 63.7462 31.6011 63.5132 32.0992 63.2632L32.0976 63.2632ZM20.0263 24.9358C21.1654 24.9894 22.2706 25.0787 23.3383 25.2103V3.69158C23.3383 3.29214 23.6664 2.96416 24.0714 2.96416H103.431V0.000939839L20.027 0L20.0263 24.9358ZM104.181 4.42382H24.8022V25.4057C26.2034 25.62 27.5212 25.901 28.7278 26.229V8.34772C28.7278 7.94265 29.0558 7.61464 29.4608 7.61464H108.204V4.42478L104.181 4.42382ZM35.3548 29.4677C36.3473 30.4038 36.8961 31.4471 36.8961 32.5626C36.8961 33.6772 36.3473 34.727 35.3548 35.6632V36.1998C35.6706 36.4987 35.945 36.8135 36.1659 37.1303C36.4761 37.5767 36.6903 38.0419 36.804 38.525L37.4601 38.4836C37.9497 38.4601 38.4206 38.4479 38.8708 38.4479C42.1085 38.4479 45.0606 38.9489 47.209 39.7543C49.5783 40.6425 51.0491 41.9658 51.0491 43.493C51.0491 44.2505 50.6911 44.9535 50.0473 45.5794C50.239 45.7646 50.4054 45.9554 50.5454 46.1574C50.8734 46.6283 51.0501 47.1348 51.0501 47.6715C51.0501 47.7909 51.0379 47.9102 51.021 48.0352H101.082C101.262 46.0916 102.126 44.3444 103.435 43.0324C104.746 41.7204 106.497 40.8558 108.44 40.6772V21.5082C106.496 21.3353 104.746 20.465 103.438 19.1586C102.127 17.8466 101.262 16.0939 101.082 14.1558H42.7107C42.534 16.0938 41.6647 17.8466 40.3583 19.1521C39.0472 20.4641 37.2936 21.3344 35.3555 21.5074L35.3548 29.4677ZM108.956 9.08181H30.1892V26.6766C30.4673 26.7659 30.7324 26.8617 30.9946 26.9566C32.0914 27.3683 33.0632 27.8392 33.8893 28.3514L33.8864 20.8091C33.8864 20.404 34.2144 20.076 34.6195 20.076C36.4503 20.076 38.113 19.3251 39.3215 18.1202C40.5255 16.9163 41.2736 15.2527 41.2736 13.422C41.2736 13.0169 41.6016 12.6889 42.0067 12.6889H101.779C102.18 12.6889 102.512 13.0169 102.512 13.422C102.512 15.2519 103.26 16.9162 104.465 18.1202C105.671 19.3251 107.339 20.076 109.17 20.076C109.572 20.076 109.9 20.404 109.9 20.8091V41.3803C109.9 41.7797 109.572 42.1134 109.17 42.1134C107.339 42.1134 105.673 42.8587 104.465 44.0626C103.26 45.2731 102.512 46.9366 102.512 48.7675C102.512 49.167 102.18 49.5006 101.779 49.5006L50.2857 49.5015C50.2039 49.5908 50.1156 49.6867 50.0197 49.776C50.2161 49.9677 50.3862 50.1641 50.5263 50.3662C50.8665 50.8436 51.0451 51.3558 51.0451 51.8925C51.0451 52.3154 50.9342 52.7205 50.7227 53.103H113.591L113.592 9.08302L108.956 9.08181ZM72.4479 34.7321C72.8239 34.6484 73.1274 34.4698 73.3633 34.1954C73.5992 33.9209 73.7177 33.5986 73.7177 33.2236C73.7177 32.889 73.6162 32.6033 73.4188 32.3589C73.2224 32.1202 72.8972 31.9351 72.447 31.8044L72.4479 34.7321ZM71.3568 26.7661C71.0645 26.8732 70.8352 27.0405 70.665 27.2848C70.4921 27.5236 70.4094 27.7858 70.4094 28.0715C70.4094 28.3337 70.4865 28.5846 70.6425 28.8111C70.7966 29.032 71.0391 29.2162 71.3577 29.3544L71.3568 26.7661ZM71.3568 34.6127V31.482C70.385 31.202 69.6726 30.7838 69.2224 30.218C68.7685 29.6512 68.5429 28.9661 68.5429 28.1616C68.5429 27.3449 68.7995 26.6588 69.3117 26.1052C69.8239 25.5441 70.5043 25.2284 71.3568 25.1456V24.406H72.4479V25.1456C73.2402 25.2406 73.8755 25.5093 74.3502 25.9567C74.8182 26.4041 75.1199 26.9999 75.2505 27.7509L73.3483 27.9952C73.2327 27.405 72.931 27.0056 72.4479 26.7969V29.719C73.6491 30.0413 74.4686 30.4586 74.9047 30.9708C75.3398 31.4896 75.5541 32.1513 75.5541 32.9567C75.5541 33.8571 75.2834 34.6146 74.7355 35.2339C74.1829 35.8542 73.4263 36.2358 72.4489 36.3909V37.78H71.3577V36.4021C70.5025 36.3006 69.8042 35.9783 69.2647 35.4482C68.7281 34.9116 68.386 34.1597 68.2328 33.1889L70.1792 32.9558C70.259 33.3552 70.4094 33.6954 70.6293 33.9877C70.8502 34.2725 71.0918 34.4811 71.3568 34.6127ZM79.4534 23.5348C77.5211 21.6035 74.8471 20.4109 71.8923 20.4109C68.944 20.4109 66.2703 21.6035 64.338 23.5416C62.4067 25.4739 61.2083 28.1449 61.2083 31.0959C61.2083 34.0468 62.4066 36.718 64.338 38.6502C66.2703 40.5882 68.9443 41.7809 71.8923 41.7809C74.8471 41.7809 77.5211 40.5882 79.4534 38.6569C81.3848 36.719 82.5841 34.048 82.5841 31.0968C82.5841 28.144 81.3848 25.4664 79.4534 23.5348ZM55.0158 57.8178C54.6145 57.8178 54.2827 57.4897 54.2827 57.0847C54.2827 56.6796 54.6145 56.3516 55.0158 56.3516H100.532C100.935 56.3516 101.263 56.6796 101.263 57.0847C101.263 57.4897 100.935 57.8178 100.532 57.8178H55.0158ZM81.6645 62.0217C81.2622 62.0217 80.9314 61.6937 80.9314 61.2887C80.9314 60.8836 81.2622 60.5556 81.6645 60.5556H113.159C113.564 60.5556 113.892 60.8836 113.892 61.2887C113.892 61.6937 113.564 62.0217 113.159 62.0217H81.6645ZM116.383 62.0217C115.978 62.0217 115.65 61.6937 115.65 61.2887C115.65 60.8836 115.978 60.5556 116.383 60.5556H120.318C120.723 60.5556 121.051 60.8836 121.051 61.2887C121.051 61.6937 120.723 62.0217 120.318 62.0217H116.383ZM53.2209 61.8902C52.8158 61.8902 52.4878 61.5621 52.4878 61.1627C52.4878 60.7577 52.8158 60.4296 53.2209 60.4296H68.1429C68.5479 60.4296 68.8759 60.7577 68.8759 61.1627C68.8759 61.5622 68.5479 61.8902 68.1429 61.8902H53.2209ZM71.8899 18.8831C75.2593 18.8831 78.3147 20.2487 80.5243 22.4611L80.5422 22.4789C82.7461 24.6857 84.1078 27.7326 84.1078 31.0945C84.1078 34.4639 82.7394 37.5163 80.5299 39.7279L80.5092 39.7458C78.2997 41.9459 75.2536 43.3059 71.89 43.3059C68.5178 43.3059 65.4663 41.9403 63.2566 39.728C61.0452 37.5222 59.6787 34.4697 59.6787 31.0946C59.6787 27.7197 61.0442 24.667 63.2566 22.4602C65.4652 20.2488 68.5177 18.8831 71.8899 18.8831Z" fill="#D7CBAC"/>
</svg>
