<svg width="25" height="25" viewBox="0 0 25 25" fill="none" xmlns="http://www.w3.org/2000/svg">
<g clip-path="url(#clip0_270_1245)">
<path d="M12.5 0C19.375 0 25 5.625 25 12.5C25 19.375 19.375 25 12.5 25C5.625 25 0 19.375 0 12.5C0 5.625 5.625 0 12.5 0Z" fill="url(#paint0_linear_270_1245)"/>
<path d="M16.1719 4.6875H8.75C6.48437 4.6875 4.6875 6.5625 4.6875 8.90625V16.0938C4.6875 18.3594 6.48438 20.2344 8.82812 20.3125H16.25C18.5156 20.3125 20.3906 18.4375 20.3906 16.0938V8.90625C20.3125 6.5625 18.5156 4.6875 16.1719 4.6875ZM18.9063 16.0156C18.9063 17.5781 17.6562 18.9063 16.0156 18.9063H8.90625C7.34375 18.9063 6.01563 17.5781 6.09375 16.0156V8.98438C6.09375 7.42188 7.34375 6.09375 8.90625 6.09375H16.0156C17.5781 6.09375 18.9063 7.42188 18.9063 8.98438V16.0156Z" fill="white"/>
<path d="M12.5005 8.51515C10.313 8.43703 8.438 10.2339 8.438 12.4214C8.35988 14.6089 10.1568 16.4839 12.3443 16.4839C14.5318 16.4839 16.4068 14.7652 16.4068 12.5777V12.4995C16.4849 10.312 14.688 8.51515 12.5005 8.51515ZM12.5005 15.0777C11.0943 15.0777 9.92238 13.9839 9.84425 12.5777C9.84425 11.1714 10.938 9.99953 12.3443 9.9214C13.7505 9.84328 14.9224 11.0152 15.0005 12.4214V12.4995C15.0786 13.9058 13.9068 15.0777 12.5005 15.0777Z" fill="white"/>
<path d="M16.6406 7.34375C17.1094 7.34375 17.5 7.73438 17.5 8.28125C17.5 8.82813 17.1094 9.21875 16.6406 9.21875C16.1719 9.21875 15.7812 8.82813 15.7812 8.28125C15.7812 7.73438 16.1719 7.34375 16.6406 7.34375Z" fill="white"/>
</g>
<defs>
<linearGradient id="paint0_linear_270_1245" x1="6.24788" y1="23.3278" x2="18.75" y2="1.67359" gradientUnits="userSpaceOnUse">
<stop stop-color="#FEC053"/>
<stop offset="0.327" stop-color="#F2203E"/>
<stop offset="0.648" stop-color="#B729A8"/>
<stop offset="1" stop-color="#5342D6"/>
</linearGradient>
<clipPath id="clip0_270_1245">
<rect width="25" height="25" fill="white"/>
</clipPath>
</defs>
</svg>
