<svg width="30" height="27" viewBox="0 0 30 27" fill="none" xmlns="http://www.w3.org/2000/svg">
<path d="M24.0082 24.7507H27.3167V25.6357H24.0082V24.7507Z" fill="#B8A492"/>
<path d="M2.59131 24.7507H3.48787V25.6357H2.59131V24.7507Z" fill="#B8A492"/>
<path d="M3.9989 24.7507H4.89546V25.6357H3.9989V24.7507Z" fill="#B8A492"/>
<path d="M5.40649 24.7507H6.30305V25.6357H5.40649V24.7507Z" fill="#B8A492"/>
<path d="M27.8646 23.3862V9.37236C27.8646 8.75546 27.3459 8.25377 26.708 8.25377H23.3478L23.3475 4.08769C23.3475 3.59422 22.9323 3.19239 22.4229 3.19239H22.041L22.7928 1.70668L23.1768 2.74142L24.0372 2.44269L23.131 0L20.6068 0.87676L20.9155 1.7094L21.9564 1.34758L21.0232 3.19232H7.57667C7.06674 3.19232 6.65151 3.59414 6.65151 4.08763V8.2537H3.29057C2.65309 8.2537 2.13468 8.7554 2.13468 9.3723V23.3862H0V25.5792C0 26.3628 0.65827 27 1.46788 27H28.5321C29.3418 27 30 26.3627 30 25.5792L29.9995 23.3862L27.8646 23.3862ZM26.7078 9.13831C26.8414 9.13831 26.9501 9.24322 26.9501 9.37236L26.9503 23.3862H26.0967V10.5145C26.0967 10.182 25.8171 9.91156 25.4737 9.91156H23.3475V9.13854L26.7077 9.13877L26.7078 9.13831ZM11.9836 24.2704H18.0153V24.6112C18.0153 24.637 17.9936 24.658 17.9669 24.658H12.0316C12.0051 24.658 11.9831 24.6374 11.9831 24.6112V24.2704H11.9836ZM11.0698 23.3858H4.81663V10.7962H6.65158V20.4537C6.65158 20.9472 7.06704 21.349 7.57674 21.349H22.423C22.933 21.349 23.3477 20.947 23.3477 20.4537L23.3475 10.7962H25.1824V23.3858H11.0698ZM7.57638 4.0771L20.5707 4.08625L19.1602 6.87474L16.3684 4.86745L13.451 8.25319H13.3698L10.5549 7.01003L7.5721 10.2098L7.57638 4.0771ZM10.2127 8.69829V12.9521C9.20824 13.4056 8.44083 14.2664 8.13851 15.3159H7.56906L7.57142 11.5316L10.2127 8.69829ZM18.8718 15.3161H16.8998V6.35191L18.8718 7.76969V15.3161ZM7.56803 16.2007H7.99978C7.99907 16.237 7.99435 16.2724 7.99435 16.3088C7.99435 18.3508 9.7114 20.0127 11.8223 20.0127C13.9331 20.0127 15.6502 18.3511 15.6502 16.3088C15.6502 16.2724 15.6454 16.237 15.6447 16.2007H22.4324V20.4539C22.4324 20.4598 22.4277 20.4639 22.4223 20.4639L7.56507 20.4539L7.56803 16.2007ZM8.91432 16.2007C8.92613 15.8903 8.99061 15.5931 9.09855 15.3164C9.31585 14.7596 9.70766 14.2858 10.2122 13.9607C10.4876 13.7831 10.7965 13.6524 11.1264 13.5733C11.3499 13.5203 11.5823 13.4887 11.8223 13.4887C12.2807 13.4887 12.7125 13.5943 13.0988 13.7774C13.4486 13.9436 13.7587 14.1742 14.0131 14.4551C14.2406 14.707 14.4217 14.9975 14.546 15.3159C14.6539 15.5931 14.7184 15.8901 14.7302 16.2002C14.7318 16.2363 14.7363 16.272 14.7363 16.3083C14.7363 17.8628 13.429 19.1277 11.8227 19.1277C10.2163 19.1277 8.90905 17.8633 8.90905 16.3083C8.90858 16.2724 8.9126 16.237 8.91425 16.2007L8.91432 16.2007ZM15.985 15.3161H15.5065C15.2653 14.4793 14.7301 13.7617 14.0128 13.275V8.98254L14.6406 8.25341L15.9847 6.69299L15.985 15.3161ZM13.0988 12.8204C12.6984 12.6828 12.2705 12.6042 11.8222 12.6042C11.5841 12.6042 11.3527 12.6284 11.1264 12.6687V8.25367L13.0983 9.1069V12.8204L13.0988 12.8204ZM22.4326 15.3161H19.7859V7.64973L21.5883 4.08682L22.4327 4.0875L22.4326 15.3161ZM3.04848 9.37236C3.04848 9.24322 3.15642 9.13831 3.29034 9.13831H6.65128V9.91132H4.52513C4.18171 9.91132 3.90205 10.1817 3.90205 10.5143V23.386H3.04848V9.37236ZM29.0854 25.5793C29.0854 25.8748 28.837 26.1151 28.5316 26.1151H1.46734C1.16218 26.1151 0.913477 25.8753 0.913477 25.5793V24.2708H11.069V24.6116C11.069 25.1254 11.5007 25.5435 12.0312 25.5435H17.9666C18.4968 25.5435 18.9288 25.1256 18.9288 24.6116V24.2708H29.0843L29.0846 25.5793H29.0854Z" fill="#B8A492"/>
<path d="M10.3923 16.2014C10.5796 16.5278 10.9348 16.7518 11.3465 16.7518H12.3C12.3994 16.7518 12.4804 16.8302 12.4804 16.9264C12.4804 17.0231 12.3994 17.1017 12.3 17.1017H10.7086V17.986H11.3661V18.5097H12.2799V17.986H12.3C12.9037 17.986 13.3949 17.5106 13.3949 16.9264C13.3949 16.6455 13.2792 16.3913 13.094 16.2011C12.8942 15.9963 12.6129 15.8665 12.2997 15.8665L11.3462 15.8667C11.2463 15.8667 11.1658 15.7883 11.1658 15.6917C11.1658 15.595 11.2463 15.5164 11.3462 15.5164H12.9376V14.632H12.2801V14.1084H11.3663V14.632H11.3462C11.2713 14.632 11.1979 14.6394 11.1275 14.6531C10.7574 14.7262 10.4574 14.9813 10.3256 15.3166C10.2796 15.4336 10.2512 15.5591 10.2512 15.6917C10.2512 15.7257 10.2583 15.7575 10.2616 15.7909C10.2763 15.9388 10.3214 16.0771 10.3922 16.2014L10.3923 16.2014Z" fill="#B8A492"/>
<path d="M18.1208 17.3296H21.603V18.2146H18.1208V17.3296Z" fill="#B8A492"/>
<path d="M16.5374 18.7217H21.6031V19.606H16.5374V18.7217Z" fill="#B8A492"/>
<path d="M16.5374 17.3296H17.4339V18.2146H16.5374V17.3296Z" fill="#B8A492"/>
</svg>
