<svg width="25" height="25" viewBox="0 0 25 25" fill="none" xmlns="http://www.w3.org/2000/svg">
<g clip-path="url(#clip0_270_1271)">
<path d="M12.5 0C19.4025 0 25 5.5975 25 12.5C25 19.4025 19.4025 25 12.5 25C5.5975 25 0 19.4025 0 12.5C0 5.5975 5.5975 0 12.5 0Z" fill="#1DA1F2"/>
<path d="M9.60086 18.8498C15.4959 18.8498 18.7234 13.9648 18.7234 9.72732C18.7234 9.58982 18.7234 9.44982 18.7134 9.31232C19.3409 8.85732 19.8834 8.29732 20.3134 7.65232C19.7284 7.91232 19.1084 8.08232 18.4734 8.15732C19.1434 7.75732 19.6434 7.12732 19.8834 6.38482C19.2534 6.75732 18.5659 7.02232 17.8484 7.16232C16.6334 5.87232 14.6034 5.80982 13.3134 7.02232C12.4809 7.80482 12.1284 8.97232 12.3859 10.0848C9.80836 9.95482 7.40586 8.73732 5.77836 6.73482C4.92836 8.19982 5.36086 10.0723 6.77086 11.0148C6.26086 10.9998 5.76086 10.8623 5.31586 10.6148C5.31586 10.6273 5.31586 10.6423 5.31586 10.6548C5.31586 12.1798 6.39086 13.4948 7.88836 13.7973C7.41586 13.9248 6.92086 13.9448 6.44086 13.8523C6.86086 15.1573 8.06336 16.0523 9.43586 16.0798C8.30086 16.9723 6.89836 17.4573 5.45586 17.4548C5.20086 17.4548 4.94586 17.4398 4.69336 17.4073C6.15336 18.3498 7.86086 18.8498 9.60086 18.8473" fill="white"/>
</g>
<defs>
<clipPath id="clip0_270_1271">
<rect width="25" height="25" fill="white"/>
</clipPath>
</defs>
</svg>
