<svg width="28" height="25" viewBox="0 0 28 25" fill="none" xmlns="http://www.w3.org/2000/svg">
<path d="M11.1035 0H6.56183C6.21296 0 5.93 0.251783 5.93 0.561752V2.17142H4.62664C4.27778 2.17142 3.99482 2.4232 3.99482 2.73317V4.42414H3.09326C2.7444 4.42414 2.46144 4.67593 2.46144 4.98589L2.46122 23.8765H0.631822C0.282957 23.8765 0 24.1283 0 24.4382C0 24.7484 0.283189 25 0.631822 25H27.3682C27.717 25 28 24.7482 28 24.4382C28 24.1281 27.7168 23.8765 27.3682 23.8765H26.0003L25.9998 13.6181C25.9998 13.3739 25.8222 13.1576 25.5611 13.0832L24.2086 12.6964V10.09C24.2086 9.7798 23.9254 9.52822 23.5767 9.52822H21.9182V8.19309C21.9182 7.88291 21.635 7.63134 21.2863 7.63134C20.9375 7.63134 20.6545 7.88312 20.6545 8.19309V9.52822H18.996C18.6471 9.52822 18.3641 9.78 18.3641 10.09V11.025L17.3978 10.7489C17.2056 10.6941 16.9956 10.7243 16.8323 10.8299C16.6692 10.9357 16.5729 11.1046 16.5729 11.2839L16.5724 23.8768H15.2045L15.2043 4.98616C15.2043 4.67599 14.9211 4.42441 14.5725 4.42441H13.6709V2.73343C13.6709 2.42326 13.3878 2.17168 13.0391 2.17168H11.7358V0.562018C11.7353 0.251843 11.4526 0.000265783 11.1035 0.000265783L11.1035 0ZM7.19365 1.1235H10.4716V2.17122L7.19365 2.17141V1.1235ZM3.72509 14.5365V12.2893H13.9406V14.5365H3.72509ZM13.9406 15.66V17.9073H3.72509V15.66H13.9406ZM3.72509 19.0308H13.9406V21.2781H3.72509V19.0308ZM13.9406 11.1656H3.72509V8.91831H13.9406L13.9404 11.1656H13.9406ZM19.6276 11.3856V10.6516H22.945V12.3351L21.3981 11.8927L19.6276 11.3856ZM17.8361 12.0538L20.6025 12.8449L23.3831 13.641C23.385 13.6416 23.3872 13.6412 23.389 13.6418L24.7364 14.0272V23.8763H17.8365L17.8368 12.0534L17.8361 12.0538ZM3.72486 23.8767V22.4021H13.9404V23.8767H3.72486ZM13.9404 7.79509H3.72486V5.54783H13.9399V7.79509H13.9404ZM12.4065 4.42433H5.25841V3.29511H12.4065V4.42433Z" fill="#B8A492"/>
</svg>
