<svg width="32" height="32" viewBox="0 0 32 32" fill="none" xmlns="http://www.w3.org/2000/svg">
<path d="M26.8503 2.71002C27.4974 2.71002 28.1182 2.96694 28.5757 3.42453C29.0333 3.88212 29.2902 4.50288 29.2902 5.14996C29.2902 5.79705 29.0333 6.41785 28.5757 6.87539C28.1181 7.33298 27.4974 7.5899 26.8503 7.5899C26.2032 7.5899 25.5824 7.33298 25.1249 6.87539C24.6673 6.4178 24.4103 5.79705 24.4103 5.14996C24.413 4.50356 24.6708 3.88453 25.128 3.42762C25.5849 2.97048 26.2039 2.71265 26.8503 2.70996L26.8503 2.71002ZM26.8503 5.99996C27.0661 5.99728 27.2719 5.90978 27.4237 5.75621C27.5753 5.60286 27.6603 5.39572 27.6603 5.17987C27.6603 4.73255 27.2976 4.37004 26.8503 4.37004C26.6344 4.36178 26.4241 4.43924 26.265 4.58522C26.1058 4.7312 26.0108 4.9341 26.0003 5.14995C25.9918 5.37785 26.0786 5.59906 26.2398 5.76046C26.4012 5.92162 26.6224 6.00844 26.8503 5.99996Z" fill="#B8A492"/>
<path d="M5.14972 7.5896C4.50263 7.5896 3.88183 7.33268 3.42429 6.87509C2.9667 6.4175 2.70978 5.79675 2.70978 5.14966C2.70978 4.50257 2.96669 3.88177 3.42429 3.42423C3.88188 2.96664 4.50263 2.70972 5.14972 2.70972C5.7968 2.70972 6.4176 2.96664 6.87515 3.42423C7.33274 3.88182 7.58966 4.50257 7.58966 5.14966C7.58966 5.79675 7.33274 6.41755 6.87515 6.87509C6.41756 7.33268 5.7968 7.5896 5.14972 7.5896ZM5.14972 4.3396C4.7024 4.3396 4.33966 4.70233 4.33966 5.14966C4.33966 5.36551 4.42471 5.57243 4.57627 5.726C4.72805 5.87957 4.93386 5.96708 5.1497 5.96975C5.37224 5.97779 5.58876 5.89497 5.74901 5.74029C5.90928 5.5856 5.9999 5.37243 5.99968 5.14966C5.99722 4.92868 5.90548 4.71796 5.74544 4.56549C5.58539 4.41303 5.37071 4.33156 5.14972 4.3396Z" fill="#B8A492"/>
<path d="M4.34 23.86H6.51012V10.1C5.08109 10.4884 3.55412 10.2417 2.32018 9.42297C1.08624 8.60446 0.265491 7.29349 0.0677185 5.82589C-0.129822 4.35846 0.315039 2.87703 1.28846 1.76114C2.26189 0.645314 3.66926 0.00331429 5.15006 0H26.8501C28.6378 0.0787943 30.2572 1.07811 31.1291 2.64086C32.001 4.2036 32.001 6.10646 31.1291 7.6692C30.2572 9.23194 28.6378 10.2313 26.8501 10.3101C26.3893 10.3011 25.932 10.2306 25.49 10.1V23.86H27.6601V27.1201H32.0001V32H6.10352e-05V27.1201H4.34V23.86ZM8.14 23.86H9.76012V9.48972C9.76146 9.04173 9.54047 8.62206 9.17018 8.36983C8.88111 8.74461 8.54498 9.08074 8.17018 9.36983L8.14 23.86ZM14.64 23.86H17.3601V9.48972C17.3601 9.00378 17.101 8.55491 16.68 8.31206C16.2592 8.06898 15.7409 8.06898 15.3202 8.31206C14.8992 8.55491 14.6401 9.00377 14.6401 9.48972L14.64 23.86ZM16.0001 6.51029C16.7958 6.51029 17.5587 6.82635 18.1215 7.38886C18.684 7.95158 19.0001 8.71451 19.0001 9.51029V23.86H20.6101V9.48972C20.6242 8.47857 21.1467 7.5424 22.0001 6.99977C21.8746 6.67701 21.784 6.34171 21.73 5.99977H10.2403C10.1961 6.34062 10.1155 6.67589 10.0003 6.99977C10.8771 7.54285 11.4133 8.49846 11.4204 9.52966V23.8599H13.0003V9.48966C13.0057 8.69749 13.324 7.93966 13.886 7.38137C14.4481 6.82289 15.2081 6.50971 16.0003 6.50971L16.0001 6.51029ZM30.3703 5.15023C30.3677 4.21743 29.996 3.32366 29.3364 2.66406C28.6768 2.00446 27.783 1.6328 26.8502 1.63011H5.15023C4.21338 1.63011 3.31498 2.00266 2.65292 2.66537C1.99086 3.32809 1.61943 4.22674 1.62035 5.1636C1.62124 6.10046 1.99446 6.9984 2.6576 7.65983C3.32098 8.32143 4.22012 8.69194 5.15692 8.69017C6.09377 8.68839 6.99132 8.31428 7.65223 7.65046C8.31292 6.9864 8.6828 6.08709 8.68012 5.15023V4.34017H23.3201V5.15023C23.1878 6.15783 23.4962 7.17366 24.1665 7.93749C24.8368 8.70154 25.8038 9.13949 26.8201 9.13949C27.8364 9.13949 28.8034 8.70154 29.4735 7.93749C30.1438 7.17366 30.4523 6.15777 30.3201 5.15023H30.3703ZM23.8601 9.33011C23.4851 9.04127 23.1489 8.70509 22.8601 8.33011C22.4897 8.58257 22.2685 9.002 22.2701 9.45023V23.8605H23.8601V9.33011ZM26 25.4901H6V27.12L26 27.1202V25.4901ZM1.6 28.7502V30.3703H30.3703V28.7502H1.6Z" fill="#B8A492"/>
</svg>
