<svg width="121" height="100" viewBox="0 0 121 100" fill="none" xmlns="http://www.w3.org/2000/svg">
<path d="M52.8168 75.0493C49.8711 74.01 50.0826 70.6288 50.2554 67.3574C50.3761 65.3635 50.4889 63.3051 49.676 62.7406C48.2071 61.9559 46.5784 61.5185 44.9134 61.4614C44.8238 61.4709 44.7332 61.4603 44.6483 61.4304C44.5634 61.4004 44.4863 61.3519 44.4225 61.2882C44.4225 61.2882 44.4999 61.0687 44.6556 61.0619C46.5561 61.1265 48.4139 61.6341 50.0825 62.5446C51.1392 63.2877 51.1073 64.9427 50.9469 67.5705C50.7865 70.1984 50.597 73.865 52.9426 74.6926C55.6701 75.6549 58.6869 69.1905 61.636 62.9182C65.1589 55.3672 69.1315 46.8024 74.4407 45.8369C74.6284 45.8418 74.8097 45.9057 74.9589 46.0197C74.9589 46.0197 75.0178 46.2874 74.8621 46.2941C69.7649 47.1802 65.8214 55.6627 62.3179 63.1588C58.5081 71.349 56.0625 76.1945 52.8168 75.0493Z" fill="#C4B28C"/>
<path d="M42.4236 72.6554C41.5153 87.2074 31.5613 99.1135 20.2069 99.1135C8.85247 99.1135 0.37452 87.3208 1.28287 72.6554C2.19122 57.99 12.1452 46.1973 23.5375 46.1973C34.9297 46.1973 43.332 58.1412 42.4236 72.6554Z" fill="#D7CAAA"/>
<g style="mix-blend-mode:multiply" opacity="0.4">
<path d="M23.4996 46.3486C12.1452 46.3486 2.15338 58.1414 1.24503 72.8068C0.336679 87.4721 8.81463 99.2649 20.169 99.2649C31.5234 99.2649 41.4774 87.4721 42.3858 72.8068C43.2941 58.1414 34.854 46.3486 23.4996 46.3486ZM25.1271 94.0111C17.1412 94.0111 11.2369 85.8468 11.8425 75.755C12.448 65.6631 19.4121 57.4611 27.398 57.4611C35.3839 57.4611 41.2882 65.6631 40.6448 75.755C40.0014 85.8468 33.0752 94.0111 25.1271 94.0111Z" fill="#D7CAAA"/>
</g>
<g style="mix-blend-mode:multiply" opacity="0.3">
<path d="M6.6194 61.2029C7.86348 60.9399 9.13259 60.8131 10.4042 60.825C13.2942 60.8433 16.1696 61.2371 18.9578 61.9967L31.0692 65.2851L18.9578 61.7321L17.8603 61.5053L16.4977 61.3163C16.4977 61.3163 16.2328 61.3163 16.2706 61.3163C14.2947 60.8604 12.2795 60.5947 10.2528 60.5226C8.98425 60.4964 7.71627 60.5977 6.46801 60.825C6.16522 60.825 5.97598 61.0518 6.01383 61.2029C6.05168 61.3541 6.35446 61.2407 6.6194 61.2029Z" fill="#D7CAAA"/>
<path d="M16.5356 61.3165L17.8981 61.5055H18.5415C19.9471 61.5461 21.3534 61.4575 22.7427 61.2409L27.0952 60.5983C27.7507 60.5605 28.4078 60.5605 29.0633 60.5983C28.3953 60.5558 27.7253 60.5558 27.0573 60.5983C25.884 60.5983 24.2944 60.9385 22.7427 61.1653C21.3004 61.3649 19.8462 61.466 18.3901 61.4677C17.7283 61.4557 17.0692 61.3797 16.4221 61.2409C16.4221 61.2409 16.3842 61.2787 16.5356 61.3165Z" fill="#D7CAAA"/>
<path d="M36.9735 60.9007C35.3037 61.5227 33.5612 61.9291 31.7883 62.1102C33.5787 62.0243 35.3488 61.6937 37.0492 61.1275C38.23 60.7639 39.3712 60.2827 40.4555 59.6912C40.4711 59.553 40.4711 59.4135 40.4555 59.2754C39.3437 59.9159 38.1787 60.4597 36.9735 60.9007Z" fill="#D7CAAA"/>
<path d="M37.2763 71.3709C37.3372 71.3476 37.4046 71.3476 37.4655 71.3709C37.4655 71.3709 37.4655 71.3709 37.2763 71.3709H36.1408L34.4377 71.6732C31.3522 72.0964 28.2415 72.311 25.1271 72.3158C28.2483 72.4099 31.3722 72.2836 34.4755 71.9378C36.6251 71.6935 38.7515 71.2763 40.834 70.6905L42.3479 70.1992V69.9346L40.6826 70.5393C39.5618 70.8734 38.425 71.1509 37.2763 71.3709Z" fill="#D7CAAA"/>
<path d="M37.3141 71.635H37.5034C37.4425 71.6117 37.3751 71.6117 37.3141 71.635C35.9713 71.6007 34.6317 71.4871 33.3023 71.2948C32.0192 71.0897 30.7539 70.7865 29.5175 70.3877C30.7431 70.8672 32.0099 71.2341 33.3023 71.4838C34.2784 71.6649 35.264 71.7911 36.2544 71.8618L37.3141 71.635Z" fill="#D7CAAA"/>
<path d="M3.81865 73.4492C3.59157 73.4492 3.32663 73.4492 3.25093 73.4492C3.17524 73.4492 3.25093 73.7894 3.55372 73.9406C6.97431 76.1399 10.715 77.7974 14.6432 78.8542C18.5308 79.8353 22.5183 80.3679 26.5274 80.4417C22.4809 80.2773 18.4672 79.6431 14.5675 78.5519C10.7527 77.3884 7.13069 75.669 3.81865 73.4492Z" fill="#D7CAAA"/>
<path d="M11.1233 74.2812C12.8954 74.0537 14.6354 73.6224 16.3084 72.9961C14.6271 73.5418 12.8863 73.8844 11.1233 74.0166C9.36384 74.1141 7.59902 74.0126 5.8624 73.7142C5.8624 73.7142 5.63531 73.7142 5.59746 73.941C5.59285 74.005 5.60869 74.0687 5.6427 74.123C5.67672 74.1774 5.72714 74.2195 5.7867 74.2434C7.55789 74.4654 9.34911 74.4781 11.1233 74.2812Z" fill="#D7CAAA"/>
<path d="M18.9579 84.8262C19.7477 85.1213 20.5571 85.3612 21.3802 85.5443C23.1869 85.932 25.0223 86.1721 26.8681 86.2625C28.7205 86.2526 30.5689 86.0882 32.3939 85.7711C33.1649 85.5785 33.9233 85.3386 34.6648 85.053L32.1668 85.3553C30.3529 85.4972 28.5306 85.4972 26.7167 85.3553C24.9076 85.3881 23.0986 85.2871 21.3045 85.053L18.9579 84.8262Z" fill="#D7CAAA"/>
<path d="M17.4817 69.0276C15.6737 68.7839 13.8888 68.3921 12.1452 67.8558L9.76074 67.1377C10.4964 67.5343 11.2547 67.8877 12.0316 68.196C13.7662 68.8353 15.5512 69.3284 17.3682 69.6701C19.1467 69.9477 20.9427 70.0993 22.7426 70.1237C23.5743 70.181 24.4089 70.181 25.2406 70.1237L22.7426 69.9347C20.9712 69.7458 19.214 69.4427 17.4817 69.0276Z" fill="#D7CAAA"/>
<path d="M29.3282 67.2504C29.7721 67.3929 30.2282 67.4941 30.6908 67.5528C31.7101 67.6549 32.7371 67.6549 33.7565 67.5528C34.7662 67.4141 35.7566 67.1605 36.7086 66.7969C37.125 66.6323 37.5191 66.4165 37.8819 66.1543C36.5179 66.6453 35.0903 66.9381 33.6429 67.0236C32.6608 67.1115 31.6729 67.1115 30.6908 67.0236L29.3282 67.2504Z" fill="#D7CAAA"/>
<path d="M37.8818 80.7066C38.4117 80.7066 38.7523 80.7066 38.7145 80.5176C38.1482 80.7465 37.5461 80.8744 36.9356 80.8955L34.1727 81.6515C32.3835 82.0662 30.5583 82.3067 28.7226 82.3696C27.8781 82.4214 27.0312 82.4214 26.1868 82.3696C27.0311 82.4257 27.8782 82.4257 28.7226 82.3696C30.5776 82.3772 32.4287 82.1999 34.2484 81.8405C36.0668 81.4711 37.8517 80.9528 39.585 80.2908C40.091 80.0813 40.5839 79.8414 41.061 79.5726L41.2881 78.8545C40.6861 79.2453 40.0532 79.5866 39.3957 79.875C38.9095 80.1844 38.4038 80.4622 37.8818 80.7066Z" fill="#D7CAAA"/>
<path d="M38.7902 80.6689C38.7902 80.6689 38.4874 80.6689 37.9575 80.8579C37.0226 81.041 36.0716 81.1297 35.1189 81.1225C33.2644 81.1225 31.3341 81.1225 31.3341 81.1225C32.5905 81.2644 33.8546 81.3275 35.1189 81.3115C35.7862 81.3706 36.4575 81.3706 37.1248 81.3115C37.7354 81.2904 38.3374 81.1624 38.9037 80.9335L38.7902 80.6689Z" fill="#D7CAAA"/>
<path d="M16.6869 91.7054C14.089 91.3603 11.5455 90.6872 9.11735 89.7021C8.92811 89.7021 8.73887 89.7021 8.70102 89.7021C8.66317 89.7021 8.70102 90.0045 8.92811 90.0423L10.9341 90.7227C12.7116 91.2455 14.5376 91.5874 16.3842 91.7432C19.0226 91.9943 21.6829 91.8926 24.2944 91.4408C21.7796 91.8459 19.2239 91.9348 16.6869 91.7054Z" fill="#D7CAAA"/>
<path d="M16.1949 86.5651C13.6353 85.9225 11.168 84.9572 8.85243 83.6925C6.56905 82.4004 4.45811 80.8257 2.56967 79.0056C2.51344 78.9525 2.43894 78.9229 2.36151 78.9229C2.28407 78.9229 2.20957 78.9525 2.15334 79.0056C2.1001 79.0618 2.07043 79.1362 2.07043 79.2135C2.07043 79.2909 2.1001 79.3653 2.15334 79.4214C4.14638 81.1964 6.35972 82.7081 8.73889 83.9193C11.0955 85.128 13.603 86.0178 16.1949 86.5651Z" fill="#D7CAAA"/>
<path d="M11.0854 90.8359C11.0613 90.8572 11.0419 90.8834 11.0287 90.9127C11.0154 90.942 11.0085 90.9739 11.0085 91.006C11.0085 91.0382 11.0154 91.07 11.0287 91.0993C11.0419 91.1287 11.0613 91.1548 11.0854 91.1761C12.3105 92.3087 13.6707 93.2862 15.1352 94.0865C16.5827 94.8645 18.1209 95.4612 19.7148 95.863C18.1474 95.3861 16.6468 94.713 15.2487 93.8597C13.8648 93.0445 12.5926 92.0535 11.4639 90.9115L11.0854 90.8359Z" fill="#D7CAAA"/>
<path d="M25.5055 89.702C27.6801 89.7094 29.8534 89.5958 32.0153 89.3618C34.097 89.135 35.9894 88.8326 37.2384 88.4925C37.3642 88.2823 37.5032 88.0803 37.6547 87.8877C36.5571 88.1901 34.3241 88.7192 31.9775 89.0972C29.8346 89.4309 27.6732 89.6328 25.5055 89.702Z" fill="#D7CAAA"/>
<path d="M24.2944 96.3923C26.0302 96.488 27.7713 96.3738 29.4796 96.0521H29.7445L30.8043 95.334L29.4039 95.7498C27.7315 96.1614 26.0168 96.377 24.2944 96.3923Z" fill="#D7CAAA"/>
</g>
<path d="M27.9657 46.2353C25.4595 45.2478 22.7875 44.7475 20.0933 44.7612C16.3085 44.9502 15.7786 45.9707 12.1074 48.5409C12.8137 47.9143 13.3581 47.1266 13.6942 46.2448C14.0302 45.363 14.1481 44.4131 14.0376 43.4761C14.0376 38.1467 10.2528 31.9479 9.00385 23.9727H5.21905C6.50588 31.2297 9.45802 34.1401 11.0855 41.624C12.6373 47.8984 3.81867 50.6576 0.866531 58.973C-1.10156 64.9072 0.866531 70.0098 1.09362 75.6794C0.986368 79.709 1.58846 83.7261 2.87247 87.5478C5.48398 94.1623 10.4421 97.4507 12.5237 95.1072C14.6053 92.7638 10.1393 87.5478 9.0417 84.7886C7.9441 82.0294 8.81461 82.7853 8.13334 78.4008C7.45208 74.0163 5.93816 72.8446 7.60347 66.6836C9.26878 60.5227 11.1233 61.203 13.9619 59.6533C16.8005 58.1036 19.1471 55.0421 23.1211 54.8153C27.0952 54.5885 27.9657 55.9114 30.6907 56.5539C33.4158 57.1965 37.3898 56.7429 37.3141 52.7742C37.0871 47.8984 31.2585 46.9156 27.9657 46.2353Z" fill="#D7CAAA"/>
<g style="mix-blend-mode:multiply" opacity="0.5">
<path d="M37.2006 52.8492C37.2217 52.5346 37.2217 52.2189 37.2006 51.9043C37.2974 52.7398 37.0623 53.58 36.5457 54.2443C36.0291 54.9086 35.2723 55.3441 34.4377 55.4572C31.2963 55.9864 28.9876 54.1343 27.5115 53.9832C26.0355 53.832 23.1969 52.5091 21.3801 53.1516C19.5634 53.7942 18.9579 54.8147 16.4599 56.629C13.9619 58.4432 10.5178 58.5944 9.34449 60.1063C7.39697 63.3915 6.11126 67.0252 5.55969 70.803C5.74893 73.1086 6.88437 76.2458 7.225 78.3624C7.56564 80.4791 6.73298 81.1594 7.225 83.9564C7.71703 86.7534 13.3185 93.8971 11.3883 94.8799C9.45803 95.8626 6.77083 93.4436 6.24096 92.99C8.66323 95.7114 11.3126 96.7697 12.5994 95.2578C14.6811 92.9522 10.215 87.6984 9.1174 84.9392C8.01981 82.18 8.89032 82.9359 8.20905 78.5514C7.52779 74.1669 5.93817 72.844 7.60348 66.6831C9.26879 60.5221 11.1233 61.2024 13.9619 59.6528C16.8005 58.1031 19.1471 55.0415 23.1212 54.8147C27.0952 54.5879 27.9657 55.9108 30.6908 56.5534C33.4158 57.1959 37.2763 56.7424 37.2006 52.8492Z" fill="#D7CAAA"/>
</g>
<g style="mix-blend-mode:screen" opacity="0.3">
<path d="M35.9516 69.9335C36.0211 72.2486 35.2332 74.508 33.7388 76.2794C32.2445 78.0507 30.1485 79.2095 27.8521 79.534C23.6889 79.534 20.5853 75.2251 20.926 69.9335C20.8649 67.6105 21.6598 65.3459 23.1597 63.5693C24.6596 61.7927 26.7603 60.6277 29.0633 60.2952C33.1887 60.1818 36.2922 64.4907 35.9516 69.9335Z" fill="#D7CAAA"/>
</g>
<g style="mix-blend-mode:screen" opacity="0.4">
<path d="M30.3123 53.0759C27.8143 52.3578 26.0733 50.5813 26.5275 49.2962C26.9817 48.0111 29.1768 47.2551 31.6748 47.9733C34.1728 48.6914 35.9138 50.4301 35.4596 51.753C35.0054 53.0759 32.9238 53.7941 30.3123 53.0759Z" fill="#D7CAAA"/>
</g>
<g style="mix-blend-mode:screen" opacity="0.3">
<path d="M20.4718 50.0145C18.5037 50.2034 16.687 49.4475 16.687 48.3136C16.687 47.1797 17.9738 46.1591 19.9419 45.9323C21.91 45.7056 23.7267 46.4993 23.7267 47.6332C23.7267 48.7671 22.4399 49.8255 20.4718 50.0145Z" fill="#D7CAAA"/>
</g>
<g style="mix-blend-mode:multiply" opacity="0.5">
<path d="M9.0038 24.0098H7.60342C7.95042 26.49 8.57242 28.9239 9.45797 31.2669C10.707 35.0466 13.8862 39.9224 13.2428 44.4203C12.5994 48.9182 9.68506 49.7497 8.1333 51.9798C6.9744 54.0134 6.01127 56.1523 5.25685 58.3675C3.51633 60.9042 2.46043 63.8464 2.19116 66.9097C2.34074 70.562 2.74543 74.1994 3.4023 77.7954C3.56345 80.5653 3.93032 83.3195 4.49989 86.0352C5.18115 88.87 6.69507 90.4197 7.37634 89.8149C8.0576 89.2102 6.27874 87.9628 5.37039 84.6745C4.70504 82.0786 4.33682 79.4158 4.2728 76.737C3.71107 73.3211 3.34461 69.8759 3.17521 66.4184C3.50117 63.4381 4.52549 60.5764 6.1652 58.0652C7.6436 54.3188 9.8863 50.9207 12.7507 48.0867L12.94 47.7843L12.4101 48.2001C12.9929 47.5671 13.4383 46.8207 13.7183 46.0076C13.9984 45.1945 14.1071 44.3324 14.0376 43.4754C13.9997 38.1838 10.2906 32.1362 9.0038 24.0098Z" fill="#D7CAAA"/>
</g>
<path d="M35.8759 58.3301L39.6607 62.639L44.1646 60.1821L42.6507 54.8149C42.31 53.681 39.6228 54.6259 38.4874 55.2307C37.3519 55.8354 35.1189 57.4607 35.8759 58.3301Z" fill="#AD9C79"/>
<path d="M30.3501 68.3839L40.077 63.2813L39.8878 62.9033L30.2366 68.195L30.3501 68.3839Z" fill="#EFE8DC"/>
<path d="M43.8619 59.0479L38.9038 61.7693L39.6986 62.6386L44.2025 60.1818L43.8619 59.0479Z" fill="#C4B28C"/>
<path d="M41.6666 69.1022L40.1149 63.5838L44.6566 61.127L48.4414 65.4358C49.2362 66.343 46.9654 68.0817 45.8299 68.6864C44.6945 69.2912 42.083 70.2739 41.6666 69.1022Z" fill="#AD9C79"/>
<path d="M45.5271 62.0341L40.5312 64.7555L40.1906 63.5838L44.7323 61.127L45.5271 62.0341Z" fill="#C4B28C"/>
<path d="M38.7145 55.0039H38.4874C37.3519 55.6465 35.1189 57.3851 35.8759 58.2545L39.6607 62.5634L40.0013 62.3744L36.2165 58.1411C35.6488 57.3851 37.5412 55.6843 38.7145 55.0039Z" fill="#C4B28C"/>
<path d="M42.0073 68.8373L40.569 63.3945L40.1906 63.5835L41.6666 69.1019C42.0073 70.2736 44.6945 69.3287 45.8299 68.6862H46.057C44.8837 69.1775 42.2722 69.9335 42.0073 68.8373Z" fill="#C4B28C"/>
<path d="M39.1309 63.5841C39.0357 63.3927 39.0181 63.172 39.0815 62.9679C39.1449 62.7638 39.2846 62.592 39.4715 62.488L44.2025 59.9178C44.3942 59.8227 44.6151 59.8051 44.8195 59.8684C45.0239 59.9318 45.196 60.0712 45.3001 60.2579C45.3952 60.4493 45.4129 60.67 45.3495 60.8741C45.2861 61.0782 45.1464 61.2501 44.9595 61.354L40.2285 63.9243C40.0368 64.0193 39.8159 64.0369 39.6115 63.9736C39.4071 63.9103 39.235 63.7708 39.1309 63.5841Z" fill="#AD9C79"/>
<path d="M39.7743 63.2436C39.6792 63.0522 39.6615 62.8315 39.7249 62.6274C39.7883 62.4233 39.928 62.2515 40.1149 62.1475L39.4715 62.4876C39.2846 62.5916 39.1449 62.7635 39.0815 62.9676C39.0181 63.1717 39.0357 63.3923 39.1309 63.5838C39.235 63.7704 39.4071 63.9099 39.6115 63.9733C39.8159 64.0366 40.0368 64.0189 40.2285 63.9239L40.9097 63.546C40.7189 63.6558 40.4923 63.6856 40.2795 63.6289C40.0667 63.5723 39.885 63.4337 39.7743 63.2436Z" fill="#C4B28C"/>
<path opacity="0.4" d="M79.8845 41.8421L74.775 46.8313L73.2611 45.3194L78.257 40.2168L79.8845 41.8421Z" fill="#F2EBF2"/>
<path d="M113.002 0L112.699 0.264581L113.229 1.13392C114.494 1.70246 115.628 2.52603 116.559 3.55295C117.594 4.49191 118.42 5.63812 118.981 6.91691L119.89 7.44607L120.268 7.18149C119.588 5.56227 118.554 4.11575 117.24 2.94819C116.059 1.66882 114.613 0.662623 113.002 0Z" fill="#E9E4D6"/>
<path opacity="0.4" d="M114.061 14.8917L84.2371 44.676C82.3086 43.7338 80.5652 42.4536 79.0897 40.8963C77.5303 39.4228 76.2484 37.6817 75.3049 35.7559L105.129 6.08496C107.069 6.99015 108.806 8.27552 110.239 9.86469C111.844 11.2615 113.145 12.9725 114.061 14.8917Z" fill="#F2EBF2"/>
<path d="M84.237 44.6766L87.0756 41.8418L78.4084 33.1484L75.5698 36.021C76.4047 37.9204 77.6 39.6404 79.0897 41.0859C80.5678 42.591 82.3132 43.8086 84.237 44.6766Z" fill="#D7CAAA"/>
<path d="M119.019 6.91707L87.3784 38.5156L81.5876 32.7704L113.229 1.17188C114.462 1.73993 115.569 2.54969 116.483 3.55311C117.55 4.48992 118.413 5.63472 119.019 6.91707Z" fill="#EFEBE4"/>
<g style="mix-blend-mode:multiply" opacity="0.8">
<path d="M84.7668 35.945L87.3784 38.5152L88.0218 37.8727L86.2051 36.0962L116.748 5.59375C117.531 5.93805 118.258 6.39663 118.906 6.95445C118.375 5.83449 117.658 4.81217 116.786 3.93066L84.7668 35.945Z" fill="#D7CAAA"/>
</g>
<g style="mix-blend-mode:multiply">
<path d="M84.2749 35.4163L81.5876 32.7704L82.4203 32.1279L84.237 33.9422L114.629 3.40192C114.252 2.60579 113.782 1.85719 113.229 1.17188C114.435 1.70348 115.538 2.44586 116.483 3.36412L84.2749 35.4163Z" fill="#E7DFCD"/>
</g>
<path d="M116.55 3.21579L84.2745 35.4482L84.7563 35.9293L117.032 3.69687L116.55 3.21579Z" fill="#C4B28D"/>
<path d="M80.412 30.8497L78.1639 33.0947L86.9956 41.9146L89.2436 39.6695L80.412 30.8497Z" fill="#AB9270"/>
<g style="mix-blend-mode:multiply" opacity="0.3">
<path d="M79.8258 31.4017L78.7281 32.4971L87.5567 41.32L88.6544 40.2246L79.8258 31.4017Z" fill="#D7CAAA"/>
</g>
<path d="M84.2369 44.8651C82.3152 43.8936 80.564 42.6171 79.0518 41.0854C77.4818 39.5921 76.199 37.8243 75.267 35.8694L105.129 5.97168C105.129 5.97168 105.129 5.97168 105.318 5.97168C107.318 6.82946 109.102 8.12051 110.541 9.75141C112.136 11.2081 113.423 12.9687 114.326 14.9296C114.349 14.9905 114.349 15.0578 114.326 15.1186L84.464 44.9029L84.2369 44.8651ZM75.6454 35.945C76.5603 37.7834 77.7754 39.4568 79.241 40.8964C80.6754 42.3583 82.353 43.5604 84.1991 44.4494L113.834 14.8541C112.979 12.9901 111.771 11.3088 110.276 9.9026C108.877 8.3414 107.195 7.0589 105.318 6.12287L75.6454 35.945Z" fill="#D7CAAA"/>
<path d="M104.221 3.32617L103.767 3.77974C104.403 4.42401 104.985 5.11929 105.508 5.85859C107.467 6.74926 109.22 8.03631 110.655 9.63833C112.246 11.0687 113.533 12.8039 114.44 14.741C115.199 15.2391 115.909 15.8086 116.559 16.4418L116.976 16.0261C115.674 13.2795 113.863 10.8042 111.639 8.73119C109.534 6.47364 107.016 4.63901 104.221 3.32617Z" fill="#E4DDCC"/>
<path d="M74.8506 47.0953L73.0339 45.3567L78.1434 40.1406L79.9223 41.8793L74.8506 47.0953ZM73.526 45.3567L74.7749 46.604L79.6573 41.8415L78.257 40.4808L73.526 45.3567Z" fill="#D7CAAA"/>
<path d="M103.88 3.7793H103.691C104.142 4.57307 104.635 5.34268 105.167 6.08493C107.107 6.99012 108.844 8.2755 110.276 9.86467C111.881 11.2982 113.169 13.0486 114.061 15.0051C114.799 15.5554 115.57 16.0603 116.37 16.517L116.484 16.2524C115.143 13.5419 113.322 11.0961 111.109 9.03313C109.028 6.87051 106.581 5.09192 103.88 3.7793Z" fill="#D7CAAA"/>
<path d="M112.699 0.226562L113.229 1.0959C114.469 1.68622 115.576 2.52207 116.484 3.55273C117.509 4.50034 118.333 5.64439 118.906 6.91669L119.776 7.44585C119.033 5.87531 117.992 4.46342 116.711 3.28815C115.587 2.01524 114.224 0.975038 112.699 0.226562Z" fill="#D7CAAA"/>
<g style="mix-blend-mode:multiply" opacity="0.3">
<path d="M85.8492 36.2929L83.7621 38.3779L87.1615 41.7716L89.2486 39.6866L85.8492 36.2929Z" fill="#D7CAAA"/>
</g>
<g style="mix-blend-mode:multiply" opacity="0.8">
<path d="M111.45 12.284L81.6255 42.0683C80.3153 41.5216 79.1014 40.7687 78.0299 39.8382C78.3705 40.2162 78.7112 40.632 79.0897 41.01C80.5651 42.5673 82.3086 43.8475 84.237 44.7897L114.061 15.0054C113.169 13.0489 111.881 11.2985 110.276 9.86497C109.86 9.4492 109.482 9.14682 109.103 8.80664C110.072 9.82877 110.865 11.0037 111.45 12.284Z" fill="#D7CAAA"/>
</g>
<g style="mix-blend-mode:multiply">
<path d="M74.0559 46.1127L74.775 46.8308L79.8845 41.8416L79.0897 41.0479L74.0559 46.1127Z" fill="#E5D9BE"/>
</g>
<path d="M83.4443 27.6261L83.0161 28.0537L84.381 29.4168L84.8092 28.9891L83.4443 27.6261Z" fill="#D7CAAA"/>
<path d="M85.9878 25.0793L85.5596 25.5068L86.9242 26.8701L87.3525 26.4426L85.9878 25.0793Z" fill="#D7CAAA"/>
<path d="M88.4892 22.5694L88.061 22.9971L89.4259 24.3601L89.8541 23.9325L88.4892 22.5694Z" fill="#D7CAAA"/>
<path d="M91.0517 20.0353L90.6235 20.4629L91.9884 21.826L92.4166 21.3983L91.0517 20.0353Z" fill="#D7CAAA"/>
<path d="M93.5498 17.5118L93.1216 17.9395L94.4865 19.3025L94.9147 18.8749L93.5498 17.5118Z" fill="#D7CAAA"/>
<path d="M96.0588 15.0157L95.6306 15.4434L96.9955 16.8064L97.4237 16.3788L96.0588 15.0157Z" fill="#D7CAAA"/>
<path d="M98.6213 12.4816L98.1931 12.9092L99.558 14.2722L99.9862 13.8446L98.6213 12.4816Z" fill="#D7CAAA"/>
<path d="M101.119 9.95811L100.691 10.3857L102.056 11.7488L102.484 11.3212L101.119 9.95811Z" fill="#D7CAAA"/>
<g style="mix-blend-mode:screen" opacity="0.5">
<path d="M78.9762 41.728L74.6615 45.9235L73.9045 45.2054L78.1435 40.8965L78.9762 41.728Z" fill="white"/>
</g>
<g style="mix-blend-mode:screen" opacity="0.5">
<path d="M107.097 9.52517C106.338 8.92879 105.497 8.44503 104.599 8.08887L76.8188 35.7943C77.2195 36.6765 77.7144 37.5129 78.2949 38.2889L107.097 9.52517Z" fill="#D7CAAA"/>
</g>
</svg>
