<?xml version="1.0" encoding="utf-8"?>
<!-- Generator: Adobe Illustrator 26.2.1, SVG Export Plug-In . SVG Version: 6.00 Build 0)  -->
<svg version="1.1" id="Layer_1" xmlns="http://www.w3.org/2000/svg" xmlns:xlink="http://www.w3.org/1999/xlink" x="0px" y="0px"
	 viewBox="0 0 543 384" style="enable-background:new 0 0 543 384;" xml:space="preserve">
<style type="text/css">
	.st0{fill-rule:evenodd;clip-rule:evenodd;fill:#D7CAAA;}
	.st1{fill:#D7CAAA;}
	.st2{fill:#D7CBAC;}
</style>
<g>
	<path class="st0" d="M-557.6,233.1c-8.2-3.1-19.7-5-32.4-5c-2,0-3.9,0-5.6,0.1l-3,0.2c-0.3,1.5-0.9,2.9-1.7,4.3l-0.1,0.1l-0.1,0.2
		l-0.1,0.1l-0.1,0.1l-0.1,0.1v0.1l0,0l-0.1,0.1l-0.1,0.1l-0.1,0.1l-0.1,0.1l-0.1,0.1l-0.1,0.1l-0.3,0.4l-0.1,0.2
		c-1.2,1.7-2.8,3.4-4.7,4.9l0.1,0.1l0,0l0.1,0.1l0.2,0.1l0,0l0.1,0.1l0,0l0.1,0.1l0.1,0.1l0,0l0.1,0.1l0.1,0.1l0.1,0.1v0.1l0.2,0.1
		l0.1,0.1l0,0l0.1,0.1l0,0l0.1,0.1l0.1,0.1l0,0l0.1,0.1l0,0l0.1,0.1l0.1,0.1l0,0l0.1,0.1h0.1v0.1l0.1,0.1l0,0l0.1,0.1l0.1,0.1l0,0
		l0.1,0.1l0,0l0.1,0.1l0.1,0.1l0,0l0.1,0.1l0,0v0.1l0.1,0.1l0.1,0.1l0,0l0,0l0.1,0.1l0.1,0.1h0.1l0,0l0.1,0.1l0,0
		c2.5,2.8,4.1,5.6,4.7,9.5v0.1v0.1v0.1v0.1v0.1v0.1v0.1v0.5v0.1v0.4v0.1v0.4v0.1v0.1l0,0v0.2v0.1v0.1v0.1v0.1v0.1v0.1v0.1v0.1v0.1
		l0,0v0.1v0.1v0.1v0.1v0.1l0,0v0.1l-0.1,0.3l-0.1,0.4v0.1l-0.1,0.3h0.2h0.1h0.3h0.1h0.1h0.6h0.1h0.4h0.1h0.4h0.1h0.5h0.1h0.4h0.1
		h0.6h0.1h0.1c8.9,0.4,19-0.4,27.5-2.3c0.8-0.1,1.5-0.3,2.2-0.5h0.2h0.1l0.6-0.1l0.1-0.1h0.1l0.3-0.1l0,0l0.3-0.1h0.1l0.2-0.1
		l0.3-0.1l0,0l0.3-0.1l0.3-0.1l0.2-0.1l0,0l0.3-0.1h0.1l0.2-0.1l0.2-0.1h0.1l0.3-0.1h0.1l0.2-0.1l0.2-0.1h0.1l0.3-0.1h0.1l0.2-0.1
		l0.2-0.1h0.1l0.3-0.1h0.1l0.2-0.1l0.2-0.1l0.1-0.1l0.3-0.1l0,0l0.2-0.1l0.1-0.1h0.1l0.2-0.1h0.1l0.2-0.1l0,0l0.2-0.1h0.1l0.1-0.1
		l0.2-0.1h0.1l0.2-0.1l0,0c2-0.9,3.8-1.8,5.2-2.8c0.2-0.1,0.3-0.2,0.5-0.3c2.7-1.8,4.1-3.8,4.1-5.8
		C-545.7,239.3-550.3,235.8-557.6,233.1 M-551.8,256.8l-0.2,0.1l-1.1,0.5h-0.1l-0.2,0.1l-0.1,0.1l-0.1,0.1l-0.7,0.3l0,0
		c-3.2,1.3-6.9,2.4-10.9,3.3c-9,2-19.5,2.8-28.9,2.5h-0.1h-0.6h-0.1h-0.4h-0.1h-0.6h-0.1h-0.4h-0.1h-0.4c-1.5-0.1-3-0.2-4.5-0.3
		h-0.1l0,0c-0.8,1.1-1.7,2.1-2.7,3.1l-1.9,1.7h0.1h0.1l0,0l0,0v0.1l0.5,0.4l0,0l0,0l0.1,0.1l0,0l0,0l0.1,0.1l0,0v0.1l0.2,0.1v0.1
		l0,0l0,0v0.1l0,0l0,0l0,0l0.1,0.1l0,0v0.1l0,0v0.1l0,0l0,0v0.1h0.1l0,0l0,0l0,0v0.1l0,0v0.1l0,0h0.1l0.1,0.1l0,0l0,0l0,0l0.1,0.1
		l0,0l0,0l0,0l0,0v0.1l0,0l0,0v0.1l0,0l0,0l0,0l0,0l0,0l0,0h0.1l0.1,0.1l0,0l0,0l0.1,0.1l0,0l0.1,0.1l0.1,0.1l0,0l0,0l0.1,0.1l0,0
		l0.1,0.1l0.1,0.1l0,0l0,0l0.1,0.1v0.1l0,0h0.1v0.1l0,0l0.1,0.1v0.1l0,0l0.1,0.1v0.1l0,0l0.1,0.1v0.1l0,0v0.1l0,0l0,0l0.3,0.3l0,0
		l0,0v0.1l0,0l0,0v0.1v0.1l0,0v0.1v0.1l0.1,0.1l0.1,0.1l0.1,0.1v0.1l0,0v0.1l0.1,0.1l0,0l0.1,0.1v0.1l0,0l0.1,0.1l0.1,0.1v0.1v0.1
		l0,0v0.1l0.1,0.1l0,0v0.1v0.1l0,0v0.1v0.1l0,0l0,0l0.1,0.1l0,0l0,0v0.1v0.1l0,0v0.1v0.1l0,0v0.1v0.1v0.1v0.1h0.1l4,0.3h0.1h0.1
		c9.5,0.5,20-0.1,29.3-2.2c6.9-1.5,12.5-3.6,16.3-6.2c0.2-0.1,0.3-0.2,0.5-0.3c2.7-1.9,4.2-3.8,4.2-5.9c0-0.9-0.3-1.8-1-2.7
		c-0.5-0.7-1.2-1.5-2.1-2.2C-549.7,255.8-550.8,256.3-551.8,256.8L-551.8,256.8z M-553.6,274.9L-553.6,274.9c-1,0.4-2,0.8-3,1.2l0,0
		c-2.7,0.9-5.7,1.8-8.9,2.5c-10.1,2.2-20.7,2.8-30.9,2.3h-0.2h-0.1h-0.4h-0.1h-0.3h-0.1h-0.3h-0.1h-0.2c0,0.4,0.1,0.9,0.1,1.3v0.1
		v0.1v0.4v0.1v0.1v0.1v0.2v0.1v0.1v0.1v0.1l0,0v0.1v0.1v0.1v0.1v0.1v0.1v0.1v0.1l0,0v0.1v0.1v0.1v0.1v0.1v0.1v0.1v0.1v0.1v0.1v0.1
		v0.1c-0.1,0.4-0.3,0.8-0.4,1.3l0,0c-0.3,0.9-0.7,1.7-1.2,2.6c-0.4,0.6-0.8,1.3-1.3,1.9l2.4,0.2h0.1h0.3h0.1h0.2h0.1h0.3h0.1h0.3
		h0.1h0.2h0.1h0.4h0.1h0.3h0.1h0.3h0.1h0.4h0.1h0.6h0.1h0.4c9.8,0,17.4-0.1,27.4-2.3c6.9-1.5,12.5-3.6,16.4-6.1
		c0.2-0.1,0.3-0.2,0.5-0.3c2.7-1.9,4.2-3.9,4.2-5.9c0-0.9-0.3-1.8-1-2.7c-0.5-0.8-1.3-1.5-2.2-2.3
		C-550.3,273.4-551.9,274.2-553.6,274.9L-553.6,274.9z M-553.8,292.6l-0.2,0.1h-0.1l-0.2,0.1l-0.1,0.1l-0.9,0.3l-0.2,0.1l-1,0.4
		h-0.1l-0.2,0.1l-0.2,0.1h-0.1c-0.9,0.3-1.7,0.6-2.7,0.8h-0.1l-1.3,0.4h-0.1l-0.3,0.1h-0.1l-2,0.5l0,0l-0.3,0.1h-0.2l-1.4,0.3h-0.2
		h-0.2l-0.7,0.1h-0.2c-8.4,1.7-18.9,2.6-27.5,2.2h-0.5h-0.1h-0.6h-0.1h-0.3h-0.1h-0.5h-0.1h-0.3h-0.1h-0.3h-0.1h-0.3h-0.1h-0.3h-0.1
		h-0.2h-0.1h-0.1h-0.1h-0.3h-0.1h-0.2h-0.1c-1.5-0.1-2.9-0.2-4.4-0.4h-0.1h-0.1l0.1,0.1l0,0l0.1,0.1v0.1l0,0l0.1,0.1l0,0l0.1,0.1
		v0.1l0.1,0.1l0,0l0,0l0.1,0.1l0,0v0.1l0.1,0.1h0.1l0,0l0.1,0.1h0.1l0,0v0.1l0.1,0.1l0,0l0.1,0.1v0.1l0,0l0,0l0.1,0.1l0.1,0.1
		l0.1,0.1l0,0l0,0v0.1l0,0l0,0l0.1,0.1v0.1l0.1,0.1h0.1l0,0h0.1l0.1,0.1l0,0l0,0l0.1,0.1l0,0l0.1,0.1l0.1,0.1l0.1,0.1v0.1l0,0
		l0.1,0.1l0,0l0,0l0.1,0.1h0.1v0.1l0.1,0.1l0,0l0,0v0.1l0.1,0.2v0.1l0.1,0.1v0.1v0.1l0,0v0.1l0,0l0.2,0.2l0,0l0.1,0.1v0.1l0.1,0.1
		v0.1l0.1,0.1v0.1l0.1,0.2l0,0l0.1,0.1l0,0l0.1,0.1l0,0l0.1,0.1l0.1,0.1l0,0l0.1,0.1l0,0l0.1,0.1v0.1l0.1,0.1v0.1h0.1v0.1v0.1v0.1
		l0,0l0.1,0.1v0.1l0.1,0.1l0,0l0.1,0.1l0,0l0.1,0.1l0.1,0.1l0.1,0.1v0.1v0.1v0.1v0.1v0.1v0.1v0.1v0.1v0.1l0,0l0.1,0.1l0,0l0.1,0.1
		l0,0l0.1,0.2l0,0v0.1l0,0l0.1,0.1l0,0l0.1,0.1v0.1v0.1v0.1l0,0v0.1v0.1v0.1v0.1v0.1l0,0v0.1l0.1,0.1v0.1l0,0v0.1v0.1v0.1l0,0v0.1
		v0.1v0.1v0.1v0.1v0.1v0.1v0.1v0.1v0.1l0,0v0.1l0,0v0.1v0.1l0,0v0.1l0,0v0.1v0.1v0.1v0.1v0.1v0.1v0.1v0.1l0,0v0.1l0,0v0.1v0.1h0.1
		h0.1h0.2l1.7,0.1h0.3h0.1h0.1c9.8,0.4,19.2-0.2,28.9-2.2c6.9-1.5,12.5-3.6,16.4-6.2c0.2-0.1,0.3-0.2,0.5-0.3
		c2.7-1.9,4.2-3.8,4.2-5.8c0-0.9-0.3-1.8-1-2.8c-0.5-0.7-1.3-1.5-2.2-2.2C-550.4,291-552,291.8-553.8,292.6L-553.8,292.6z
		 M-553.6,310L-553.6,310l-0.2,0.1c-3.4,1.4-7.4,2.6-11.7,3.6c-9.9,2.2-20.4,2.8-30.5,2.3c-0.9-0.1-1.9-0.1-2.8-0.2h-0.2h-0.1h-0.1
		l-0.1,0.1v0.1l0,0l-0.1,0.1l-0.1,0.1v0.1l0,0v0.1c-1,2.2-2.4,4.2-4.3,6.1c-1.2,1.2-2.5,2.3-4,3.4l4.4,0.6c4.2,0.5,8.7,0.7,13.4,0.7
		c12.7,0,24.2-1.9,32.4-5c7.3-2.7,11.8-6.2,11.8-9.6c0-0.9-0.3-1.8-1-2.7c-0.5-0.8-1.2-1.5-2.2-2.3
		C-550.3,308.6-551.9,309.3-553.6,310L-553.6,310z M-624.9,179.9c-13.5-5.1-32.3-8.2-53.1-8.2s-39.6,3.1-53.1,8.2
		c-12.6,4.7-20.4,10.9-20.4,17.4c0,3.9,2.8,7.7,7.9,11.2c0.2,0.1,0.3,0.1,0.5,0.3c27.7,18.5,101.6,19.2,130.3-0.1
		c0.1-0.1,0.3-0.2,0.4-0.2c5-3.4,7.9-7.2,7.9-11.1C-604.6,190.8-612.4,184.6-624.9,179.9L-624.9,179.9z M-616.1,217.7L-616.1,217.7
		l-0.4,0.2l-0.2,0.1l-1.3,0.6l0,0l-0.4,0.2l-0.2,0.1l-0.1,0.1l-0.4,0.2h-0.1l-0.3,0.1l-0.4,0.2l0,0l-0.4,0.2l-0.2,0.1l-0.2,0.1
		l-0.4,0.1l-0.1,0.1l-0.3,0.1l-0.4,0.1l0,0l-0.4,0.1l-0.2,0.1l-0.2,0.1l-0.4,0.1l0,0l-0.4,0.1l-0.3,0.1l-0.6,0.2l-0.1,0.1l-0.7,0.2
		h-0.1l-1.3,0.4l0,0l-0.5,0.1l-0.2,0.1l-0.7,0.2l0,0c-29.4,9.2-73.1,9-102.3-0.9h-0.1l-0.7-0.2l-0.1-0.1l-0.6-0.2l-0.3-0.1l-0.4-0.1
		h-0.1l-0.4-0.1l-0.2-0.1l-0.2-0.1l-0.4-0.1l0,0l-0.4-0.1l-0.3-0.1l-0.1-0.1l-0.4-0.1l-0.2-0.1l-0.2-0.1l-0.4-0.2l0,0l-0.4-0.2
		l-0.3-0.1h-0.1l-0.4-0.2l-0.1-0.1l-0.2-0.1l-0.4-0.2l0,0l-0.4-0.1l-0.3-0.1l-0.1-0.1l-0.5-0.2l-0.2-0.1l-0.4-0.2l0,0
		c-1.7-0.8-3.4-1.7-4.9-2.6c-2,1.5-3.6,3.1-4.8,4.8c-1.2,1.8-1.9,3.6-1.9,5.5c0,4,2.9,7.8,8.1,11.3c0.2,0.1,0.3,0.1,0.5,0.2
		c3.9,2.6,8.9,4.9,14.8,6.8l0.3,0.1h0.1l0.5,0.2c28.9,9.4,69.3,9,98.2,0.1l0.5-0.2h0.1h0.1l0.3-0.1h0.1l1.9-0.7h0.1l0,0h0.1h0.1
		l0.3-0.1h0.1l0.9-0.3h0.1l0.2-0.1l0.2-0.1h0.1l0.8-0.3l0,0c4-1.6,7.5-3.4,10.4-5.3l0.1-0.1l0,0l0,0l0,0c2.8-1.9,5-3.8,6.4-5.8
		l0.1-0.2c0.9-1.3,1.5-2.7,1.8-4.1v-0.1l0,0v-0.1v-0.1v-0.1v-0.1v-0.1V226l0,0v-0.6c0-1.9-0.7-3.7-1.9-5.5c-1.1-1.6-2.8-3.2-4.8-4.8
		C-612.7,216-614.3,216.9-616.1,217.7L-616.1,217.7z M-612.9,265.1L-612.9,265.1L-612.9,265.1c1.7-1.1,3.1-2.3,4.3-3.4
		c1.1-1.1,2-2.2,2.7-3.3l0,0l0,0v-0.1l0,0v-0.1l0,0c0.4-0.7,0.7-1.5,0.9-2.2c0.1-0.3,0.1-0.6,0.2-0.9V255v-0.2v-0.1v-0.1v-0.1l0,0
		v-0.1l0,0v-0.1l0,0v-0.1l0,0v-0.3v-0.1v-0.2v-0.1v-0.3v-0.1v-0.2v-0.1v-0.1v-0.1v-0.1v-0.1v-0.1v-0.1v-0.1V252v-0.1v-0.1v-0.1
		c-0.4-1.4-1-2.8-1.9-3.9v-0.1l-0.1-0.1l-0.1-0.1l-0.1-0.1l0,0l0,0l-0.1-0.1l-0.1-0.1l-0.1-0.1l-0.1-0.1l0,0l-0.4-0.4l0,0l-0.2-0.2
		l0,0c-1-1-2.1-2.1-3.5-3.1c-2.3,1.4-4.9,2.7-7.8,3.9l-0.2,0.1l0,0l-0.2,0.1l-0.2,0.1l-0.2,0.1l-0.6,0.2h-0.1l-0.3,0.1h-0.1
		l-0.1,0.1l-1.6,0.6l0,0c-30.5,11.4-79.9,11.6-110.6,0l0,0l-0.4-0.1l-0.3-0.1l-0.1-0.1l-0.4-0.2l-0.1-0.1l-0.3-0.1l-0.4-0.1
		l-0.7-0.3l-0.1-0.1l-0.4-0.2l-0.1-0.1l-0.7-0.3l0,0l-0.4-0.1c-2.5-1.1-4.7-2.3-6.8-3.5c-2.1,1.6-3.8,3.2-5,4.9
		c-1.3,1.8-1.9,3.6-1.9,5.5c0,4,2.9,7.8,8.1,11.3c0.2,0.1,0.3,0.1,0.5,0.2c28,18.5,101.2,19,129.9,0L-612.9,265.1z M-612.9,293.5
		c0.9-0.6,1.7-1.2,2.6-1.9l0.1-0.1l0,0c1.9-1.6,3.4-3.2,4.3-4.9c0.7-1.1,1.1-2.3,1.2-3.5V283v-0.1v-0.1v-0.1v-0.1l0,0v-0.1v-0.1
		v-0.3V282v-0.3l0,0v-0.4v-0.1v-0.1V281c-0.1-0.6-0.2-1.3-0.4-1.9l0,0l0,0l-0.1-0.3l0,0v-0.1l0,0l0,0v-0.1v-0.1l0,0l0,0v-0.1l0,0
		v-0.1v-0.1l0,0v-0.1V278l0,0v-0.1l0,0l0,0v-0.1l0,0l0,0l0,0v-0.1v-0.1l0,0v-0.1l0,0l0,0v-0.1v-0.1l0,0l0,0v-0.1l0,0l0,0v-0.1l0,0
		l0,0l-0.1-0.1v-0.1l0,0l0,0v-0.1v-0.1l0,0v-0.1l0,0l0,0v-0.1l0,0v-0.1v-0.1l0,0l-0.1-0.1l0,0v-0.1V276l-0.1-0.1l0,0v-0.1l0,0l0,0
		l-0.1-0.1v-0.1v-0.1v-0.1l-0.1-0.1l-0.1-0.1l0,0l-0.1-0.1l0,0l0,0V275l0,0l-0.1-0.1l0,0l-0.1-0.1l0,0c-1.1-1.3-2.5-2.6-4.1-3.8
		c-1.9,1.1-4,2.2-6.3,3.3h-0.1l-0.1,0.1l-0.7,0.3l-0.2,0.1l-0.1,0.1h-0.1l-0.2,0.1l-0.2,0.1l0,0l-0.2,0.1l-0.2,0.1l-0.2,0.1
		l-0.2,0.1l0,0l-0.2,0.1l-0.2,0.1l-0.1,0.1l-0.1,0.1l-0.2,0.1h-0.1l-0.1,0.1l-0.2,0.1l-0.1,0.1h-0.1l-0.2,0.1l-0.4,0.1l-0.2,0.1l0,0
		l-0.2,0.1l-0.2,0.1l-0.4,0.2l-0.2,0.1l-0.6,0.2h-0.1l-0.4,0.1l-0.3,0.1l-0.1,0.1c-29.1,10.1-72.5,10.3-102.2,1.3h-0.1l-1.4-0.4l0,0
		l-1.4-0.4h-0.1l-0.4-0.1l-0.3-0.1l-0.1-0.1l-0.4-0.1l-0.1-0.1l-0.3-0.1l-0.9-0.3l-0.2-0.1l-0.2-0.1l-0.4-0.2l-0.4-0.1l-0.3-0.1
		h-0.1l-0.4-0.1l-0.1-0.1l-0.3-0.1l-0.4-0.2l-0.4-0.1l-0.3-0.1h-0.1l-0.4-0.2l-0.1-0.1l-0.3-0.1l-0.4-0.2l-0.4-0.2l-0.3-0.1h-0.1
		c-2.3-1-4.5-2.2-6.4-3.3c-2.1,1.6-3.8,3.2-5,4.9c-1.3,1.8-1.9,3.7-1.9,5.5c0,4,2.9,7.8,8.1,11.3c0.2,0.1,0.3,0.1,0.5,0.2
		c3,2,6.6,3.8,10.8,5.4l0.4,0.1l0.4,0.2l0.2,0.1l0.3,0.1c0.9,0.3,1.8,0.6,2.7,0.9l0.3,0.1h0.1l0.5,0.1l0.1,0.1
		c27.8,9,67.9,9,96.1,0.7l0.5-0.1l0.4-0.1h0.1l1.3-0.4l0.1-0.1l0.4-0.1h0.1l0.3-0.1c1.1-0.3,2.1-0.7,3.1-1.1h0.1l0.2-0.1l0.2-0.1
		h0.1c4.4-1.7,8.1-3.5,11.2-5.6L-612.9,293.5z M-618.2,324.9c0.1-0.1,0.3-0.2,0.4-0.2c4-2,7.1-4.2,9.4-6.5c1.8-1.8,3-3.7,3.5-5.6
		l0,0v-0.1v-0.1v-0.1v-0.1v-0.1V312l0,0v-0.1v-0.1v-0.1v-0.3v-0.1V311v-0.6v-0.1v-0.1v-0.3v-0.1v-0.2v-0.1v-0.1v-0.1v-0.1v-0.1V309
		v-0.1v0.1v-0.1v-0.1v-0.1l0,0v-0.1v-0.1v-0.1v-0.1v-0.1v-0.1V308v-0.1l0,0v-0.1v-0.1v-0.1v-0.1v-0.1v-0.1v-0.1v-0.1V307l-0.1-0.1
		v-0.1l-0.1-0.1v-0.1l0,0v-0.1v-0.1v-0.1l-0.1-0.1v-0.1l0,0V306v-0.1l-0.1-0.1l0,0l-0.1-0.1l-0.1-0.1l-0.1-0.1v-0.1l-0.1-0.1
		l-0.1-0.1l-0.1-0.1l-0.1-0.1l-0.1-0.1l0,0l-0.1-0.1l-0.1-0.1l-0.1-0.1l-0.1-0.1l-0.1-0.1l-0.1-0.1l-0.1-0.1l-0.2-0.2l-0.1-0.1
		l-0.1-0.1l0,0l-0.2-0.2l0,0l-0.1-0.1l-0.3-0.4l0,0l0,0l-0.3-0.4l-0.4-0.4l0,0c-0.9-1-2-1.9-3.3-2.8c-1.6,1-3.4,1.9-5.2,2.8l0,0
		l-0.2,0.1l-0.2,0.1l0,0l-0.2,0.1l-0.2,0.1l0,0l-0.1,0.1l-0.5,0.2h-0.1l-0.1,0.1l-0.2,0.1l-0.1,0.1h-0.1l-0.2,0.1l-0.1,0.1h-0.1
		l-0.3,0.1l0,0l-0.2,0.1l-0.2,0.1l-0.2,0.1l-0.2,0.1l0,0l-0.2,0.1l-0.2,0.1h-0.1l-0.1,0.1l-0.2,0.1h-0.1l-0.1,0.1l-0.2,0.1l-0.1,0.1
		h-0.1l-0.2,0.1l-0.1,0.1h-0.1l-0.2,0.1l-0.2,0.1l0,0l-0.2,0.1l-0.2,0.1l-0.4,0.2l-0.2,0.1l-0.2,0.1c-30.6,11.2-79.7,11.2-110.2-0.5
		l-0.3-0.1l-0.1-0.1l-1.2-0.5l-0.7-0.3l-0.1-0.1l-1.2-0.5c-2.6-1.1-5-2.4-7.2-3.7c-2.1,1.6-3.8,3.2-5,4.9c-1.3,1.8-1.9,3.7-1.9,5.5
		c0,6.5,7.8,12.6,20.4,17.4c29.3,11,77,11,106.2,0C-622.5,326.9-620.2,325.9-618.2,324.9L-618.2,324.9z M-668.3,165.6
		c4.7,0.2,9.3,0.6,13.8,1.1V77.3c0-1.7,1.4-3,3-3h329.8V62h-346.7L-668.3,165.6z M-318.6,80.3h-329.9v87.2
		c5.8,0.9,11.3,2.1,16.3,3.4V96.6c0-1.7,1.4-3,3-3h327.3V80.3H-318.6z M-604.6,184.4c4.1,3.9,6.4,8.2,6.4,12.9c0,4.6-2.3,9-6.4,12.9
		v2.2c1.3,1.2,2.5,2.6,3.4,3.9c1.3,1.9,2.2,3.8,2.7,5.8l2.7-0.2c2-0.1,4-0.1,5.9-0.1c13.5,0,25.7,2.1,34.7,5.4
		c9.8,3.7,16,9.2,16,15.5c0,3.1-1.5,6.1-4.2,8.7c0.8,0.8,1.5,1.6,2.1,2.4c1.4,2,2.1,4.1,2.1,6.3c0,0.5-0.1,1-0.1,1.5h208.1
		c0.7-8.1,4.3-15.3,9.8-20.8c5.4-5.5,12.7-9,20.8-9.8v-79.7c-8.1-0.7-15.4-4.3-20.8-9.8s-9-12.7-9.8-20.8h-242.6
		c-0.7,8.1-4.3,15.3-9.8,20.8c-5.4,5.5-12.7,9.1-20.8,9.8L-604.6,184.4z M-298.7,99.7h-327.4v73.1c1.2,0.4,2.3,0.8,3.3,1.2
		c4.6,1.7,8.6,3.7,12,5.8v-31.3c0-1.7,1.4-3,3-3c7.6,0,14.5-3.1,19.5-8.1s8.1-11.9,8.1-19.5c0-1.7,1.4-3,3-3h248.4c1.7,0,3,1.4,3,3
		c0,7.6,3.1,14.5,8.1,19.5s11.9,8.1,19.6,8.1c1.7,0,3,1.4,3,3V234c0,1.7-1.4,3-3,3c-7.6,0-14.5,3.1-19.6,8.1c-5,5-8.1,11.9-8.1,19.6
		c0,1.7-1.4,3-3,3h-214c-0.3,0.4-0.7,0.8-1.1,1.1c0.8,0.8,1.5,1.6,2.1,2.5c1.4,2,2.2,4.1,2.2,6.3c0,1.8-0.5,3.4-1.3,5h261.3v-183
		L-298.7,99.7z M-450.5,206.3c1.6-0.3,2.8-1.1,3.8-2.2s1.5-2.5,1.5-4c0-1.4-0.4-2.6-1.2-3.6c-0.8-1-2.2-1.8-4-2.3L-450.5,206.3z
		 M-455,173.2c-1.2,0.4-2.2,1.1-2.9,2.2c-0.7,1-1.1,2.1-1.1,3.3c0,1.1,0.3,2.1,1,3.1c0.6,0.9,1.6,1.7,3,2.3V173.2z M-455,205.8v-13
		c-4-1.2-7-2.9-8.9-5.3c-1.9-2.4-2.8-5.2-2.8-8.5c0-3.4,1.1-6.2,3.2-8.5s5-3.6,8.5-4v-3.1h4.5v3.1c3.3,0.4,5.9,1.5,7.9,3.4
		c1.9,1.9,3.2,4.3,3.7,7.5l-7.9,1c-0.5-2.5-1.7-4.1-3.7-5v12.1c5,1.3,8.4,3.1,10.2,5.2c1.8,2.2,2.7,4.9,2.7,8.3
		c0,3.7-1.1,6.9-3.4,9.5s-5.4,4.2-9.5,4.8v5.8h-4.5v-5.7c-3.6-0.4-6.5-1.8-8.7-4s-3.7-5.4-4.3-9.4l8.1-1c0.3,1.7,1,3.1,1.9,4.3
		C-457.1,204.4-456.1,205.3-455,205.8L-455,205.8z M-421.3,159.8c-8-8-19.1-13-31.4-13s-23.4,5-31.4,13s-13,19.1-13,31.4
		s5,23.4,13,31.4c8,8.1,19.1,13,31.4,13s23.4-5,31.4-13c8-8.1,13-19.2,13-31.4C-408.3,178.9-413.3,167.8-421.3,159.8z M-522.9,302.3
		c-1.7,0-3-1.4-3-3s1.4-3,3-3h189.2c1.7,0,3,1.4,3,3s-1.4,3-3,3H-522.9z M-412.2,319.7c-1.7,0-3-1.4-3-3s1.4-3,3-3h130.9
		c1.7,0,3,1.4,3,3s-1.4,3-3,3H-412.2z M-267.9,319.7c-1.7,0-3-1.4-3-3s1.4-3,3-3h16.4c1.7,0,3,1.4,3,3s-1.4,3-3,3H-267.9z
		 M-530.4,319.2c-1.7,0-3-1.4-3-3c0-1.7,1.4-3,3-3h62c1.7,0,3,1.4,3,3c0,1.7-1.4,3-3,3H-530.4z M-452.8,140.4
		c14,0,26.7,5.7,35.9,14.9l0.1,0.1c9.2,9.2,14.8,21.8,14.8,35.8s-5.7,26.7-14.9,35.9l-0.1,0.1c-9.2,9.1-21.8,14.8-35.8,14.8
		s-26.7-5.7-35.9-14.9c-9.2-9.2-14.9-21.9-14.9-35.9c0-14,5.7-26.7,14.9-35.9C-479.5,146.1-466.8,140.4-452.8,140.4L-452.8,140.4z"
		/>
</g>
<path class="st1" d="M776.5,196.9c41.1,0,74.7-7.2,74.7-16.1c0-8.9-33.5-16.1-74.7-16.1c-41.1,0-74.7,7.2-74.7,16.1
	S735.4,196.9,776.5,196.9z"/>
<path class="st1" d="M916,72.6c41.1,0,74.7-7.2,74.7-16.1S957.2,40.4,916,40.4c-41.1,0-74.7,7.2-74.7,16.1
	C841.4,65.4,874.9,72.6,916,72.6L916,72.6z"/>
<path class="st1" d="M839.1,154v8.9c9.8,3.1,17.4,7.2,20.1,13c13,3.1,32.2,6.3,57.7,6.3c51,0,76-12.1,76-12.1v-15.2
	c0,0-25,12.1-76,12.1C866,166.9,839.1,154,839.1,154L839.1,154z"/>
<path class="st1" d="M860.6,182.1c0,0.9-0.4,2.2-0.9,3.1c1.8,1.8,2.7,4,2.7,6.3v6.7c-3.1,1.3-6.3,2.2-8.9,4v-10.7
	c0,0-25,12.1-76,12.1s-77.4-12.5-77.4-12.5v15.2c0,0,26.8,12.5,77.4,12.5c28.6,0,49.2-3.6,61.3-7.2c-3.1,2.7-5.8,5.4-8.5,8.5
	c-12.5,2.7-30,4.9-52.8,4.9c-51,0-77.4-12.5-77.4-12.5v15.2c0,0,26.8,12.5,77.4,12.5c16.5,0,30.4-1.3,41.6-3.1
	c-0.9,2.2-1.8,4.5-2.7,6.7c-10.7,1.3-23.7,2.7-38.9,2.7c-51,0-77.4-12.5-77.4-12.5v15.2c0,0,26.8,12.5,77.4,12.5
	c13.4,0,25-0.9,34.9-2.2c-0.4,2.2-0.4,4.5-0.4,6.7c-9.8,1.3-21,2.2-34.4,2.2c-51,0-77.4-12.5-77.4-12.5v15.2
	c0,0,26.8,12.5,77.4,12.5c13.9,0,25.5-0.9,35.3-2.2c0.4,2.2,0.9,4,1.3,6.3c-10.3,1.3-22.4,2.2-36.7,2.2c-51,0-77.4-12.5-77.4-12.5
	v15.2c0,0,26.8,12.5,77.4,12.5c16.5,0,30.4-1.3,41.6-3.1c12.5,25.9,38.9,43.8,69.3,43.8c42.5,0,76.9-34.4,76.9-76.9
	c0-1.8,0-3.6-0.4-5.4c18.3-3.6,27.7-7.6,27.7-7.6v-15.2c0,0-9.8,4.9-30.4,8c-0.4-2.2-1.3-4-1.8-6.3c21.5-3.6,32.2-8.5,32.2-8.5
	v-15.2c0,0-13,6.3-39.4,9.4c-1.3-2.2-2.7-4-4-5.8c29.1-3.1,43.4-10.3,43.4-10.3v-13.9c0,0-18.8,8.9-57.2,11.2
	c-2.7-2.2-5.8-4-8.9-5.8c44.3-1.3,66.2-11.6,66.2-11.6v-15.2c0,0-25,12.1-76,12.1C892.3,188.4,873.6,185.3,860.6,182.1L860.6,182.1z
	 M888.3,333.3c-34.9,0-63.5-28.6-63.5-63.5s28.6-63.5,63.5-63.5s63.5,28.6,63.5,63.5S923.2,333.3,888.3,333.3z"/>
<path class="st1" d="M839.1,88.2v15.2c0,0,26.8,12.5,77.4,12.5c50.5,0,76-12.1,76-12.1V88.7c0,0-25,12.1-76,12.1
	S839.1,88.2,839.1,88.2L839.1,88.2z"/>
<path class="st1" d="M916.9,79.3c-51,0-77.4-12.5-77.4-12.5V82c0,0,26.8,12.5,77.4,12.5c50.5,0,76-12.1,76-12.1V67.2
	C992.5,67.2,967.5,79.3,916.9,79.3L916.9,79.3z"/>
<path class="st1" d="M839.1,110.1v15.2c0,0,26.8,12.5,77.4,12.5c50.5,0,76-12.1,76-12.1v-15.2c0,0-25,12.1-76,12.1
	S839.1,110.1,839.1,110.1L839.1,110.1z"/>
<path class="st1" d="M839.1,132v15.2c0,0,26.8,12.5,77.4,12.5c50.5,0,76-12.1,76-12.1v-15.2c0,0-25,12.1-76,12.1
	S839.1,132,839.1,132L839.1,132z"/>
<path class="st1" d="M-92.1-234.7c0.1,14.3-5.6,28.4-15.7,38.6l-29.5,29.8c-3.2,3.3-5.2,7.6-5.5,12.3l-1.1,17.1h-4.1l-77.2,0.1h-4.1
	l-1-25v-0.1v-0.9c0.1-2.2,0.4-4.7,1-7.3c3.3-14.3,12.9-26.2,26.3-32.8l25.4-12.4c3.4-2,6.4-4.5,9.1-7.4l21.3-22.9
	c3.4-3.7,8.1-5.5,13-5.2l0.2-0.9l-0.2,0.9c0.6,0.1,1.3,0.3,1.9,0.5s1.3,0.5,1.9,0.8c1,0.5,1.9,1.2,2.8,1.9c1.7,1.6,3,3.7,3.7,6
	l0.1,0.3c1.2,4.3,0.1,8.7-2.8,12c-10,11.2-29.8,32.2-37.9,40.8l5.9,5.6c8.1-8.6,28-29.7,38.1-40.9c4.8-5.4,6.5-12.7,4.6-19.6
	l-0.1-0.4c-1-3.8-3.1-7.2-6-9.8c-1.9-1.7-4-3.1-6.4-4.1c-0.6-0.2-1.3-0.5-1.9-0.7s-1.3-0.4-1.9-0.5l3.5-15c0.2-0.7,0.2-1.5,0.2-2.2
	l-1.6-22.9v-0.1c0-0.6,0-1.1-0.1-1.6c-0.2-5.9-0.5-11.5,2.8-17.2c0.8-1.3,1.7-2.5,2.7-3.6c4.1-4.4,8-5.3,13.4-5.3
	c3.4,0,6.7,1.3,9.1,3.6s3.9,5.4,4.2,8.7l5.4,45.4v0.1c0,0.4,0,0.7,0,1.1L-92.1-234.7z"/>
<path class="st1" d="M-131-126.6c0-1.2-1-2.2-2.2-2.2l-105,0.1c-0.6,0-1.1,0.2-1.5,0.6s-0.6,1-0.6,1.5V-91c0,0.6,0.2,1.1,0.6,1.5
	s0.9,0.6,1.5,0.6l104.9-0.1c1.2,0,2.2-1,2.2-2.2L-131-126.6z M-143.4-103.4c-1.3,1.4-3,2.2-4.8,2.2h-0.2c-1.7,0-3.5-0.6-4.8-1.9
	s-2.2-3-2.2-4.8c-0.1-1.9,0.6-3.6,1.9-5c2.6-2.8,7-3,9.8-0.4c1.4,1.3,2.2,3,2.2,4.8C-141.4-106.5-142.1-104.8-143.4-103.4
	L-143.4-103.4z"/>
<path class="st1" d="M-159.9-352.1c0,14.2-5.5,27.4-15.4,37.4l-81.4,81.4c-0.8,0.8-1.8,1.2-2.9,1.2s-2.1-0.4-2.9-1.2l-73.8-73.8
	h31.3c1.5,0,3-0.9,3.7-2.3l15.9-32.3l16.8,43.3c0.6,1.5,2,2.5,3.7,2.6h0.1c1.6,0,3-0.9,3.7-2.4l12.2-26.3l7,14.9
	c0.7,1.4,2.1,2.4,3.7,2.4h24.7v-8.1h-22.1l-9.6-20.4c-0.6-1.4-2.1-2.4-3.7-2.4s-3,0.9-3.7,2.4l-11.9,25.5l-16.8-43.1
	c-0.6-1.5-2-2.5-3.6-2.6s-3.1,0.8-3.8,2.3l-18.8,38.3h-36.9c-9.6-9.9-14.9-22.9-14.9-36.9c0-14.2,5.5-27.4,15.4-37.4
	c9.9-9.9,23.2-15.4,37.4-15.4c14.2,0,27.4,5.5,37.4,15.4l9.5,9.5l9.5-9.5c20.6-20.6,54.2-20.6,74.7,0
	C-165.4-379.5-159.9-366.3-159.9-352.1L-159.9-352.1z"/>
<path class="st1" d="M-279.5-128c-0.4-0.4-0.9-0.6-1.5-0.6l-104.9-0.1c-1.2,0-2.2,1-2.2,2.2v35.6c0,1.2,1,2.2,2.2,2.2l104.9,0.1
	c0.6,0,1.1-0.2,1.5-0.6s0.6-0.9,0.6-1.5v-35.6C-278.9-127.1-279.1-127.6-279.5-128L-279.5-128z M-366-103.1c-1.3,1.2-3,1.9-4.8,1.9
	h-0.2c-1.9-0.1-3.6-0.9-4.8-2.2c-1.3-1.3-1.9-3.1-1.9-5c0.1-1.9,0.9-3.6,2.2-4.8c1.3-1.3,3-1.9,4.8-1.9c1.9,0,3.7,0.7,5.1,2.2
	C-363-110.1-363.2-105.7-366-103.1L-366-103.1z"/>
<path class="st1" d="M-289-161.9L-289-161.9l-1,25.1h-4.1l-77.2-0.1h-4.1l-1.1-17.1c-0.3-4.6-2.2-9-5.5-12.3l-29.5-29.8
	c-10.1-10.2-15.8-24.2-15.7-38.6l0.2-33.2c0-0.3,0-0.7,0-1v-0.1l5.4-45.4c0.3-3.3,1.8-6.4,4.2-8.7c2.5-2.3,5.7-3.6,9.1-3.6
	c5.4,0,9.3,0.9,13.4,5.3c1,1.1,1.9,2.3,2.7,3.6c3.3,5.6,3.1,11.2,2.8,17.2c0,0.5,0,1.1-0.1,1.6v0.1l-1.6,22.9c0,0.7,0,1.5,0.2,2.2
	l3.5,15c-0.6,0.1-1.3,0.3-1.9,0.5c-0.6,0.2-1.3,0.4-1.9,0.7c-2.4,0.9-4.5,2.3-6.4,4.1c-2.9,2.6-4.9,6-6,9.8l-0.1,0.3
	c-1.9,6.9-0.2,14.2,4.6,19.6c10.1,11.2,30,32.4,38.1,40.9l5.9-5.6c-8-8.5-27.9-29.6-37.9-40.8c-2.9-3.3-4-7.8-2.8-12l0.1-0.3
	c0.6-2.3,1.9-4.4,3.7-6c0.8-0.8,1.7-1.4,2.8-1.9c0.6-0.3,1.3-0.6,1.9-0.8s1.3-0.4,1.9-0.5l-0.2-0.9l0.2,0.9c4.9-0.3,9.6,1.6,13,5.2
	l21.3,22.9c2.7,2.9,5.8,5.4,9.1,7.4l25.4,12.4c13.4,6.5,23,18.5,26.3,32.8c0.6,2.6,0.9,5,1,7.3C-289-162.5-289-162.2-289-161.9
	L-289-161.9z"/>
<path class="st2" d="M355.9-190.5c-6.8-0.4-20.7,7.2-24.3,8.9c-13.6,6.8-32.6,17.5-44.7,26.1c-0.7,0.7-2.1,1.4-2.9,1.8
	c-5.7,3.6-11.4,6.1-17.9,7.5c-36.1,7.5-88.4,8.6-88.4,8.6h-3.2c-2.1,0-4.3-1.4-4.7-3.6c-0.4-2.5,1.4-4.7,3.9-5l78-7.5
	c8.6-1.1,15.4-8.9,14.7-17.9c-1.1-8.9-9.3-15.7-17.9-14.7l-69.4-0.7c-4.7,0-12.2-1.1-16.8-2.5c-44.7-13.2-69.8-0.7-83.3,5
	c-2.9-5-8.6-8.2-15-7.9l-30,2.1c-10,0.7-17.5,8.9-16.8,18.6l4.7,66.5c0.7,9.7,9.3,16.8,19.3,16.1l30-2.1c6.4-0.4,11.4-4.3,13.6-9.7
	L216.1-95c14.7,1.4,28.3-0.4,41.1-7.2l3.6-1.8l99.4-57.9c5-2.9,8.2-7.9,8.6-13.2C369.2-182.7,365.6-189.8,355.9-190.5L355.9-190.5z
	 M52.2-105.4c-5.7,0-10-4.3-10-9.7c0-5.4,4.7-9.7,10-9.7c5.7,0,10,4.3,10,9.7C62.6-109.7,58-105.4,52.2-105.4z M282.3-167.6v-5.7
	c-0.4-2.5-0.7-4.7-1.4-6.8v-0.4c10.4-5.7,31.1-15.7,42.2-20c5.7-2.1,11.1-2.1,16.1,1.4c-3.9,1.4-7.9,3.2-11.4,5
	c-11.8,6.1-32.6,17.2-42.6,24.3C284.4-169.1,283.3-168.4,282.3-167.6z M312.3-207c-8.2,3.6-23.6,8.9-31.1,13.2l-5,2.9
	c-0.4,0.4-1.1,0.7-1.4,1.1c-2.1-2.5-5-5-7.9-6.8c6.8-3.6,22.2-8.6,29-11.4C301.6-210.6,306.9-210.2,312.3-207z M99.5-252.4
	c0-4.3,3.2-7.5,7.5-7.5h187.8c4.3,0,7.5,3.2,7.5,7.5c0,4.3-3.2,7.5-7.5,7.5H107C103-244.9,99.5-248.1,99.5-252.4L99.5-252.4z
	 M99.5-225.2c0-4.3,3.2-7.5,7.5-7.5h187.8c4.3,0,7.5,3.2,7.5,7.5c0,4.3-3.2,7.5-7.5,7.5H107C103-217.7,99.5-220.9,99.5-225.2
	L99.5-225.2z M267.6-334.7c0,5.7-4.7,10.7-10.7,10.7c-5.7,0-10.7-4.7-10.7-10.7c0-5.7,4.7-10.7,10.7-10.7S267.6-340.4,267.6-334.7z
	 M155.6-334.7c0,5.7-4.7,10.7-10.7,10.7c-5.7,0-10.7-4.7-10.7-10.7c0-5.7,4.7-10.7,10.7-10.7C150.6-345.4,155.6-340.4,155.6-334.7z
	 M284.8-397.3H117c-9.7,0-17.5,7.9-17.5,17.5v90.5c0,9.7,7.9,17.5,17.5,17.5h167.8c9.7,0,17.5-7.9,17.5-17.5v-90.5
	C302.3-389.4,294.4-397.3,284.8-397.3z M287.3-306.1c-1.4-0.4-2.9-0.7-4.3-0.7c-9.7,0-17.9,7.9-17.9,17.9v2.1H135.2
	c0.4-1.1,0.4-2.1,0.4-3.2c0-9.7-7.9-17.9-17.9-17.9c-1.1,0-2.1,0-3.2,0.4v-54c1.1,0.4,2.1,0.4,3.2,0.4c9.7,0,17.9-7.9,17.9-17.9
	c0-1.1,0-2.1-0.4-3.2h130.6c-0.4,1.4-0.7,2.9-0.7,4.3c0,9.7,7.9,17.9,17.9,17.9c1.4,0,2.9-0.4,4.3-0.7L287.3-306.1z M201.1-373
	c-21.1,0-38.6,17.2-38.6,38.6c0,21.1,17.2,38.6,38.6,38.6c21.1,0,38.6-17.2,38.6-38.6C239.3-355.8,222.2-373,201.1-373z
	 M201.1-312.2c-12.2,0-22.2-10-22.2-22.2c0-12.2,10-22.2,22.2-22.2c12.2,0,22.2,10,22.2,22.2C223.2-322.2,213.2-312.2,201.1-312.2z"
	/>
<g>
	<path class="st1" d="M-177.2,427.2v-16.8l32.2,32.2h-16.8c-4.1,0-8-1.6-10.9-4.5C-175.5,435.1-177.1,431.2-177.2,427.2
		L-177.2,427.2z M-175.5,694.2L-175.5,694.2c10.4,9.1,23.5,14.4,37.3,14.9v3.9c0,4.1-1.6,8-4.5,10.9c-2.9,2.9-6.8,4.5-10.9,4.5
		h-208.7c-4.1,0-8-1.6-10.9-4.5c-2.9-2.9-4.5-6.8-4.5-10.9V419c0-4.1,1.6-8,4.5-10.9c2.9-2.9,6.8-4.5,10.9-4.5h175.8v23.5
		c0,6.6,2.6,12.9,7.3,17.5c4.7,4.7,11,7.3,17.5,7.3h23.5l0,136.3c-17,0.7-32.8,8.5-43.7,21.5h-53.1c-2.5,0.1-4.5,2.2-4.5,4.7
		c0,2.5,2,4.6,4.5,4.7h46.6c-0.8,1.4-1.5,2.8-2.2,4.2h-1.5h0c-2.3,0-4.2,1.6-4.6,3.8c-0.4,2.2,0.8,4.4,2.8,5.3
		c-3.5,12.7-2.8,26.3,2.1,38.6H-235c-2.5,0.1-4.5,2.2-4.5,4.7c0,2.5,2,4.6,4.5,4.7h47.9c0.9,1.4,1.9,2.9,2.9,4.2h-8
		c-1.3,0-2.5,0.4-3.5,1.3c-0.9,0.9-1.4,2.1-1.4,3.4c0,1.3,0.5,2.5,1.4,3.4c0.9,0.9,2.2,1.4,3.5,1.3L-175.5,694.2z M-284.3,623.4
		c-1.3,0-2.5,0.4-3.5,1.3c-0.9,0.9-1.4,2.1-1.4,3.4s0.5,2.5,1.4,3.4c0.9,0.9,2.2,1.4,3.5,1.3h77.5c1.3,0.1,2.5-0.4,3.5-1.3
		c0.9-0.9,1.4-2.1,1.4-3.4s-0.5-2.5-1.4-3.4c-0.9-0.9-2.2-1.4-3.5-1.3H-284.3z M-249.6,671.1h-34.7c-2.5,0.1-4.5,2.2-4.5,4.7
		c0,2.5,2,4.6,4.5,4.7h34.7c1.3,0,2.5-0.4,3.5-1.3c0.9-0.9,1.4-2.1,1.4-3.4c0-1.3-0.5-2.5-1.4-3.4
		C-247.1,671.5-248.3,671-249.6,671.1L-249.6,671.1z M-284.3,619.2h34.7c1.3,0,2.5-0.4,3.5-1.3c0.9-0.9,1.4-2.1,1.4-3.4
		c0-1.3-0.5-2.5-1.4-3.4c-0.9-0.9-2.2-1.4-3.5-1.3h-34.7c-1.3,0-2.5,0.4-3.5,1.3c-0.9,0.9-1.4,2.1-1.4,3.4c0,1.3,0.5,2.5,1.4,3.4
		C-286.8,618.8-285.6,619.2-284.3,619.2z M-202,566.8L-202,566.8c0-2.6-2.1-4.7-4.7-4.7h-77.5c-1.3,0-2.5,0.4-3.5,1.3
		c-0.9,0.9-1.4,2.1-1.4,3.4s0.5,2.5,1.4,3.4c0.9,0.9,2.2,1.4,3.5,1.3h77.5c1.3,0,2.5-0.5,3.3-1.4C-202.5,569.3-202,568.1-202,566.8
		L-202,566.8z M-284.3,557.9h34.7c1.3,0,2.5-0.4,3.5-1.3c0.9-0.9,1.4-2.1,1.4-3.4c0-1.3-0.5-2.5-1.4-3.4c-0.9-0.9-2.2-1.4-3.5-1.3
		h-34.7c-1.3-0.1-2.5,0.4-3.5,1.3c-0.9,0.9-1.4,2.1-1.4,3.4c0,1.3,0.5,2.5,1.4,3.4C-286.8,557.5-285.6,557.9-284.3,557.9z
		 M-166.7,566.8L-166.7,566.8c0-2.6-2.1-4.7-4.7-4.7h-20.8c-1.3,0-2.5,0.4-3.5,1.3c-0.9,0.9-1.4,2.1-1.4,3.4s0.5,2.5,1.4,3.4
		c0.9,0.9,2.2,1.4,3.5,1.3h20.8C-168.8,571.5-166.7,569.4-166.7,566.8L-166.7,566.8z M-166.4,553.2L-166.4,553.2
		c0-1.3-0.5-2.5-1.4-3.3c-0.9-0.9-2.1-1.4-3.3-1.4h-64c-2.5,0.1-4.5,2.2-4.5,4.7c0,2.5,2,4.6,4.5,4.7h64c1.2,0,2.4-0.5,3.3-1.4
		C-166.8,555.6-166.3,554.4-166.4,553.2L-166.4,553.2z M-265.5,447.9c0,1.2,0.5,2.5,1.4,3.3c0.9,0.9,2.1,1.4,3.3,1.4h63.3
		c2.5-0.1,4.5-2.2,4.5-4.7c0-2.5-2-4.6-4.5-4.7h-63.3C-263.3,443.2-265.5,445.3-265.5,447.9z M-265.5,465.4L-265.5,465.4
		c0,1.2,0.5,2.4,1.4,3.3c0.9,0.9,2.1,1.4,3.3,1.4h63.3c1.3,0,2.5-0.4,3.5-1.3c0.9-0.9,1.4-2.1,1.4-3.4c0-1.3-0.5-2.5-1.4-3.4
		c-0.9-0.9-2.2-1.4-3.5-1.3h-63.3c-1.3,0-2.5,0.5-3.3,1.4C-265,463-265.5,464.2-265.5,465.4L-265.5,465.4z M-265.7,512.8
		c0,1.3,0.5,2.5,1.4,3.3c0.9,0.9,2.1,1.4,3.3,1.4h94.9c1.2,0,2.5-0.5,3.3-1.4c0.9-0.9,1.4-2.1,1.4-3.3v-25.5c0-1.2-0.5-2.5-1.4-3.3
		c-0.9-0.9-2.1-1.4-3.3-1.4H-261c-1.2,0-2.5,0.5-3.3,1.4c-0.9,0.9-1.4,2.1-1.4,3.3V512.8z M-336.6,455.1c0,5.5,2.2,10.8,6.1,14.7
		c3.9,3.9,9.2,6.1,14.7,6.1c5.5,0,10.8-2.2,14.7-6.1c3.9-3.9,6.1-9.2,6.1-14.7c0-5.5-2.2-10.8-6.1-14.7c-3.9-3.9-9.2-6.1-14.7-6.1
		c-5.5,0-10.8,2.2-14.7,6.1C-334.4,444.3-336.6,449.6-336.6,455.1z M-349.9,517.5h68.3c2.6,0,4.7-2.1,4.7-4.7v-0.2
		c0-7.6-2.2-15.1-6.4-21.4c-4.2-6.4-10.2-11.3-17.2-14.3c-1.5-0.7-3.3-0.5-4.6,0.5c-3.1,2.3-6.8,3.5-10.6,3.5
		c-3.8,0-7.5-1.2-10.6-3.5c-1.3-1-3.1-1.2-4.6-0.5c-7,3-13,8-17.2,14.3c-4.2,6.4-6.4,13.8-6.4,21.4v0.2c0,1.3,0.5,2.5,1.4,3.3
		C-352.3,517-351.1,517.5-349.9,517.5L-349.9,517.5z M-298.4,682.9c0-6.8-2.7-13.3-7.5-18.1c-4.8-4.8-11.3-7.5-18.1-7.5
		c-6.8,0-13.3,2.7-18.1,7.5c-4.8,4.8-7.5,11.3-7.5,18.1c0,6.8,2.7,13.3,7.5,18.1c4.8,4.8,11.3,7.5,18.1,7.5c6.8,0,13.3-2.7,18.1-7.5
		C-301.1,696.2-298.4,689.7-298.4,682.9L-298.4,682.9z M-298.4,621.6c0-6.8-2.7-13.3-7.5-18.1c-4.8-4.8-11.3-7.5-18.1-7.5
		c-6.8,0-13.3,2.7-18.1,7.5c-4.8,4.8-7.5,11.3-7.5,18.1c0,6.8,2.7,13.3,7.5,18.1c4.8,4.8,11.3,7.5,18.1,7.5c6.8,0,13.3-2.7,18.1-7.5
		C-301.1,634.9-298.4,628.4-298.4,621.6L-298.4,621.6z M-298.4,560.3L-298.4,560.3c0-6.8-2.7-13.3-7.5-18.1
		c-4.8-4.8-11.3-7.5-18.1-7.5c-6.8,0-13.3,2.7-18.1,7.5c-4.8,4.8-7.5,11.3-7.5,18.1s2.7,13.3,7.5,18.1c4.8,4.8,11.3,7.5,18.1,7.5
		c6.8,0,13.3-2.7,18.1-7.5C-301.1,573.6-298.4,567.1-298.4,560.3L-298.4,560.3z M-202.1,689.4L-202.1,689.4c0-2.6-2.1-4.7-4.7-4.7
		h-77.5c-1.3-0.1-2.5,0.4-3.5,1.3c-0.9,0.9-1.4,2.1-1.4,3.4s0.5,2.5,1.4,3.4c0.9,0.9,2.2,1.4,3.5,1.3h77.5c1.3,0,2.5-0.5,3.3-1.4
		C-202.5,691.9-202,690.7-202.1,689.4L-202.1,689.4z M-315.7,466.6c3,0,5.9-1.2,8.1-3.3s3.3-5,3.3-8.1c0-3-1.2-5.9-3.3-8.1
		c-2.1-2.1-5-3.3-8.1-3.3c-3,0-5.9,1.2-8.1,3.3c-2.1,2.1-3.3,5-3.3,8.1c0,3,1.2,5.9,3.3,8.1C-321.7,465.3-318.8,466.6-315.7,466.6
		L-315.7,466.6z M-302,486.6c-4.2,2.4-8.9,3.7-13.8,3.7c-4.8,0-9.6-1.3-13.8-3.7c-8.2,4.3-13.9,12.3-15.3,21.5h58.1
		C-288.1,498.9-293.8,491-302,486.6L-302,486.6z M-170.8,492l-85.4,0v16.1l85.4,0L-170.8,492z M-307.9,560.3c0,4.3-1.7,8.4-4.7,11.4
		c-3,3-7.1,4.7-11.4,4.7c-4.3,0-8.4-1.7-11.4-4.7c-3-3-4.7-7.1-4.7-11.4c0-4.3,1.7-8.4,4.7-11.4c3-3,7.1-4.7,11.4-4.7
		c4.3,0,8.4,1.7,11.4,4.7C-309.6,551.9-307.9,556-307.9,560.3L-307.9,560.3z M-313.3,552.3c-0.9-0.9-2.1-1.4-3.3-1.4
		c-1.2,0-2.5,0.5-3.3,1.4l-7.6,7.6l-2.3-2.3v0c-0.9-0.9-2.1-1.4-3.4-1.5c-1.3,0-2.5,0.5-3.4,1.4c-0.9,0.9-1.4,2.1-1.4,3.4
		c0,1.3,0.5,2.5,1.5,3.4l5.6,5.6v0c1.8,1.8,4.8,1.8,6.7,0l10.9-10.9c0.9-0.9,1.4-2.1,1.4-3.3S-312.4,553.2-313.3,552.3L-313.3,552.3
		z M-307.8,621.6c0,4.3-1.7,8.4-4.7,11.4c-3,3-7.1,4.7-11.4,4.7c-4.3,0-8.4-1.7-11.4-4.7c-3-3-4.7-7.1-4.7-11.4
		c0-4.3,1.7-8.4,4.7-11.4c3-3,7.1-4.7,11.4-4.7c4.3,0,8.4,1.7,11.4,4.7C-309.6,613.2-307.9,617.3-307.8,621.6L-307.8,621.6z
		 M-313.3,613.7c-1.8-1.8-4.8-1.8-6.7,0l-7.6,7.6l-2.3-2.3c-1.9-1.8-4.8-1.7-6.6,0.1c-1.8,1.8-1.8,4.7-0.1,6.6l5.6,5.6
		c0.9,0.9,2.1,1.4,3.3,1.4c1.3,0,2.5-0.5,3.3-1.4l10.9-10.9c0.9-0.9,1.4-2.1,1.4-3.3C-311.9,615.7-312.4,614.5-313.3,613.7
		L-313.3,613.7z M-307.8,682.9c0,4.3-1.7,8.4-4.7,11.4c-3,3-7.1,4.7-11.4,4.7c-4.3,0-8.4-1.7-11.4-4.7c-3-3-4.7-7.1-4.7-11.4
		c0-4.3,1.7-8.4,4.7-11.4c3-3,7.1-4.7,11.4-4.7c4.3,0,8.4,1.7,11.4,4.7C-309.6,674.5-307.9,678.6-307.8,682.9L-307.8,682.9z
		 M-313.3,674.9c-0.9-0.9-2.1-1.4-3.3-1.4c-1.2,0-2.5,0.5-3.3,1.4l-7.6,7.6l-2.3-2.3c-1.9-1.8-4.8-1.7-6.6,0.1
		c-1.8,1.8-1.8,4.7-0.1,6.6l5.6,5.6c0.9,0.9,2.1,1.4,3.3,1.4c1.3,0,2.5-0.5,3.3-1.4l10.9-10.9c0.9-0.9,1.4-2.1,1.4-3.3
		C-311.9,677-312.4,675.8-313.3,674.9L-313.3,674.9z M-84.7,648.6c0,13.5-5.4,26.5-14.9,36.1c-9.6,9.6-22.6,15-36.1,15
		c-13.5,0-26.5-5.4-36.1-14.9c-9.6-9.6-15-22.6-15-36.1c0-13.5,5.4-26.5,14.9-36.1c9.6-9.6,22.6-15,36.1-15c13.5,0,26.5,5.4,36.1,15
		C-90.1,622.2-84.7,635.1-84.7,648.6L-84.7,648.6z M-103.6,638.3c0-2.6-2.1-4.7-4.7-4.7h-12.3v-12.3c0-2.6-2.1-4.7-4.7-4.7h-20.7
		c-2.6,0-4.7,2.1-4.7,4.7v12.3h-12.3c-2.6,0-4.7,2.1-4.7,4.7V659c0,2.6,2.1,4.7,4.7,4.7h12.3v12.3l0,0c0,2.6,2.1,4.7,4.7,4.7h20.7
		c2.6,0,4.7-2.1,4.7-4.7v-12.3h12.3c2.6,0,4.7-2.1,4.7-4.7L-103.6,638.3z M-130.1,638.3l0-12.3h-11.3v12.3c0,1.2-0.5,2.5-1.4,3.3
		s-2.1,1.4-3.3,1.4h-12.3v11.3h12.3c1.3,0,2.5,0.5,3.3,1.4c0.9,0.9,1.4,2.1,1.4,3.3v12.3h11.3l0-12.3c0-1.2,0.5-2.5,1.4-3.3
		c0.9-0.9,2.1-1.4,3.3-1.4h12.3V643h-12.3c-1.2,0-2.5-0.5-3.3-1.4C-129.6,640.8-130.1,639.6-130.1,638.3L-130.1,638.3z"/>
</g>
<path class="st1" d="M272.4,116.6l-4,3.2l-21,18.2l12.9,12.9h22.5l13.6-13.6L272.9,117L272.4,116.6z"/>
<path class="st1" d="M363.9,257.8l42.5,22.2h9.8v-66.3h-52.3L363.9,257.8z"/>
<path class="st1" d="M263.1,115.1l-10-11.8c-26-30.6-42.7-50.9-49.9-62.2l-7,23.3l32.5,80.6L263.1,115.1z"/>
<path class="st1" d="M363.9,192.8h52.3v13.9h-52.3V192.8z"/>
<path class="st1" d="M261.1,157.9l-48.5,198.8h114.9l-44.1-198.8H261.1z"/>
<path class="st1" d="M391.8,60.3h-36.4l-36.8,96.4l-17.1-14.8l-12,12l44.9,202.9h57.2c6.5,0,12.7-2.6,17.3-7.2
	c4.6-4.6,7.2-10.8,7.2-17.3V287h-11.5l-47.8-25v-76.2h59.3V84.7c0-6.5-2.6-12.7-7.2-17.3C404.5,62.8,398.3,60.3,391.8,60.3
	L391.8,60.3z"/>
<path class="st1" d="M281.3,115l34.4,29.9l31-81.3l-6.8-22.5c-7.3,11.8-24.4,33.1-50.5,64.3L281.3,115z"/>
<path class="st1" d="M242.1,142.6l-16.2,14l-38.8-96.3h-35.9c-6.5,0-12.7,2.6-17.3,7.2c-4.6,4.6-7.2,10.8-7.2,17.3v247.7
	c0,6.5,2.6,12.7,7.2,17.3c4.6,4.6,10.8,7.2,17.3,7.2h54l49.2-201.7L242.1,142.6z"/>
<path class="st1" d="M272.2,115.1c2.4-3,6.6-8.1,11.9-14.4c15.5-18.6,51.9-62.1,52.8-69c0-0.4,0-0.7,0-1.1l-1.4-3.5h0
	c-1.5-1.3-3.4-1.9-5.4-1.7h-117c-2-0.2-3.9,0.5-5.4,1.7c-1.1,1.3-1.7,3-1.6,4.7c1,6.6,36.9,48.8,52.3,66.9
	C264.5,105.9,269.5,111.7,272.2,115.1L272.2,115.1z"/>
</svg>
