<?xml version="1.0" encoding="utf-8"?>
<!-- Generator: Adobe Illustrator 26.2.1, SVG Export Plug-In . SVG Version: 6.00 Build 0)  -->
<svg version="1.1" id="Layer_1" xmlns="http://www.w3.org/2000/svg" xmlns:xlink="http://www.w3.org/1999/xlink" x="0px" y="0px"
	 viewBox="0 0 140 100" style="enable-background:new 0 0 140 100;" xml:space="preserve">
<style type="text/css">
	.st0{fill:#D7CBAC;}
</style>
<path class="st0" d="M22.8,76.5c0.5,0,1.1-0.2,1.5-0.6c1.6-1.6,3.3-2.8,5.1-3.7l19.3,19.2c-0.9,1.8-2.2,3.5-3.8,5.1
	c-0.8,0.8-0.8,2.2,0,3c0.4,0.4,1,0.6,1.5,0.6c0.5,0,1.1-0.2,1.5-0.6c7.6-7.6,8.1-17,7.5-26.5c-0.9-0.1-1.8-0.2-2.7-0.2
	c-0.5,0-1.1-0.1-1.6-0.1c0.2,2.6,0.3,5.1,0.2,7.6L40.6,69.5c4-0.2,8.1,0.2,12.4,0.5c11,0.9,22.5,1.9,31.1-6.6c0,0,0,0,0.1,0
	c0,0,0,0,0,0c0,0,0,0,0,0c0,0,0,0,0,0c9-9,8-20.6,7-31.8c-0.3-3.8-0.7-7.6-0.6-11.1l10.1,10c-2.3,0-4.6-0.1-7-0.2
	c0,0.4,0.1,0.7,0.1,1.1c0.1,1.1,0.2,2.1,0.3,3.2c9.5,0.6,18.9,0.3,26.3-7.1c0.8-0.8,0.8-2.2,0-3c-0.8-0.8-2.2-0.8-3,0
	c-1.6,1.6-3.3,2.8-5.2,3.7L93.2,9c0.9-1.8,2.1-3.6,3.7-5.1c0.8-0.8,0.8-2.2,0-3c-0.8-0.8-2.2-0.8-3,0c-8.7,8.6-7.7,20-6.7,31
	c0.3,3.9,0.7,7.8,0.6,11.5l-10-9.9c2.2-0.1,4.5,0,6.8,0.2c0-0.5-0.1-1.1-0.1-1.6c-0.1-0.9-0.2-1.8-0.2-2.7c-9.5-0.6-19-0.1-26.6,7.4
	c0,0,0,0,0,0c0,0,0,0,0,0c0,0,0,0,0,0c0,0,0,0,0,0c-7.3,7.3-7.7,16.6-7.1,26c1.1,0.1,2.1,0.2,3.2,0.3c0.4,0,0.7,0.1,1.1,0.1
	c-0.2-2.3-0.3-4.6-0.2-6.8l10,9.9c-3.5,0.1-7.3-0.3-11.1-0.6c-11.3-1-23.1-2-32.1,7c-0.8,0.8-0.8,2.2,0,3
	C21.7,76.3,22.2,76.5,22.8,76.5L22.8,76.5z M92.3,11.1l18,17.8c-2.1,0.7-4.2,1.1-6.5,1.3L90.9,17.6C91.1,15.3,91.5,13.2,92.3,11.1z
	 M74.8,33.7l12.6,12.5c-0.2,2.2-0.6,4.4-1.3,6.4L68.4,35C70.4,34.3,72.6,33.9,74.8,33.7z M66.2,35.9l19,18.9
	c-0.8,1.6-1.8,3.2-3.1,4.7L61.5,39C63,37.7,64.6,36.7,66.2,35.9L66.2,35.9z M60,40.5l20.6,20.5c-1.5,1.3-3,2.4-4.7,3.1l-19.1-19
	C57.6,43.5,58.7,41.9,60,40.5L60,40.5z M54.6,53.7c0.2-2.2,0.6-4.4,1.3-6.4L73.9,65c-2.1,0.7-4.2,1.1-6.5,1.3L54.6,53.7z M37.8,69.7
	L51.2,83c-0.3,2.2-0.7,4.3-1.5,6.3l-18.1-18C33.5,70.5,35.6,70,37.8,69.7z"/>
</svg>
