<?xml version="1.0" encoding="utf-8"?>
<!-- Generator: Adobe Illustrator 26.2.1, SVG Export Plug-In . SVG Version: 6.00 Build 0)  -->
<svg version="1.1" id="Layer_1" xmlns="http://www.w3.org/2000/svg" xmlns:xlink="http://www.w3.org/1999/xlink" x="0px" y="0px"
	 viewBox="0 0 140 100" style="enable-background:new 0 0 140 100;" xml:space="preserve">
<style type="text/css">
	.st0{fill-rule:evenodd;clip-rule:evenodd;fill:#D7CBAC;}
</style>
<path class="st0" d="M15.6,43.1C-3.8,19.6,13.4-5.3,46.1,9.8c-2.1,2.6-3.1,6.1-3.6,8.2c1.4,0.1,3.6,2.2,4,3.5
	c10.6,1.5,13.8,2.8,14.4,17.5c0.3,7.9,1.5,13.5,7.4,19.2L68.2,88c-3.1-0.4-5.7-1.8-7.1-4.4c1.2,4.3,2.4,8.9,3.5,13.3h-3.8
	c-2.9-8.6-7.9-14.7-0.6-23.2c0.4-0.4,0.6-1,0.4-1.5c-2.2-8.8-4.6-17.2-7.1-25.7c-2.2-8.1-4.9-16.1-7.5-24.4
	c-3.9,0.4-7.2,5.1-8.1,8.8c-0.3,1.4-0.4,2.9-0.3,4.6c0.1,5.6-1,9.6-6.3,12.2c-4,1.8-9.7,1.8-11.9-2.8c-2.2-4.7,1.2-10.1,5.6-12.2
	c2.5-1.1,5-1.7,7.6-0.8c0.7-5.7,3.9-11,9.2-13.5c-4.3-2.8-9.3-5-13.9-5c-9.7-0.1-15.1,9.7-6.4,14.7c0.7,0.4,1.7,1,2.6,1.2
	C19,31.4,14.8,37,15.6,43.1L15.6,43.1z M102.2,35.3c0,1.2,0,2.2,0.1,2.8c-0.1,4,2.6,7.6,6.1,9.4c4.3,2.1,9.9,1.8,12.1-3.1
	c1-2.2,0.6-4.4-0.1-6.7c-2.2-4.7-8.1-7.6-13.1-6.3c-0.7-5.7-3.9-11-9.2-13.5c4.3-2.8,9.3-5,13.9-5c11.4-0.1,15.4,11.9,3.8,16
	c5.1,2.2,9.3,7.9,8.6,13.9c19.3-23.5,2.2-48.1-30.3-33.2c1.8,2.2,2.9,5,3.2,8.1c-1.4,0.6-3.3,2.2-3.8,3.5
	C83,22.8,79.8,24.1,79.1,38.8c-0.3,8.1-1.5,13.6-7.5,19.3l0.1,29.7c3.1-0.3,5.8-1.8,7.2-4.4c-1,3.5-2.2,9.3-3.3,13.3h3.5
	c3.1-8.5,7.6-14.9,0.6-23.1c-0.4-0.4-0.6-1-0.6-1.7c2.2-8.8,4.6-17.2,7.1-25.7c2.4-8.1,4.9-16.1,7.5-24.4
	C99.4,22.7,102.5,29.9,102.2,35.3L102.2,35.3z M93.6,16.3c-7.1-2.8-17.1-3.5-23.5,1.1c-6.4-4.6-16.4-3.9-23.5-1.1
	C51.2-1.2,88.7-1.2,93.6,16.3L93.6,16.3z M49.8,18.6c5.8-1.7,14.2-1.9,19,2.2c0.6,0.6,1.5,0.6,2.1-0.1c4.9-4.2,13.3-3.9,19-2.2
	c-10.1,1.8-13.5,4.2-14.3,20.3c-0.3,6.5-1.1,11.4-5.8,16.3c-4.7-4.7-5.4-9.7-5.8-16.3C63.4,22.8,60.1,20.3,49.8,18.6z"/>
</svg>
