<svg width="87" height="88" viewBox="0 0 87 88" fill="none" xmlns="http://www.w3.org/2000/svg">
<path d="M10.7242 71.7676L13.4225 69.0693L18.6235 74.2704L15.9253 76.9686L10.7242 71.7676Z" fill="#D7CBAC"/>
<path d="M0 82.4946C0.270022 85.2389 2.45737 87.4262 5.20168 87.6962L13.8754 79.0225L8.67372 73.8188L0 82.4946ZM4.32227 84.8225C3.51998 84.8225 2.87179 84.1743 2.87179 83.372C2.87179 82.5697 3.51998 81.9215 4.32227 81.9215C5.12456 81.9215 5.77276 82.5697 5.77276 83.372C5.77276 84.1743 5.12456 84.8225 4.32227 84.8225Z" fill="#D7CBAC"/>
<path d="M65.2426 29.704C74.04 29.704 81.1979 22.5461 81.1979 13.7487V9.39723H86.9998V6.49627H81.1979V0.694336H78.2969V6.49627H73.9455C65.1481 6.49627 57.9902 13.6542 57.9902 22.4516V26.803H53.6387C50.8828 26.803 48.2894 27.5063 46.0236 28.741L40.9819 23.6993L48.3127 12.1797C48.6274 12.2515 48.9506 12.2982 49.2873 12.2982C51.6865 12.2982 53.6387 10.3459 53.6387 7.94672C53.6387 5.54754 51.6865 3.59527 49.2873 3.59527C46.8881 3.59527 44.9358 5.54754 44.9358 7.94672C44.9358 8.95493 45.2939 9.87313 45.8728 10.6113L38.8813 21.5973L32.5108 15.2268C33.0197 14.3637 33.3319 13.3717 33.3319 12.298C33.3319 9.09849 30.7294 6.49607 27.5299 6.49607C24.3304 6.49607 21.728 9.09849 21.728 12.298C21.728 15.4975 24.3304 18.0999 27.5299 18.0999C28.6035 18.0999 29.5956 17.7878 30.4587 17.2776L32.4674 19.2862L25.8702 23.4097C25.1262 22.8198 24.1996 22.4514 23.1785 22.4514C20.7793 22.4514 18.827 24.4036 18.827 26.8028C18.827 29.202 20.7793 31.1543 23.1785 31.1543C25.5777 31.1543 27.5299 29.202 27.5299 26.8028C27.5299 26.4791 27.4891 26.1663 27.4211 25.8626L34.5733 21.392L43.5734 30.3921C39.9822 33.3196 37.6834 37.774 37.6834 42.7581V47.1096H33.332C28.3161 47.1096 23.6922 49.3987 20.6448 53.3888L22.9513 55.1494C23.2214 54.7952 23.5127 54.4663 23.8132 54.1457L33.5535 63.886C33.2071 64.2098 32.8444 64.5212 32.4585 64.81L34.2004 67.1308C38.2579 64.0848 40.5845 59.4303 40.5845 54.3621V50.0106H44.936C53.082 50.0106 59.8093 43.8707 60.7636 35.9786L70.647 45.8619L63.315 57.3816C63.0016 57.3097 62.6765 57.2631 62.3417 57.2631C59.9426 57.2631 57.9903 59.2154 57.9903 61.6145C57.9903 64.0137 59.9426 65.966 62.3417 65.966C64.7409 65.966 66.6932 64.0137 66.6932 61.6145C66.6932 60.6063 66.3351 59.6881 65.7562 58.95L72.7477 47.9639L76.2173 51.4335C75.7083 52.2966 75.3962 53.2886 75.3962 54.3623C75.3962 57.5618 77.9986 60.1642 81.1981 60.1642C84.3976 60.1642 87 57.5618 87 54.3623C87 51.1628 84.3976 48.5603 81.1981 48.5603C80.1245 48.5603 79.1325 48.8725 78.2693 49.3827L71.9092 43.0226L78.5063 38.8991C79.2504 39.489 80.177 39.8575 81.1981 39.8575C83.5973 39.8575 85.5496 37.9052 85.5496 35.506C85.5496 33.1068 83.5973 31.1546 81.1981 31.1546C78.7989 31.1546 76.8467 33.1068 76.8467 35.506C76.8467 35.8298 76.8875 36.1425 76.9554 36.4463L69.8033 40.9169L60.8912 32.0048V29.7041L65.2426 29.704ZM73.9455 9.39723H78.2969V13.7487C78.2969 14.4694 78.2231 15.1713 78.1098 15.8622L71.832 9.58439C72.5209 9.47107 73.2248 9.39723 73.9455 9.39723ZM68.6674 10.5227L77.1729 19.0268C76.7144 20.0583 76.1284 21.0187 75.4323 21.889L65.8067 12.2634C66.677 11.566 67.6373 10.98 68.6676 10.5228L68.6674 10.5227ZM63.7558 14.3126L73.3814 23.9382C72.5111 24.6343 71.5508 25.2203 70.5212 25.6775L62.0157 17.1733C62.4735 16.1431 63.0596 15.1828 63.7556 14.3125L63.7558 14.3126ZM60.8911 22.4516C60.8911 21.7309 60.965 21.029 61.0783 20.338L67.3561 26.6159C66.6672 26.7292 65.9633 26.803 65.2426 26.803H60.8911L60.8911 22.4516ZM49.2873 6.49628C50.0876 6.49628 50.7378 7.14771 50.7378 7.94677C50.7378 8.74582 50.0876 9.39725 49.2873 9.39725C48.4869 9.39725 47.8368 8.74582 47.8368 7.94677C47.8368 7.14771 48.4869 6.49628 49.2873 6.49628ZM27.53 15.1992C25.93 15.1992 24.6291 13.8983 24.6291 12.2982C24.6291 10.6982 25.93 9.39725 27.53 9.39725C29.1301 9.39725 30.431 10.6982 30.431 12.2982C30.431 13.8983 29.1301 15.1992 27.53 15.1992ZM23.1786 28.2535C22.3782 28.2535 21.7281 27.6021 21.7281 26.803C21.7281 26.004 22.3782 25.3526 23.1786 25.3526C23.9789 25.3526 24.6291 26.004 24.6291 26.803C24.6291 27.6021 23.9789 28.2535 23.1786 28.2535ZM35.4422 61.6743L26.0225 52.2546C26.9738 51.609 28.0027 51.0929 29.0886 50.72L36.9736 58.6049C36.6013 59.6928 36.0891 60.7223 35.4422 61.6743ZM37.6834 54.3624C37.6834 54.6337 37.653 54.8979 37.6368 55.166L32.5284 50.0576C32.7952 50.0401 33.0607 50.011 33.332 50.011H37.6835L37.6834 54.3624ZM44.9358 47.11H40.5844V42.7585C40.5844 42.0378 40.6582 41.3359 40.7715 40.645L47.0494 46.9228C46.3604 47.0361 45.6566 47.11 44.9358 47.11ZM50.2139 45.9859L41.7098 37.4817C42.1682 36.4502 42.7543 35.4898 43.4504 34.6195L53.0759 44.2451C52.2044 44.9412 51.244 45.5272 50.2138 45.9857L50.2139 45.9859ZM55.1255 42.1945L45.5 32.569C46.3702 31.8729 47.3292 31.2868 48.3601 30.8297L56.8656 39.3339C56.4078 40.3641 55.8218 41.3244 55.1257 42.1947L55.1255 42.1945ZM57.9902 34.0556C57.9902 34.7763 57.9164 35.4782 57.803 36.1691L51.5252 29.8913C52.2142 29.778 52.918 29.7042 53.6387 29.7042H57.9902L57.9902 34.0556ZM62.3416 63.0652C61.5413 63.0652 60.8911 62.4151 60.8911 61.6148C60.8911 60.8144 61.5413 60.1643 62.3416 60.1643C63.142 60.1643 63.7921 60.8144 63.7921 61.6148C63.7921 62.4151 63.142 63.0652 62.3416 63.0652ZM81.1979 51.4614C82.798 51.4614 84.0989 52.7623 84.0989 54.3623C84.0989 55.9624 82.798 57.2633 81.1979 57.2633C79.5979 57.2633 78.2969 55.9624 78.2969 54.3623C78.2969 52.7623 79.5979 51.4614 81.1979 51.4614ZM81.1979 34.0556C81.9983 34.0556 82.6484 34.707 82.6484 35.5061C82.6484 36.3051 81.9983 36.9566 81.1979 36.9566C80.3976 36.9566 79.7474 36.3051 79.7474 35.5061C79.7474 34.707 80.3976 34.0556 81.1979 34.0556Z" fill="#D7CBAC"/>
<path d="M49.2607 52.3912C49.2666 52.5654 49.2866 52.7363 49.2866 52.9118C49.2866 60.9095 42.7795 67.4166 34.7818 67.4166C26.7841 67.4166 20.277 60.9095 20.277 52.9118C20.277 44.9141 26.7841 38.407 34.7818 38.407C34.9573 38.407 35.1282 38.427 35.3024 38.4329C35.7764 36.4209 36.5742 34.5366 37.6374 32.8297C36.7024 32.6976 35.7538 32.605 34.7817 32.605C23.5838 32.605 14.475 41.7152 14.475 52.9117C14.475 57.9263 16.3114 62.5128 19.334 66.0588L16.9245 68.4682L19.2253 70.7689L21.6347 68.3595C25.1807 71.3821 29.7672 73.2185 34.7817 73.2185C45.9796 73.2185 55.0885 64.1096 55.0885 52.9117C55.0885 51.9398 54.9959 50.9911 54.8638 50.0555C53.1562 51.1188 51.2727 51.9166 49.2607 52.3912Z" fill="#D7CBAC"/>
</svg>
