<?xml version="1.0" encoding="utf-8"?>
<!-- Generator: Adobe Illustrator 26.2.1, SVG Export Plug-In . SVG Version: 6.00 Build 0)  -->
<svg version="1.1" id="Layer_1" xmlns="http://www.w3.org/2000/svg" xmlns:xlink="http://www.w3.org/1999/xlink" x="0px" y="0px"
	 viewBox="0 0 140 100" style="enable-background:new 0 0 140 100;" xml:space="preserve">
<style type="text/css">
	.st0{fill:#D7CBAC;}
	.st1{fill-rule:evenodd;clip-rule:evenodd;fill:#D7CBAC;}
</style>
<path class="st0" d="M64.5,31.2c-0.2,0-0.5,0.1-0.8,0.2c-3.5,2-7,6.1-8.1,10.6c1.6-0.2,3.5,0.2,4.7,1.7c0.1,0.1,0.1,0.2,0.2,0.2
	c0.9-3,2.7-5.3,5.4-7.3c0.5-0.3,0.8-0.9,0.6-1.5l-1-3.2C65.3,31.5,65,31.2,64.5,31.2z"/>
<path class="st0" d="M29.8,25.7c-4.4,0-6.2,2.4-6.2,5.3v32.1c0,2.6,2,4.9,4.6,5.2L47,70.8l8.2,23.2c2.4,6.6,12.3,3.1,10-3.6
	l-9.3-26.2c-0.7-1.9-2.3-3.2-4.3-3.5l-14.4-1.9v-2.4c0-1.6-0.6-2.9-1.3-4.4l-5.2-12.3c-0.5-1.2,0.6-1.8,1.2-0.6l5.9,12
	c0.7,1.4,2.2,2.2,3.7,1.9l15.5-2.4c1.3-0.2,2.2-0.6,2.5-1.4c0.7-1.7,0.7-3.1-0.2-4.3c-0.9-1.1-2.3-1.3-3.8-1.1
	c-3.9,0.6-11.8,1.8-11.8,1.8c-0.5,0.1-0.9-0.2-1.1-0.6l-6.5-14.3C34.8,27.8,32.6,25.8,29.8,25.7L29.8,25.7z"/>
<path class="st0" d="M18.9,34.3c-1.3,0-2.3,1.1-2.3,2.3v27.5c0,2.3,0.5,4.8,1.8,6.8c1.2,1.9,3.1,3.4,5.6,4l-7.8,19.5
	c-1.3,2.9,3.2,4.7,4.3,1.7l8.3-20.5l12.1,1.5l7.7,19c1,3.1,5.7,1.2,4.3-1.7l-8.1-20.3c-0.3-0.8-1-1.3-1.9-1.4l-17.2-2.1
	c-1.6-0.2-2.5-0.9-3.2-2c-0.7-1.1-1.1-2.7-1.1-4.4V36.7C21.3,35.4,20.2,34.3,18.9,34.3L18.9,34.3z"/>
<path class="st0" d="M119.8,34.3c1.3,0,2.3,1.1,2.3,2.3v27.5c0,2.3-0.5,4.8-1.8,6.8c-1.2,1.9-3.1,3.4-5.6,4l7.9,19.5
	c1.3,2.9-3.2,4.7-4.3,1.7l-8.3-20.5l-12.1,1.5l-7.7,19c-1,3.1-5.7,1.2-4.3-1.7l8.2-20.3c0.3-0.8,1-1.3,1.9-1.4l17.2-2.1
	c1.6-0.2,2.5-0.9,3.2-2c0.7-1.1,1.1-2.7,1.1-4.4l0-27.5C117.4,35.4,118.5,34.3,119.8,34.3L119.8,34.3z"/>
<path class="st0" d="M108.2,25.7c-3.4,0-5.1,1.9-5.4,5.7l-1.6,17.8c0,0.4-0.3,0.8-0.7,0.9l-15,4.8c0,0,0,0,0,0
	c-1.3,0.4-1.9,1-2.3,1.8c-0.4,0.8-0.4,1.7-0.1,2.6c0.3,0.9,0.8,1.7,1.6,2.1c1.2,0.6,2.1,0.4,2.9,0.1l17.8-5.7c1.3-0.4,2.3-1.6,2.4-3
	l2-15.8c0.1-1,1.5-0.9,1.4,0.2l-1.4,15.8c-0.2,2.2-1.7,4-3.8,4.7l-17.8,5.7c-1.7,0.6-3.4,0.4-4.6-0.3c-0.1,0-0.2-0.1-0.2-0.2
	c-0.2,0.4-0.5,0.7-0.6,1.2l-9.3,26.2c-2.4,6.6,7.6,10.2,10,3.6l8.2-23.2l18.8-2.4c2.6-0.3,4.6-2.6,4.6-5.2l0-32.1
	C115,28.1,112.6,25.7,108.2,25.7L108.2,25.7z"/>
<path class="st1" d="M116.7,16.7c-2.3,5.3-8.4,7.7-13.6,5.4c-5.2-2.3-7.7-8.4-5.4-13.6c2.3-5.3,8.4-7.7,13.6-5.4
	C116.5,5.4,118.9,11.5,116.7,16.7z"/>
<path class="st1" d="M21.9,16.7c2.3,5.3,8.4,7.7,13.6,5.4c5.3-2.3,7.7-8.4,5.4-13.6c-2.3-5.3-8.4-7.7-13.6-5.4
	C22.1,5.4,19.6,11.5,21.9,16.7z"/>
<path class="st1" d="M21.9,16.7c2.3,5.3,8.4,7.7,13.6,5.4c5.3-2.3,7.7-8.4,5.4-13.6c-2.3-5.3-8.4-7.7-13.6-5.4
	C22.1,5.4,19.6,11.5,21.9,16.7z"/>
</svg>
