<svg width="119" height="101" viewBox="0 0 119 101" fill="none" xmlns="http://www.w3.org/2000/svg">
<path d="M1.5375 85.5078H3.82656C5.13906 85.5078 6.02448 85.5651 6.48281 85.6797C7.13906 85.8411 7.67552 86.1745 8.09219 86.6797C8.50885 87.1797 8.71719 87.8099 8.71719 88.5703C8.71719 89.3359 8.51406 89.9688 8.10781 90.4688C7.70156 90.9635 7.14167 91.2969 6.42812 91.4688C5.90729 91.5938 4.93333 91.6562 3.50625 91.6562H2.68594V97H1.5375V85.5078ZM2.68594 86.625V90.5312L4.63125 90.5547C5.41771 90.5547 5.99323 90.4844 6.35781 90.3438C6.72239 90.1979 7.00885 89.9661 7.21719 89.6484C7.42552 89.3255 7.52969 88.9661 7.52969 88.5703C7.52969 88.1849 7.42552 87.8333 7.21719 87.5156C7.00885 87.1927 6.73281 86.9635 6.38906 86.8281C6.05052 86.6927 5.49323 86.625 4.71719 86.625H2.68594ZM14.2141 85.5078H15.3703V95.8906H19.7844V97H14.2141V85.5078ZM29.5 85.5078L34.8594 97H33.625L31.8203 93.2188H26.8672L25.0703 97H23.7891L29.2187 85.5078H29.5ZM29.3594 87.9453L27.3828 92.1094H31.3125L29.3594 87.9453ZM36.9891 85.5078H38.3172L41.2547 90.2422L44.1453 85.5078H45.4734L41.8328 91.5078V97H40.7V91.5078L36.9891 85.5078ZM57.3266 85.5078H58.5766L62.3812 94.3906L66.2562 85.5078H67.5062L62.5062 97H62.2562L57.3266 85.5078ZM72.4719 85.5078H73.6203V97H72.4719V85.5078ZM79.4609 97V85.5078H81.8438C83.5625 85.5078 84.8099 85.6458 85.5859 85.9219C86.7005 86.3125 87.5703 86.9896 88.1953 87.9531C88.8255 88.9167 89.1406 90.0651 89.1406 91.3984C89.1406 92.5495 88.8906 93.5625 88.3906 94.4375C87.8958 95.3125 87.25 95.9583 86.4531 96.375C85.6615 96.7917 84.5495 97 83.1172 97H79.4609ZM80.5625 95.9141H81.8906C83.4792 95.9141 84.5807 95.8151 85.1953 95.6172C86.0599 95.3359 86.7396 94.8307 87.2344 94.1016C87.7292 93.3672 87.9766 92.4714 87.9766 91.4141C87.9766 90.3047 87.7083 89.3568 87.1719 88.5703C86.6354 87.7839 85.888 87.2448 84.9297 86.9531C84.2109 86.7344 83.026 86.625 81.375 86.625H80.5625V95.9141ZM94.575 85.5078H101.161V86.6406H95.7234V90.2344H101.114V91.3594H95.7234V95.8672H101.114V97H94.575V85.5078ZM111.822 85.2188C113.561 85.2188 115.017 85.7995 116.189 86.9609C117.361 88.1224 117.947 89.5521 117.947 91.25C117.947 92.9323 117.361 94.3594 116.189 95.5312C115.022 96.7031 113.598 97.2891 111.916 97.2891C110.213 97.2891 108.775 96.7057 107.603 95.5391C106.431 94.3724 105.845 92.9609 105.845 91.3047C105.845 90.2005 106.111 89.1771 106.642 88.2344C107.179 87.2917 107.908 86.5547 108.83 86.0234C109.752 85.487 110.749 85.2188 111.822 85.2188ZM111.877 86.3438C111.028 86.3438 110.223 86.5651 109.463 87.0078C108.702 87.4505 108.108 88.0469 107.681 88.7969C107.254 89.5469 107.041 90.3828 107.041 91.3047C107.041 92.6693 107.512 93.8229 108.455 94.7656C109.403 95.7031 110.543 96.1719 111.877 96.1719C112.767 96.1719 113.59 95.9557 114.345 95.5234C115.106 95.0911 115.697 94.5 116.119 93.75C116.546 93 116.759 92.1667 116.759 91.25C116.759 90.3385 116.546 89.5156 116.119 88.7812C115.697 88.0417 115.101 87.4505 114.33 87.0078C113.559 86.5651 112.741 86.3438 111.877 86.3438Z" fill="white" fill-opacity="0.8"/>
<g clip-path="url(#clip0_260_218)">
<path d="M59 56.25C52.0381 56.25 45.3613 53.4844 40.4384 48.5616C35.5156 43.6387 32.75 36.9619 32.75 30C32.75 23.0381 35.5156 16.3613 40.4384 11.4384C45.3613 6.51562 52.0381 3.75 59 3.75C65.9619 3.75 72.6387 6.51562 77.5616 11.4384C82.4844 16.3613 85.25 23.0381 85.25 30C85.25 36.9619 82.4844 43.6387 77.5616 48.5616C72.6387 53.4844 65.9619 56.25 59 56.25ZM59 60C66.9565 60 74.5871 56.8393 80.2132 51.2132C85.8393 45.5871 89 37.9565 89 30C89 22.0435 85.8393 14.4129 80.2132 8.7868C74.5871 3.16071 66.9565 0 59 0C51.0435 0 43.4129 3.16071 37.7868 8.7868C32.1607 14.4129 29 22.0435 29 30C29 37.9565 32.1607 45.5871 37.7868 51.2132C43.4129 56.8393 51.0435 60 59 60Z" fill="white" fill-opacity="0.8"/>
<path d="M52.5163 18.9561C52.8229 18.7981 53.1673 18.7279 53.5113 18.753C53.8553 18.7782 54.1858 18.8977 54.4663 19.0986L67.5913 28.4736C67.8343 28.647 68.0324 28.876 68.1691 29.1415C68.3058 29.4069 68.3771 29.7012 68.3771 29.9998C68.3771 30.2984 68.3058 30.5927 68.1691 30.8582C68.0324 31.1236 67.8343 31.3526 67.5913 31.5261L54.4663 40.9011C54.1859 41.1017 53.8556 41.2212 53.5117 41.2464C53.1679 41.2715 52.8237 41.2013 52.5171 41.0436C52.2106 40.8858 51.9534 40.6466 51.774 40.3522C51.5945 40.0578 51.4997 39.7196 51.5 39.3748V20.6248C51.4996 20.2801 51.5943 19.942 51.7736 19.6476C51.9529 19.3532 52.2098 19.1139 52.5163 18.9561Z" fill="white" fill-opacity="0.8"/>
</g>
<defs>
<clipPath id="clip0_260_218">
<rect width="60" height="60" fill="white" transform="translate(29)"/>
</clipPath>
</defs>
</svg>
