<?xml version="1.0" encoding="utf-8"?>
<!-- Generator: Adobe Illustrator 26.2.1, SVG Export Plug-In . SVG Version: 6.00 Build 0)  -->
<svg version="1.1" id="Layer_1" xmlns="http://www.w3.org/2000/svg" xmlns:xlink="http://www.w3.org/1999/xlink" x="0px" y="0px"
	 viewBox="0 0 130 95.8" style="enable-background:new 0 0 130 95.8;" xml:space="preserve">
<style type="text/css">
	.st0{fill:#CCCCCC;fill-opacity:0.2;}
	.st1{fill:#D7CBAC;}
</style>
<path class="st0" d="M89.4,23.8V10.9h7.2V6.6h-61v4.4h7.2v12.9c0,5.3,2.5,10.1,6.9,13.1l12.6,8.6l-12.6,8.7c-4.3,3-6.9,7.9-6.9,13.1
	v12.9h-7.2v4.4h61v-4.4h-7.2l0-13c0-5.3-2.5-10.1-6.9-13.1L70,45.6l12.6-8.7C86.9,33.9,89.4,29,89.4,23.8L89.4,23.8z M47.2,23.8
	V10.9h37.8v12.9c0,3.4-1.6,6.6-4.1,8.9l-29.6,0C48.8,30.5,47.2,27.3,47.2,23.8L47.2,23.8z M80.1,57.8c3.1,2.1,5,5.7,5,9.5v11.2
	L69.1,62.4c-1.6-1.6-4.2-1.6-5.8,0l-16,16.1V67.3c0-3.8,1.9-7.4,5-9.5l14-9.6L80.1,57.8z"/>
<path class="st1" d="M40.5,10.8h33.9c5.8,0,10.3,1.6,13.5,4.9c3.3,3.3,4.9,7.6,4.9,13c0,2.7-0.4,4.9-1.1,6.8
	c-0.7,1.9-1.6,3.4-2.8,4.6c-1.1,1.2-2.5,2.1-4.1,2.7c-1.5,0.5-3.2,0.8-5,0.9v0.6c1.7,0,3.4,0.3,5.2,0.9c1.9,0.6,3.6,1.6,5.1,2.9
	c1.5,1.3,2.8,2.9,3.8,5c1.1,2.1,1.6,4.6,1.6,7.6c0,2.7-0.5,5.3-1.4,7.8c-0.9,2.4-2.1,4.5-3.7,6.3c-1.6,1.8-3.5,3.2-5.7,4.3
	c-2.2,1-4.6,1.5-7.2,1.5h-37V10.8z M55.7,67.8h17.5c2,0,3.6-0.5,4.7-1.6c1.2-1.1,1.8-2.7,1.8-4.7v-3.4c0-2-0.6-3.5-1.8-4.6
	c-1.1-1.1-2.7-1.7-4.7-1.7H55.7V67.8z M55.7,39.4h15.1c2,0,3.6-0.6,4.7-1.7s1.7-2.7,1.7-4.7v-3c0-2-0.6-3.6-1.7-4.7
	c-1.1-1.1-2.7-1.7-4.7-1.7H55.7V39.4z"/>
</svg>
