<?xml version="1.0" encoding="utf-8"?>
<!-- Generator: Adobe Illustrator 26.2.1, SVG Export Plug-In . SVG Version: 6.00 Build 0)  -->
<svg version="1.1" id="Layer_1" xmlns="http://www.w3.org/2000/svg" xmlns:xlink="http://www.w3.org/1999/xlink" x="0px" y="0px"
	 viewBox="0 0 140 100" style="enable-background:new 0 0 140 100;" xml:space="preserve">
<style type="text/css">
	.st0{clip-path:url(#SVGID_00000072269016090929726800000003963781574263124117_);}
	.st1{opacity:0.3;fill:#D7CAAB;enable-background:new    ;}
	.st2{opacity:0.4;fill:#D7CAAB;enable-background:new    ;}
	.st3{fill:#F4F1ED;}
	.st4{fill:#D7CAAB;}
	.st5{fill:#FFFFFF;}
	.st6{opacity:0.6;}
	.st7{fill:#BAA27F;}
	.st8{opacity:0.5;}
	.st9{fill:#C6B696;}
	.st10{fill:#AF966B;}
	.st11{fill:#ECE6D9;}
</style>
<g>
	<defs>
		<rect id="SVGID_1_" x="0.7" y="2.6" width="138" height="95.1"/>
	</defs>
	<clipPath id="SVGID_00000005242340185436139280000013236997075919311781_">
		<use xlink:href="#SVGID_1_"  style="overflow:visible;"/>
	</clipPath>
	<g style="clip-path:url(#SVGID_00000005242340185436139280000013236997075919311781_);">
		<path class="st1" d="M49.8,2.6c-29.3,0-49,22.1-49,47.8c0,30.6,23.4,47.4,49,47.4c20,0,31.7-6.1,37.9-14.4
			c6.2-8.4,2.6-18.5,2.6-32.1s4.3-25.6-5.7-36C75.6,5.9,66.3,2.6,49.8,2.6z"/>
		<path class="st2" d="M49.8,24.3c-3.5-0.1-7,0.4-10.2,1.7c-3.3,1.2-6.2,3.1-8.7,5.6c-2.5,2.4-4.5,5.3-5.8,8.5
			c-1.3,3.2-2,6.7-2,10.2C23,66.9,35.7,76,49.7,76C62,76,67,73.6,71.3,67.9c5.4-7.4,2-12.9,2-17.2s2.3-13.5-2-18.9
			C68.2,26.8,61.5,24.3,49.8,24.3z"/>
		<path class="st3" d="M38.5,47.7c2.6,0,3.8,1.6,3.8,3c0,1.4-1.2,3-3.8,3c-2.6,0-5.2-1.5-5.2-3S35.9,47.7,38.5,47.7z"/>
		<path class="st3" d="M41.4,49.8l0,2c0,0.1,0.1,0.2,0.2,0.2l1.4,0c0.1,0,0.2-0.1,0.2-0.2l0-2c0-0.1-0.1-0.2-0.2-0.2l-1.4,0
			C41.5,49.6,41.4,49.7,41.4,49.8z"/>
		<path class="st3" d="M42.6,50.1c1.2,0,2.4,0.4,3.4,1.1c0.9,0.7,1.5,1.7,2.6,2.1c0.5,0.2,1,0.2,1.5,0c0.4-0.4,0.7-0.9,0.9-1.5
			c0.4-1.1,0.6-2.9,2.2-3.2c0.6-0.1,1.2,0,1.7,0.2c0.5,0.2,1,0.6,1.3,1.1c0.3,0.5,0.7,0.8,1.2,1.1c0.5,0.3,1,0.4,1.6,0.4
			c-0.6,0-1.1-0.1-1.6-0.3c-0.5-0.2-0.9-0.6-1.3-1.1c-0.3-0.5-0.8-0.8-1.3-1c-0.5-0.2-1.1-0.2-1.6-0.1c-1.2,0.2-1.4,1.7-1.7,3
			c-0.1,0.7-0.5,1.4-1.1,1.9c-0.3,0.2-0.7,0.3-1.1,0.4c-0.4,0-0.8,0-1.1-0.1c-1.4-0.5-2.1-1.6-2.9-2c-0.8-0.5-1.8-0.7-2.8-0.7
			c-0.2,0-0.3-0.1-0.5-0.2c-0.1-0.1-0.2-0.3-0.2-0.5c0-0.1,0-0.2,0.1-0.3c0-0.1,0.1-0.2,0.2-0.2c0.1-0.1,0.1-0.1,0.2-0.1
			C42.4,50.1,42.5,50.1,42.6,50.1z"/>
		<path class="st4" d="M49.8,2.6c-29.3,0-49,22.1-49,47.8c0,30.6,23.4,47.4,49,47.4c20,0,31.7-6.1,37.9-14.4
			c6.2-8.4,2.6-18.5,2.6-32.1s4.3-25.6-5.7-36C75.6,5.9,66.3,2.6,49.8,2.6z M49.8,91.4C27.5,91.4,6.3,81,7,50.3
			c0.5-11.1,5.2-21.5,13.2-29.2c8-7.7,18.6-12.1,29.7-12.2c16.1,0,24,3.8,31.2,11.5c8,8.5,6.1,18.4,6.1,30.7c0,14.4,3.6,21-6.2,31.2
			C75.9,87.7,65.9,91.4,49.8,91.4z"/>
		<g>
			<path class="st4" d="M73.3,50.7c0-4.2,2.3-13.5-2-18.9c-3.1-5-9.8-7.6-21.6-7.6c-3.5-0.1-7,0.4-10.2,1.7
				c-3.3,1.2-6.2,3.1-8.7,5.6c-2.5,2.4-4.5,5.3-5.8,8.5c-1.3,3.2-2,6.7-2,10.2C23,66.9,35.7,76,49.7,76C62,76,67,73.6,71.3,67.9
				C76.7,60.4,73.3,54.9,73.3,50.7z M67.8,65.1c-3.6,4.9-7.7,6.9-18.3,6.9c-11.9,0-22.7-7.7-22.7-21.8c0-3,0.6-5.9,1.7-8.6
				c1.1-2.7,2.8-5.2,4.9-7.2c2.1-2.1,4.6-3.7,7.4-4.7c2.8-1.1,5.7-1.6,8.6-1.5c10,0,15.7,2.1,18.4,6.4c3.6,4.6,2.1,12.4,2.1,16
				C70,54.2,72.4,58.9,67.8,65.1z"/>
		</g>
		<g>
			<path class="st5" d="M39,39.9c-2.5,2.1-5.8,3.1-9.1,2.9c-3.3-0.3-6.4-1.9-8.5-4.4c-1.8-2.8-2.5-6.1-1.9-9.4
				c0.6-3.3,2.5-6.1,5.3-8c2.5-2.1,5.8-3.1,9.1-2.9c3.3,0.3,6.3,1.9,8.5,4.4c1.9,2.7,2.5,6.1,1.9,9.4C43.6,35.1,41.7,38,39,39.9z"/>
		</g>
		<g class="st6">
			<path class="st4" d="M55.3,46.6c4.4,4.5,8.7,7.7,12.5,7.7h70.9v-7.7H55.3z"/>
		</g>
		<path class="st7" d="M57.3,46.6c1.8,0,2.6,0.6,4.7,0.9h76.6v-0.9H57.3z"/>
		<path class="st7" d="M66.7,51.8c0.4,0.8,1,1.3,1.1,2.4h70.9v-1H67.6L66.7,51.8z"/>
		<g class="st8">
			<path class="st9" d="M67.5,54.2h71.3v-3.1H60.5C62.7,52.3,65.1,53.3,67.5,54.2z"/>
		</g>
		<path class="st10" d="M55.3,46.6c4.4,4.5,8.7,7.7,12.5,7.7C67.2,45.5,55.3,46.6,55.3,46.6z M57.9,47.9c0,0,7.7-0.7,8,4.9
			c-2.3,0.1-5.1-2-7.9-4.9H57.9z"/>
		<path class="st11" d="M108.5,48c2.1,0,3.1,1.3,3.1,2.6c0,1.2-1,2.6-3.1,2.6c-2.1,0-4.2-1.3-4.2-2.6
			C104.3,49.3,106.3,47.9,108.5,48z"/>
		<path class="st11" d="M110.9,49.7l0,1.6c0,0.1,0.1,0.1,0.1,0.1l1.2,0c0.1,0,0.1-0.1,0.1-0.1l0-1.6c0-0.1-0.1-0.1-0.1-0.1l-1.2,0
			C111,49.6,110.9,49.6,110.9,49.7z"/>
		<path class="st11" d="M111.7,50c1.2,0.1,2.3-0.1,3.4-0.3c1.2-0.4,2.4-0.6,3.6-0.8c0.7-0.1,1.5-0.1,2.2,0.1c0.7,0.2,1.4,0.5,2,1
			c1,0.9,2.4,1.4,3.7,1.4c1.2-0.1,2.4-0.3,3.6-0.6c1.2-0.3,2.4-0.4,3.6-0.4c-1.2,0-2.4,0.2-3.5,0.5c-1.2,0.4-2.4,0.7-3.6,0.8
			c-1.5,0.1-2.9-0.4-4.1-1.3c-2.4-1.8-5.2-0.4-7.3,0.2c-1.2,0.3-2.4,0.5-3.6,0.5c-0.1,0-0.3-0.1-0.4-0.2c-0.1-0.1-0.1-0.2-0.1-0.4
			c0-0.1,0-0.1,0.1-0.2c0-0.1,0.1-0.1,0.1-0.2c0.1,0,0.1-0.1,0.2-0.1C111.7,50,111.7,50,111.7,50L111.7,50z"/>
		<path class="st11" d="M75.1,47.7c2.3,0,3.3,1.4,3.3,2.6c0,1.2-1.1,2.6-3.3,2.6s-4.4-1.3-4.4-2.6C70.7,49,73,47.7,75.1,47.7z"/>
		<path class="st11" d="M79.2,49.9v0.9c0,0.1,0,0.2,0,0.2c0,0.1-0.1,0.1-0.1,0.2c-0.1,0.1-0.1,0.1-0.2,0.1c-0.1,0-0.1,0-0.2,0h-0.5
			c-0.1,0-0.2,0-0.2,0c-0.1,0-0.1-0.1-0.2-0.1c-0.1-0.1-0.1-0.1-0.1-0.2c0-0.1,0-0.1,0-0.2v-0.8c0-0.1,0-0.2,0-0.2
			c0-0.1,0.1-0.1,0.1-0.2c0.1-0.1,0.1-0.1,0.2-0.1c0.1,0,0.1,0,0.2,0h0.4c0.1,0,0.2,0,0.2,0c0.1,0,0.2,0.1,0.2,0.1
			c0.1,0.1,0.1,0.1,0.2,0.2C79.2,49.7,79.2,49.8,79.2,49.9z"/>
		<path class="st11" d="M78.7,49.7c1.2,0,2.4,0.2,3.5,0.5c2,0.7,4.5,2.1,7,0.9c1.3-0.5,2.4-1.3,3.7-1.7c1.2-0.3,2.4-0.2,3.6,0.2
			c1.1,0.4,2.2,0.7,3.3,0.8c-1.1,0-2.3-0.2-3.4-0.6c-1.1-0.3-2.3-0.3-3.4,0c-1.2,0.4-2.3,1.3-3.6,1.9c-1.3,0.6-2.7,0.8-4.1,0.6
			c-1.4-0.3-2.4-0.9-3.4-1c-1.1-0.2-2.2-0.3-3.3-0.3c-0.1,0-0.1,0-0.2,0c-0.1,0-0.1-0.1-0.2-0.1c-0.1,0-0.1-0.1-0.1-0.2
			c0-0.1-0.1-0.1-0.1-0.2c0-0.1,0-0.1,0-0.2c0-0.1,0.1-0.1,0.1-0.2c0-0.1,0.1-0.1,0.2-0.1c0.1,0,0.1,0,0.2-0.1L78.7,49.7L78.7,49.7z
			"/>
	</g>
</g>
</svg>
