<?xml version="1.0" encoding="utf-8"?>
<!-- Generator: Adobe Illustrator 26.2.1, SVG Export Plug-In . SVG Version: 6.00 Build 0)  -->
<svg version="1.1" id="Layer_1" xmlns="http://www.w3.org/2000/svg" xmlns:xlink="http://www.w3.org/1999/xlink" x="0px" y="0px"
	 viewBox="0 0 130 95.8" style="enable-background:new 0 0 130 95.8;" xml:space="preserve">
<style type="text/css">
	.st0{fill:#CCCCCC;fill-opacity:0.2;}
	.st1{fill:#D7CBAC;}
</style>
<path class="st0" d="M99.7,16.4c-4-4.5-9-8.1-14.5-10.4c-5.6-2.3-11.6-3.3-17.6-2.9C56.9,2.4,46.6,6.7,39.7,14.9
	c-5.5,7.7-7,17.6-4.2,26.6l-9.8,16v0c-0.4,0.7-0.5,1.6-0.3,2.4c0.3,0.8,0.9,1.5,1.7,1.8l7.9,3.4l1.8,11.5c0.4,2.6,1.9,5,4,6.6
	c2.2,1.5,4.9,2.1,7.5,1.7l7.7-1.4V84c0,0.8,0.3,1.5,0.8,2.1c0.6,0.6,1.3,0.9,2.1,0.9h32.8c0.8,0,1.6-0.3,2.1-0.9
	c0.6-0.5,0.9-1.3,0.8-2.1v-2.3c-0.1-4.4,0.9-8.7,3-12.6c2.8-4.9,4.9-10.2,6.5-15.6C108,37.8,106.6,25.3,99.7,16.4L99.7,16.4z
	 M69.3,55.8c-5,0-9.8-2-13.4-5.5c-3.5-3.6-5.5-8.4-5.6-13.4c0-5,2-9.9,5.5-13.5c3.5-3.6,8.3-5.6,13.3-5.6c5,0,9.8,2,13.4,5.5
	c3.5,3.6,5.5,8.4,5.6,13.4c0,5-2,9.9-5.5,13.4C79.1,53.7,74.3,55.7,69.3,55.8z M69.3,23.7L69.3,23.7c-3.5,0-6.8,1.4-9.2,3.8
	c-2.4,2.5-3.8,5.8-3.8,9.3c0,3.5,1.4,6.8,3.8,9.3c2.4,2.5,5.7,3.8,9.2,3.8c3.5,0,6.8-1.4,9.2-3.8c2.4-2.5,3.8-5.8,3.8-9.3
	c0-3.5-1.4-6.8-3.8-9.2C76,25,72.7,23.7,69.3,23.7L69.3,23.7z M76,39.7h-3.7v3.8v0c0,1.6-1.3,3-2.9,3c-0.8,0-1.5-0.3-2.1-0.9
	c-0.6-0.6-0.9-1.3-0.9-2.1v-3.8h-3.8c-0.8,0-1.5-0.3-2.1-0.9c-0.6-0.6-0.9-1.3-0.9-2.1c0-1.6,1.3-3,2.9-3h3.8v-3.8
	c0-1.6,1.3-3,2.9-3c1.6,0,2.9,1.3,2.9,3v3.8H76c1.6,0,2.9,1.3,2.9,3c0,0.8-0.3,1.5-0.9,2.1C77.5,39.4,76.7,39.7,76,39.7L76,39.7z"/>
<path class="st1" d="M58,81V53.7L34.1,11.2h17l15,27.8h0.2l14.4-27.8h16.5L73.3,53.6V81H58z"/>
</svg>
