<svg width="88" height="88" viewBox="0 0 88 88" fill="none" xmlns="http://www.w3.org/2000/svg">
<path d="M42.2209 38.6062C42.2235 37.646 41.8419 36.7243 41.1609 36.0473C40.6587 35.5679 40.0325 35.2398 39.3528 35.0989C38.6731 34.9586 37.9673 35.0121 37.3164 35.2528L36.0399 33.9757C38.019 31.5903 39.2321 28.6635 39.5219 25.5774H41.3013C41.7513 26.5976 42.6469 27.353 43.7284 27.625C44.8099 27.897 45.956 27.655 46.8352 26.9694C47.7145 26.2839 48.2285 25.2311 48.2285 24.1163C48.2285 23.0015 47.7145 21.9488 46.8352 21.2632C45.9559 20.5776 44.8098 20.3356 43.7284 20.6076C42.6469 20.8796 41.7513 21.635 41.3013 22.6552H39.5219C39.2322 19.5693 38.019 16.6424 36.0399 14.257L37.2994 12.9967C37.9517 13.2531 38.6653 13.3131 39.3515 13.1689C40.0378 13.0248 40.6666 12.6836 41.161 12.1859V12.1853C41.84 11.5069 42.221 10.5872 42.221 9.62773C42.221 8.66756 41.84 7.7478 41.161 7.0695C40.4715 6.41134 39.5557 6.0441 38.6028 6.0441C37.6498 6.0441 36.7334 6.41134 36.0445 7.0695C35.5501 7.56525 35.2103 8.19405 35.0667 8.87963C34.9226 9.56519 34.9806 10.2775 35.2331 10.9304L33.9729 12.1913L33.9735 12.1906C31.5874 10.2122 28.6613 8.99901 25.5753 8.70929V6.92921C26.5955 6.47914 27.3515 5.58354 27.6235 4.50207C27.8955 3.41991 27.6535 2.2738 26.968 1.39395C26.2824 0.514668 25.2296 0 24.1142 0C22.9987 0 21.946 0.514652 21.2604 1.39395C20.5748 2.27389 20.3328 3.42 20.6048 4.50207C20.8768 5.58357 21.6328 6.47919 22.6531 6.92921V8.70929C19.5672 8.99891 16.6402 10.2122 14.2542 12.1906L12.9952 10.9304C13.2477 10.2774 13.3057 9.56514 13.1616 8.87963C13.0181 8.19407 12.6782 7.56526 12.1838 7.0695V7.06885C11.495 6.41134 10.5791 6.0441 9.62622 6.0441C8.67388 6.0441 7.75798 6.41134 7.06866 7.06885C6.27483 7.85485 5.88997 8.96381 6.025 10.0719C6.16002 11.1808 6.80057 12.1644 7.76015 12.7365C8.71902 13.3086 9.88923 13.4051 10.9291 12.9974L12.1886 14.2577V14.257C10.2095 16.6424 8.99635 19.5692 8.70663 22.6553H6.92723C6.47715 21.6351 5.58155 20.8797 4.50008 20.6077C3.41858 20.3357 2.27248 20.5777 1.3933 21.2632C0.514016 21.9488 0 23.0016 0 24.1164C0 25.2312 0.514 26.2838 1.3933 26.9695C2.27258 27.655 3.41868 27.897 4.50008 27.625C5.58158 27.353 6.4772 26.5977 6.92723 25.5775H8.70663C8.99625 28.6634 10.2095 31.5903 12.1886 33.9757L10.9121 35.2529C10.2611 35.0122 9.55599 34.9587 8.87637 35.0989C8.19669 35.2392 7.56984 35.5673 7.06758 36.0467V36.0474C6.44921 36.6638 6.07414 37.4831 6.01217 38.3538C5.95086 39.2252 6.20591 40.0896 6.73165 40.7868C7.25739 41.4841 8.01731 41.9681 8.87175 42.1494C9.72625 42.3301 10.6166 42.1957 11.3799 41.7711C12.1431 41.3471 12.7275 40.6602 13.0237 39.8391C13.3204 39.0178 13.31 38.1171 12.995 37.3024L14.2552 36.0415L14.2545 36.0421C16.6406 38.0206 19.5674 39.2337 22.6534 39.5235V41.3035C21.6333 41.7536 20.8772 42.6492 20.6052 43.7307C20.3332 44.8128 20.5752 45.959 21.2607 46.8388C21.9463 47.7181 22.9991 48.2328 24.1145 48.2328C25.23 48.2328 26.2827 47.7181 26.9683 46.8388C27.6539 45.9589 27.8959 44.8128 27.6239 43.7307C27.3519 42.6492 26.5959 41.7536 25.5756 41.3035V39.5235C28.6615 39.2338 31.5885 38.0206 33.9745 36.0421L35.2348 37.303L35.2341 37.3024C34.9817 37.9553 34.9236 38.6676 35.0671 39.3531C35.2113 40.038 35.5505 40.6668 36.0449 41.1633C36.7233 41.841 37.643 42.2219 38.6025 42.2219C39.562 42.2219 40.4818 41.841 41.16 41.1633C41.8391 40.4849 42.2207 39.5658 42.2213 38.6064L42.2209 38.6062ZM19.5842 32.3716C18.596 32.3716 17.6482 31.9789 16.9497 31.2803C16.2512 30.5817 15.8584 29.6339 15.8584 28.6458C15.8584 27.6576 16.2511 26.7097 16.9497 26.0112C17.6483 25.3127 18.5961 24.92 19.5842 24.92C20.5724 24.92 21.5203 25.3126 22.2188 26.0112C22.9173 26.7098 23.3101 27.6576 23.3101 28.6458C23.3088 29.6334 22.9161 30.5805 22.2175 31.2792C21.5189 31.9778 20.5717 32.3704 19.5841 32.3717L19.5842 32.3716ZM22.9801 22.1803C21.9918 22.1796 21.0447 21.7869 20.3462 21.0883C19.6476 20.3891 19.2556 19.4413 19.2556 18.4538C19.2556 17.4656 19.6483 16.5178 20.3475 15.8193C21.0461 15.1206 21.9939 14.7286 22.9821 14.7286C23.9696 14.7286 24.9174 15.1213 25.6159 15.8199C26.3144 16.5185 26.7072 17.4663 26.7072 18.4545C26.7059 19.442 26.3132 20.3892 25.6146 21.0878C24.916 21.7864 23.9689 22.1791 22.9808 22.1804L22.9801 22.1803ZM29.7756 30.1069C28.7874 30.1069 27.8395 29.7143 27.141 29.0157C26.4425 28.3171 26.0497 27.3693 26.0497 26.3811C26.0497 25.393 26.4424 24.4451 27.141 23.7466C27.8396 23.0481 28.7874 22.6553 29.7756 22.6553C30.7637 22.6553 31.7116 23.048 32.4101 23.7466C33.1086 24.4452 33.5014 25.393 33.5014 26.3811C33.5001 27.3687 33.1074 28.3158 32.4088 29.0145C31.7102 29.7131 30.7631 30.1058 29.7754 30.1071L29.7756 30.1069Z" fill="#D7CBAC"/>
<path d="M84.0544 59.9489C83.3545 59.9503 82.6695 60.1544 82.0831 60.5373C81.4973 60.9202 81.0342 61.4649 80.7518 62.1054H78.9723C78.6827 59.0195 77.4695 56.0926 75.4903 53.7072L76.7499 52.4469C77.4022 52.7033 78.1158 52.7633 78.802 52.6191C79.4882 52.475 80.117 52.1338 80.6115 51.6361V51.6355C81.2905 50.9571 81.6715 50.0374 81.6715 49.0779C81.6715 48.1178 81.2905 47.198 80.6115 46.5197C79.922 45.8615 79.0062 45.4943 78.0532 45.4943C77.1003 45.4943 76.1838 45.8615 75.495 46.5197C75.0006 47.0161 74.6614 47.6449 74.5172 48.3298C74.3737 49.0154 74.4318 49.7277 74.6842 50.3806L73.424 51.6415L73.4246 51.6408C71.0386 49.6624 68.1118 48.4492 65.0257 48.1595V46.3794C66.0459 45.9293 66.802 45.0337 67.074 43.9523C67.346 42.8701 67.104 41.724 66.4184 40.8441C65.7329 39.9649 64.6801 39.4502 63.5646 39.4502C62.4492 39.4502 61.3965 39.9648 60.7108 40.8441C60.0253 41.7241 59.7833 42.8702 60.0553 43.9523C60.3273 45.0338 61.0833 45.9294 62.1035 46.3794V48.1595C59.0176 48.4491 56.0907 49.6624 53.7046 51.6408L52.4444 50.3799L52.4451 50.3806C52.6975 49.7276 52.7556 49.0153 52.612 48.3298C52.4679 47.6449 52.1287 47.0161 51.6343 46.5197C50.9454 45.8622 50.0296 45.4949 49.0767 45.4949C48.1244 45.4949 47.2085 45.8622 46.5191 46.5197C45.7259 47.3057 45.3411 48.414 45.4768 49.5228C45.6118 50.631 46.2523 51.6139 47.2113 52.186C48.1701 52.7581 49.3397 52.8546 50.3795 52.4476L51.6391 53.7078V53.7072C49.6599 56.0926 48.4468 59.0194 48.1571 62.1054H46.3777C45.9276 61.0852 45.032 60.3299 43.9505 60.0578C42.869 59.7858 41.7229 60.0278 40.8437 60.7134C39.9645 61.399 39.4504 62.4517 39.4504 63.5665C39.4504 64.6813 39.9644 65.734 40.8437 66.4197C41.723 67.1052 42.8691 67.3472 43.9505 67.0752C45.032 66.8032 45.9276 66.0479 46.3777 65.0276H48.1571C48.4467 68.1135 49.6599 71.0405 51.6391 73.4259L50.3625 74.703C49.7116 74.4623 49.0064 74.4089 48.3268 74.5491C47.6471 74.6893 47.0203 75.0174 46.518 75.4969V75.4975C45.8996 76.1139 45.5246 76.9332 45.4626 77.8039C45.4013 78.6754 45.6563 79.5398 46.1821 80.2369C46.7078 80.9342 47.4678 81.4182 48.3222 81.5996C49.1767 81.7803 50.067 81.6459 50.8303 81.2212C51.5935 80.7973 52.1779 80.1104 52.4741 79.2892C52.7709 78.468 52.7604 77.5673 52.4454 76.7525L53.7056 75.4916L53.705 75.4923C56.091 77.4708 59.0178 78.6839 62.1039 78.9736V80.7537C61.0837 81.2038 60.3276 82.0994 60.0556 83.1808C59.7836 84.263 60.0256 85.4091 60.7112 86.289C61.3967 87.1683 62.4495 87.6829 63.565 87.6829C64.6804 87.6829 65.7331 87.1683 66.4188 86.289C67.1043 85.409 67.3463 84.2629 67.0743 83.1808C66.8023 82.0993 66.0463 81.2037 65.0261 80.7537V78.9736C68.112 78.684 71.0389 77.4708 73.425 75.4923L74.6852 76.7532L74.6846 76.7525C74.4321 77.4055 74.3741 78.1178 74.5176 78.8033C74.6617 79.4882 75.0009 80.117 75.4954 80.6134C76.1731 81.2957 77.0941 81.6799 78.0556 81.6812C79.0177 81.6825 79.94 81.3016 80.6197 80.6212C81.3 79.9416 81.681 79.0192 81.6796 78.0572C81.6783 77.0957 81.2941 76.1747 80.6119 75.4969C80.1096 75.0175 79.4834 74.6887 78.8037 74.5485C78.124 74.4083 77.4183 74.4617 76.768 74.7024L75.4908 73.4253C77.4699 71.0399 78.6831 68.1136 78.9728 65.0277H80.7522C81.1051 65.8254 81.7346 66.4686 82.5251 66.8385C83.315 67.2083 84.212 67.2801 85.0508 67.0407C85.8896 66.8013 86.6137 66.2664 87.0892 65.5352C87.5647 64.804 87.7597 63.9254 87.6384 63.0618C87.5171 62.1975 87.0872 61.4069 86.4291 60.8349C85.7703 60.2628 84.9275 59.9478 84.0547 59.9491L84.0544 59.9489ZM59.0348 71.822C58.0466 71.822 57.0988 71.4293 56.4003 70.7307C55.7018 70.0321 55.309 69.0843 55.309 68.0962C55.309 67.108 55.7017 66.1601 56.4003 65.4616C57.0989 64.7631 58.0466 64.3703 59.0348 64.3703C60.023 64.3703 60.9708 64.763 61.6693 65.4616C62.3679 66.1602 62.7606 67.108 62.7606 68.0962C62.7593 69.0837 62.3666 70.0309 61.668 70.7295C60.9694 71.4282 60.0223 71.8208 59.0347 71.8221L59.0348 71.822ZM62.4306 61.6307C61.4424 61.63 60.4953 61.2373 59.7968 60.5387C59.0982 59.8395 58.7061 58.8917 58.7061 57.9042C58.7061 56.916 59.0988 55.9681 59.7981 55.2696C60.4967 54.571 61.4445 54.179 62.4326 54.179C63.4202 54.179 64.368 54.5717 65.0665 55.2703C65.765 55.9689 66.1578 56.9167 66.1578 57.9049C66.1565 58.8924 65.7638 59.8396 65.0652 60.5382C64.3666 61.2368 63.4195 61.6295 62.4313 61.6308L62.4306 61.6307ZM69.2261 69.5573C68.2379 69.5573 67.2901 69.1647 66.5916 68.4661C65.8931 67.7674 65.5003 66.8197 65.5003 65.8315C65.5003 64.8434 65.893 63.8955 66.5916 63.197C67.2902 62.4985 68.238 62.1057 69.2261 62.1057C70.2143 62.1057 71.1622 62.4984 71.8607 63.197C72.5592 63.8956 72.952 64.8434 72.952 65.8315C72.9507 66.8191 72.558 67.7662 71.8594 68.4649C71.1608 69.1635 70.2137 69.5562 69.226 69.5575L69.2261 69.5573Z" fill="#D7CBAC"/>
<path d="M55.528 23.3857H56.5149C56.7654 25.2298 57.4908 26.9766 58.6198 28.4559L57.9186 29.1571C57.6349 29.4291 57.4724 29.8036 57.4685 30.1963C57.4646 30.5896 57.6185 30.9673 57.8964 31.2451C58.1743 31.523 58.552 31.6769 58.9453 31.673C59.338 31.6685 59.7124 31.5067 59.9844 31.2229L60.6856 30.5217C62.165 31.6502 63.9118 32.3756 65.7558 32.6261V33.6137C65.7558 34.4206 66.4101 35.0748 67.2169 35.0748C68.0238 35.0748 68.6781 34.4206 68.6781 33.6137V32.6261C70.5221 32.3756 72.269 31.6509 73.7483 30.5224L74.4495 31.2236C75.0203 31.7944 75.9452 31.7944 76.516 31.2236C77.0867 30.6529 77.0867 29.7279 76.516 29.1572L75.8147 28.456C76.9432 26.9766 77.6686 25.2298 77.9191 23.3857H78.906C79.7129 23.3857 80.3672 22.7315 80.3672 21.9246C80.3672 21.1177 79.7129 20.4635 78.906 20.4635H77.9191C77.6686 18.6195 76.9433 16.8726 75.8142 15.3933L76.5154 14.6921C76.7992 14.4201 76.9616 14.0457 76.9655 13.653C76.9694 13.2596 76.8155 12.882 76.5376 12.6041C76.2597 12.3262 75.8821 12.1723 75.4887 12.1762C75.0961 12.1808 74.7216 12.3425 74.4496 12.6263L73.7484 13.3275C72.269 12.199 70.5223 11.4736 68.6782 11.2231V10.2355C68.6782 9.42867 68.024 8.77441 67.2171 8.77441C66.4102 8.77441 65.756 9.42867 65.756 10.2355V11.2231C63.9119 11.4736 62.1651 12.199 60.6858 13.328L59.9846 12.6268V12.6261C59.7125 12.3443 59.3381 12.1839 58.9461 12.1799C58.5547 12.1767 58.1777 12.3306 57.9005 12.6079C57.6232 12.8851 57.4687 13.2615 57.4726 13.6535C57.4758 14.0455 57.6363 14.4199 57.9181 14.6919L58.6193 15.3931C57.4908 16.8725 56.7654 18.6193 56.5149 20.4633H55.528C54.7211 20.4633 54.0669 21.1176 54.0669 21.9245C54.0669 22.7313 54.7211 23.3857 55.528 23.3857ZM69.8139 21.7622C70.5457 21.7622 71.2482 22.0524 71.7656 22.5704C72.2835 23.0876 72.5745 23.7895 72.5745 24.5214C72.5745 25.2533 72.2835 25.9558 71.7663 26.4732C71.249 26.9911 70.5471 27.282 69.8145 27.282C69.0827 27.282 68.3808 26.9911 67.8628 26.4738C67.3455 25.9566 67.0546 25.254 67.0546 24.5221C67.0553 23.7909 67.3462 23.089 67.8635 22.5717C68.3807 22.0544 69.0826 21.7628 69.8139 21.7622ZM64.6203 16.5674C65.3521 16.568 66.054 16.859 66.5713 17.3769C67.0886 17.8948 67.3789 18.5967 67.3789 19.3286C67.3782 20.0605 67.0873 20.7624 66.5694 21.2797C66.0521 21.797 65.3496 22.0879 64.6176 22.0872C63.8858 22.0872 63.1839 21.7963 62.6666 21.2784C62.1493 20.7611 61.8584 20.0592 61.8584 19.3273C61.8597 18.5954 62.1506 17.8936 62.6685 17.3762C63.1864 16.8583 63.8883 16.5681 64.6203 16.5674Z" fill="#D7CBAC"/>
<path d="M29.2277 62.8355H28.2408C27.9903 60.9915 27.2649 59.2447 26.1359 57.7653L26.8371 57.0641C27.1208 56.7921 27.2833 56.4177 27.2872 56.025C27.2911 55.6317 27.1371 55.254 26.8593 54.9761C26.5814 54.6983 26.2037 54.5443 25.8104 54.5482C25.4177 54.5528 25.0433 54.7146 24.7713 54.9983L24.0701 55.6995C22.5907 54.5711 20.8439 53.8463 18.9999 53.5958V52.6076C18.9999 51.8007 18.3456 51.1465 17.5388 51.1465C16.7319 51.1465 16.0776 51.8007 16.0776 52.6076V53.5952C14.2336 53.8457 12.4867 54.571 11.0074 55.7001L10.3062 54.9988V54.9982C10.0342 54.7164 9.65979 54.5559 9.26775 54.552C8.87637 54.5488 8.49935 54.7027 8.22214 54.9799C7.9449 55.2571 7.79033 55.6335 7.79423 56.0255C7.79749 56.4176 7.95796 56.792 8.23975 57.064L8.94096 57.7652C7.8125 59.2446 7.08708 60.9914 6.8366 62.8354H5.84968C5.0428 62.8354 4.38855 63.4897 4.38855 64.2965C4.38855 65.1034 5.0428 65.7577 5.84968 65.7577H6.8366C7.08708 67.6017 7.81244 69.3485 8.94146 70.8279L8.24025 71.5291C7.95651 71.8011 7.79408 72.1755 7.79018 72.5682C7.78626 72.9615 7.9402 73.3392 8.21808 73.6171C8.49596 73.8949 8.87363 74.0489 9.26695 74.045C9.65964 74.0404 10.0341 73.8786 10.3061 73.5949L11.0073 72.8937C12.4867 74.0221 14.2334 74.7476 16.0775 74.998V75.9856C16.0775 76.7925 16.7317 77.4467 17.5386 77.4467C18.3455 77.4467 18.9997 76.7925 18.9997 75.9856V74.998C20.8438 74.7476 22.5906 74.0229 24.0699 72.8943L24.7711 73.5956C25.3419 74.1663 26.2668 74.1663 26.8376 73.5956C27.4084 73.0248 27.4084 72.0999 26.8376 71.5291L26.1364 70.8279C27.2648 69.3485 27.9903 67.6017 28.2408 65.7577H29.2277C30.0346 65.7577 30.6888 65.1034 30.6888 64.2966C30.6888 63.4897 30.0346 62.8355 29.2277 62.8355ZM14.9418 64.4591C14.21 64.4591 13.5075 64.1688 12.9901 63.6509C12.4722 63.1336 12.1812 62.4318 12.1812 61.6999C12.1812 60.968 12.4722 60.2655 12.9894 59.7481C13.5067 59.2302 14.2086 58.9393 14.9412 58.9393C15.673 58.9393 16.3749 59.2302 16.8929 59.7474C17.4102 60.2647 17.7011 60.9672 17.7011 61.6992C17.7004 62.4304 17.4095 63.1323 16.8922 63.6496C16.375 64.1669 15.6731 64.4584 14.9418 64.4591ZM20.1354 69.6539C19.4036 69.6532 18.7017 69.3623 18.1844 68.8444C17.6671 68.3265 17.3768 67.6246 17.3768 66.8926C17.3775 66.1608 17.6684 65.4589 18.1863 64.9416C18.7036 64.4243 19.4061 64.1334 20.1381 64.134C20.8699 64.134 21.5718 64.425 22.0891 64.9429C22.6064 65.4602 22.8973 66.162 22.8973 66.894C22.896 67.6258 22.6051 68.3277 22.0872 68.845C21.5692 69.363 20.8674 69.6532 20.1354 69.6539Z" fill="#D7CBAC"/>
</svg>
