<?xml version="1.0" encoding="utf-8"?>
<!-- Generator: Adobe Illustrator 26.2.1, SVG Export Plug-In . SVG Version: 6.00 Build 0)  -->
<svg version="1.1" id="Layer_1" xmlns="http://www.w3.org/2000/svg" xmlns:xlink="http://www.w3.org/1999/xlink" x="0px" y="0px"
	 viewBox="0 0 140 100" style="enable-background:new 0 0 140 100;" xml:space="preserve">
<style type="text/css">
	.st0{fill-rule:evenodd;clip-rule:evenodd;fill:#D7CBAC;}
</style>
<path class="st0" d="M53.3,6.1c5-2.5,10.5-3.9,16.1-3.9c5.6,0,11.2,1.3,16.1,3.9c-1,0.8-2,1.7-2.9,2.7C78.5,6.8,74,5.9,69.5,5.9
	c-4.6,0-9.1,1-13.3,2.9C55.3,7.8,54.3,6.9,53.3,6.1z M104,41.9c0.2-0.1,0.3-0.1,0.5-0.2L104,41.9z M26.4,29.2
	c1.9-2.9,7.4-2.7,12.2,0.4c4.8,3.2,7.2,8.1,5.3,11c-1.9,2.9-7.4,2.7-12.2-0.4C26.8,37.1,24.5,32.2,26.4,29.2z M85.4,62.1l9.8-8
	l3.7,4.5l-4,3.3c-0.8,0.6-0.9,1.8-0.3,2.6c0.6,0.8,1.8,0.9,2.6,0.3l4-3.2l1.7,2.1l-1.7,1.4c-0.8,0.6-0.9,1.8-0.3,2.6
	c0.6,0.8,1.8,0.9,2.6,0.3l1.7-1.4l1.7,2.1l-4,3.3c-0.8,0.6-0.9,1.8-0.3,2.6c0.6,0.8,1.8,0.9,2.6,0.3l4-3.2l1.7,2.1l-1.7,1.4
	c-0.8,0.6-0.9,1.8-0.3,2.6c0.6,0.8,1.8,0.9,2.6,0.3l1.7-1.4l4,4.9l-9.8,8L85.4,62.1z M83.4,46.9c-0.4,1.3-0.9,2.6-1.5,3.9l-5.2-6.4
	c-0.6-0.8-0.5-1.9,0.3-2.6c0.8-0.6,1.9-0.5,2.6,0.3L83.4,46.9z M90.7,52.9l-0.9-1.1L88.4,53l-5-6.1c2.9-8.8,2.7-18.7,2.2-26.6
	c25.8-26.2,40.1-4.1,28.8,5.6c0.8,0.7,1.4,1.6,1.8,2.6c0.5,1.3,0.7,2.6,0.6,3.9c4.7-2.9,7.8-8,7.9-13.8c0.1-8.6-6.4-15.8-14.9-16.6
	C97.2-0.1,85.7,7.4,75.6,24.2c-0.1,3-0.3,13.3-3.9,16.4c0,3,1.9,20.5-2.3,20.5c-4.2,0-2.3-17.5-2.3-20.5c-2.3-2-3.6-7.5-3.9-16.4
	C53.2,7.4,41.7-0.1,29,1.9c-8.5,0.8-15,8-14.9,16.6c0.1,5.8,3.2,11,7.9,13.8c-0.1-1.3,0.1-2.6,0.6-3.9c0.4-1,1-1.9,1.8-2.6
	c-11.3-9.7,3-31.8,28.8-5.6c-0.7,10.6-0.8,24.8,6.4,35.2c1.7,5,6,18.7,5.9,26.6c-1.7,4.6-0.4,7.1,3.9,7.4c4.3-0.4,5.7-2.8,3.9-7.4
	c-0.1-7.9,4.2-21.6,5.9-26.6c1-1.5,1.9-3,2.7-4.7l3.7,4.5l-1.4,1.2l0.9,1.1L90.7,52.9z M119.6,88l-2-2.5l-5.6,4.6l2,2.5l-2.6,2.1
	c-0.8,0.6-0.9,1.8-0.3,2.6c0.6,0.8,1.8,0.9,2.6,0.3l10.8-8.9c0.8-0.6,0.9-1.8,0.3-2.6c-0.6-0.8-1.8-0.9-2.6-0.3L119.6,88z
	 M110.3,27.6c-0.1,0-0.1,0-0.2-0.1c-0.1,0-0.1,0-0.2-0.1c-0.1,0-0.1,0-0.2-0.1h0c-0.1,0-0.1,0-0.2,0l-0.2,0h0c-0.1,0-0.1,0-0.2,0h0
	l-0.2,0c-0.1,0-0.1,0-0.2,0l-0.2,0h0c-0.1,0-0.1,0-0.2,0h0c-0.1,0-0.1,0-0.2,0h0c-0.1,0-0.1,0-0.2,0h0c-0.1,0-0.1,0-0.2,0h-0.2
	l-0.2,0h0l-0.2,0h0l-0.2,0h0l-0.2,0h0l-0.2,0h0l-0.2,0h0l-0.2,0l-0.2,0h0c-0.1,0-0.1,0-0.2,0h0l-0.2,0l-0.2,0h0l-0.2,0.1l-0.2,0.1h0
	l-0.2,0.1h0l-0.2,0.1h0l-0.2,0.1l-0.2,0.1l-0.2,0.1c-1.2,0.4-2.3,1-3.5,1.7c-4.8,3.2-7.2,8.1-5.3,11c0.4,0.7,1.1,1.2,1.9,1.5h0
	c0.1,0,0.1,0,0.2,0.1c0.1,0,0.1,0,0.2,0.1c0.1,0,0.1,0,0.2,0.1h0c0.1,0,0.1,0,0.2,0.1h0c0.1,0,0.1,0,0.2,0h0c0.1,0,0.1,0,0.2,0h0
	l0.2,0c0.1,0,0.1,0,0.2,0h0l0.2,0h0c0.1,0,0.1,0,0.2,0h0l0.2,0h0c0.1,0,0.1,0,0.2,0h0l0.2,0c0.1,0,0.1,0,0.2,0c0.1,0,0.1,0,0.2,0
	h0.2l0.2,0l0.2,0h0l0.2,0h0c0.1,0,0.1,0,0.2,0l0.2,0h0l0.2,0h0l0.2,0l0.2,0h0c0.1,0,0.1,0,0.2,0h0l0.2,0h0l0.2,0h0l0.2-0.1h0
	l0.2-0.1h0l0.2-0.1h0c0.1,0,0.2,0,0.2-0.1h0l0.2-0.1h0l0.2-0.1h0l0.2-0.1l0.2-0.1c0.2-0.1,0.3-0.1,0.5-0.2c0.9-0.4,1.9-0.9,2.8-1.5
	c4.8-3.2,7.2-8.1,5.3-11C112,28.5,111.3,27.9,110.3,27.6z"/>
</svg>
