<svg width="40" height="40" viewBox="0 0 40 40" fill="none" xmlns="http://www.w3.org/2000/svg">
<path d="M20 10.2813C22.1562 10.2813 23.9062 8.53125 23.9062 6.375C23.9062 4.21875 22.1562 2.46875 20 2.46875C17.8438 2.46875 16.0938 4.21875 16.0938 6.375C16.0938 8.51562 17.8438 10.2813 20 10.2813ZM20 4.0625C21.2656 4.0625 22.3125 5.09375 22.3125 6.375C22.3125 7.64062 21.2812 8.6875 20 8.6875C18.7344 8.6875 17.6875 7.65625 17.6875 6.375C17.7031 5.09375 18.7344 4.0625 20 4.0625Z" fill="#B8A492"/>
<path d="M11.5 25.4531C11.1719 25.5313 10.9219 25.8281 10.9063 26.1719L10.3125 35.3125C10.2969 35.6719 10 35.9375 9.64063 35.9375H5.10938C4.75 35.9375 4.45313 35.6563 4.4375 35.3125L3.82813 26.1875C3.8125 25.8594 3.57813 25.5781 3.26563 25.4844C3.09375 25.4375 2.59375 25.2813 2.51563 25.1875C2.45313 25.0938 2.42188 24.5781 2.40625 24.3125L1.85938 14.6406C2.64062 14.4063 3.92188 14 4.59375 13.7813L6.82813 15.875C7.14063 16.1563 7.60938 16.1563 7.92188 15.875L10.1563 13.7813C10.375 13.8438 10.6406 13.9375 10.9375 14.0313C11.3594 14.1719 11.8125 13.9375 11.9375 13.5156C12.0781 13.0938 11.8438 12.6406 11.4219 12.5156C10.75 12.2969 10.2031 12.125 10.2031 12.125C9.92188 12.0313 9.625 12.1094 9.40625 12.2969L7.375 14.2031L5.34375 12.2969C5.125 12.0938 4.82813 12.0313 4.54688 12.125C4.54688 12.125 2.40625 12.8125 1.32813 13.1406C0.65625 13.3438 0.25 13.875 0.25 14.5781C0.25 14.625 0.25 14.75 0.25 14.75L0.78125 24.2813C0.78125 24.2813 0.78125 24.4219 0.796875 24.4531C0.890625 25.8594 1.09375 26.375 2.26563 26.8281L2.82813 35.4219C2.90625 36.6094 3.90625 37.5469 5.09375 37.5469H9.625C10.8125 37.5469 11.8125 36.6094 11.8906 35.4219L12.4688 26.5156C12.5313 26.3594 12.5313 26.1719 12.4844 26C12.375 25.5781 11.9219 25.3438 11.5 25.4531Z" fill="#B8A492"/>
<path d="M7.35937 10.8281C9.51562 10.8281 11.2656 9.07812 11.2656 6.92188C11.2656 4.76562 9.51562 3.01562 7.35937 3.01562C5.20312 3.01562 3.45312 4.76562 3.45312 6.92188C3.45312 9.07812 5.21875 10.8281 7.35937 10.8281ZM7.35937 4.625C8.625 4.625 9.67188 5.65625 9.67188 6.9375C9.67188 8.21875 8.64062 9.25 7.35937 9.25C6.09375 9.25 5.04687 8.21875 5.04687 6.9375C5.04687 5.65625 6.09375 4.625 7.35937 4.625Z" fill="#B8A492"/>
<path d="M26.0469 13.1094C24.9687 12.7813 22.8281 12.0938 22.8281 12.0938C22.5469 12 22.25 12.0781 22.0312 12.2656L20 14.1719L17.9688 12.2656C17.75 12.0625 17.4531 12 17.1719 12.0938C17.1719 12.0938 15.0313 12.7813 13.9531 13.1094C13.2656 13.3125 12.875 13.8438 12.875 14.5469L13.4063 24.2813L13.4219 24.4375C13.5156 25.8438 13.7188 26.375 14.8906 26.8125L15.4531 35.4063C15.5312 36.5938 16.5312 37.5313 17.7188 37.5313H22.2656C23.4531 37.5313 24.4531 36.5938 24.5312 35.4063L25.0938 26.8125C26.2656 26.3594 26.4688 25.8281 26.5625 24.4375L27.1094 14.6875V14.5469C27.125 13.8281 26.7344 13.3125 26.0469 13.1094ZM24.9844 24.1563L24.9688 24.3125C24.9531 24.5625 24.9219 25.0625 24.8594 25.1563C24.7813 25.25 24.2656 25.4063 24.0937 25.4531C23.7812 25.5469 23.5469 25.8281 23.5313 26.1719L22.9375 35.2969C22.9219 35.6563 22.625 35.9219 22.2656 35.9219H17.7188C17.3594 35.9219 17.0781 35.6406 17.0469 35.2969L16.4531 26.1719C16.4375 25.8438 16.2031 25.5625 15.8906 25.4531C15.7187 25.4063 15.2188 25.25 15.1406 25.1563C15.0781 25.0625 15.0469 24.5469 15.0312 24.3125L14.4844 14.6406V14.5938C15.2656 14.3594 16.5469 13.9531 17.2187 13.7344L19.4531 15.8281C19.7656 16.1094 20.2344 16.1094 20.5469 15.8281L22.7812 13.75C23.4531 13.9688 24.7344 14.375 25.5156 14.6094L24.9844 24.1563Z" fill="#B8A492"/>
<path d="M38.6875 13.1094C37.6094 12.7813 35.4687 12.0938 35.4687 12.0938C35.1875 12 34.8906 12.0781 34.6719 12.2656L32.6406 14.1719L30.6094 12.2656C30.3906 12.0625 30.0938 12 29.8125 12.0938C29.8125 12.0938 29.2656 12.2656 28.5937 12.4844C28.1719 12.625 27.9375 13.0625 28.0781 13.4844C28.2187 13.9063 28.6563 14.1406 29.0781 14C29.375 13.9063 29.6406 13.8125 29.8594 13.75L32.0937 15.8438C32.4062 16.125 32.875 16.125 33.1875 15.8438L35.4219 13.75C36.0937 13.9688 37.3594 14.3594 38.1562 14.6094L37.625 24.1563L37.6094 24.3125C37.5937 24.5625 37.5625 25.0625 37.5 25.1563C37.4219 25.25 36.9062 25.4063 36.7344 25.4531C36.4219 25.5469 36.1875 25.8281 36.1719 26.1719L35.5781 35.2969C35.5469 35.6563 35.25 35.9219 34.9062 35.9219H30.3594C30.0156 35.9219 29.7187 35.6406 29.6875 35.2969L29.0781 26.1719C29.0625 25.8438 28.7969 25.5625 28.4844 25.4531C28.0625 25.3125 27.6406 25.5469 27.5 25.9688C27.4531 26.125 27.4531 26.2969 27.5 26.4375L28.0938 35.4063C28.1719 36.5938 29.1563 37.5313 30.3594 37.5313H34.9062C36.0937 37.5313 37.0937 36.5938 37.1719 35.4063L37.7344 26.8125C38.9062 26.3594 39.1094 25.8438 39.2031 24.4531C39.2031 24.3906 39.2187 24.25 39.2187 24.25L39.75 14.6719V14.5313C39.75 13.8438 39.3594 13.3125 38.6875 13.1094Z" fill="#B8A492"/>
<path d="M32.6406 10.8281C34.7969 10.8281 36.5469 9.07812 36.5469 6.92188C36.5469 4.76562 34.7969 3.01562 32.6406 3.01562C30.4844 3.01562 28.7344 4.76562 28.7344 6.92188C28.7344 9.07812 30.4844 10.8281 32.6406 10.8281ZM32.6406 4.625C33.9062 4.625 34.9531 5.65625 34.9531 6.9375C34.9531 8.21875 33.9219 9.25 32.6406 9.25C31.375 9.25 30.3281 8.21875 30.3281 6.9375C30.3281 5.65625 31.3594 4.625 32.6406 4.625Z" fill="#B8A492"/>
</svg>
