<?xml version="1.0" encoding="utf-8"?>
<!-- Generator: Adobe Illustrator 26.2.1, SVG Export Plug-In . SVG Version: 6.00 Build 0)  -->
<svg version="1.1" id="Layer_1" xmlns="http://www.w3.org/2000/svg" xmlns:xlink="http://www.w3.org/1999/xlink" x="0px" y="0px"
	 viewBox="0 0 140 100" style="enable-background:new 0 0 140 100;" xml:space="preserve">
<style type="text/css">
	.st0{fill:#D7CBAC;}
</style>
<path class="st0" d="M76.6,28.7c0-7.4-2.9-14.4-8.1-19.6c-5.2-5.2-12.3-8.1-19.6-8.1c-7.4,0-14.4,2.9-19.6,8.1
	c-5.2,5.2-8.1,12.3-8.1,19.6c0,7.4,2.9,14.4,8.1,19.6c5.2,5.2,12.3,8.1,19.6,8.1c7.4,0,14.4-2.9,19.6-8.1
	C73.6,43.1,76.6,36,76.6,28.7L76.6,28.7z M27.6,28.7c0-5.6,2.2-11,6.2-15c4-4,9.4-6.2,15-6.2c5.6,0,11,2.2,15,6.2
	c4,4,6.2,9.4,6.2,15c0,5.6-2.2,11-6.2,15s-9.4,6.2-15,6.2c-5.6,0-11-2.2-15-6.2C29.9,39.7,27.6,34.3,27.6,28.7z"/>
<path class="st0" d="M53.4,33.3c1.8-0.2,3.4-1,4.6-2.3l3.5-3.5c0.7-0.8,0.9-2,0.6-3c-0.3-1-1.1-1.8-2.1-2.2c-1-0.3-2.2-0.1-3,0.5
	l-3.6,3.5c-0.3,0.3-0.7,0.5-1.1,0.5c-0.4,0-0.8-0.2-1.1-0.5c-0.3-0.3-0.5-0.7-0.5-1.1c0-0.4,0.2-0.8,0.5-1.1l3.5-3.6
	c0.6-0.6,0.9-1.4,0.9-2.3c0-0.9-0.3-1.7-0.9-2.3c-0.6-0.6-1.4-1-2.3-1c-0.9,0-1.7,0.3-2.3,1l-3.5,3.5c-1.3,1.3-2.1,2.9-2.3,4.7
	c-1.7,0.2-3.4,1-4.6,2.2l-3.5,3.5c-0.7,0.8-0.9,2-0.6,3c0.3,1,1.1,1.8,2.1,2.2c1,0.3,2.2,0.1,3-0.5l3.5-3.5c0.3-0.3,0.7-0.5,1.1-0.5
	c0.4,0,0.8,0.2,1.1,0.5c0.3,0.3,0.5,0.7,0.5,1.1c0,0.4-0.2,0.8-0.5,1.1l-3.4,3.6c-0.6,0.6-0.9,1.4-0.9,2.3c0,0.9,0.3,1.7,0.9,2.3
	c0.6,0.6,1.4,1,2.3,1c0.9,0,1.7-0.3,2.3-1l3.5-3.5C52.4,36.7,53.2,35.1,53.4,33.3L53.4,33.3z"/>
<path class="st0" d="M47.2,62.9c-2.6,0-5.1,1-6.9,2.9c-1.8,1.8-2.9,4.3-2.9,6.9c0,2.6,1,5.1,2.9,6.9c1.8,1.8,4.3,2.9,6.9,2.9
	c2.6,0,5.1-1,6.9-2.9c1.8-1.8,2.9-4.3,2.9-6.9c0-2.6-1-5.1-2.9-6.9C52.3,64,49.8,62.9,47.2,62.9z M47.2,76c-0.9,0-1.7-0.3-2.3-1
	c-0.6-0.6-1-1.4-1-2.3s0.3-1.7,1-2.3c0.6-0.6,1.4-1,2.3-1c0.9,0,1.7,0.3,2.3,1c0.6,0.6,1,1.4,1,2.3s-0.3,1.7-1,2.3
	C48.9,75.7,48.1,76,47.2,76z"/>
<path class="st0" d="M92.9,36.8c2.6,0,5.1-1,6.9-2.9c1.8-1.8,2.9-4.3,2.9-6.9s-1-5.1-2.9-6.9c-1.8-1.8-4.3-2.9-6.9-2.9
	c-2.6,0-5.1,1-6.9,2.9c-1.8,1.8-2.9,4.3-2.9,6.9s1,5.1,2.9,6.9C87.8,35.8,90.3,36.8,92.9,36.8z M92.9,23.8c0.9,0,1.7,0.3,2.3,1
	c0.6,0.6,1,1.4,1,2.3c0,0.9-0.3,1.7-1,2.3c-0.6,0.6-1.4,1-2.3,1c-0.9,0-1.7-0.3-2.3-1c-0.6-0.6-1-1.4-1-2.3c0-0.9,0.3-1.7,1-2.3
	C91.2,24.1,92,23.8,92.9,23.8z"/>
<path class="st0" d="M91.3,43.4c-7.4,0-14.4,2.9-19.6,8.1c-5.2,5.2-8.1,12.3-8.1,19.6c0,7.4,2.9,14.4,8.1,19.6
	c5.2,5.2,12.3,8.1,19.6,8.1s14.4-2.9,19.6-8.1c5.2-5.2,8.1-12.3,8.1-19.6c0-7.4-2.9-14.4-8.1-19.6C105.7,46.3,98.6,43.4,91.3,43.4
	L91.3,43.4z M102.2,82.1c-0.6,0.6-1.4,1-2.3,1c-0.9,0-1.7-0.3-2.3-1L92.5,77c-0.9,0.4-2,0.6-3,0.6c-2.2,0-4.2-0.9-5.8-2.4l-3.5-3.5
	c-0.6-0.6-1-1.4-1-2.3c0-0.9,0.3-1.7,1-2.3c0.6-0.6,1.4-1,2.3-1s1.7,0.3,2.3,1l3.5,3.5c0.3,0.3,0.7,0.5,1.1,0.5
	c0.4,0,0.8-0.2,1.1-0.5c0.3-0.3,0.5-0.7,0.5-1.1s-0.2-0.8-0.5-1.1l-3.5-3.5c-0.6-0.6-0.9-1.4-0.9-2.3c0-0.9,0.3-1.7,0.9-2.3
	c0.6-0.6,1.4-1,2.3-1c0.9,0,1.7,0.3,2.3,1l3.5,3.5c1.6,1.6,2.4,3.7,2.4,5.9c0,1-0.2,2-0.6,3l5.1,5.1c0.6,0.6,0.9,1.4,0.9,2.3
	C103.2,80.7,102.8,81.5,102.2,82.1z"/>
</svg>
