<svg width="39" height="33" viewBox="0 0 39 33" fill="none" xmlns="http://www.w3.org/2000/svg">
<path d="M12.1027 0.27949C11.7638 0.313502 11.5059 0.598913 11.5062 0.939627V9.29697C11.505 9.66282 11.8004 9.96036 12.1663 9.96183H18.8377V12.8177H5.12965C4.95308 12.8171 4.78361 12.8869 4.65879 13.0117C4.53399 13.1365 4.46389 13.3063 4.46478 13.4829V17.0051H0.947621C0.58177 17.0063 0.286302 17.3041 0.287786 17.67V26.0273C0.289265 26.3914 0.583844 26.6859 0.947621 26.6874H9.30497C9.67111 26.6886 9.96865 26.3932 9.97013 26.0273V17.67C9.97072 17.4934 9.90092 17.3239 9.77611 17.1991C9.65131 17.074 9.48183 17.0042 9.30497 17.0051H5.78925L5.78954 14.1439H18.8374V22.4384H15.3205C15.2978 22.4372 15.2747 22.4372 15.2519 22.4384C14.913 22.4724 14.6551 22.7578 14.6554 23.0983V31.4564C14.6548 31.6329 14.7246 31.8024 14.8494 31.9272C14.9742 32.052 15.144 32.1221 15.3205 32.1212H23.6779C23.8539 32.1209 24.0224 32.0505 24.1464 31.9257C24.2703 31.8012 24.3398 31.632 24.3392 31.4564V23.0983C24.3377 22.7339 24.0423 22.4393 23.6779 22.4384H20.1622V14.1439H33.2055V17.0051H29.6886C29.3228 17.0063 29.0273 17.3041 29.0285 17.67V26.0273C29.03 26.3914 29.3245 26.6859 29.6886 26.6874H38.0475H38.0472C38.413 26.6886 38.7109 26.3932 38.7123 26.0273V17.67C38.7129 17.4934 38.6431 17.3239 38.5183 17.1991C38.3935 17.074 38.2237 17.0042 38.0472 17.0051H34.5303V13.4829C34.5318 13.117 34.2363 12.8192 33.8705 12.8177H20.1624V9.96182H26.8276C27.0042 9.96271 27.1737 9.89291 27.2985 9.76781C27.4233 9.643 27.4934 9.47353 27.4925 9.29695V0.939612C27.491 0.573465 27.1935 0.278293 26.8276 0.279474H12.1663C12.145 0.278587 12.124 0.278602 12.1027 0.27949ZM12.8312 1.60449H26.1675V8.63706H12.8312V1.60449ZM1.61258 18.3298H8.64515V25.3623H1.61258V18.3298ZM30.3537 18.3298H37.3863V25.3623H30.3537V18.3298ZM15.9809 23.7632H23.0135V30.7958H15.9809V23.7632Z" fill="#B8A492"/>
</svg>
