<svg width="136" height="84" viewBox="0 0 136 84" fill="none" xmlns="http://www.w3.org/2000/svg">
<g clip-path="url(#clip0_481_12873)">
<path d="M32.9468 5.56543H99.6788V74.9204C99.6788 75.9671 99.4722 77.0037 99.0709 77.9708C98.6697 78.9379 98.0815 79.8166 97.34 80.5568C96.5985 81.297 95.7182 81.8841 94.7494 82.2847C93.7806 82.6853 92.7422 82.8915 91.6936 82.8915H40.932C39.8834 82.8915 38.845 82.6853 37.8762 82.2847C36.9074 81.8841 36.0271 81.297 35.2856 80.5568C34.5441 79.8166 33.9559 78.9379 33.5546 77.9708C33.1533 77.0037 32.9468 75.9671 32.9468 74.9204V5.56543Z" fill="#F2EBDF"/>
<path d="M91.966 5.56543C93.5589 17.8673 93.3912 30.3156 95.2356 42.5966C96.556 51.4464 97.9392 60.0033 93.8523 68.4347C89.3881 77.6401 82.4299 78.0795 73.0614 78.1841C64.3636 78.3096 54.073 79.1465 46.1297 74.8576C37.7463 70.3385 37.7463 62.1582 37.872 53.7059C37.7044 47.2232 37.9775 40.7365 38.6894 34.2907C39.6745 27.7213 41.917 20.7545 47.513 16.7375C52.564 13.1181 74.4447 14.3734 71.7201 5.58635H32.9468V76.0919C32.9495 76.9894 33.1297 77.8775 33.4769 78.7053C33.8241 79.5331 34.3316 80.2844 34.9702 80.916C35.6088 81.5477 36.366 82.0473 37.1985 82.3863C38.0309 82.7253 38.9222 82.897 39.8212 82.8914H92.8253C93.7244 82.8942 94.6151 82.7198 95.4465 82.3783C96.2778 82.0368 97.0335 81.5348 97.6702 80.9012C98.3069 80.2676 98.812 79.5148 99.1567 78.6859C99.5014 77.8571 99.6788 76.9685 99.6788 76.071V5.56543H91.966Z" fill="#E0D6C2"/>
<path d="M91.6726 82.8913C92.1596 82.7377 92.6569 82.6189 93.1607 82.5356C94.556 82.1811 95.83 81.4584 96.8494 80.4434C97.6291 79.6343 98.221 78.6638 98.5832 77.6009C98.9454 76.5379 99.069 75.4085 98.9452 74.2925C98.9452 71.4472 98.9452 68.2253 98.7776 64.6268C98.7776 57.3879 98.5889 48.6636 98.4842 38.7468C98.5051 29.2903 98.5051 18.4738 98.3584 6.8833L40.932 7.00883H34.3929C34.3929 24.9595 34.2881 41.9896 34.2462 57.4507C34.2462 61.4258 34.2462 65.2962 34.2462 69.0412C34.2462 70.9241 34.2462 72.7862 34.2462 74.6063C34.1334 76.136 34.5421 77.6588 35.4058 78.9274C36.2695 80.196 37.5375 81.1358 39.0038 81.5941C39.6837 81.7986 40.3896 81.9043 41.0997 81.908H43.5728H52.9622C64.9505 82.0335 74.5914 82.2009 81.2562 82.3682C84.5886 82.3682 87.1875 82.5356 88.9271 82.6193C89.8224 82.5925 90.7174 82.6839 91.5888 82.8913C90.7224 83.1275 89.8242 83.2263 88.9271 83.1842C87.1875 83.1842 84.5886 83.3515 81.2562 83.4352C74.5914 83.6026 64.9505 83.77 52.9622 83.8955H43.5728H41.1835C40.2352 83.967 39.2815 83.8965 38.3541 83.6863C36.4179 83.139 34.721 81.9606 33.5336 80.3388C32.2956 78.688 31.653 76.6678 31.7102 74.6063C31.7102 72.7862 31.7102 70.9241 31.7102 69.0412C31.7102 65.2962 31.7102 61.4258 31.7102 57.4507C31.7102 41.1109 31.7102 23.1184 31.5845 4.14258H40.9949L100.978 4.18442C100.978 16.7373 100.832 28.3279 100.769 38.6631C100.643 48.5799 100.538 57.3042 100.454 64.5431C100.454 68.1416 100.328 71.3635 100.287 74.2088C100.313 75.5893 100.041 76.9593 99.4902 78.2258C98.9897 79.2747 98.2759 80.208 97.3943 80.9665C96.2239 82.0124 94.7615 82.6767 93.2026 82.8703C92.2175 83.0796 91.6726 82.954 91.6726 82.8913Z" fill="#BDAB8B"/>
<path d="M99.0711 0H33.5547C31.2859 0 29.4468 1.83591 29.4468 4.10062V9.7076C29.4468 11.9723 31.2859 13.8082 33.5547 13.8082H99.0711C101.34 13.8082 103.179 11.9723 103.179 9.7076V4.10062C103.179 1.83591 101.34 0 99.0711 0Z" fill="#D7CAAA"/>
<path d="M50.5101 42.7633C50.1961 41.9955 49.6757 41.3292 49.0062 40.8382C48.3368 40.3471 47.5444 40.0504 46.7166 39.9807C46.4231 39.5414 46.1507 39.2066 46.0459 39.0602C45.5432 38.369 45.2587 37.5438 45.2289 36.6902C45.199 35.8366 45.4251 34.9936 45.8782 34.2691C46.5933 33.0592 46.8812 31.6448 46.6956 30.2522C46.2023 29.1689 45.4885 28.1999 44.5997 27.4069C43.9007 26.5575 43.3762 25.5789 43.0562 24.5271C42.7361 23.4753 42.6268 22.3708 42.7344 21.2769C42.9956 20.3728 42.9439 19.4073 42.5877 18.5361C41.8781 19.6506 41.4873 20.9375 41.4577 22.2578C41.4282 23.578 41.761 24.8811 42.4201 26.026C43.2584 27.4696 44.6417 28.704 44.8093 30.3777C44.977 32.0515 43.8662 33.516 43.5518 35.1269C43.315 36.8046 43.647 38.5131 44.4949 39.9807C44.6626 40.3155 44.8722 40.7757 45.1447 41.2569C45.0208 41.6352 44.9572 42.0306 44.956 42.4285C44.9485 43.402 45.194 44.3607 45.6686 45.2111C45.9114 45.744 46.2915 46.2031 46.7702 46.5412C47.2489 46.8794 47.809 47.0846 48.3932 47.1359C48.8542 47.0855 49.2927 46.9109 49.6619 46.6308C50.0311 46.3507 50.317 45.9757 50.4891 45.5458C50.8517 44.655 50.8592 43.6595 50.5101 42.7633Z" fill="#D7CAAA"/>
<path d="M48.2046 66.6978C47.8907 65.93 47.3703 65.2638 46.7008 64.7728C46.0313 64.2817 45.2389 63.9849 44.4111 63.9153L43.7404 62.9947C43.2378 62.3036 42.9533 61.4784 42.9234 60.6248C42.8936 59.7712 43.1197 58.9282 43.5728 58.2037C44.2999 56.9986 44.5816 55.5775 44.3692 54.1868C43.8813 53.1003 43.1668 52.1303 42.2733 51.3414C40.8691 49.6228 40.2058 47.418 40.429 45.2114C40.6835 44.305 40.6244 43.3394 40.2613 42.4707C39.5625 43.5892 39.1782 44.8748 39.1487 46.1927C39.1192 47.5106 39.4456 48.8121 40.0936 49.9606C40.9529 51.4042 42.3362 52.6386 42.5039 54.3123C42.6716 55.986 41.5607 57.4505 41.2254 59.0615C40.9982 60.7389 41.3296 62.4443 42.1685 63.9153L42.8183 65.1915C42.7007 65.5779 42.6442 65.9802 42.6506 66.384C42.6428 67.3509 42.8885 68.3029 43.3632 69.1457C43.5969 69.6946 43.976 70.1696 44.4597 70.5197C44.9434 70.8699 45.5135 71.082 46.1088 71.1332C46.5711 71.0873 47.0118 70.9145 47.3817 70.6338C47.7517 70.3531 48.0365 69.9756 48.2046 69.5432C48.3948 69.0929 48.4928 68.6092 48.4928 68.1205C48.4928 67.6318 48.3948 67.1481 48.2046 66.6978Z" fill="#D7CAAA"/>
<path d="M87.8163 72.9951C87.4489 72.2521 87.2974 71.4211 87.3789 70.5965C87.4604 69.7719 87.7717 68.9866 88.2774 68.3296C88.1517 67.8065 88.0678 67.3881 88.0259 67.1998C87.7115 65.275 86.3283 64.48 84.5678 63.8733C83.1854 63.5923 81.9379 62.8554 81.0258 61.7811C80.546 60.6931 80.2962 59.5179 80.2922 58.3291C79.9492 56.1404 78.7509 54.1767 76.9598 52.8686C76.2053 52.3246 75.2831 51.8225 75.0316 50.9229C76.3361 51.1411 77.5562 51.7103 78.5607 52.5693C79.5652 53.4282 80.316 54.5444 80.7323 55.7976C80.9352 57.4585 81.4926 59.0566 82.3671 60.484C83.4779 61.6974 85.3223 61.8648 86.7684 62.7226C88.172 63.6657 89.2196 65.0502 89.7445 66.6559C89.8703 67.0115 90.0799 67.4718 90.2685 67.9948C90.6342 68.16 90.9732 68.3786 91.2745 68.6434C92.0136 69.3168 92.5567 70.177 92.8464 71.1331C93.0818 71.6682 93.171 72.256 93.1047 72.8367C93.0385 73.4174 92.8191 73.9702 92.4691 74.4387C92.127 74.7716 91.6975 75.0013 91.2303 75.1012C90.7631 75.2011 90.2771 75.1673 89.8284 75.0035C88.9208 74.6219 88.1987 73.9011 87.8163 72.9951Z" fill="#D7CAAA"/>
<path d="M56.5881 52.1787C56.4622 52.991 56.5617 53.8222 56.8758 54.582C57.1898 55.3419 57.7065 56.0012 58.3695 56.4886C58.3695 57.0116 58.3695 57.451 58.3695 57.6183C58.4551 58.4719 58.2758 59.3311 57.856 60.0795C57.4361 60.8279 56.7959 61.4295 56.0222 61.8027C54.8291 62.503 53.9009 63.5766 53.3814 64.8572C53.2397 66.0366 53.3395 67.2324 53.6748 68.372C53.8432 69.47 53.7909 70.5904 53.521 71.668C53.2512 72.7456 52.7691 73.7588 52.1029 74.6485C51.4158 75.2911 50.9655 76.146 50.8245 77.0754C51.9969 76.487 52.988 75.593 53.6928 74.488C54.3975 73.383 54.7896 72.1083 54.8275 70.7989C54.5413 69.1582 54.6056 67.4756 55.0162 65.8614C55.7288 64.3551 57.4474 63.6438 58.5791 62.4303C59.6343 61.1067 60.2301 59.4767 60.2768 57.7857C60.2768 57.4091 60.2768 56.907 60.2768 56.3421C60.5736 56.0832 60.8281 55.7797 61.0313 55.4425C61.54 54.6164 61.8219 53.6711 61.8487 52.7018C61.9187 52.1216 61.8334 51.5332 61.6015 50.9966C61.3695 50.46 60.9992 49.9944 60.5283 49.6472C60.104 49.4283 59.6256 49.3355 59.15 49.38C58.6745 49.4245 58.2217 49.6044 57.8456 49.8983C57.156 50.4752 56.7075 51.2886 56.5881 52.1787Z" fill="#D7CAAA"/>
<path d="M78.5317 23.7458C78.6028 24.5683 78.4447 25.3945 78.0748 26.1329C77.7049 26.8714 77.1377 27.4933 76.4359 27.9301C76.4359 28.4531 76.2682 28.8716 76.2263 29.0389C76.0803 29.8815 76.1876 30.7484 76.5344 31.5303C76.8813 32.3122 77.4523 32.974 78.1754 33.4325C79.3572 34.1977 80.2324 35.3528 80.6485 36.6962C80.6886 37.8853 80.4743 39.0693 80.0198 40.1692C79.5151 42.312 79.8766 44.567 81.0258 46.4457C81.6541 47.1538 82.0234 48.0535 82.0737 48.9981C80.9548 48.296 80.0467 47.3052 79.4454 46.1305C78.844 44.9557 78.5718 43.6406 78.6575 42.3241C79.0996 40.7093 79.1925 39.0191 78.9299 37.3657C78.364 35.8175 76.7083 34.9597 75.7233 33.6417C74.7707 32.2331 74.3204 30.5456 74.4448 28.8506C74.4448 28.495 74.4448 27.9719 74.4448 27.428C74.1755 27.1338 73.9496 26.8026 73.7741 26.4447C73.3468 25.5744 73.1519 24.6087 73.2082 23.6412C73.1915 23.0566 73.3325 22.4782 73.6164 21.9666C73.9003 21.4551 74.3167 21.029 74.822 20.7331C75.2628 20.5561 75.7448 20.5074 76.2121 20.5926C76.6795 20.6777 77.1131 20.8933 77.4628 21.2143C78.1311 21.8901 78.5137 22.7964 78.5317 23.7458Z" fill="#D7CAAA"/>
<path d="M63.2319 71.1333C63.5011 70.3456 63.9849 69.6483 64.6291 69.1198C65.2733 68.5913 66.0523 68.2526 66.8787 68.1415C67.1511 67.7022 67.4026 67.3465 67.5074 67.2001C67.9841 66.4879 68.2385 65.6506 68.2385 64.7941C68.2385 63.9376 67.9841 63.1003 67.5074 62.3881C66.7263 61.277 66.3424 59.9358 66.4176 58.5804C66.8511 57.4756 67.5074 56.4716 68.3458 55.6305C69.0083 54.7392 69.4866 53.7253 69.7529 52.6478C70.0191 51.5702 70.068 50.4506 69.8967 49.354C69.5885 48.4663 69.5885 47.5009 69.8967 46.6133C70.6556 47.6932 71.1053 48.9592 71.1977 50.2751C71.29 51.5911 71.0214 52.9073 70.4207 54.0823C69.6452 55.5677 68.3248 56.8648 68.3248 58.5386C68.3248 60.2123 69.4147 61.6349 69.8129 63.225C70.1359 64.8702 69.9076 66.5759 69.1631 68.0788L68.5763 69.3968C68.7141 69.7666 68.7987 70.154 68.8278 70.5475C68.8786 71.517 68.6764 72.483 68.241 73.351C68.0305 73.901 67.6767 74.385 67.2161 74.7528C66.7556 75.1206 66.2049 75.3589 65.6212 75.4432C65.1454 75.4306 64.6828 75.2846 64.2862 75.0219C63.8896 74.7592 63.5751 74.3904 63.3786 73.9577C63.1655 73.5209 63.0426 73.0457 63.0174 72.5604C62.9922 72.0752 63.0652 71.5898 63.2319 71.1333Z" fill="#D7CAAA"/>
<path d="M90.2475 23.1389C90.1197 23.9585 90.2225 24.7974 90.5445 25.5621C90.8664 26.3268 91.3949 26.9872 92.0709 27.4696C92.0709 28.0136 92.0709 28.432 92.0709 28.6203C92.1332 29.4706 91.944 30.3205 91.5267 31.0644C91.1094 31.8083 90.4824 32.4134 89.7235 32.8046C88.4753 33.4631 87.4968 34.5361 86.957 35.8382C86.8133 37.012 86.9205 38.2027 87.2713 39.3321C87.4368 40.4315 87.3811 41.5527 87.1076 42.6304C86.8341 43.708 86.3483 44.7205 85.6785 45.6086C84.9937 46.2616 84.5443 47.1221 84.4 48.0564C85.5721 47.4655 86.5638 46.5714 87.2717 45.4674C87.9795 44.3633 88.3775 43.0899 88.4241 41.7799C88.127 40.133 88.1913 38.4413 88.6127 36.8215C89.3253 35.3361 91.0439 34.6248 92.1547 33.4113C93.2195 32.0931 93.8165 30.4597 93.8523 28.7667C93.8523 28.3902 93.8523 27.888 93.9571 27.3232C94.2561 27.0606 94.5171 26.7578 94.7326 26.4235C95.2287 25.5854 95.5027 24.635 95.529 23.6619C95.6344 23.0716 95.5769 22.4638 95.3628 21.9037C95.1486 21.3435 94.7859 20.852 94.3134 20.4818C93.8911 20.2599 93.4138 20.1637 92.9383 20.2045C92.4628 20.2452 92.009 20.4214 91.6307 20.712C90.8751 21.3141 90.38 22.1828 90.2475 23.1389Z" fill="#D7CAAA"/>
<path d="M52.3964 23.9762C52.8357 24.6751 53.4591 25.24 54.1984 25.609C54.9377 25.978 55.7644 26.1369 56.5881 26.0683C56.9654 26.4449 57.3007 26.7378 57.4265 26.8424C58.0592 27.4282 58.4953 28.1947 58.6754 29.0372C58.8555 29.8797 58.7706 30.7572 58.4325 31.5498C57.9624 32.8692 57.9624 34.31 58.4325 35.6295C59.048 36.5842 59.8456 37.4088 60.7798 38.0564C62.4668 39.4939 63.5143 41.5401 63.6931 43.747C63.6054 44.6803 63.8342 45.616 64.3428 46.4041C64.8312 45.1768 64.978 43.8404 64.7677 42.5366C64.5574 41.2328 63.9978 40.0101 63.1481 38.9978C62.0583 37.7425 60.4864 36.7801 60.0253 35.1692C59.5642 33.5582 60.4026 31.9054 60.4235 30.2526C60.3488 28.5617 59.715 26.9431 58.6211 25.6499L57.7618 24.4992C57.8134 24.1034 57.8134 23.7025 57.7618 23.3067C57.5919 22.3582 57.1886 21.4668 56.5881 20.7124C56.2553 20.232 55.8003 19.8489 55.2698 19.6025C54.7393 19.3561 54.1526 19.2554 53.5701 19.3107C53.11 19.4281 52.6926 19.6731 52.3662 20.0175C52.0399 20.3618 51.8178 20.7913 51.7257 21.2564C51.5862 22.2155 51.8268 23.1912 52.3964 23.9762Z" fill="#D7CAAA"/>
<g opacity="0.6">
<path d="M90.4361 56.9064C88.8432 56.8018 87.9839 49.1864 87.7115 39.8554C87.439 30.5244 87.9211 22.888 89.5139 22.6997C91.1068 22.5114 93.2236 30.1269 93.4751 39.7508C93.7266 49.3747 92.008 56.9901 90.4361 56.9064Z" fill="#EFEAE1"/>
</g>
<path d="M5.91035 25.6286C5.86404 25.6235 5.82128 25.6014 5.79032 25.5666C5.75936 25.5318 5.74239 25.4868 5.74268 25.4403V13.9753C5.74268 13.9309 5.76034 13.8884 5.79179 13.857C5.82323 13.8256 5.86588 13.808 5.91035 13.808C5.93406 13.805 5.95814 13.8071 5.98096 13.8141C6.00379 13.8212 6.02484 13.8331 6.0427 13.8489C6.06057 13.8648 6.07483 13.8842 6.08453 13.906C6.09424 13.9278 6.09916 13.9515 6.09897 13.9753V25.4403C6.09897 25.4903 6.0791 25.5382 6.04373 25.5735C6.00835 25.6088 5.96037 25.6286 5.91035 25.6286Z" fill="#BEAC8C"/>
<path d="M11.6739 19.8758H0.167668C0.1232 19.8758 0.0805528 19.8581 0.0491089 19.8267C0.017665 19.7953 0 19.7528 0 19.7084C0 19.664 0.017665 19.6214 0.0491089 19.59C0.0805528 19.5587 0.1232 19.541 0.167668 19.541H11.6739C11.7184 19.541 11.761 19.5587 11.7925 19.59C11.8239 19.6214 11.8416 19.664 11.8416 19.7084C11.8416 19.7528 11.8239 19.7953 11.7925 19.8267C11.761 19.8581 11.7184 19.8758 11.6739 19.8758Z" fill="#BEAC8C"/>
<path d="M5.91031 15.796C5.88425 15.8089 5.85556 15.8156 5.82648 15.8156C5.79739 15.8156 5.7687 15.8089 5.74264 15.796L5.00909 14.3733C4.97816 14.3388 4.96106 14.2941 4.96106 14.2478C4.96106 14.2015 4.97816 14.1568 5.00909 14.1223C5.04211 14.0968 5.08265 14.083 5.12436 14.083C5.16608 14.083 5.20662 14.0968 5.23964 14.1223L5.97318 15.5449C6.00039 15.5811 6.0151 15.6252 6.0151 15.6705C6.0151 15.7157 6.00039 15.7598 5.97318 15.796H5.91031Z" fill="#BEAC8C"/>
<path d="M5.93132 15.796C5.90411 15.7598 5.8894 15.7157 5.8894 15.6705C5.8894 15.6252 5.90411 15.5811 5.93132 15.5449L6.66487 14.1223C6.69789 14.0968 6.73843 14.083 6.78014 14.083C6.82186 14.083 6.8624 14.0968 6.89541 14.1223C6.92635 14.1568 6.94345 14.2015 6.94345 14.2478C6.94345 14.2941 6.92635 14.3388 6.89541 14.3733L6.16187 15.796C6.12885 15.8214 6.08831 15.8352 6.04659 15.8352C6.00488 15.8352 5.96434 15.8214 5.93132 15.796Z" fill="#BEAC8C"/>
<path d="M5.15577 25.273C5.12629 25.2419 5.10986 25.2008 5.10986 25.1579C5.10986 25.1151 5.12629 25.074 5.15577 25.0429L5.88932 23.6202C5.92391 23.5893 5.96868 23.5723 6.01507 23.5723C6.06147 23.5723 6.10624 23.5893 6.14083 23.6202C6.17031 23.6513 6.18674 23.6925 6.18674 23.7353C6.18674 23.7781 6.17031 23.8193 6.14083 23.8503L5.32344 25.1056C5.31889 25.1485 5.29976 25.1885 5.26925 25.2189C5.23873 25.2494 5.19868 25.2685 5.15577 25.273Z" fill="#BEAC8C"/>
<path d="M6.68578 25.2734C6.65972 25.2863 6.63103 25.293 6.60194 25.293C6.57285 25.293 6.54416 25.2863 6.51811 25.2734L5.78456 23.8298C5.75508 23.7988 5.73865 23.7576 5.73865 23.7148C5.73865 23.672 5.75508 23.6308 5.78456 23.5997C5.81914 23.5688 5.86391 23.5518 5.91031 23.5518C5.95671 23.5518 6.00148 23.5688 6.03606 23.5997L6.76961 25.0224C6.79909 25.0535 6.81552 25.0946 6.81552 25.1374C6.81552 25.1802 6.79909 25.2214 6.76961 25.2525L6.68578 25.2734Z" fill="#BEAC8C"/>
<path d="M9.95528 19.8123C9.92087 19.81 9.88756 19.7993 9.85831 19.781C9.82906 19.7628 9.80478 19.7376 9.78761 19.7077C9.75813 19.6767 9.7417 19.6355 9.7417 19.5927C9.7417 19.5499 9.75813 19.5087 9.78761 19.4776L11.2966 18.829C11.3278 18.7996 11.369 18.7832 11.4119 18.7832C11.4548 18.7832 11.496 18.7996 11.5272 18.829C11.5581 18.8636 11.5752 18.9082 11.5752 18.9546C11.5752 19.0009 11.5581 19.0456 11.5272 19.0801L10.081 19.8123H9.95528Z" fill="#BEAC8C"/>
<path d="M11.3805 20.587L9.95533 19.8338C9.92585 19.8028 9.90942 19.7616 9.90942 19.7188C9.90942 19.676 9.92585 19.6348 9.95533 19.6037C9.98835 19.5783 10.0289 19.5645 10.0706 19.5645C10.1123 19.5645 10.1529 19.5783 10.1859 19.6037L11.632 20.3569C11.6615 20.388 11.6779 20.4291 11.6779 20.4719C11.6779 20.5148 11.6615 20.5559 11.632 20.587C11.6163 20.6048 11.5969 20.6191 11.5753 20.6289C11.5536 20.6386 11.5301 20.6437 11.5063 20.6437C11.4825 20.6437 11.459 20.6386 11.4373 20.6289C11.4156 20.6191 11.3962 20.6048 11.3805 20.587Z" fill="#BEAC8C"/>
<path d="M1.88626 19.8123L0.377242 19.0591C0.338074 19.037 0.308101 19.0017 0.292729 18.9595C0.277356 18.9173 0.277597 18.871 0.293408 18.829C0.329686 18.8018 0.373811 18.7871 0.419159 18.7871C0.464507 18.7871 0.508632 18.8018 0.54491 18.829L1.97009 19.5612C1.99957 19.5923 2.016 19.6335 2.016 19.6763C2.016 19.7191 1.99957 19.7603 1.97009 19.7913C1.94391 19.8041 1.91535 19.8112 1.88626 19.8123Z" fill="#BEAC8C"/>
<path d="M0.461137 20.5871C0.426725 20.5848 0.393417 20.574 0.364169 20.5558C0.334921 20.5375 0.310636 20.5123 0.293469 20.4825C0.263988 20.4514 0.247559 20.4102 0.247559 20.3674C0.247559 20.3246 0.263988 20.2834 0.293469 20.2523L1.71865 19.4992C1.75607 19.4749 1.79976 19.4619 1.8444 19.4619C1.88905 19.4619 1.93273 19.4749 1.97015 19.4992C1.99963 19.5302 2.01606 19.5714 2.01606 19.6142C2.01606 19.657 1.99963 19.6982 1.97015 19.7293L0.544971 20.4825L0.461137 20.5871Z" fill="#BEAC8C"/>
<path d="M5.91036 17.4069C5.89223 17.4205 5.87016 17.4279 5.84749 17.4279C5.82481 17.4279 5.80275 17.4205 5.78461 17.4069L5.32353 16.5492C5.29972 16.5195 5.28674 16.4826 5.28674 16.4445C5.28674 16.4065 5.29972 16.3696 5.32353 16.3399C5.34995 16.3178 5.38334 16.3057 5.41784 16.3057C5.45234 16.3057 5.48573 16.3178 5.51215 16.3399L5.95228 17.1977C5.96622 17.2114 5.9773 17.2276 5.98486 17.2456C5.99242 17.2636 5.99632 17.2828 5.99632 17.3023C5.99632 17.3218 5.99242 17.3411 5.98486 17.3591C5.9773 17.377 5.96622 17.3933 5.95228 17.4069H5.91036Z" fill="#BEAC8C"/>
<path d="M5.93131 17.407C5.9075 17.3773 5.89453 17.3404 5.89453 17.3024C5.89453 17.2643 5.9075 17.2274 5.93131 17.1978L6.28761 16.319C6.31947 16.3007 6.35561 16.291 6.3924 16.291C6.42919 16.291 6.46533 16.3007 6.49719 16.319C6.51792 16.35 6.52898 16.3864 6.52898 16.4237C6.52898 16.4609 6.51792 16.4973 6.49719 16.5283L6.05707 17.386C6.01954 17.4093 5.97436 17.4168 5.93131 17.407Z" fill="#BEAC8C"/>
<path d="M5.47013 23.0133C5.44632 22.9837 5.43335 22.9468 5.43335 22.9087C5.43335 22.8707 5.44632 22.8338 5.47013 22.8041L5.93122 21.9673C5.94269 21.95 5.95826 21.9359 5.97655 21.9261C5.99483 21.9163 6.01526 21.9111 6.03601 21.9111C6.05676 21.9111 6.07719 21.9163 6.09548 21.9261C6.11376 21.9359 6.12933 21.95 6.14081 21.9673C6.15419 21.9791 6.1649 21.9935 6.17224 22.0098C6.17958 22.026 6.18338 22.0436 6.18338 22.0614C6.18338 22.0792 6.17958 22.0968 6.17224 22.1131C6.1649 22.1293 6.15419 22.1438 6.14081 22.1556L5.59588 23.0133C5.57677 23.0244 5.55508 23.0302 5.53301 23.0302C5.51093 23.0302 5.48925 23.0244 5.47013 23.0133Z" fill="#BEAC8C"/>
<path d="M6.28753 23.0133L5.82645 22.1555C5.80427 22.1291 5.79211 22.0958 5.79211 22.0614C5.79211 22.0269 5.80427 21.9936 5.82645 21.9672C5.83503 21.9495 5.84843 21.9346 5.86511 21.9242C5.88179 21.9137 5.90107 21.9082 5.92076 21.9082C5.94045 21.9082 5.95973 21.9137 5.97641 21.9242C5.99309 21.9346 6.00649 21.9495 6.01507 21.9672L6.4552 22.8041C6.46914 22.8177 6.48022 22.834 6.48778 22.8519C6.49534 22.8699 6.49924 22.8892 6.49924 22.9087C6.49924 22.9282 6.49534 22.9475 6.48778 22.9654C6.48022 22.9834 6.46914 22.9997 6.4552 23.0133H6.28753Z" fill="#BEAC8C"/>
<path d="M8.38341 19.7921C8.36429 19.8032 8.34261 19.809 8.32053 19.809C8.29846 19.809 8.27677 19.8032 8.25766 19.7921C8.24372 19.7785 8.23264 19.7622 8.22508 19.7443C8.21752 19.7263 8.21362 19.707 8.21362 19.6875C8.21362 19.668 8.21752 19.6488 8.22508 19.6308C8.23264 19.6128 8.24372 19.5966 8.25766 19.5829L9.096 19.1436C9.10966 19.1296 9.12596 19.1186 9.14396 19.111C9.16195 19.1035 9.18127 19.0996 9.20079 19.0996C9.22031 19.0996 9.23963 19.1035 9.25763 19.111C9.27562 19.1186 9.29192 19.1296 9.30558 19.1436C9.31953 19.1572 9.3306 19.1735 9.33816 19.1914C9.34572 19.2094 9.34962 19.2287 9.34962 19.2482C9.34962 19.2677 9.34572 19.2869 9.33816 19.3049C9.3306 19.3229 9.31953 19.3391 9.30558 19.3528L8.38341 19.7712V19.7921Z" fill="#BEAC8C"/>
<path d="M9.17982 20.2522L8.32052 19.8128C8.30658 19.7992 8.29551 19.7829 8.28795 19.765C8.28038 19.747 8.27649 19.7277 8.27649 19.7082C8.27649 19.6887 8.28038 19.6694 8.28795 19.6515C8.29551 19.6335 8.30658 19.6172 8.32052 19.6036C8.34695 19.5815 8.38034 19.5693 8.41484 19.5693C8.44933 19.5693 8.48273 19.5815 8.50915 19.6036L9.36845 20.043C9.38239 20.0566 9.39347 20.0729 9.40103 20.0908C9.40859 20.1088 9.41249 20.1281 9.41249 20.1476C9.41249 20.1671 9.40859 20.1863 9.40103 20.2043C9.39347 20.2223 9.38239 20.2385 9.36845 20.2522C9.35665 20.2655 9.34214 20.2762 9.32588 20.2836C9.30961 20.2909 9.29198 20.2947 9.27414 20.2947C9.2563 20.2947 9.23866 20.2909 9.2224 20.2836C9.20614 20.2762 9.19162 20.2655 9.17982 20.2522Z" fill="#BEAC8C"/>
<path d="M3.52101 19.7922L2.66171 19.3529C2.64777 19.3392 2.63669 19.323 2.62913 19.305C2.62157 19.287 2.61768 19.2677 2.61768 19.2483C2.61768 19.2288 2.62157 19.2095 2.62913 19.1915C2.63669 19.1736 2.64777 19.1573 2.66171 19.1436C2.68813 19.1215 2.72153 19.1094 2.75602 19.1094C2.79052 19.1094 2.82391 19.1215 2.85034 19.1436L3.70964 19.583C3.72358 19.5966 3.73465 19.6129 3.74222 19.6309C3.74978 19.6488 3.75367 19.6681 3.75367 19.6876C3.75367 19.7071 3.74978 19.7264 3.74222 19.7443C3.73465 19.7623 3.72358 19.7786 3.70964 19.7922C3.69784 19.8056 3.68332 19.8163 3.66706 19.8236C3.6508 19.8309 3.63317 19.8347 3.61532 19.8347C3.59748 19.8347 3.57985 19.8309 3.56358 19.8236C3.54732 19.8163 3.53281 19.8056 3.52101 19.7922Z" fill="#BEAC8C"/>
<path d="M2.66177 20.2518C2.63892 20.2629 2.61384 20.2686 2.58842 20.2686C2.563 20.2686 2.53792 20.2629 2.51506 20.2518C2.49434 20.2208 2.48328 20.1844 2.48328 20.1472C2.48328 20.1099 2.49434 20.0735 2.51506 20.0426L3.37436 19.6032C3.40218 19.5843 3.43504 19.5742 3.46868 19.5742C3.50232 19.5742 3.53518 19.5843 3.56299 19.6032C3.57693 19.6168 3.58801 19.6331 3.59557 19.6511C3.60313 19.669 3.60703 19.6883 3.60703 19.7078C3.60703 19.7273 3.60313 19.7466 3.59557 19.7646C3.58801 19.7825 3.57693 19.7988 3.56299 19.8124L2.70369 20.2518H2.66177Z" fill="#BEAC8C"/>
<path d="M1.86535 23.934H1.7396C1.7179 23.921 1.69994 23.9026 1.68748 23.8806C1.67501 23.8586 1.66846 23.8337 1.66846 23.8085C1.66846 23.7832 1.67501 23.7583 1.68748 23.7364C1.69994 23.7144 1.7179 23.696 1.7396 23.6829L9.85056 15.5235C9.88514 15.4927 9.92991 15.4756 9.97631 15.4756C10.0227 15.4756 10.0675 15.4927 10.1021 15.5235C10.1238 15.5366 10.1417 15.555 10.1542 15.577C10.1667 15.5989 10.1732 15.6238 10.1732 15.6491C10.1732 15.6743 10.1667 15.6992 10.1542 15.7212C10.1417 15.7432 10.1238 15.7616 10.1021 15.7746L2.0959 23.8922L1.86535 23.934Z" fill="#BEAC8C"/>
<path d="M9.97631 23.934H9.85056L1.7396 15.7746C1.7179 15.7616 1.69994 15.7432 1.68748 15.7212C1.67501 15.6992 1.66846 15.6743 1.66846 15.6491C1.66846 15.6238 1.67501 15.5989 1.68748 15.577C1.69994 15.555 1.7179 15.5366 1.7396 15.5235C1.77418 15.4927 1.81895 15.4756 1.86535 15.4756C1.91175 15.4756 1.95652 15.4927 1.9911 15.5235L10.1021 23.6411C10.1238 23.6541 10.1417 23.6725 10.1542 23.6945C10.1667 23.7165 10.1732 23.7413 10.1732 23.7666C10.1732 23.7919 10.1667 23.8167 10.1542 23.8387C10.1417 23.8607 10.1238 23.8791 10.1021 23.8922L9.97631 23.934Z" fill="#BEAC8C"/>
<path d="M8.80263 16.9884C8.77713 16.9555 8.76331 16.915 8.76331 16.8734C8.76331 16.8317 8.77713 16.7912 8.80263 16.7583L9.28467 15.231C9.29923 15.1843 9.33143 15.1451 9.37447 15.1216C9.4175 15.0982 9.46798 15.0924 9.51522 15.1055C9.54071 15.1384 9.55454 15.1789 9.55454 15.2206C9.55454 15.2622 9.54071 15.3027 9.51522 15.3356L9.03317 16.8629C9.02885 16.8877 9.01898 16.9113 9.00427 16.9318C8.98957 16.9522 8.97042 16.9692 8.94826 16.9812C8.92609 16.9933 8.90148 17.0002 8.87627 17.0015C8.85105 17.0027 8.82588 16.9982 8.80263 16.9884Z" fill="#BEAC8C"/>
<path d="M8.82352 17.0095C8.78544 17.0107 8.74809 16.9989 8.71762 16.9761C8.68714 16.9533 8.66536 16.9208 8.65585 16.884C8.64191 16.8703 8.63083 16.854 8.62327 16.8361C8.61571 16.8181 8.61182 16.7988 8.61182 16.7794C8.61182 16.7599 8.61571 16.7406 8.62327 16.7226C8.63083 16.7047 8.64191 16.6884 8.65585 16.6747L10.1858 16.1935C10.2188 16.1681 10.2594 16.1543 10.3011 16.1543C10.3428 16.1543 10.3833 16.1681 10.4164 16.1935C10.4466 16.2076 10.4731 16.2286 10.4936 16.2549C10.5141 16.2812 10.528 16.312 10.5341 16.3448C10.5403 16.3775 10.5385 16.4112 10.529 16.4432C10.5194 16.4751 10.5024 16.5043 10.4792 16.5283L8.92831 17.0095H8.82352Z" fill="#BEAC8C"/>
<path d="M1.57193 23.1602C1.53087 23.1605 1.49111 23.1458 1.46021 23.1188C1.4293 23.0918 1.4094 23.0544 1.40426 23.0137C1.39032 23.0001 1.37925 22.9838 1.37169 22.9659C1.36412 22.9479 1.36023 22.9286 1.36023 22.9091C1.36023 22.8897 1.36412 22.8704 1.37169 22.8524C1.37925 22.8344 1.39032 22.8182 1.40426 22.8045L2.9552 22.3233C2.99683 22.3146 3.04019 22.3202 3.07823 22.3392C3.11628 22.3582 3.14678 22.3895 3.16478 22.4279C3.17322 22.4749 3.16536 22.5233 3.14249 22.5651C3.11962 22.607 3.08312 22.6398 3.03903 22.6581L1.50906 23.1393L1.57193 23.1602Z" fill="#BEAC8C"/>
<path d="M2.64072 24.2267C2.59777 24.2082 2.56325 24.1743 2.54388 24.1318C2.52452 24.0893 2.52168 24.0411 2.53593 23.9966L3.01798 22.4693C3.03253 22.4226 3.06474 22.3833 3.10777 22.3599C3.1508 22.3365 3.20128 22.3307 3.24852 22.3438C3.28874 22.3655 3.32075 22.3997 3.33967 22.4412C3.35859 22.4828 3.36338 22.5294 3.35331 22.5739L2.87127 24.1012C2.86695 24.126 2.85707 24.1495 2.84237 24.17C2.82767 24.1905 2.80852 24.2074 2.78635 24.2195C2.76419 24.2316 2.73958 24.2385 2.71436 24.2397C2.68915 24.241 2.66397 24.2365 2.64072 24.2267Z" fill="#BEAC8C"/>
<path d="M10.3536 23.1599L8.80263 22.6787C8.77713 22.6457 8.76331 22.6052 8.76331 22.5636C8.76331 22.522 8.77713 22.4815 8.80263 22.4485C8.81696 22.4072 8.84691 22.3732 8.88607 22.3536C8.92524 22.3341 8.97051 22.3306 9.01221 22.3439L10.5422 22.8251C10.5532 22.8591 10.553 22.8957 10.5417 22.9296C10.5304 22.9634 10.5085 22.9928 10.4793 23.0134C10.476 23.0478 10.4622 23.0803 10.4397 23.1065C10.4172 23.1328 10.3871 23.1514 10.3536 23.1599Z" fill="#BEAC8C"/>
<path d="M9.28462 24.2271C9.24654 24.2283 9.20919 24.2165 9.17871 24.1937C9.14824 24.1708 9.12645 24.1384 9.11695 24.1015L8.6349 22.5743C8.60941 22.5413 8.59558 22.5008 8.59558 22.4592C8.59558 22.4175 8.60941 22.3771 8.6349 22.3441C8.68191 22.3357 8.73038 22.3435 8.77231 22.3664C8.81424 22.3892 8.84709 22.4256 8.86544 22.4696L9.34749 23.9969C9.37298 24.0299 9.38681 24.0703 9.38681 24.112C9.38681 24.1536 9.37298 24.1941 9.34749 24.2271H9.28462Z" fill="#BEAC8C"/>
<path d="M3.12278 16.9888C3.0847 16.99 3.04735 16.9782 3.01687 16.9554C2.9864 16.9326 2.96461 16.9001 2.95511 16.8632L2.47306 15.336C2.45882 15.2915 2.46165 15.2433 2.48102 15.2007C2.50039 15.1582 2.5349 15.1244 2.57786 15.1058C2.62486 15.0974 2.67334 15.1053 2.71526 15.1281C2.75719 15.1509 2.79005 15.1874 2.8084 15.2314L3.29045 16.7377C3.30469 16.7822 3.30186 16.8304 3.28249 16.8729C3.26312 16.9155 3.22861 16.9493 3.18565 16.9679L3.12278 16.9888Z" fill="#BEAC8C"/>
<path d="M3.1019 17.0088L1.50905 16.5276C1.48355 16.4946 1.46973 16.4542 1.46973 16.4125C1.46973 16.3709 1.48355 16.3304 1.50905 16.2975C1.53878 16.2737 1.57574 16.2607 1.61384 16.2607C1.65193 16.2607 1.68889 16.2737 1.71863 16.2975L3.16477 16.7368C3.20615 16.7511 3.24027 16.781 3.25986 16.8201C3.27944 16.8592 3.28292 16.9044 3.26956 16.946C3.25042 16.9712 3.2245 16.9905 3.19483 17.0016C3.16515 17.0127 3.13293 17.0152 3.1019 17.0088Z" fill="#BEAC8C"/>
<path d="M7.6708 18.118C7.65109 18.1132 7.63258 18.1045 7.61645 18.0922C7.60032 18.0799 7.5869 18.0645 7.57706 18.0468C7.56721 18.0291 7.56114 18.0096 7.55924 17.9894C7.55734 17.9692 7.55964 17.9489 7.566 17.9297L7.85942 17.0092C7.86013 16.9875 7.86645 16.9663 7.87777 16.9478C7.8891 16.9293 7.90504 16.914 7.92404 16.9035C7.94304 16.893 7.96445 16.8875 7.98618 16.8877C8.00792 16.8879 8.02923 16.8937 8.04805 16.9046C8.08659 16.9225 8.11791 16.953 8.13694 16.9909C8.15596 17.0289 8.16157 17.0722 8.15284 17.1138L7.85942 18.0134C7.84535 18.0502 7.81871 18.0809 7.78421 18.1C7.7497 18.1191 7.70954 18.1255 7.6708 18.118Z" fill="#BEAC8C"/>
<path d="M7.69175 18.1385C7.65284 18.1385 7.61553 18.1231 7.58801 18.0956C7.5605 18.0682 7.54504 18.0309 7.54504 17.9921C7.54504 17.9532 7.5605 17.916 7.58801 17.8885C7.61553 17.8611 7.65284 17.8456 7.69175 17.8456L8.61393 17.5527C8.61393 17.5527 8.7816 17.5527 8.82352 17.5527C8.84244 17.5805 8.85256 17.6133 8.85256 17.6469C8.85256 17.6805 8.84244 17.7133 8.82352 17.741L7.90134 18.0339L7.69175 18.1385Z" fill="#BEAC8C"/>
<path d="M3.3534 21.8216C3.31787 21.8219 3.2834 21.8094 3.25642 21.7863C3.22944 21.7632 3.21177 21.7312 3.20669 21.696C3.19916 21.6574 3.20554 21.6173 3.22471 21.5828C3.24388 21.5484 3.27461 21.5218 3.31149 21.5077L4.19174 21.2148C4.23065 21.2148 4.26797 21.2303 4.29548 21.2577C4.323 21.2852 4.33845 21.3225 4.33845 21.3613C4.33845 21.4001 4.323 21.4374 4.29548 21.4649C4.26797 21.4923 4.23065 21.5077 4.19174 21.5077L3.26957 21.8006L3.3534 21.8216Z" fill="#BEAC8C"/>
<path d="M4.00314 22.4488C3.9892 22.4351 3.97812 22.4189 3.97056 22.4009C3.963 22.3829 3.95911 22.3637 3.95911 22.3442C3.95911 22.3247 3.963 22.3054 3.97056 22.2874C3.97812 22.2695 3.9892 22.2532 4.00314 22.2396L4.19177 21.3399C4.21819 21.3178 4.25158 21.3057 4.28608 21.3057C4.32058 21.3057 4.35397 21.3178 4.38039 21.3399C4.39378 21.3517 4.40449 21.3662 4.41183 21.3824C4.41917 21.3987 4.42297 21.4163 4.42297 21.4341C4.42297 21.4519 4.41917 21.4695 4.41183 21.4857C4.40449 21.502 4.39378 21.5164 4.38039 21.5282L4.19177 22.3442C4.17769 22.381 4.15106 22.4117 4.11655 22.4308C4.08205 22.4499 4.04189 22.4563 4.00314 22.4488Z" fill="#BEAC8C"/>
<path d="M8.61394 21.8207L7.69176 21.5278C7.67284 21.5001 7.66272 21.4673 7.66272 21.4337C7.66272 21.4001 7.67284 21.3673 7.69176 21.3395C7.71957 21.3206 7.75243 21.3105 7.78607 21.3105C7.81971 21.3105 7.85257 21.3206 7.88039 21.3395L8.80256 21.6324C8.82149 21.6602 8.8316 21.693 8.8316 21.7266C8.8316 21.7602 8.82149 21.793 8.80256 21.8207C8.77614 21.8429 8.74275 21.855 8.70825 21.855C8.67375 21.855 8.64036 21.8429 8.61394 21.8207Z" fill="#BEAC8C"/>
<path d="M7.96426 22.4483C7.93237 22.4467 7.90161 22.4359 7.87562 22.4174C7.84963 22.3989 7.82949 22.3733 7.81755 22.3437L7.52413 21.4232C7.51777 21.404 7.51547 21.3836 7.51737 21.3635C7.51927 21.3433 7.52534 21.3238 7.53519 21.3061C7.54503 21.2884 7.55845 21.2729 7.57458 21.2607C7.59071 21.2484 7.60922 21.2396 7.62893 21.2349C7.64073 21.2215 7.65524 21.2108 7.6715 21.2035C7.68776 21.1962 7.7054 21.1924 7.72324 21.1924C7.74108 21.1924 7.75872 21.1962 7.77498 21.2035C7.79124 21.2108 7.80575 21.2215 7.81755 21.2349L8.11097 22.1345C8.1197 22.1761 8.11409 22.2193 8.09507 22.2573C8.07604 22.2953 8.04472 22.3258 8.00618 22.3437L7.96426 22.4483Z" fill="#BEAC8C"/>
<path d="M4.1917 18.1177C4.18417 18.1013 4.18027 18.0835 4.18027 18.0654C4.18027 18.0474 4.18417 18.0295 4.1917 18.0131L3.89828 17.1135C3.88434 17.0999 3.87326 17.0836 3.8657 17.0656C3.85814 17.0477 3.85425 17.0284 3.85425 17.0089C3.85425 16.9894 3.85814 16.9701 3.8657 16.9522C3.87326 16.9342 3.88434 16.9179 3.89828 16.9043C3.89828 16.9043 4.06595 16.9043 4.10787 17.0089L4.38033 17.9295C4.39371 17.9412 4.40443 17.9557 4.41177 17.972C4.41911 17.9882 4.4229 18.0058 4.4229 18.0236C4.4229 18.0414 4.41911 18.059 4.41177 18.0752C4.40443 18.0915 4.39371 18.106 4.38033 18.1177H4.1917Z" fill="#BEAC8C"/>
<path d="M4.19167 18.1391L3.26949 17.8462C3.23262 17.8321 3.20189 17.8055 3.18272 17.7711C3.16355 17.7366 3.15717 17.6965 3.1647 17.6579C3.1647 17.6579 3.29045 17.5114 3.35333 17.6579L4.2755 17.9508C4.29768 17.9771 4.30984 18.0105 4.30984 18.0449C4.30984 18.0793 4.29768 18.1127 4.2755 18.1391C4.24801 18.1461 4.21916 18.1461 4.19167 18.1391Z" fill="#BEAC8C"/>
<path d="M111.898 68.0157C111.859 68.0157 111.821 68.0002 111.794 67.9728C111.766 67.9453 111.751 67.908 111.751 67.8692V58.58C111.751 58.5412 111.766 58.504 111.794 58.4765C111.821 58.449 111.859 58.4336 111.898 58.4336C111.937 58.4336 111.974 58.449 112.001 58.4765C112.029 58.504 112.044 58.5412 112.044 58.58V67.8692C112.044 67.908 112.029 67.9453 112.001 67.9728C111.974 68.0002 111.937 68.0157 111.898 68.0157Z" fill="#D7CAAA"/>
<path d="M116.55 63.371H107.245C107.206 63.371 107.169 63.3556 107.141 63.3281C107.114 63.3007 107.098 63.2634 107.098 63.2246C107.098 63.1857 107.114 63.1485 107.141 63.121C107.169 63.0936 107.206 63.0781 107.245 63.0781H116.55C116.589 63.0781 116.627 63.0936 116.654 63.121C116.682 63.1485 116.697 63.1857 116.697 63.2246C116.697 63.2634 116.682 63.3007 116.654 63.3281C116.627 63.3556 116.589 63.371 116.55 63.371Z" fill="#D7CAAA"/>
<path d="M111.877 60.0653C111.836 60.0816 111.791 60.0816 111.751 60.0653L111.08 58.831C111.066 58.8173 111.055 58.8011 111.048 58.7831C111.04 58.7651 111.036 58.7459 111.036 58.7264C111.036 58.7069 111.04 58.6876 111.048 58.6696C111.055 58.6517 111.066 58.6354 111.08 58.6218C111.108 58.6029 111.141 58.5928 111.175 58.5928C111.208 58.5928 111.241 58.6029 111.269 58.6218L111.856 59.7934C111.869 59.8051 111.88 59.8196 111.887 59.8359C111.895 59.8521 111.898 59.8697 111.898 59.8875C111.898 59.9053 111.895 59.9229 111.887 59.9392C111.88 59.9554 111.869 59.9699 111.856 59.9817L111.877 60.0653Z" fill="#D7CAAA"/>
<path d="M111.898 60.0656C111.879 60.0379 111.869 60.0051 111.869 59.9715C111.869 59.9379 111.879 59.9051 111.898 59.8774L112.505 58.7057C112.533 58.6869 112.566 58.6768 112.6 58.6768C112.633 58.6768 112.666 58.6869 112.694 58.7057C112.708 58.7194 112.719 58.7357 112.727 58.7536C112.734 58.7716 112.738 58.7909 112.738 58.8104C112.738 58.8298 112.734 58.8491 112.727 58.8671C112.719 58.885 112.708 58.9013 112.694 58.915L112.086 60.0656C112.06 60.0878 112.027 60.0999 111.992 60.0999C111.958 60.0999 111.924 60.0878 111.898 60.0656Z" fill="#D7CAAA"/>
<path d="M111.29 67.7444C111.277 67.7326 111.266 67.7181 111.258 67.7019C111.251 67.6856 111.247 67.668 111.247 67.6502C111.247 67.6324 111.251 67.6148 111.258 67.5986C111.266 67.5823 111.277 67.5678 111.29 67.5561L111.877 66.3845C111.905 66.3656 111.937 66.3555 111.971 66.3555C112.005 66.3555 112.038 66.3656 112.065 66.3845C112.079 66.3981 112.09 66.4144 112.098 66.4323C112.106 66.4503 112.109 66.4696 112.109 66.4891C112.109 66.5085 112.106 66.5278 112.098 66.5458C112.09 66.5638 112.079 66.58 112.065 66.5937L111.479 67.7444C111.479 67.7444 111.332 67.7444 111.29 67.7444Z" fill="#D7CAAA"/>
<path d="M112.505 67.7437C112.465 67.76 112.42 67.76 112.38 67.7437L111.772 66.593C111.751 66.562 111.74 66.5256 111.74 66.4884C111.74 66.4512 111.751 66.4148 111.772 66.3838C111.772 66.3838 111.94 66.3838 111.961 66.3838L112.568 67.5554C112.582 67.5672 112.592 67.5817 112.6 67.5979C112.607 67.6141 112.611 67.6317 112.611 67.6495C112.611 67.6674 112.607 67.685 112.6 67.7012C112.592 67.7174 112.582 67.7319 112.568 67.7437H112.505Z" fill="#D7CAAA"/>
<path d="M115.272 63.3084C115.254 63.322 115.232 63.3293 115.209 63.3293C115.186 63.3293 115.164 63.322 115.146 63.3084C115.133 63.2966 115.122 63.2821 115.115 63.2659C115.107 63.2497 115.104 63.232 115.104 63.2142C115.104 63.1964 115.107 63.1788 115.115 63.1626C115.122 63.1464 115.133 63.1319 115.146 63.1201L116.299 62.5134C116.327 62.4945 116.36 62.4844 116.393 62.4844C116.427 62.4844 116.46 62.4945 116.488 62.5134C116.488 62.5134 116.488 62.6807 116.488 62.7017L115.335 63.3084H115.272Z" fill="#D7CAAA"/>
<path d="M116.32 63.9366L115.167 63.3299C115.154 63.3181 115.143 63.3036 115.136 63.2874C115.128 63.2712 115.125 63.2536 115.125 63.2357C115.125 63.2179 115.128 63.2003 115.136 63.1841C115.143 63.1679 115.154 63.1534 115.167 63.1416C115.167 63.1416 115.293 63.1416 115.356 63.1416L116.509 63.7483C116.522 63.7601 116.533 63.7746 116.54 63.7908C116.547 63.8071 116.551 63.8247 116.551 63.8425C116.551 63.8603 116.547 63.8779 116.54 63.8941C116.533 63.9104 116.522 63.9248 116.509 63.9366C116.482 63.9588 116.449 63.9709 116.414 63.9709C116.38 63.9709 116.346 63.9588 116.32 63.9366Z" fill="#D7CAAA"/>
<path d="M108.628 63.3089L107.392 62.7649C107.392 62.7649 107.392 62.6603 107.392 62.5767C107.423 62.556 107.459 62.5449 107.496 62.5449C107.534 62.5449 107.57 62.556 107.601 62.5767L108.754 63.1834C108.776 63.2098 108.788 63.2431 108.788 63.2775C108.788 63.312 108.776 63.3453 108.754 63.3717C108.729 63.3749 108.704 63.3707 108.681 63.3595C108.659 63.3483 108.64 63.3307 108.628 63.3089Z" fill="#D7CAAA"/>
<path d="M107.475 63.9363C107.428 63.954 107.376 63.954 107.329 63.9363C107.31 63.9085 107.3 63.8757 107.3 63.8422C107.3 63.8086 107.31 63.7758 107.329 63.748L108.502 63.1413C108.53 63.1224 108.563 63.1123 108.597 63.1123C108.63 63.1123 108.663 63.1224 108.691 63.1413C108.713 63.1677 108.725 63.201 108.725 63.2354C108.725 63.2699 108.713 63.3032 108.691 63.3296L107.538 63.9363H107.475Z" fill="#D7CAAA"/>
<path d="M111.898 61.3626C111.878 61.3719 111.857 61.3767 111.835 61.3767C111.813 61.3767 111.792 61.3719 111.772 61.3626L111.416 60.6722C111.398 60.6476 111.389 60.6184 111.389 60.5885C111.389 60.5585 111.398 60.5293 111.416 60.5048C111.44 60.4877 111.469 60.4785 111.499 60.4785C111.529 60.4785 111.559 60.4877 111.583 60.5048L111.94 61.1952C111.957 61.2197 111.966 61.249 111.966 61.2789C111.966 61.3088 111.957 61.338 111.94 61.3626H111.898Z" fill="#D7CAAA"/>
<path d="M111.898 61.3625C111.898 61.3625 111.898 61.2579 111.898 61.1952L112.254 60.5048C112.261 60.4896 112.271 60.476 112.283 60.4647C112.295 60.4534 112.309 60.4445 112.325 60.4387C112.34 60.4329 112.357 60.4302 112.374 60.4307C112.39 60.4313 112.407 60.4351 112.422 60.442C112.437 60.4489 112.45 60.4586 112.462 60.4708C112.473 60.4829 112.482 60.4971 112.488 60.5127C112.494 60.5282 112.496 60.5448 112.496 60.5614C112.495 60.5779 112.491 60.5943 112.485 60.6094L112.128 61.2998C112.128 61.2998 111.94 61.3625 111.898 61.3625Z" fill="#D7CAAA"/>
<path d="M111.52 65.9446C111.503 65.92 111.494 65.8908 111.494 65.8609C111.494 65.831 111.503 65.8018 111.52 65.7772L111.877 65.0868C111.901 65.0697 111.931 65.0605 111.961 65.0605C111.991 65.0605 112.02 65.0697 112.044 65.0868C112.063 65.1146 112.073 65.1474 112.073 65.181C112.073 65.2145 112.063 65.2473 112.044 65.2751L111.688 65.9655L111.52 65.9446Z" fill="#D7CAAA"/>
<path d="M112.254 65.9443C112.22 65.9572 112.183 65.9572 112.149 65.9443L111.793 65.2539C111.793 65.2539 111.793 65.1284 111.793 65.0865C111.812 65.0674 111.839 65.0566 111.866 65.0566C111.894 65.0566 111.92 65.0674 111.94 65.0865L112.317 65.777C112.334 65.8015 112.343 65.8307 112.343 65.8606C112.343 65.8906 112.334 65.9198 112.317 65.9443H112.254Z" fill="#D7CAAA"/>
<path d="M113.847 63.2877C113.834 63.278 113.823 63.2653 113.816 63.2508C113.809 63.2363 113.805 63.2202 113.805 63.204C113.805 63.1878 113.809 63.1718 113.816 63.1572C113.823 63.1427 113.834 63.1301 113.847 63.1203L114.538 62.7647C114.552 62.7513 114.568 62.7412 114.586 62.7351C114.605 62.729 114.624 62.7271 114.643 62.7295C114.661 62.7319 114.68 62.7385 114.696 62.7489C114.711 62.7593 114.725 62.7732 114.735 62.7895C114.744 62.8058 114.75 62.8241 114.752 62.843C114.754 62.8619 114.751 62.881 114.744 62.8987C114.738 62.9165 114.727 62.9325 114.713 62.9455C114.699 62.9585 114.682 62.9682 114.664 62.9739L113.973 63.3505L113.847 63.2877Z" fill="#D7CAAA"/>
<path d="M114.538 63.6645L113.847 63.3088C113.829 63.3032 113.812 63.2935 113.798 63.2805C113.784 63.2674 113.774 63.2514 113.767 63.2337C113.76 63.2159 113.757 63.1969 113.759 63.1779C113.761 63.159 113.767 63.1407 113.776 63.1244C113.786 63.1081 113.8 63.0943 113.816 63.0839C113.832 63.0735 113.85 63.0669 113.868 63.0645C113.887 63.0621 113.907 63.064 113.925 63.0701C113.943 63.0762 113.959 63.0863 113.973 63.0996L114.664 63.4553C114.677 63.465 114.688 63.4777 114.695 63.4922C114.702 63.5067 114.706 63.5227 114.706 63.539C114.706 63.5552 114.702 63.5712 114.695 63.5858C114.688 63.6003 114.677 63.6129 114.664 63.6227C114.651 63.643 114.632 63.6583 114.609 63.666C114.586 63.6736 114.561 63.6731 114.538 63.6645Z" fill="#D7CAAA"/>
<path d="M109.949 63.2881L109.257 62.9115C109.244 62.9018 109.233 62.8891 109.226 62.8746C109.219 62.8601 109.215 62.8441 109.215 62.8278C109.215 62.8116 109.219 62.7956 109.226 62.781C109.233 62.7665 109.244 62.7539 109.257 62.7441H109.404L110.116 63.0998C110.129 63.1096 110.14 63.1222 110.147 63.1367C110.154 63.1512 110.158 63.1673 110.158 63.1835C110.158 63.1997 110.154 63.2158 110.147 63.2303C110.14 63.2448 110.129 63.2574 110.116 63.2672C110.108 63.2815 110.097 63.2938 110.083 63.303C110.07 63.3121 110.054 63.318 110.038 63.32C110.021 63.3221 110.005 63.3202 109.989 63.3147C109.974 63.3091 109.96 63.3 109.949 63.2881Z" fill="#D7CAAA"/>
<path d="M109.257 63.6645C109.216 63.6788 109.172 63.6788 109.131 63.6645C109.111 63.6415 109.099 63.6117 109.099 63.5808C109.099 63.5499 109.111 63.5201 109.131 63.4971L109.823 63.1414C109.85 63.1331 109.879 63.1339 109.905 63.144C109.931 63.154 109.954 63.1726 109.968 63.1967C109.983 63.2208 109.989 63.2491 109.985 63.277C109.981 63.305 109.969 63.3309 109.949 63.3507L109.236 63.7063L109.257 63.6645Z" fill="#D7CAAA"/>
<path d="M108.607 66.6559C108.593 66.6423 108.582 66.626 108.575 66.608C108.567 66.5901 108.563 66.5708 108.563 66.5513C108.563 66.5318 108.567 66.5125 108.575 66.4946C108.582 66.4766 108.593 66.4603 108.607 66.4467L115.188 59.8773C115.216 59.8496 115.254 59.834 115.293 59.834C115.332 59.834 115.37 59.8496 115.398 59.8773C115.426 59.9051 115.441 59.9427 115.441 59.9819C115.441 60.0212 115.426 60.0588 115.398 60.0865L108.817 66.6559H108.607Z" fill="#D7CAAA"/>
<path d="M115.272 66.6557H115.167L108.502 60.0445C108.475 60.0168 108.459 59.9792 108.459 59.9399C108.459 59.9007 108.475 59.8631 108.502 59.8353C108.53 59.8076 108.568 59.792 108.607 59.792C108.646 59.792 108.684 59.8076 108.712 59.8353L115.272 66.4047C115.286 66.4183 115.297 66.4346 115.305 66.4526C115.312 66.4705 115.316 66.4898 115.316 66.5093C115.316 66.5288 115.312 66.5481 115.305 66.566C115.297 66.584 115.286 66.6003 115.272 66.6139V66.6557Z" fill="#D7CAAA"/>
<path d="M114.224 61.028C114.207 61.0035 114.198 60.9743 114.198 60.9443C114.198 60.9144 114.207 60.8852 114.224 60.8607L114.622 59.6054C114.647 59.5883 114.676 59.5791 114.706 59.5791C114.736 59.5791 114.765 59.5883 114.79 59.6054C114.807 59.6299 114.816 59.6591 114.816 59.6891C114.816 59.719 114.807 59.7482 114.79 59.7727L114.392 61.028C114.366 61.0427 114.337 61.0505 114.308 61.0505C114.278 61.0505 114.25 61.0427 114.224 61.028Z" fill="#D7CAAA"/>
<path d="M114.245 61.0283C114.227 61.0419 114.205 61.0492 114.182 61.0492C114.159 61.0492 114.137 61.0419 114.119 61.0283C114.106 61.0165 114.095 61.002 114.088 60.9858C114.08 60.9695 114.077 60.9519 114.077 60.9341C114.077 60.9163 114.08 60.8987 114.088 60.8825C114.095 60.8662 114.106 60.8518 114.119 60.84L115.356 60.4425C115.382 60.4203 115.416 60.4082 115.45 60.4082C115.485 60.4082 115.518 60.4203 115.544 60.4425C115.562 60.467 115.571 60.4962 115.571 60.5262C115.571 60.5561 115.562 60.5853 115.544 60.6098L114.287 61.0074L114.245 61.0283Z" fill="#D7CAAA"/>
<path d="M108.356 66.0286C108.336 66.038 108.315 66.0428 108.293 66.0428C108.271 66.0428 108.25 66.038 108.23 66.0286C108.211 66.0009 108.201 65.9681 108.201 65.9345C108.201 65.9009 108.211 65.8681 108.23 65.8404L109.487 65.4638C109.512 65.4467 109.541 65.4375 109.571 65.4375C109.601 65.4375 109.631 65.4467 109.655 65.4638C109.674 65.4915 109.684 65.5243 109.684 65.5579C109.684 65.5915 109.674 65.6243 109.655 65.6521L108.398 66.0286H108.356Z" fill="#D7CAAA"/>
<path d="M109.236 66.9491C109.216 66.9444 109.198 66.9356 109.182 66.9233C109.166 66.9111 109.152 66.8956 109.142 66.8779C109.132 66.8602 109.126 66.8407 109.124 66.8205C109.123 66.8004 109.125 66.7801 109.131 66.7609L109.529 65.5265C109.529 65.5265 109.529 65.4219 109.718 65.4219C109.737 65.4496 109.747 65.4824 109.747 65.516C109.747 65.5496 109.737 65.5824 109.718 65.6102L109.32 66.8655C109.312 66.8845 109.301 66.9017 109.287 66.9161C109.272 66.9305 109.255 66.9418 109.236 66.9491Z" fill="#D7CAAA"/>
<path d="M115.482 66.0286L114.224 65.6521C114.211 65.6403 114.2 65.6258 114.193 65.6096C114.185 65.5933 114.182 65.5757 114.182 65.5579C114.182 65.5401 114.185 65.5225 114.193 65.5063C114.2 65.49 114.211 65.4755 114.224 65.4638C114.249 65.4467 114.278 65.4375 114.308 65.4375C114.338 65.4375 114.367 65.4467 114.392 65.4638L115.628 65.8404C115.665 65.8544 115.696 65.881 115.715 65.9154C115.734 65.9499 115.741 65.99 115.733 66.0286C115.717 66.0465 115.698 66.0607 115.676 66.0705C115.655 66.0803 115.631 66.0853 115.607 66.0853C115.584 66.0853 115.56 66.0803 115.538 66.0705C115.517 66.0607 115.497 66.0465 115.482 66.0286Z" fill="#D7CAAA"/>
<path d="M114.622 66.9486C114.603 66.9579 114.581 66.9627 114.559 66.9627C114.538 66.9627 114.516 66.9579 114.497 66.9486L114.098 65.6933C114.079 65.6655 114.069 65.6327 114.069 65.5991C114.069 65.5656 114.079 65.5328 114.098 65.505C114.136 65.5037 114.174 65.5128 114.207 65.5312C114.24 65.5496 114.268 65.5767 114.287 65.6096L114.685 66.844C114.707 66.8704 114.72 66.9037 114.72 66.9381C114.72 66.9726 114.707 67.0059 114.685 67.0323L114.622 66.9486Z" fill="#D7CAAA"/>
<path d="M109.634 61.0281C109.602 61.0265 109.571 61.0157 109.545 60.9972C109.519 60.9787 109.499 60.9531 109.487 60.9235L109.089 59.6682C109.083 59.6323 109.09 59.5953 109.109 59.5643C109.128 59.5333 109.159 59.5107 109.194 59.5009C109.219 59.4838 109.248 59.4746 109.278 59.4746C109.308 59.4746 109.337 59.4838 109.362 59.5009L109.76 60.7562C109.777 60.7807 109.786 60.8099 109.786 60.8399C109.786 60.8698 109.777 60.899 109.76 60.9235L109.634 61.0281Z" fill="#D7CAAA"/>
<path d="M109.613 61.0279L108.356 60.6304C108.339 60.6058 108.329 60.5766 108.329 60.5467C108.329 60.5167 108.339 60.4875 108.356 60.463C108.382 60.4408 108.415 60.4287 108.45 60.4287C108.484 60.4287 108.518 60.4408 108.544 60.463L109.781 60.8605C109.8 60.8883 109.81 60.9211 109.81 60.9546C109.81 60.9882 109.8 61.021 109.781 61.0488C109.77 61.0607 109.756 61.0698 109.74 61.0754C109.725 61.0809 109.708 61.0828 109.692 61.0807C109.675 61.0787 109.66 61.0728 109.646 61.0637C109.632 61.0545 109.621 61.0422 109.613 61.0279Z" fill="#D7CAAA"/>
<path d="M113.323 61.9278C113.307 61.9065 113.299 61.8808 113.299 61.8546C113.299 61.8283 113.307 61.8027 113.323 61.7813L113.553 61.0282C113.563 61.0152 113.576 61.0046 113.59 60.9974C113.605 60.9901 113.621 60.9863 113.637 60.9863C113.653 60.9863 113.669 60.9901 113.684 60.9974C113.699 61.0046 113.711 61.0152 113.721 61.0282C113.736 61.0495 113.745 61.0751 113.745 61.1014C113.745 61.1277 113.736 61.1533 113.721 61.1746L113.47 61.9069C113.47 61.9069 113.365 61.9278 113.323 61.9278Z" fill="#D7CAAA"/>
<path d="M113.323 61.9483V61.8018L114.077 61.5508H114.224C114.245 61.5738 114.256 61.6036 114.256 61.6345C114.256 61.6653 114.245 61.6951 114.224 61.7182L113.47 61.9483H113.323Z" fill="#D7CAAA"/>
<path d="M109.823 64.8569C109.805 64.8705 109.783 64.8778 109.76 64.8778C109.737 64.8778 109.715 64.8705 109.697 64.8569C109.682 64.8356 109.673 64.81 109.673 64.7837C109.673 64.7574 109.682 64.7318 109.697 64.7105L110.431 64.4803C110.44 64.4673 110.453 64.4568 110.468 64.4495C110.482 64.4423 110.498 64.4385 110.514 64.4385C110.531 64.4385 110.547 64.4423 110.561 64.4495C110.576 64.4568 110.589 64.4673 110.598 64.4803C110.615 64.5049 110.625 64.5341 110.625 64.564C110.625 64.5939 110.615 64.6231 110.598 64.6477L109.865 64.8778L109.823 64.8569Z" fill="#D7CAAA"/>
<path d="M110.326 65.4427C110.305 65.4197 110.294 65.3899 110.294 65.359C110.294 65.3282 110.305 65.2984 110.326 65.2754L110.556 64.5431C110.556 64.5431 110.556 64.4176 110.703 64.5431C110.722 64.5626 110.733 64.5889 110.733 64.6163C110.733 64.6437 110.722 64.67 110.703 64.6895L110.472 65.4427C110.453 65.4619 110.427 65.4726 110.399 65.4726C110.372 65.4726 110.345 65.4619 110.326 65.4427Z" fill="#D7CAAA"/>
<path d="M114.077 64.8565L113.323 64.6264C113.302 64.6033 113.291 64.5735 113.291 64.5427C113.291 64.5118 113.302 64.482 113.323 64.459H113.47L114.224 64.6891C114.243 64.7087 114.254 64.735 114.254 64.7623C114.254 64.7897 114.243 64.816 114.224 64.8356C114.224 64.8356 114.119 64.8565 114.077 64.8565Z" fill="#D7CAAA"/>
<path d="M113.553 65.4423C113.535 65.4559 113.513 65.4632 113.491 65.4632C113.468 65.4632 113.446 65.4559 113.428 65.4423L113.176 64.6054C113.161 64.5841 113.153 64.5585 113.153 64.5322C113.153 64.5059 113.161 64.4803 113.176 64.459H113.323L113.574 65.1912C113.595 65.2143 113.606 65.244 113.606 65.2749C113.606 65.3058 113.595 65.3356 113.574 65.3586L113.553 65.4423Z" fill="#D7CAAA"/>
<path d="M110.577 61.9275C110.559 61.9411 110.537 61.9485 110.514 61.9485C110.492 61.9485 110.47 61.9411 110.452 61.9275L110.221 61.1953C110.202 61.1757 110.191 61.1494 110.191 61.1221C110.191 61.0947 110.202 61.0684 110.221 61.0488H110.368L110.598 61.802C110.617 61.8216 110.628 61.8478 110.628 61.8752C110.628 61.9026 110.617 61.9289 110.598 61.9485L110.577 61.9275Z" fill="#D7CAAA"/>
<path d="M110.556 61.949L109.823 61.7188C109.789 61.7188 109.757 61.7056 109.734 61.6821C109.71 61.6585 109.697 61.6266 109.697 61.5933C109.697 61.56 109.71 61.5281 109.734 61.5045C109.757 61.481 109.789 61.4678 109.823 61.4678L110.556 61.7188C110.556 61.7188 110.556 61.7188 110.556 61.8653C110.562 61.8785 110.565 61.8927 110.565 61.9071C110.565 61.9215 110.562 61.9358 110.556 61.949Z" fill="#D7CAAA"/>
<path d="M127.386 61.1329C127.319 61.1329 127.255 61.1065 127.208 61.0594C127.161 61.0123 127.135 60.9484 127.135 60.8818V44.1446C127.135 44.078 127.161 44.0142 127.208 43.9671C127.255 43.92 127.319 43.8936 127.386 43.8936C127.453 43.8936 127.517 43.92 127.564 43.9671C127.611 44.0142 127.638 44.078 127.638 44.1446V60.8818C127.638 60.9484 127.611 61.0123 127.564 61.0594C127.517 61.1065 127.453 61.1329 127.386 61.1329Z" fill="#BEAC8C"/>
<path d="M135.749 52.7853H118.982C118.915 52.7853 118.851 52.7589 118.804 52.7118C118.757 52.6647 118.73 52.6008 118.73 52.5343C118.73 52.4677 118.757 52.4038 118.804 52.3567C118.851 52.3097 118.915 52.2832 118.982 52.2832H135.749C135.815 52.2832 135.879 52.3097 135.926 52.3567C135.974 52.4038 136 52.4677 136 52.5343C136 52.6008 135.974 52.6647 135.926 52.7118C135.879 52.7589 135.815 52.7853 135.749 52.7853Z" fill="#BEAC8C"/>
<path d="M127.365 46.8638C127.318 46.8599 127.272 46.8445 127.232 46.819C127.192 46.7935 127.158 46.7586 127.135 46.7174L126.066 44.6252C126.036 44.5668 126.03 44.4991 126.05 44.4365C126.069 44.374 126.113 44.3216 126.17 44.2905C126.232 44.2597 126.303 44.2534 126.369 44.2728C126.435 44.2922 126.492 44.3359 126.527 44.3951L127.596 46.4872C127.625 46.5456 127.631 46.6133 127.611 46.6759C127.592 46.7384 127.549 46.7908 127.491 46.822L127.365 46.8638Z" fill="#BEAC8C"/>
<path d="M127.407 46.8642H127.281C127.24 46.8181 127.217 46.7585 127.217 46.6968C127.217 46.635 127.24 46.5754 127.281 46.5294L128.371 44.4373C128.383 44.4029 128.402 44.3715 128.427 44.3451C128.452 44.3187 128.482 44.2981 128.516 44.2846C128.549 44.2711 128.586 44.2651 128.622 44.2669C128.658 44.2688 128.694 44.2784 128.726 44.2953C128.758 44.3121 128.786 44.3357 128.809 44.3644C128.831 44.3932 128.846 44.4264 128.854 44.4617C128.863 44.4971 128.863 44.5338 128.855 44.5693C128.848 44.6048 128.833 44.6383 128.811 44.6674L127.742 46.7596C127.705 46.8108 127.652 46.8486 127.592 46.8675C127.532 46.8864 127.467 46.8852 127.407 46.8642Z" fill="#BEAC8C"/>
<path d="M126.296 60.6728H126.17C126.113 60.6417 126.069 60.5893 126.05 60.5267C126.03 60.4642 126.036 60.3965 126.066 60.338L127.135 58.2459C127.17 58.1864 127.225 58.1412 127.29 58.1183C127.355 58.0953 127.426 58.096 127.491 58.1204C127.55 58.1554 127.594 58.2116 127.613 58.2776C127.633 58.3436 127.626 58.4145 127.596 58.476L126.527 60.5682C126.498 60.6006 126.462 60.6267 126.422 60.6447C126.383 60.6627 126.34 60.6723 126.296 60.6728Z" fill="#BEAC8C"/>
<path d="M128.497 60.6725C128.448 60.6729 128.401 60.6592 128.36 60.6333C128.319 60.6073 128.286 60.57 128.266 60.526L127.176 58.4339C127.146 58.3729 127.141 58.3022 127.162 58.2375C127.184 58.1727 127.231 58.1192 127.292 58.0887C127.353 58.0582 127.424 58.0531 127.488 58.0747C127.553 58.0963 127.607 58.1427 127.637 58.2038L128.706 60.2959C128.748 60.3419 128.77 60.4015 128.77 60.4633C128.77 60.525 128.748 60.5846 128.706 60.6307L128.497 60.6725Z" fill="#BEAC8C"/>
<path d="M133.233 52.6805C133.185 52.6785 133.139 52.6639 133.098 52.6382C133.058 52.6125 133.025 52.5765 133.003 52.534C132.989 52.5038 132.981 52.4712 132.98 52.4379C132.979 52.4047 132.984 52.3716 132.996 52.3404C133.007 52.3093 133.025 52.2807 133.048 52.2565C133.071 52.2323 133.098 52.2128 133.129 52.1993L135.224 51.1323C135.271 51.0911 135.33 51.0684 135.392 51.0684C135.454 51.0684 135.514 51.0911 135.56 51.1323C135.583 51.1538 135.601 51.1797 135.613 51.2085C135.626 51.2373 135.632 51.2683 135.632 51.2997C135.632 51.331 135.626 51.362 135.613 51.3908C135.601 51.4196 135.583 51.4455 135.56 51.467L133.464 52.555L133.233 52.6805Z" fill="#BEAC8C"/>
<path d="M135.329 53.8101H135.204L133.108 52.7431C133.048 52.7081 133.003 52.6532 132.98 52.5881C132.957 52.5231 132.958 52.452 132.982 52.3874C133.02 52.3316 133.076 52.2907 133.141 52.2717C133.206 52.2526 133.276 52.2565 133.338 52.2828L135.434 53.3707C135.457 53.3922 135.475 53.4182 135.488 53.4469C135.5 53.4757 135.506 53.5067 135.506 53.5381C135.506 53.5694 135.5 53.6004 135.488 53.6292C135.475 53.658 135.457 53.6839 135.434 53.7055C135.411 53.75 135.374 53.7865 135.329 53.8101Z" fill="#BEAC8C"/>
<path d="M121.56 52.6803H121.434L119.338 51.5923C119.308 51.5788 119.28 51.5593 119.257 51.5351C119.234 51.5109 119.217 51.4824 119.205 51.4512C119.193 51.4201 119.188 51.3869 119.189 51.3537C119.19 51.3204 119.198 51.2878 119.212 51.2576C119.262 51.2149 119.325 51.1914 119.39 51.1914C119.456 51.1914 119.519 51.2149 119.569 51.2576L121.56 52.3037C121.59 52.3172 121.617 52.3367 121.64 52.3609C121.663 52.3851 121.681 52.4137 121.693 52.4448C121.704 52.4759 121.71 52.5091 121.708 52.5423C121.707 52.5756 121.699 52.6082 121.685 52.6384C121.648 52.6625 121.604 52.6769 121.56 52.6803Z" fill="#BEAC8C"/>
<path d="M119.464 53.8099C119.417 53.8044 119.372 53.7884 119.332 53.763C119.292 53.7376 119.258 53.7036 119.233 53.6635C119.219 53.6333 119.211 53.6006 119.21 53.5674C119.209 53.5341 119.214 53.501 119.226 53.4698C119.238 53.4387 119.255 53.4102 119.278 53.386C119.301 53.3617 119.328 53.3423 119.359 53.3287L121.455 52.2408C121.517 52.2145 121.587 52.2106 121.652 52.2297C121.716 52.2487 121.773 52.2896 121.811 52.3454C121.835 52.41 121.836 52.4811 121.813 52.5461C121.79 52.6112 121.745 52.6661 121.685 52.7011L119.589 53.7681L119.464 53.8099Z" fill="#BEAC8C"/>
<path d="M127.365 49.1862C127.325 49.1833 127.287 49.1702 127.254 49.1482C127.221 49.1262 127.194 49.0961 127.176 49.0607L126.527 47.8263C126.513 47.8005 126.504 47.7721 126.502 47.7428C126.5 47.7136 126.504 47.6842 126.514 47.6566C126.524 47.629 126.539 47.6037 126.56 47.5825C126.58 47.5613 126.604 47.5446 126.632 47.5334C126.671 47.4951 126.723 47.4736 126.778 47.4736C126.833 47.4736 126.886 47.4951 126.925 47.5334L127.575 48.7887C127.613 48.8278 127.635 48.8804 127.635 48.9352C127.635 48.9899 127.613 49.0425 127.575 49.0816L127.365 49.1862Z" fill="#BEAC8C"/>
<path d="M127.407 49.1865C127.356 49.1596 127.317 49.1146 127.297 49.0604C127.278 49.0062 127.28 48.9467 127.302 48.8936L127.952 47.6383C127.979 47.5874 128.024 47.5484 128.078 47.529C128.133 47.5097 128.192 47.5113 128.245 47.5337C128.278 47.5796 128.295 47.6344 128.295 47.6906C128.295 47.7468 128.278 47.8016 128.245 47.8475L127.596 49.0819C127.577 49.1148 127.549 49.1419 127.516 49.1603C127.483 49.1787 127.445 49.1878 127.407 49.1865Z" fill="#BEAC8C"/>
<path d="M126.736 57.3874C126.709 57.3763 126.685 57.3595 126.664 57.3383C126.644 57.3171 126.628 57.2919 126.619 57.2642C126.609 57.2366 126.605 57.2072 126.607 57.178C126.609 57.1488 126.618 57.1203 126.631 57.0945L127.281 55.8601C127.295 55.8323 127.313 55.8074 127.337 55.787C127.36 55.7666 127.387 55.7511 127.416 55.7413C127.446 55.7315 127.476 55.7278 127.507 55.7302C127.538 55.7327 127.568 55.7413 127.596 55.7555C127.635 55.7981 127.657 55.8542 127.657 55.9124C127.657 55.9707 127.635 56.0267 127.596 56.0693L126.946 57.3037C126.92 57.333 126.887 57.3558 126.851 57.3703C126.815 57.3849 126.775 57.3907 126.736 57.3874Z" fill="#BEAC8C"/>
<path d="M128.036 57.3879C127.999 57.3855 127.962 57.3749 127.93 57.3568C127.897 57.3387 127.869 57.3136 127.847 57.2833L127.197 56.0489C127.174 55.9928 127.171 55.93 127.191 55.8723C127.21 55.8146 127.25 55.7658 127.302 55.7351C127.328 55.7211 127.357 55.7128 127.386 55.7106C127.415 55.7083 127.445 55.7123 127.472 55.7221C127.5 55.732 127.525 55.7476 127.547 55.7678C127.568 55.7881 127.585 55.8126 127.596 55.8397L128.245 57.0741C128.279 57.1153 128.298 57.1671 128.298 57.2205C128.298 57.2739 128.279 57.3257 128.245 57.367L128.036 57.3879Z" fill="#BEAC8C"/>
<path d="M130.886 52.6596C130.843 52.6604 130.8 52.6491 130.763 52.6269C130.726 52.6047 130.696 52.5726 130.676 52.5341C130.642 52.4929 130.624 52.4411 130.624 52.3877C130.624 52.3342 130.642 52.2824 130.676 52.2412L131.913 51.5926C131.938 51.5746 131.967 51.5629 131.997 51.5586C132.028 51.5542 132.059 51.5573 132.087 51.5676C132.116 51.5779 132.142 51.5951 132.163 51.6177C132.184 51.6403 132.199 51.6676 132.206 51.6973C132.245 51.7364 132.266 51.7889 132.266 51.8437C132.266 51.8985 132.245 51.9511 132.206 51.9902L130.97 52.6387L130.886 52.6596Z" fill="#BEAC8C"/>
<path d="M132.039 53.3291L130.802 52.6805C130.768 52.6393 130.75 52.5875 130.75 52.5341C130.75 52.4806 130.768 52.4289 130.802 52.3876C130.825 52.36 130.854 52.3381 130.887 52.3235C130.919 52.309 130.955 52.3023 130.991 52.304L132.228 52.9525C132.266 52.9916 132.287 53.0442 132.287 53.099C132.287 53.1537 132.266 53.2063 132.228 53.2454C132.208 53.2762 132.179 53.3004 132.146 53.3153C132.112 53.3302 132.075 53.335 132.039 53.3291Z" fill="#BEAC8C"/>
<path d="M123.886 52.6591L122.629 52.0105C122.59 51.9714 122.569 51.9188 122.569 51.8641C122.569 51.8093 122.59 51.7567 122.629 51.7176C122.64 51.6905 122.656 51.666 122.678 51.6457C122.699 51.6255 122.724 51.6099 122.752 51.6001C122.78 51.5902 122.809 51.5863 122.838 51.5885C122.868 51.5907 122.896 51.5991 122.922 51.613L124.158 52.2616C124.186 52.2727 124.21 52.2894 124.23 52.3106C124.251 52.3319 124.266 52.3571 124.276 52.3847C124.286 52.4123 124.29 52.4417 124.288 52.471C124.286 52.5002 124.277 52.5287 124.263 52.5545C124.252 52.592 124.232 52.6261 124.204 52.6536C124.176 52.681 124.142 52.7009 124.104 52.7114C124.066 52.7219 124.026 52.7226 123.988 52.7134C123.95 52.7043 123.915 52.6856 123.886 52.6591Z" fill="#BEAC8C"/>
<path d="M122.649 53.3292C122.606 53.33 122.564 53.3186 122.527 53.2965C122.489 53.2743 122.459 53.2421 122.44 53.2037C122.406 53.1625 122.387 53.1107 122.387 53.0572C122.387 53.0038 122.406 52.952 122.44 52.9108L123.697 52.2622C123.75 52.2398 123.81 52.2382 123.864 52.2575C123.919 52.2769 123.964 52.3159 123.991 52.3668C124.005 52.3926 124.013 52.4211 124.015 52.4503C124.018 52.4796 124.014 52.5089 124.004 52.5366C123.994 52.5642 123.978 52.5894 123.958 52.6106C123.938 52.6319 123.913 52.6486 123.886 52.6597L122.649 53.3083V53.3292Z" fill="#BEAC8C"/>
<path d="M121.56 58.6847C121.534 58.6976 121.505 58.7043 121.476 58.7043C121.447 58.7043 121.418 58.6976 121.392 58.6847C121.366 58.6631 121.344 58.636 121.33 58.6052C121.315 58.5745 121.308 58.5409 121.308 58.5069C121.308 58.4729 121.315 58.4393 121.33 58.4085C121.344 58.3778 121.366 58.3506 121.392 58.329L133.192 46.5502C133.239 46.5031 133.303 46.4766 133.37 46.4766C133.437 46.4766 133.501 46.5031 133.548 46.5502C133.595 46.5974 133.622 46.6614 133.622 46.7281C133.622 46.7948 133.595 46.8587 133.548 46.9059L121.664 58.5801C121.642 58.6255 121.605 58.6623 121.56 58.6847Z" fill="#BEAC8C"/>
<path d="M133.296 58.6847C133.267 58.698 133.235 58.7049 133.202 58.7049C133.17 58.7049 133.137 58.698 133.108 58.6847L121.308 46.9059C121.261 46.8587 121.234 46.7948 121.234 46.7281C121.234 46.6614 121.261 46.5974 121.308 46.5502C121.355 46.5031 121.419 46.4766 121.486 46.4766C121.553 46.4766 121.617 46.5031 121.664 46.5502L133.464 58.3291C133.49 58.3506 133.512 58.3778 133.526 58.4085C133.541 58.4393 133.548 58.4729 133.548 58.5069C133.548 58.5409 133.541 58.5745 133.526 58.6052C133.512 58.636 133.49 58.6631 133.464 58.6847C133.438 58.6976 133.409 58.7043 133.38 58.7043C133.351 58.7043 133.322 58.6976 133.296 58.6847Z" fill="#BEAC8C"/>
<path d="M131.578 48.5803C131.512 48.5565 131.458 48.5086 131.427 48.4463C131.396 48.384 131.39 48.3122 131.41 48.2456L132.039 46.0279C132.058 45.9641 132.102 45.9106 132.161 45.8792C132.22 45.8478 132.289 45.8411 132.353 45.8605C132.417 45.8799 132.471 45.9239 132.502 45.9828C132.534 46.0416 132.54 46.1105 132.521 46.1743L131.808 48.4129C131.794 48.4626 131.764 48.5061 131.722 48.5365C131.68 48.5668 131.629 48.5823 131.578 48.5803Z" fill="#BEAC8C"/>
<path d="M131.599 48.6215C131.545 48.6188 131.494 48.599 131.452 48.5651C131.411 48.5313 131.381 48.485 131.368 48.4332C131.348 48.3721 131.351 48.3055 131.379 48.247C131.406 48.1886 131.455 48.1429 131.515 48.1194L133.757 47.4081C133.821 47.3937 133.888 47.4026 133.946 47.4334C134.003 47.4641 134.048 47.5145 134.072 47.5755C134.081 47.6071 134.085 47.6402 134.082 47.6731C134.078 47.706 134.069 47.738 134.053 47.7671C134.038 47.7963 134.016 47.8221 133.991 47.843C133.965 47.864 133.936 47.8797 133.904 47.8893L131.682 48.6006L131.599 48.6215Z" fill="#BEAC8C"/>
<path d="M121.057 57.555C121.002 57.5559 120.949 57.5374 120.907 57.503C120.864 57.4685 120.836 57.4202 120.826 57.3667C120.816 57.3351 120.813 57.3019 120.816 57.269C120.819 57.2361 120.829 57.2042 120.845 57.175C120.86 57.1458 120.881 57.1201 120.907 57.0991C120.932 57.0781 120.962 57.0624 120.994 57.0528L123.215 56.3415C123.281 56.3326 123.348 56.3464 123.406 56.3806C123.463 56.4148 123.506 56.4674 123.53 56.5298C123.539 56.5614 123.543 56.5946 123.539 56.6275C123.536 56.6604 123.527 56.6923 123.511 56.7215C123.495 56.7506 123.474 56.7764 123.449 56.7974C123.423 56.8183 123.394 56.8341 123.362 56.8436L121.14 57.534L121.057 57.555Z" fill="#BEAC8C"/>
<path d="M122.608 59.1029C122.546 59.0753 122.497 59.0257 122.469 58.9638C122.442 58.9019 122.439 58.8322 122.461 58.7682L123.069 56.4877C123.092 56.4223 123.14 56.3684 123.203 56.3373C123.265 56.3062 123.337 56.3001 123.404 56.3204C123.436 56.3299 123.465 56.3456 123.491 56.3666C123.516 56.3876 123.537 56.4134 123.553 56.4425C123.569 56.4717 123.578 56.5036 123.581 56.5365C123.585 56.5694 123.581 56.6026 123.572 56.6342L122.859 58.8728C122.85 58.934 122.82 58.9902 122.774 59.032C122.728 59.0739 122.669 59.0989 122.608 59.1029Z" fill="#BEAC8C"/>
<path d="M133.841 57.5552L131.62 56.8648C131.588 56.8553 131.558 56.8395 131.533 56.8186C131.507 56.7976 131.486 56.7718 131.471 56.7427C131.455 56.7135 131.445 56.6816 131.442 56.6487C131.439 56.6158 131.442 56.5826 131.452 56.551C131.471 56.4862 131.515 56.431 131.573 56.3962C131.631 56.3614 131.7 56.3494 131.766 56.3627L133.988 57.074C134.02 57.0836 134.049 57.0993 134.075 57.1203C134.1 57.1413 134.121 57.1671 134.137 57.1962C134.153 57.2254 134.162 57.2573 134.165 57.2902C134.169 57.3231 134.165 57.3563 134.156 57.3879C134.149 57.4212 134.135 57.4527 134.115 57.48C134.094 57.5073 134.068 57.5297 134.038 57.5457C134.008 57.5617 133.975 57.5709 133.941 57.5725C133.907 57.5742 133.873 57.5683 133.841 57.5552Z" fill="#BEAC8C"/>
<path d="M132.29 59.1029C132.236 59.106 132.182 59.0913 132.137 59.0611C132.091 59.0309 132.057 58.9868 132.039 58.9355L131.326 56.6969C131.317 56.6653 131.313 56.6321 131.316 56.5992C131.32 56.5663 131.329 56.5344 131.345 56.5052C131.36 56.4761 131.382 56.4503 131.407 56.4293C131.433 56.4084 131.462 56.3926 131.494 56.3831C131.526 56.3734 131.559 56.3701 131.592 56.3732C131.625 56.3764 131.657 56.3861 131.686 56.4016C131.715 56.4172 131.741 56.4383 131.762 56.4638C131.783 56.4894 131.799 56.5188 131.808 56.5504L132.521 58.7681C132.534 58.801 132.54 58.8362 132.538 58.8715C132.537 58.9068 132.528 58.9413 132.512 58.9729C132.496 59.0045 132.474 59.0324 132.446 59.0548C132.419 59.0772 132.387 59.0936 132.353 59.1029H132.29Z" fill="#BEAC8C"/>
<path d="M123.32 48.5802C123.266 48.5802 123.214 48.5644 123.169 48.5346C123.124 48.5048 123.089 48.4624 123.069 48.4129L122.377 46.1743C122.356 46.1132 122.36 46.0465 122.387 45.9881C122.415 45.9296 122.463 45.8839 122.524 45.8604C122.556 45.8474 122.592 45.8415 122.627 45.843C122.662 45.8445 122.697 45.8535 122.729 45.8693C122.76 45.8851 122.788 45.9074 122.811 45.9347C122.833 45.962 122.85 45.9937 122.859 46.0278L123.655 48.2455C123.676 48.3121 123.67 48.384 123.638 48.4462C123.607 48.5085 123.553 48.5565 123.488 48.5802H123.32Z" fill="#BEAC8C"/>
<path d="M123.299 48.6221L121.057 47.9108C120.996 47.8873 120.948 47.8416 120.92 47.7831C120.893 47.7247 120.889 47.658 120.91 47.5969C120.933 47.536 120.978 47.4856 121.036 47.4548C121.094 47.4241 121.16 47.4151 121.224 47.4296L123.446 48.1409C123.478 48.1505 123.507 48.1662 123.533 48.1871C123.558 48.2081 123.579 48.2339 123.595 48.2631C123.611 48.2922 123.62 48.3242 123.623 48.357C123.627 48.3899 123.623 48.4231 123.614 48.4547C123.59 48.5156 123.545 48.5661 123.488 48.5968C123.43 48.6275 123.363 48.6365 123.299 48.6221Z" fill="#BEAC8C"/>
<path d="M129.943 50.2118C129.913 50.2083 129.884 50.1976 129.859 50.1806C129.834 50.1636 129.813 50.1407 129.799 50.114C129.784 50.0873 129.776 50.0575 129.776 50.0272C129.776 49.9969 129.783 49.9669 129.796 49.9398L130.215 48.6218C130.219 48.5916 130.23 48.5628 130.247 48.5377C130.264 48.5126 130.287 48.492 130.313 48.4776C130.34 48.4632 130.37 48.4555 130.4 48.4551C130.431 48.4547 130.461 48.4616 130.488 48.4753C130.516 48.4824 130.543 48.4953 130.566 48.5131C130.589 48.531 130.608 48.5534 130.621 48.579C130.635 48.6046 130.643 48.6328 130.646 48.6618C130.648 48.6907 130.644 48.7199 130.635 48.7473L130.215 50.0863C130.193 50.1362 130.152 50.1763 130.102 50.1994C130.053 50.2224 129.996 50.2268 129.943 50.2118Z" fill="#BEAC8C"/>
<path d="M129.943 50.212C129.91 50.2271 129.874 50.2349 129.838 50.2349C129.802 50.2349 129.766 50.2271 129.733 50.212C129.723 50.1539 129.731 50.0939 129.758 50.0411C129.784 49.9882 129.827 49.9454 129.88 49.9191L131.221 49.5007C131.249 49.487 131.279 49.4801 131.309 49.4805C131.339 49.4809 131.369 49.4886 131.396 49.503C131.423 49.5174 131.446 49.538 131.463 49.5631C131.48 49.5882 131.49 49.617 131.494 49.6472C131.504 49.6732 131.509 49.701 131.508 49.7289C131.507 49.7568 131.5 49.7843 131.488 49.8096C131.477 49.835 131.46 49.8577 131.439 49.8765C131.419 49.8953 131.395 49.9098 131.368 49.9191L129.943 50.212Z" fill="#BEAC8C"/>
<path d="M123.655 55.5883C123.608 55.5736 123.567 55.5444 123.538 55.5049C123.509 55.4654 123.494 55.4176 123.494 55.3686C123.494 55.3195 123.509 55.2718 123.538 55.2323C123.567 55.1927 123.608 55.1635 123.655 55.1489L124.997 54.7305C125.024 54.7209 125.053 54.7171 125.082 54.7194C125.111 54.7217 125.14 54.73 125.165 54.7438C125.191 54.7575 125.213 54.7765 125.231 54.7994C125.249 54.8224 125.262 54.8487 125.269 54.8769C125.279 54.9044 125.283 54.9335 125.28 54.9625C125.278 54.9914 125.27 55.0196 125.256 55.0452C125.242 55.0708 125.223 55.0932 125.2 55.1111C125.177 55.1289 125.151 55.1418 125.122 55.1489L123.802 55.5883H123.655Z" fill="#BEAC8C"/>
<path d="M124.598 56.4886C124.545 56.4623 124.502 56.4195 124.476 56.3666C124.45 56.3138 124.441 56.2538 124.452 56.1957L124.892 54.8776C124.895 54.8475 124.906 54.8187 124.923 54.7935C124.94 54.7684 124.963 54.7478 124.99 54.7334C125.017 54.7191 125.046 54.7113 125.077 54.711C125.107 54.7106 125.137 54.7175 125.164 54.7312C125.193 54.7383 125.219 54.7511 125.242 54.769C125.265 54.7869 125.284 54.8093 125.298 54.8349C125.312 54.8605 125.32 54.8887 125.322 54.9176C125.324 54.9466 125.321 54.9757 125.311 55.0032L124.892 56.3421C124.869 56.3976 124.826 56.4428 124.772 56.4697C124.719 56.4966 124.657 56.5033 124.598 56.4886Z" fill="#BEAC8C"/>
<path d="M131.284 55.588L129.943 55.1487C129.889 55.1296 129.844 55.0912 129.817 55.0409C129.79 54.9907 129.783 54.9321 129.796 54.8767C129.82 54.8213 129.862 54.776 129.916 54.7492C129.97 54.7223 130.031 54.7156 130.09 54.7303L131.431 55.1487C131.486 55.1719 131.529 55.2153 131.553 55.2699C131.576 55.3245 131.578 55.386 131.557 55.4416C131.55 55.4698 131.537 55.4962 131.519 55.5191C131.501 55.542 131.479 55.561 131.453 55.5748C131.427 55.5886 131.399 55.5969 131.37 55.5991C131.341 55.6014 131.312 55.5976 131.284 55.588Z" fill="#BEAC8C"/>
<path d="M130.362 56.4879C130.316 56.49 130.27 56.4768 130.232 56.4503C130.195 56.4238 130.166 56.3855 130.153 56.3414L129.733 55.0025C129.724 54.975 129.72 54.9459 129.722 54.9169C129.725 54.8879 129.733 54.8598 129.747 54.8342C129.761 54.8086 129.78 54.7862 129.803 54.7683C129.825 54.7504 129.852 54.7376 129.88 54.7305C130.027 54.7305 130.111 54.7305 130.153 54.8769L130.572 56.195C130.582 56.2238 130.586 56.2543 130.584 56.2847C130.581 56.3151 130.573 56.3448 130.56 56.372C130.546 56.3993 130.527 56.4235 130.504 56.4434C130.481 56.4633 130.454 56.4784 130.425 56.4879H130.362Z" fill="#BEAC8C"/>
<path d="M125.018 50.2115C124.972 50.2136 124.926 50.2004 124.888 50.1739C124.85 50.1474 124.822 50.1091 124.808 50.065L124.368 48.7261C124.359 48.6709 124.368 48.6141 124.395 48.5649C124.421 48.5156 124.463 48.4766 124.515 48.4541C124.543 48.4408 124.575 48.4341 124.606 48.4346C124.638 48.435 124.669 48.4426 124.697 48.4567C124.725 48.4707 124.75 48.491 124.769 48.5159C124.788 48.5408 124.802 48.5697 124.808 48.6005L125.227 49.9186C125.241 49.9457 125.248 49.9756 125.248 50.006C125.247 50.0363 125.24 50.0661 125.225 50.0928C125.211 50.1195 125.19 50.1423 125.165 50.1593C125.14 50.1764 125.111 50.1871 125.081 50.1906L125.018 50.2115Z" fill="#BEAC8C"/>
<path d="M124.997 50.2114L123.655 49.8139C123.627 49.8068 123.601 49.7939 123.578 49.7761C123.555 49.7582 123.536 49.7358 123.522 49.7102C123.508 49.6846 123.5 49.6564 123.498 49.6275C123.495 49.5985 123.499 49.5694 123.509 49.5419C123.515 49.5111 123.529 49.4822 123.548 49.4573C123.567 49.4324 123.592 49.4121 123.62 49.3981C123.648 49.384 123.679 49.3764 123.711 49.376C123.742 49.3756 123.774 49.3822 123.802 49.3955L125.123 49.8139C125.152 49.8234 125.178 49.8385 125.201 49.8584C125.225 49.8782 125.244 49.9025 125.257 49.9298C125.271 49.957 125.279 49.9867 125.281 50.0171C125.283 50.0475 125.279 50.078 125.269 50.1068C125.246 50.1562 125.205 50.1947 125.154 50.2143C125.103 50.2338 125.047 50.2328 124.997 50.2114Z" fill="#BEAC8C"/>
<path d="M18.8627 34.7711C18.8516 34.7521 18.8458 34.7304 18.8458 34.7084C18.8458 34.6863 18.8516 34.6647 18.8627 34.6456V26.7164C18.8627 26.6831 18.8759 26.6511 18.8995 26.6276C18.9231 26.604 18.9551 26.5908 18.9884 26.5908C19.0218 26.5908 19.0538 26.604 19.0773 26.6276C19.1009 26.6511 19.1142 26.6831 19.1142 26.7164V34.6456C19.1224 34.6621 19.1274 34.68 19.1287 34.6984C19.13 34.7168 19.1276 34.7353 19.1218 34.7528C19.116 34.7702 19.1067 34.7864 19.0946 34.8003C19.0825 34.8143 19.0678 34.8257 19.0513 34.8339C19.0348 34.8422 19.0168 34.8471 18.9984 34.8484C18.98 34.8497 18.9615 34.8474 18.944 34.8415C18.9264 34.8357 18.9103 34.8265 18.8963 34.8144C18.8824 34.8023 18.8709 34.7876 18.8627 34.7711Z" fill="#D7CAAA"/>
<path d="M22.9077 30.7965H14.9644C14.9471 30.8006 14.929 30.8001 14.9119 30.7952C14.8948 30.7903 14.8792 30.7812 14.8666 30.7686C14.8541 30.756 14.8449 30.7405 14.84 30.7234C14.8351 30.7064 14.8346 30.6883 14.8386 30.671C14.8386 30.671 14.8386 30.5664 14.9644 30.5664H22.9077L23.0125 30.671C23.0125 30.671 23.0544 30.7965 22.9077 30.7965Z" fill="#D7CAAA"/>
<path d="M18.8627 27.9931C18.8224 28.0094 18.7773 28.0094 18.737 27.9931L18.234 27.0098C18.2168 26.9852 18.2076 26.956 18.2076 26.9261C18.2076 26.8962 18.2168 26.867 18.234 26.8424C18.2535 26.8232 18.2799 26.8125 18.3073 26.8125C18.3347 26.8125 18.3611 26.8232 18.3807 26.8424L18.9046 27.8257C18.9218 27.8503 18.9309 27.8795 18.9309 27.9094C18.9309 27.9393 18.9218 27.9685 18.9046 27.9931H18.8627Z" fill="#D7CAAA"/>
<path d="M18.8627 27.9932C18.8456 27.9686 18.8364 27.9394 18.8364 27.9095C18.8364 27.8796 18.8456 27.8504 18.8627 27.8258L19.3867 26.8425C19.4098 26.8219 19.4396 26.8105 19.4705 26.8105C19.5015 26.8105 19.5313 26.8219 19.5544 26.8425C19.575 26.8655 19.5864 26.8953 19.5864 26.9262C19.5864 26.9571 19.575 26.9869 19.5544 27.0099L19.0514 27.9932C19.0249 28.0153 18.9915 28.0275 18.9571 28.0275C18.9226 28.0275 18.8892 28.0153 18.8627 27.9932Z" fill="#D7CAAA"/>
<path d="M18.4016 34.5206C18.3844 34.496 18.3752 34.4668 18.3752 34.4369C18.3752 34.4069 18.3844 34.3777 18.4016 34.3532L18.8626 33.4745C18.8695 33.4594 18.8793 33.4458 18.8915 33.4344C18.9036 33.4231 18.9179 33.4143 18.9335 33.4084C18.949 33.4026 18.9656 33.3999 18.9822 33.4005C18.9988 33.401 19.0152 33.4049 19.0303 33.4117C19.0455 33.4186 19.0591 33.4284 19.0704 33.4405C19.0818 33.4526 19.0906 33.4669 19.0965 33.4824C19.1023 33.4979 19.105 33.5145 19.1045 33.5311C19.1039 33.5477 19.1001 33.564 19.0932 33.5791L18.5692 34.5624C18.5565 34.5737 18.5412 34.5817 18.5247 34.5857C18.5081 34.5897 18.4909 34.5897 18.4744 34.5856C18.4578 34.5814 18.4426 34.5734 18.4299 34.562C18.4172 34.5507 18.4075 34.5365 18.4016 34.5206Z" fill="#D7CAAA"/>
<path d="M19.4496 34.521L18.8627 33.4749C18.8456 33.4503 18.8364 33.4211 18.8364 33.3912C18.8364 33.3613 18.8456 33.3321 18.8627 33.3075C18.8873 33.2904 18.9166 33.2812 18.9466 33.2812C18.9765 33.2812 19.0058 33.2904 19.0304 33.3075L19.5334 34.2908C19.5464 34.3006 19.557 34.3132 19.5643 34.3277C19.5715 34.3423 19.5753 34.3583 19.5753 34.3745C19.5753 34.3908 19.5715 34.4068 19.5643 34.4213C19.557 34.4358 19.5464 34.4485 19.5334 34.4582L19.4496 34.521Z" fill="#D7CAAA"/>
<path d="M21.7131 30.7543C21.7 30.7446 21.6895 30.7319 21.6822 30.7174C21.6749 30.7029 21.6711 30.6869 21.6711 30.6706C21.6711 30.6544 21.6749 30.6384 21.6822 30.6238C21.6895 30.6093 21.7 30.5967 21.7131 30.5869L22.6981 30.0848C22.7079 30.0718 22.7205 30.0613 22.7351 30.054C22.7496 30.0467 22.7657 30.043 22.7819 30.043C22.7982 30.043 22.8143 30.0467 22.8288 30.054C22.8434 30.0613 22.856 30.0718 22.8658 30.0848C22.8788 30.0946 22.8894 30.1072 22.8966 30.1217C22.9039 30.1362 22.9077 30.1523 22.9077 30.1685C22.9077 30.1847 22.9039 30.2008 22.8966 30.2153C22.8894 30.2298 22.8788 30.2424 22.8658 30.2522L21.8598 30.7543H21.7131Z" fill="#D7CAAA"/>
<path d="M22.6981 31.3828L21.7131 30.8598C21.7 30.85 21.6895 30.8374 21.6822 30.8229C21.6749 30.8083 21.6711 30.7923 21.6711 30.7761C21.6711 30.7598 21.6749 30.7438 21.6822 30.7293C21.6895 30.7148 21.7 30.7021 21.7131 30.6924C21.7131 30.6924 21.7131 30.6924 21.8598 30.6924L22.8658 31.1945C22.8788 31.2042 22.8894 31.2169 22.8966 31.2314C22.9039 31.2459 22.9077 31.2619 22.9077 31.2782C22.9077 31.2944 22.9039 31.3104 22.8966 31.325C22.8894 31.3395 22.8788 31.3521 22.8658 31.3619C22.8578 31.3762 22.8465 31.3885 22.8328 31.3977C22.8192 31.4068 22.8036 31.4127 22.7873 31.4147C22.7709 31.4168 22.7543 31.4149 22.7389 31.4094C22.7234 31.4038 22.7094 31.3947 22.6981 31.3828Z" fill="#D7CAAA"/>
<path d="M16.1381 30.7543L15.1321 30.2522C15.1191 30.2424 15.1085 30.2298 15.1013 30.2153C15.094 30.2008 15.0902 30.1847 15.0902 30.1685C15.0902 30.1523 15.094 30.1362 15.1013 30.1217C15.1085 30.1072 15.1191 30.0946 15.1321 30.0848C15.1419 30.0718 15.1545 30.0613 15.1691 30.054C15.1836 30.0467 15.1997 30.043 15.216 30.043C15.2322 30.043 15.2483 30.0467 15.2628 30.054C15.2774 30.0613 15.29 30.0718 15.2998 30.0848L16.2848 30.5869C16.2979 30.5967 16.3084 30.6093 16.3157 30.6238C16.323 30.6384 16.3268 30.6544 16.3268 30.6706C16.3268 30.6869 16.323 30.7029 16.3157 30.7174C16.3084 30.7319 16.2979 30.7446 16.2848 30.7543C16.2653 30.7735 16.2389 30.7842 16.2115 30.7842C16.1841 30.7842 16.1577 30.7735 16.1381 30.7543Z" fill="#D7CAAA"/>
<path d="M15.1531 31.3824C15.1371 31.3916 15.1191 31.3964 15.1007 31.3964C15.0823 31.3964 15.0642 31.3916 15.0483 31.3824C15.0352 31.3726 15.0247 31.36 15.0174 31.3455C15.0101 31.331 15.0063 31.3149 15.0063 31.2987C15.0063 31.2825 15.0101 31.2664 15.0174 31.2519C15.0247 31.2374 15.0352 31.2248 15.0483 31.215L16.0543 30.7129C16.0543 30.7129 16.18 30.7129 16.201 30.7129C16.214 30.7226 16.2246 30.7353 16.2318 30.7498C16.2391 30.7643 16.2429 30.7803 16.2429 30.7966C16.2429 30.8128 16.2391 30.8288 16.2318 30.8434C16.2246 30.8579 16.214 30.8705 16.201 30.8803L15.2159 31.3824H15.1531Z" fill="#D7CAAA"/>
<path d="M18.8626 29.0814L18.5692 28.4747C18.5692 28.4747 18.5692 28.3701 18.5692 28.3491C18.5692 28.3282 18.674 28.3491 18.7159 28.3491L19.0093 28.9349V29.0814H18.8626Z" fill="#D7CAAA"/>
<path d="M18.8627 29.0809C18.8474 29.0595 18.8391 29.0339 18.8391 29.0077C18.8391 28.9814 18.8474 28.9558 18.8627 28.9344L19.1561 28.3486C19.1561 28.3486 19.1561 28.3486 19.3029 28.3486C19.4496 28.3486 19.3029 28.3486 19.3029 28.4742L19.0094 29.0809H18.8627Z" fill="#D7CAAA"/>
<path d="M18.6112 32.9935C18.6112 32.9935 18.6112 32.9935 18.6112 32.868L18.8627 32.2403C18.885 32.2275 18.9103 32.2207 18.9361 32.2207C18.9618 32.2207 18.9871 32.2275 19.0094 32.2403C19.0094 32.2403 19.0094 32.2403 19.0094 32.3868L18.716 32.9726C18.702 32.9851 18.6849 32.9937 18.6665 32.9974C18.648 33.0011 18.6289 32.9997 18.6112 32.9935Z" fill="#D7CAAA"/>
<path d="M19.2399 32.9929L18.8627 32.3443C18.8498 32.3221 18.843 32.2968 18.843 32.2711C18.843 32.2454 18.8498 32.2201 18.8627 32.1979C18.8823 32.1787 18.9086 32.168 18.936 32.168C18.9635 32.168 18.9898 32.1787 19.0094 32.1979L19.3028 32.7837C19.3028 32.7837 19.3028 32.8883 19.3028 32.9092L19.2399 32.9929Z" fill="#D7CAAA"/>
<path d="M20.5814 30.7336C20.566 30.7123 20.5577 30.6866 20.5577 30.6604C20.5577 30.6341 20.566 30.6085 20.5814 30.5871L21.1682 30.2733C21.1932 30.2594 21.2227 30.2561 21.2502 30.2639C21.2777 30.2718 21.301 30.2902 21.3149 30.3152C21.3288 30.3401 21.3322 30.3696 21.3243 30.3971C21.3165 30.4245 21.298 30.4477 21.273 30.4616L20.6861 30.7754L20.5814 30.7336Z" fill="#D7CAAA"/>
<path d="M17.2698 30.7338L16.662 30.42C16.6467 30.3987 16.6384 30.3731 16.6384 30.3468C16.6384 30.3205 16.6467 30.2949 16.662 30.2736C16.6834 30.2582 16.7091 30.25 16.7354 30.25C16.7617 30.25 16.7874 30.2582 16.8088 30.2736L17.3956 30.5874V30.7338H17.2698Z" fill="#D7CAAA"/>
<path d="M16.7668 31.0472C16.7514 31.0258 16.7432 31.0002 16.7432 30.974C16.7432 30.9477 16.7514 30.9221 16.7668 30.9007L17.3746 30.5869H17.5003C17.5003 30.5869 17.5003 30.5869 17.5003 30.7124L16.7668 31.0472Z" fill="#D7CAAA"/>
<path d="M21.734 33.6L16.0332 27.9721C16.0126 27.949 16.0012 27.9193 16.0012 27.8884C16.0012 27.8575 16.0126 27.8277 16.0332 27.8047H16.2009L21.8178 33.4744C21.84 33.5008 21.8521 33.5341 21.8521 33.5686C21.8521 33.603 21.84 33.6363 21.8178 33.6627L21.734 33.6Z" fill="#D7CAAA"/>
<path d="M20.9585 28.8088C20.9432 28.7874 20.9349 28.7618 20.9349 28.7356C20.9349 28.7093 20.9432 28.6837 20.9585 28.6623L21.3148 27.5953C21.3344 27.5762 21.3608 27.5654 21.3882 27.5654C21.4156 27.5654 21.442 27.5762 21.4616 27.5953C21.4769 27.6167 21.4852 27.6423 21.4852 27.6686C21.4852 27.6948 21.4769 27.7204 21.4616 27.7418L21.1262 28.8088C21.1007 28.8235 21.0718 28.8312 21.0424 28.8312C21.013 28.8312 20.984 28.8235 20.9585 28.8088Z" fill="#D7CAAA"/>
<path d="M20.9586 28.8092C20.9404 28.8228 20.9184 28.8301 20.8957 28.8301C20.873 28.8301 20.851 28.8228 20.8328 28.8092C20.8175 28.7879 20.8092 28.7623 20.8092 28.736C20.8092 28.7097 20.8175 28.6841 20.8328 28.6628L21.8807 28.328C21.9053 28.3109 21.9346 28.3018 21.9646 28.3018C21.9946 28.3018 22.0238 28.3109 22.0484 28.328C22.0638 28.3494 22.072 28.375 22.072 28.4012C22.072 28.4275 22.0638 28.4531 22.0484 28.4745L20.9795 28.8092H20.9586Z" fill="#D7CAAA"/>
<path d="M15.9285 33.077C15.8985 33.0774 15.8693 33.0671 15.8463 33.0479C15.8232 33.0287 15.8078 33.002 15.8028 32.9724C15.7874 32.9511 15.7792 32.9255 15.7792 32.8992C15.7792 32.8729 15.7874 32.8473 15.8028 32.826L16.8507 32.4912C16.8507 32.4912 16.9974 32.4912 17.0184 32.4912C17.0337 32.5126 17.042 32.5382 17.042 32.5644C17.042 32.5907 17.0337 32.6163 17.0184 32.6377L15.9495 32.9724L15.9285 33.077Z" fill="#D7CAAA"/>
<path d="M16.7668 33.8091C16.7497 33.7845 16.7405 33.7553 16.7405 33.7254C16.7405 33.6954 16.7497 33.6662 16.7668 33.6417L17.1021 32.5956C17.1267 32.5785 17.156 32.5693 17.186 32.5693C17.2159 32.5693 17.2452 32.5785 17.2698 32.5956C17.289 32.6152 17.2998 32.6414 17.2998 32.6688C17.2998 32.6962 17.289 32.7225 17.2698 32.7421L16.7668 33.7254C16.7749 33.7527 16.7749 33.7817 16.7668 33.8091Z" fill="#D7CAAA"/>
<path d="M21.9855 33.0773L20.9585 32.7216C20.9432 32.7003 20.9349 32.6747 20.9349 32.6484C20.9349 32.6221 20.9432 32.5965 20.9585 32.5752C20.9585 32.5752 21.0633 32.5752 21.1053 32.5752L22.1741 32.9099C22.1895 32.9313 22.1978 32.9569 22.1978 32.9832C22.1978 33.0094 22.1895 33.0351 22.1741 33.0564C22.1639 33.0712 22.1506 33.0836 22.1352 33.0928C22.1197 33.102 22.1025 33.1078 22.0846 33.1097C22.0667 33.1117 22.0486 33.1099 22.0315 33.1043C22.0144 33.0987 21.9987 33.0895 21.9855 33.0773Z" fill="#D7CAAA"/>
<path d="M21.2519 33.8091H21.1471L20.7908 32.7421C20.7755 32.7207 20.7672 32.6951 20.7672 32.6688C20.7672 32.6426 20.7755 32.6169 20.7908 32.5956C20.8154 32.5785 20.8447 32.5693 20.8747 32.5693C20.9046 32.5693 20.9339 32.5785 20.9585 32.5956L21.2938 33.6417C21.311 33.6662 21.3201 33.6954 21.3201 33.7254C21.3201 33.7553 21.311 33.7845 21.2938 33.8091H21.2519Z" fill="#D7CAAA"/>
<path d="M16.9974 28.8088C16.9777 28.8181 16.9563 28.8229 16.9345 28.8229C16.9128 28.8229 16.8913 28.8181 16.8716 28.8088L16.5363 27.7418C16.521 27.7204 16.5127 27.6948 16.5127 27.6686C16.5127 27.6423 16.521 27.6167 16.5363 27.5953C16.5559 27.5762 16.5822 27.5654 16.6097 27.5654C16.6371 27.5654 16.6634 27.5762 16.683 27.5953L17.0184 28.6623C17.0376 28.6819 17.0483 28.7082 17.0483 28.7356C17.0483 28.7629 17.0376 28.7892 17.0184 28.8088H16.9974Z" fill="#D7CAAA"/>
<path d="M16.9764 28.8087L15.9284 28.474C15.9093 28.4823 15.8884 28.4858 15.8676 28.484C15.8468 28.4823 15.8268 28.4754 15.8093 28.4639C15.7918 28.4525 15.7775 28.4369 15.7676 28.4186C15.7576 28.4003 15.7524 28.3798 15.7524 28.3589C15.7524 28.3381 15.7576 28.3176 15.7676 28.2992C15.7775 28.2809 15.7918 28.2653 15.8093 28.2539C15.8268 28.2425 15.8468 28.2356 15.8676 28.2338C15.8884 28.2321 15.9093 28.2355 15.9284 28.2439L16.9973 28.5786C17.0127 28.5999 17.0209 28.6256 17.0209 28.6518C17.0209 28.6781 17.0127 28.7037 16.9973 28.7251C17 28.7397 16.9995 28.7547 16.9959 28.7692C16.9923 28.7836 16.9856 28.7971 16.9764 28.8087Z" fill="#D7CAAA"/>
<path d="M20.1411 29.5827C20.1411 29.5827 20.1411 29.5827 20.1411 29.4572L20.3507 28.8086C20.3507 28.8086 20.3507 28.8086 20.4765 28.8086C20.4957 28.8281 20.5064 28.8544 20.5064 28.8818C20.5064 28.9092 20.4957 28.9355 20.4765 28.955L20.2878 29.5827C20.2682 29.6019 20.2419 29.6126 20.2145 29.6126C20.187 29.6126 20.1607 29.6019 20.1411 29.5827Z" fill="#D7CAAA"/>
<path d="M20.1411 29.6043V29.4787L20.7699 29.2695L20.9585 29.2905C20.9777 29.31 20.9885 29.3363 20.9885 29.3637C20.9885 29.3911 20.9777 29.4173 20.9585 29.4369L20.3297 29.6252L20.1411 29.6043Z" fill="#D7CAAA"/>
<path d="M17.165 32.1357V32.0101L17.7938 31.8009C17.8152 31.7856 17.8408 31.7773 17.8672 31.7773C17.8935 31.7773 17.9191 31.7856 17.9405 31.8009C17.9515 31.82 17.9574 31.8416 17.9574 31.8637C17.9574 31.8857 17.9515 31.9074 17.9405 31.9264L17.3118 32.1357H17.165Z" fill="#D7CAAA"/>
<path d="M17.6052 32.5745C17.5859 32.555 17.5752 32.5287 17.5752 32.5013C17.5752 32.4739 17.5859 32.4476 17.6052 32.4281L17.7938 31.8004C17.8134 31.7812 17.8397 31.7705 17.8671 31.7705C17.8946 31.7705 17.9209 31.7812 17.9405 31.8004C17.9405 31.8004 17.9405 31.8004 17.9405 31.9259L17.7309 32.5536L17.6052 32.5745Z" fill="#D7CAAA"/>
<path d="M20.3298 32.5745L20.1202 31.9468V31.8213C20.1202 31.8213 20.246 31.8213 20.2669 31.8213L20.4556 32.4489C20.4748 32.4685 20.4855 32.4948 20.4855 32.5222C20.4855 32.5495 20.4748 32.5758 20.4556 32.5954L20.3298 32.5745Z" fill="#D7CAAA"/>
<path d="M17.7938 29.5827C17.7779 29.5919 17.7598 29.5967 17.7414 29.5967C17.723 29.5967 17.705 29.5919 17.689 29.5827L17.5004 28.955C17.4812 28.9355 17.4705 28.9092 17.4705 28.8818C17.4705 28.8544 17.4812 28.8281 17.5004 28.8086H17.6262L17.8358 29.4572C17.8358 29.4572 17.8358 29.5618 17.8358 29.5827H17.7938Z" fill="#D7CAAA"/>
<path d="M17.7938 29.6043L17.1651 29.416C17.1459 29.3964 17.1351 29.3701 17.1351 29.3428C17.1351 29.3154 17.1459 29.2891 17.1651 29.2695C17.1651 29.2695 17.1651 29.2695 17.2908 29.2695L17.9196 29.4787C17.9306 29.4978 17.9364 29.5195 17.9364 29.5415C17.9364 29.5635 17.9306 29.5852 17.9196 29.6043C17.8999 29.6136 17.8785 29.6184 17.8567 29.6184C17.835 29.6184 17.8135 29.6136 17.7938 29.6043Z" fill="#D7CAAA"/>
</g>
<defs>
<clipPath id="clip0_481_12873">
<rect width="136" height="84" fill="white"/>
</clipPath>
</defs>
</svg>
