<svg width="85" height="85" viewBox="0 0 85 85" fill="none" xmlns="http://www.w3.org/2000/svg">
<path d="M82.9951 21.9617C80.6217 19.5883 76.7608 19.5883 74.3874 21.9617L56.7093 39.6398C54.3771 41.9714 50.5829 41.9714 48.2511 39.6398L45.1351 36.5238C41.711 33.0997 37.1526 31.2144 32.298 31.2144C27.444 31.2144 22.8851 33.1001 19.4608 36.5238L1.78276 54.2018C0.633029 55.3516 0 56.8798 0 58.5057C0 60.1316 0.632968 61.6599 1.78276 62.8096C2.96943 63.9962 4.528 64.5893 6.08662 64.5893C7.64524 64.5893 9.20386 63.9962 10.3905 62.8096L28.0686 45.1315C30.4008 42.7999 34.195 42.7999 36.5268 45.1315L39.6428 48.2475C43.0669 51.6716 47.6252 53.5569 52.4799 53.5569C57.3338 53.5569 61.8928 51.6711 65.317 48.2475L82.9951 30.5694C84.1454 29.4197 84.7785 27.8915 84.7785 26.2656C84.7785 24.6396 84.1455 23.1114 82.9957 21.9617H82.9951Z" fill="#D7CBAC"/>
<path d="M53.643 11.5935C53.1215 11.072 53.1215 10.2268 53.643 9.70528C54.1645 9.18376 55.0097 9.18376 55.5312 9.70528L59.5133 13.6874L62.8128 10.3878C65.1863 8.01438 65.1863 4.15346 62.8128 1.78005C60.4394 -0.593351 56.5785 -0.593351 54.2051 1.78005L36.527 19.4581C33.9939 21.9913 32.3079 25.1328 31.5991 28.5576C31.8316 28.5499 32.0646 28.5445 32.2982 28.5445C36.2957 28.5445 40.1193 29.6603 43.4123 31.7434C43.5357 30.4005 44.1096 29.0917 45.1354 28.0659L45.5001 27.7011L41.5181 23.719C40.9965 23.1975 40.9965 22.3524 41.5181 21.8308C42.0396 21.3093 42.8847 21.3093 43.4063 21.8308L47.3883 25.8129L51.5634 21.6378L47.5814 17.6558C47.0598 17.1342 47.0598 16.2891 47.5814 15.7676C48.1029 15.246 48.948 15.246 49.4695 15.7676L53.4516 19.7496L57.6267 15.5745L53.643 11.5935Z" fill="#D7CBAC"/>
<path d="M57.6254 15.5762L59.5136 13.688L69.2 23.3745L67.3118 25.2627L57.6254 15.5762Z" fill="#D7CBAC"/>
<path d="M51.5619 21.6382L53.4501 19.75L63.1366 29.4365L61.2484 31.3247L51.5619 21.6382Z" fill="#D7CBAC"/>
<path d="M45.4998 27.7017L47.388 25.8135L57.0744 35.5L55.1862 37.3881L45.4998 27.7017Z" fill="#D7CBAC"/>
<path d="M52.4804 56.2268C48.4823 56.2268 44.6588 55.1111 41.3658 53.0273C41.24 54.4185 40.6398 55.7082 39.6433 56.7053L39.2225 57.1261L43.2046 61.1082C43.7261 61.6297 43.7261 62.4748 43.2046 62.9964C42.9441 63.2568 42.602 63.3874 42.2605 63.3874C41.9189 63.3874 41.5768 63.2568 41.3164 62.9964L37.3343 59.0143L33.1592 63.1894L37.1413 67.1715C37.6628 67.693 37.6628 68.5381 37.1413 69.0596C36.8808 69.3201 36.5387 69.4506 36.1972 69.4506C35.8557 69.4506 35.5135 69.3201 35.2531 69.0596L31.271 65.0776L27.0959 69.2527L31.078 73.2347C31.5995 73.7563 31.5995 74.6014 31.078 75.1229C30.8175 75.3834 30.4754 75.5139 30.1339 75.5139C29.7924 75.5139 29.4503 75.3834 29.1898 75.1229L25.2077 71.1409L21.9648 74.3838C20.815 75.5336 20.182 77.0618 20.182 78.6877C20.182 80.3136 20.815 81.8419 21.9648 82.9916C23.1514 84.1782 24.71 84.7713 26.2686 84.7713C27.8272 84.7713 29.3859 84.1782 30.5725 82.9916L48.2506 65.3135C50.7837 62.7803 52.4698 59.6388 53.1785 56.214C52.9472 56.2217 52.7142 56.2265 52.4806 56.2265L52.4804 56.2268Z" fill="#D7CBAC"/>
<path d="M27.6477 49.3286L29.5359 47.4404L39.2224 57.1269L37.3342 59.0151L27.6477 49.3286Z" fill="#D7CBAC"/>
<path d="M21.5842 55.3926L23.4724 53.5044L33.1589 63.1909L31.2707 65.0791L21.5842 55.3926Z" fill="#D7CBAC"/>
<path d="M15.5221 61.4556L17.4103 59.5674L27.0968 69.2539L25.2086 71.1421L15.5221 61.4556Z" fill="#D7CBAC"/>
<path d="M84.1105 61.6234L78.6563 58.4746C78.2433 58.2362 77.7343 58.2362 77.3212 58.4746L71.8671 61.6234C71.454 61.8618 71.1995 62.3029 71.1995 62.7797V69.0772C71.1995 69.132 71.2037 69.1856 71.2103 69.2393L69.6094 70.8402L64.8531 68.0943V65.8794C66.6882 65.3091 68.0245 63.5948 68.0245 61.5744C68.0245 59.0896 66.0028 57.0679 63.518 57.0679C61.0332 57.0679 59.0115 59.0896 59.0115 61.5744C59.0115 63.5948 60.3478 65.3091 62.1829 65.8794V68.0943L56.5399 71.3522C56.1268 71.5906 55.8723 72.0317 55.8723 72.5085V79.7955C55.8723 80.2723 56.1268 80.7134 56.5399 80.9518L62.8505 84.5953C63.0573 84.7145 63.2874 84.7741 63.518 84.7741C63.7487 84.7741 63.9787 84.7145 64.1856 84.5953L70.4962 80.9518C70.9092 80.7134 71.1637 80.2723 71.1637 79.7955V73.061L73.2141 71.0106L77.3207 73.3816C77.5275 73.5008 77.7576 73.5604 77.9882 73.5604C78.2189 73.5604 78.4495 73.5008 78.6558 73.3816L84.1106 70.2334C84.5236 69.995 84.7781 69.5539 84.7781 69.0771V62.7796C84.7781 62.3028 84.5235 61.8618 84.1105 61.6234ZM63.5181 59.7383C64.5308 59.7383 65.3544 60.562 65.3544 61.5746C65.3544 62.5872 64.5307 63.4109 63.5181 63.4109C62.5055 63.4109 61.6818 62.5872 61.6818 61.5746C61.6818 60.5625 62.5055 59.7383 63.5181 59.7383ZM68.4943 79.0261L63.5187 81.8989L58.5432 79.0261V73.2805L63.5187 70.4077L68.4943 73.2805V79.0261ZM82.108 68.3072L77.9889 70.6854L73.8699 68.3072V63.551L77.9889 61.1728L82.108 63.551V68.3072Z" fill="#D7CBAC"/>
<path d="M21.517 19.3999C21.2863 19.3999 21.0563 19.3403 20.8495 19.2211L13.6234 15.0489C13.2103 14.8105 12.9558 14.3695 12.9558 13.8927V5.54828C12.9558 5.07147 13.2103 4.63042 13.6234 4.39201L20.8495 0.219822C21.2625 -0.0185865 21.7715 -0.0185865 22.1845 0.219822L29.4106 4.39201C29.8237 4.63042 30.0782 5.07147 30.0782 5.54828V13.8927C30.0782 14.3695 29.8237 14.8105 29.4106 15.0489L22.1845 19.2211C21.9777 19.3403 21.7477 19.3999 21.517 19.3999ZM15.6254 13.122L21.5164 16.5235L27.4074 13.122L27.408 6.31897L21.517 2.91748L15.6254 6.31897L15.6254 13.122Z" fill="#D7CBAC"/>
</svg>
