<svg width="26" height="26" viewBox="0 0 26 26" fill="none" xmlns="http://www.w3.org/2000/svg">
<path d="M13.0004 25.6004C19.9592 25.6004 25.6004 19.9592 25.6004 13.0004C25.6004 6.0416 19.9592 0.400391 13.0004 0.400391C6.0416 0.400391 0.400391 6.0416 0.400391 13.0004C0.400391 19.9592 6.0416 25.6004 13.0004 25.6004Z" fill="#C72127"/>
<path d="M18.2703 9.47399C17.8251 9.00415 17.3259 9.00219 17.098 8.97475C15.4594 8.85547 13.003 8.85547 13.003 8.85547H12.9979C12.9979 8.85547 10.5412 8.85547 8.9032 8.97475C8.67444 9.00219 8.17604 9.00415 7.73056 9.47399C7.37944 9.83155 7.26548 10.6438 7.26548 10.6438C7.26548 10.6438 7.14844 11.5978 7.14844 12.5515V13.4458C7.14844 14.3997 7.26548 15.3531 7.26548 15.3531C7.26548 15.3531 7.37944 16.1654 7.73056 16.5233C8.17604 16.9928 8.7604 16.9783 9.02108 17.027C9.95768 17.1174 13.0004 17.1457 13.0004 17.1457C13.0004 17.1457 15.4591 17.1418 17.0977 17.0225C17.3253 16.9948 17.8248 16.9928 18.27 16.523C18.6209 16.1654 18.7357 15.3529 18.7357 15.3529C18.7357 15.3529 18.8522 14.3995 18.8522 13.4455V12.5512C18.8522 11.5975 18.7357 10.6435 18.7357 10.6435C18.7357 10.6435 18.6212 9.83155 18.2703 9.47399ZM11.7925 14.5294L11.792 11.2175L14.954 12.8793L11.7925 14.5294Z" fill="white"/>
</svg>
