<svg width="34" height="34" viewBox="0 0 34 34" fill="none" xmlns="http://www.w3.org/2000/svg">
<path d="M17 12.0001C17.4601 12.0001 17.8334 11.627 17.8334 11.1666C17.8334 10.7065 17.4601 10.3335 17 10.3335C15.2319 10.3335 13.5363 11.0358 12.286 12.2861C11.0357 13.5364 10.3334 15.2319 10.3334 17.0001C10.3334 18.7682 11.0357 20.4638 12.286 21.7141C13.5363 22.9644 15.2319 23.6666 17 23.6666C18.7681 23.6666 20.4637 22.9644 21.714 21.7141C22.9643 20.4638 23.6666 18.7682 23.6666 17.0001C23.6666 16.54 23.2935 16.1666 22.8334 16.1666C22.3731 16.1666 22 16.54 22 17.0001C22 18.3262 21.4732 19.598 20.5354 20.5355C19.5979 21.4733 18.3261 22.0001 17 22.0001C15.6739 22.0001 14.4021 21.4733 13.4646 20.5355C12.5268 19.598 12 18.3262 12 17.0001C12 15.6739 12.5268 14.4021 13.4646 13.4646C14.4021 12.5269 15.6739 12.0001 17 12.0001Z" fill="#B8A492"/>
<path d="M32.9 12.0507C32.7577 11.6171 32.2937 11.3783 31.8584 11.5145C31.4229 11.6506 31.1779 12.1116 31.3082 12.5488C32.3169 15.763 32.2184 19.2229 31.0284 22.3752C29.8384 25.527 27.6257 28.1885 24.7443 29.9345C21.8629 31.68 18.4792 32.4088 15.1343 32.0045C11.7897 31.5999 8.67728 30.0854 6.295 27.7028C3.91271 25.3205 2.3985 22.2081 1.99421 18.8635C1.58991 15.519 2.31899 12.1353 4.06507 9.25426C5.81085 6.37283 8.47271 4.16054 11.6244 2.97076C14.7764 1.78104 18.2362 1.68254 21.4508 2.69146C21.6631 2.76261 21.895 2.74531 22.0945 2.64374C22.294 2.5419 22.4441 2.36417 22.511 2.15044C22.5777 1.93672 22.556 1.70513 22.4502 1.50787C22.3445 1.3106 22.164 1.16412 21.9488 1.10134C18.379 -0.0183775 14.5367 0.0915509 11.0367 1.41356C7.53669 2.73527 4.58104 5.19284 2.6424 8.39263C0.704041 11.5927 -0.105388 15.3502 0.344112 19.0648C0.793334 22.7791 2.47526 26.2355 5.1209 28.8805C7.76654 31.5258 11.2228 33.2075 14.9373 33.6567C18.6516 34.1056 22.4095 33.2962 25.6088 31.3576C28.8085 29.4189 31.2658 26.4633 32.5875 22.9633C33.909 19.4633 34.0186 15.6211 32.8989 12.0511L32.9 12.0507Z" fill="#B8A492"/>
<path d="M18.5871 6.28213C18.5911 5.8078 18.2267 5.41156 17.7537 5.37563C17.5046 5.35386 17.2557 5.3335 17.0001 5.3335C13.9058 5.3335 10.9384 6.56257 8.75079 8.75064C6.56272 10.9384 5.33365 13.9058 5.33365 16.9999C5.33365 20.0941 6.56272 23.0616 8.75079 25.2492C10.9386 27.4373 13.9059 28.6664 17.0001 28.6664C20.0942 28.6664 23.0617 27.4373 25.2494 25.2492C27.4374 23.0614 28.6665 20.0941 28.6665 16.9999C28.6665 16.6986 28.6481 16.3972 28.6113 16.0981C28.5903 15.864 28.472 15.6492 28.2851 15.5063C28.0984 15.3632 27.8601 15.3054 27.6286 15.3465C27.3967 15.3875 27.193 15.5239 27.0669 15.7223C26.9405 15.9207 26.9031 16.1631 26.9642 16.3903C26.9821 16.5923 26.9999 16.7932 26.9999 16.9999C26.9999 19.652 25.9464 22.1955 24.0711 24.0711C22.1955 25.9464 19.652 26.9999 16.9999 26.9999C14.3479 26.9999 11.8044 25.9464 9.92879 24.0711C8.0535 22.1955 6.99993 19.652 6.99993 16.9999C6.99993 14.3479 8.0535 11.8044 9.92879 9.92878C11.8044 8.0535 14.3479 6.99992 16.9999 6.99992C17.2067 6.99992 17.4067 7.01862 17.6087 7.03564L17.765 7.04959C17.9762 7.0588 18.1824 6.98263 18.337 6.83838C18.4916 6.69385 18.5817 6.49351 18.587 6.28201L18.5871 6.28213Z" fill="#B8A492"/>
<path d="M22 7.83361V10.8219L16.4107 16.4109C16.2511 16.5666 16.1607 16.7795 16.1593 17.0024C16.1579 17.2251 16.2458 17.4394 16.4032 17.597C16.5608 17.7544 16.7751 17.8423 16.9978 17.8409C17.2207 17.8395 17.4336 17.7491 17.5893 17.5895L23.1783 12.0002H26.1666C26.3876 12.0002 26.5996 11.9123 26.7559 11.756L31.7559 6.75604C31.9941 6.51776 32.0656 6.15922 31.9364 5.84783C31.8075 5.53644 31.5036 5.3336 31.1666 5.3336H28.6666V2.8336C28.6666 2.49654 28.4637 2.19269 28.1524 2.06381C27.841 1.93463 27.4824 2.00605 27.2441 2.24433L22.2441 7.24433C22.0879 7.40058 22 7.61263 22 7.83361ZM23.6666 8.17875L27 4.84533V6.16675C27 6.38802 27.0876 6.60007 27.2439 6.75632C27.4001 6.91257 27.6122 7.00018 27.8334 7.00018H29.1551L25.8217 10.3336H23.6666V8.17875Z" fill="#B8A492"/>
</svg>
