<svg width="35" height="35" viewBox="0 0 35 35" fill="none" xmlns="http://www.w3.org/2000/svg">
<path fill-rule="evenodd" clip-rule="evenodd" d="M10.1631 3.60063C10.0613 3.70223 9.98046 3.82292 9.92532 3.9558C9.87018 4.08868 9.8418 4.23114 9.8418 4.375C9.8418 4.51887 9.87018 4.66132 9.92532 4.7942C9.98046 4.92708 10.0613 5.04778 10.1631 5.14938L22.5159 17.5L10.1631 29.8506C10.0614 29.9523 9.98077 30.073 9.92573 30.2059C9.8707 30.3388 9.84237 30.4812 9.84237 30.625C9.84237 30.7688 9.8707 30.9112 9.92573 31.0441C9.98077 31.177 10.0614 31.2977 10.1631 31.3994C10.2648 31.5011 10.3855 31.5817 10.5184 31.6368C10.6513 31.6918 10.7937 31.7201 10.9375 31.7201C11.0813 31.7201 11.2237 31.6918 11.3566 31.6368C11.4895 31.5817 11.6102 31.5011 11.7119 31.3994L24.8369 18.2744C24.9387 18.1728 25.0195 18.0521 25.0747 17.9192C25.1298 17.7863 25.1582 17.6439 25.1582 17.5C25.1582 17.3561 25.1298 17.2137 25.0747 17.0808C25.0195 16.9479 24.9387 16.8272 24.8369 16.7256L11.7119 3.60063C11.6103 3.49877 11.4896 3.41796 11.3567 3.36282C11.2238 3.30768 11.0814 3.2793 10.9375 3.2793C10.7936 3.2793 10.6512 3.30768 10.5183 3.36282C10.3854 3.41796 10.2647 3.49877 10.1631 3.60063Z" fill="black" fill-opacity="0.13"/>
</svg>
