<?xml version="1.0" encoding="utf-8"?>
<!-- Generator: Adobe Illustrator 26.2.1, SVG Export Plug-In . SVG Version: 6.00 Build 0)  -->
<svg version="1.1" id="Layer_1" xmlns="http://www.w3.org/2000/svg" xmlns:xlink="http://www.w3.org/1999/xlink" x="0px" y="0px"
	 viewBox="0 0 130 95.8" style="enable-background:new 0 0 130 95.8;" xml:space="preserve">
<style type="text/css">
	.st0{fill:#CCCCCC;fill-opacity:0.2;}
	.st1{fill:#D7CBAC;}
</style>
<path class="st0" d="M106.8,86.7l-8-14.9c-0.3-0.6-0.9-0.9-1.6-0.9h-6.8L86.8,64c-0.3-0.6-0.9-0.9-1.6-0.9H48
	c-0.7,0-1.3,0.4-1.6,0.9l-3.7,6.9H36c-0.7,0-1.3,0.4-1.6,0.9l-8.1,14.9c-0.7,1.2,0.3,2.7,1.6,2.7h77.3
	C106.7,89.4,107.5,87.9,106.8,86.7L106.8,86.7z"/>
<path class="st0" d="M69.9,12.1c0,3.4-2.7,6.1-6.1,6.1c-3.4,0-6.1-2.7-6.1-6.1c0-3.4,2.7-6.1,6.1-6.1C67.1,6,69.9,8.7,69.9,12.1z"/>
<path class="st0" d="M57.9,25.4l-0.4,14l-4.2,19.7h6.2l3.9-18.2h1.3v18.2h6.1V39.7l-0.4-10.4l2.2,2.6c0.4,0.4,0.8,0.8,1.3,0.8
	l3.7,1.2v25h3.6V34.8C82,34.5,82.8,34,83,33c0.5-1.4-0.3-3-1.8-3.5h-0.1V17.8c2.3-0.3,4,0.3,6.1,0.8c1.8,0.6,3.7,1.1,5.9,1.1
	c1,0,2.2-0.1,3.4-0.4c0.8-0.2,1.3-0.9,1.3-1.7V6.3c0-0.6-0.3-1.1-0.7-1.4c-0.5-0.4-1-0.5-1.5-0.4c-2.9,0.8-5,0.1-7.4-0.6
	c-2.1-0.6-4.3-1.2-7.1-1V1.8c0-0.9-0.8-1.8-1.8-1.8c-1,0-1.8,0.8-1.8,1.8v26.5l-1.2-0.4L72.3,23c-1.4-1.8-3.6-2.8-5.8-2.8h-5.2
	c-8-0.3-11.4-7.8-11.6-8.2c-0.6-1.4-2.3-2.1-3.7-1.4c-1.4,0.6-2.1,2.3-1.5,3.7C44.7,14.7,48.6,23.4,57.9,25.4L57.9,25.4z"/>
<path class="st1" d="M66.1,82.2c-4.6,0-8.8-0.8-12.6-2.3c-3.8-1.5-7-3.8-9.7-6.8c-2.7-3.1-4.7-6.8-6.2-11.3
	c-1.5-4.5-2.2-9.8-2.2-15.7s0.7-11.1,2.2-15.6c1.5-4.5,3.5-8.3,6.2-11.3c2.7-3.1,5.9-5.4,9.7-6.9s8-2.3,12.6-2.3
	c4.6,0,8.8,0.8,12.6,2.3c3.8,1.5,7,3.8,9.7,6.9c2.7,3,4.7,6.8,6.2,11.3c1.5,4.5,2.2,9.7,2.2,15.6S96,57.2,94.6,61.8
	c-1.5,4.5-3.5,8.2-6.2,11.3c-2.7,3-5.9,5.3-9.7,6.8C74.9,81.4,70.7,82.2,66.1,82.2z M66.1,68.7c4.6,0,8.2-1.5,10.7-4.5
	c2.6-3,3.9-7.3,3.9-12.9V40.9c0-5.6-1.3-9.9-3.9-12.9c-2.5-3-6.1-4.5-10.7-4.5c-4.6,0-8.2,1.5-10.8,4.5c-2.5,3-3.8,7.3-3.8,12.9
	v10.4c0,5.6,1.3,9.9,3.8,12.9C57.9,67.2,61.5,68.7,66.1,68.7z"/>
</svg>
