<?xml version="1.0" encoding="utf-8"?>
<!-- Generator: Adobe Illustrator 26.2.1, SVG Export Plug-In . SVG Version: 6.00 Build 0)  -->
<svg version="1.1" id="Layer_1" xmlns="http://www.w3.org/2000/svg" xmlns:xlink="http://www.w3.org/1999/xlink" x="0px" y="0px"
	 viewBox="0 0 140 100" style="enable-background:new 0 0 140 100;" xml:space="preserve">
<style type="text/css">
	.st0{fill:#D7CBAC;}
	.st1{fill:#D3C59F;}
	.st2{fill:#C6B78F;}
	.st3{fill:#A0B6DE;}
	.st4{fill:#D0C19A;}
	.st5{fill:#F9F3E7;}
	.st6{fill:#697075;}
	.st7{fill:#EFE9D8;}
	.st8{fill:#EBE6E9;}
	.st9{fill:#B5A377;}
	.st10{fill:#F9FCFD;}
	.st11{fill:#A79973;}
	.st12{fill:#DACDAF;}
	.st13{fill:#A4B6DE;}
	.st14{clip-path:url(#SVGID_00000080925178489182880410000015722899021641015983_);}
	.st15{fill:#FBFCFC;}
	.st16{clip-path:url(#SVGID_00000086654211190892190200000011626997573209592457_);}
	.st17{clip-path:url(#SVGID_00000086668979011045403750000002510692721077771920_);}
	.st18{clip-path:url(#SVGID_00000057108962793086914370000008705989756156421801_);}
</style>
<path class="st0" d="M47.4,87.1c1.3-3.1,2.4-6.3,3.8-9.4c2.3-4.7,6.1-8.1,10.6-10.6c2.1-1.2,3-2.6,2.7-4.9c-0.1-0.6-0.1-1.3,0-1.9
	h34.7c0,1.9,0,3.7,0.1,5.6c0,0.5,0.2,1,0.5,1.4c0.6,0.8,1.3,1.5,2,2.3c2.9,3.3,5.4,7,7.2,10.9c2.4,5.6,3.7,11.5,3.9,17.6h-0.5
	c-0.5-0.1-1-0.2-1.5-0.3c-20.9,0-41.8,0-62.8,0c-0.5,0-1,0.1-1.5,0.3c0-1.4-0.1-2.7,0-4.1C46.8,91.6,47.2,89.3,47.4,87.1z
	 M79.1,78.5c-0.2,0.1-0.4,0.1-0.4,0.2c-0.3,0.3-0.6,0.7-0.9,1c0.5,0,0.9,0,1.4-0.1s1.2-0.4,1.7-0.1c1.1,0.6,2.3,1.4,3.3,2.1
	C83,82.4,82,83.2,81,83.5c-1.1,0.2-2.2-0.2-3.6-0.4l1.5,1.5l-1.6,0.9l0.5,0.7l1.7-0.4c0,0.1,0.1,0.1,0.1,0.2l0.6,1.2
	c0.2-0.4,0.4-0.8,0.5-1.2c0.1-0.4,0-1,0.3-1.2c1.1-0.8,2.3-1.4,3.7-2.3c0,1.5,0.3,2.7-0.1,3.7c-0.3,1-1.3,1.6-1.9,2.4l0.2,0.3
	l1.7-0.4l0.5,1.8h0.4l0.5-1.8c0.2,0.1,0.5,0.2,0.7,0.3c0.3,0,0.6-0.1,0.9-0.1c-0.1-0.3-0.2-0.6-0.4-0.8c-0.8-0.5-1.6-0.9-1.5-2.1
	c0.1-1,0.1-2,0-3c0.9,0.6,1.5,1,2.1,1.3c0.5,0.2,0.9,0.5,1.1,1c0.3,0.4,0.3,1,0.2,1.5c0,0.4,0.1,0.9,0.3,1.3h0.5l0.4-1.7l2,0.4
	l-1-1.6l1.5-1.3c-1.5,0.1-2.6,0.5-3.5,0.2c-1.1-0.3-1.9-1.2-3.1-1.9c1.1-0.7,2-1.5,3-1.7c1-0.2,2.1,0.2,3.5,0.4L91.4,79l1.4-1.3
	l-0.2-0.4l-1.9,0.5c0-0.2-0.1-0.3-0.1-0.5c-0.2-0.4-0.4-0.7-0.6-1c-0.2,0.4-0.4,0.7-0.5,1.1c-0.2,0.5-0.1,1.3-0.4,1.5
	c-1.1,0.7-2.2,1.4-3.3,1.9c0-1.4-0.2-2.6,0.1-3.6c0.3-1,1.2-1.6,2.1-2.8l-2,0.4L85.2,73l-0.4,0.2L84.5,75l-1.7-0.5l-0.2,0.3
	c0.7,0.8,1.6,1.4,1.9,2.3c0.3,1,0.1,2.2,0.1,3.6c-0.9-0.6-1.6-1.1-2.3-1.4c-1.1-0.6-1.7-1.3-1.5-2.5c0.1-0.3-0.2-0.7-0.3-1.1h-0.4
	l-0.5,1.7L78,76.7l-0.3,0.4L79.1,78.5z"/>
<path class="st0" d="M64.2,30.4c0.2,1.1,0.4,2.3-0.8,3c-1.2,0.7-2.2,0.3-3.2-0.4c-0.2-0.1-0.4-0.1-0.6-0.1c-0.2,0-0.4,0-0.6,0.1
	c-2.1,1.3-4.1,2.5-6.1,3.9c-5.8,4.1-11.7,8.2-17.5,12.3c-3.4,2.2-6.8,4.3-10.2,6.5c-0.4,0.3-0.8,0.5-1.3,0.5c-0.5,0-0.9-0.2-1.3-0.5
	c-4.8-3.3-7.1-7.8-7-13.6c0.1-0.3,0.2-0.5,0.3-0.7c0.2-0.2,0.4-0.4,0.6-0.5c2.3-1.2,4.5-2.4,6.9-3.6c2.5-1.2,4.6-3,6.1-5.4
	c1.6-2.5,3.5-4.9,5.2-7.3c0.2-0.2,0.4-0.5,0.6-0.7c1.3-1.5,2.6-3.2,4.9-3.2c3.5,0,7,0.1,10.5,0.4c3.5,0.3,6,2.7,8.6,4.7l-1.1,0.6
	c-0.1,0.2-0.3,0.3-0.2,0.3c1,0.5,2.5,0.8,2.9,1.6c0.4,0.8-0.3,2.2-0.5,3.3l0.3-0.1L64.2,30.4z M52,28.4c-2-1.5-7.2-1.7-9.3-0.3
	c-1,0.7-1.6,2-1.1,3c0.5,1,1.4,1.6,2.7,1.1c0.2,0,0.5,0.1,0.7,0.1c2.9-1.3,5.9-2.6,8.8-3.9c1-0.4,1.9-0.8,2.9-1.2l-0.1-0.3L52,28.4z
	 M59.7,31.9L59.7,31.9L59.7,31.9L59.7,31.9z"/>
<path class="st1" d="M112.8,98c-0.2-6-1.5-12-3.9-17.6c-1.8-4-4.2-7.7-7.2-10.9c-0.7-0.8-1.4-1.5-2-2.3c-0.3-0.4-0.4-0.9-0.5-1.4
	c-0.1-1.9,0-3.7-0.1-5.6l0.3-0.1l6.3,0.1c-0.3,4.9-0.3,4.9,3.7,7.5c4.5,2.8,8.2,6.9,10.5,11.7c0.2,0.3,0.4,0.6,0.6,0.9
	c0.9,2.4,1.6,4.8,2.2,7.2c0.6,3.1,0.8,6.3,1.2,9.4c0.1,0.9-0.3,1.2-1.1,1.2L112.8,98z"/>
<path class="st2" d="M59.3,25.8c4.8-2.1,9.6-4.2,14.3-6.3c0.5-0.2,1-0.4,1.5-0.6l1.2,2.6l-6.2,2.9l0.2,0.5l6.5-2.3l0.8-0.3l9.9-3.1
	l0.9-0.3l2.8,0.3l-1.8,2l-0.9,0.5L79,25.1l-0.8,0.3l-13.9,5.1l-3.5,0.9c0.9-1.2,1.4-2.5,0.7-3.9l4.2-1l-0.1-0.5l-5,0.9l-2.4-0.5
	L59.3,25.8z"/>
<path class="st2" d="M72.1,12.7l-1.2,0.4l-2.8-6l13.6-6.2c0.9,2,1.9,3.9,2.8,6l-1.1,0.6l-1.4,0.6l-9,4.2L72.1,12.7z M80.8,2.5
	l-0.5,0.2l1.9,4.1l0.5-0.2L80.8,2.5z M72.9,6.1l-0.5,0.2l1.9,4.1l0.4-0.2L72.9,6.1z M70.6,7.4L70,7.6l1.8,4.1l0.5-0.2
	C71.7,10.1,71.1,8.8,70.6,7.4L70.6,7.4z M76.9,9.1l0.5-0.2l-1.8-3.9l-0.4,0.2L76.9,9.1z M78.1,3.8L77.7,4L79.5,8l0.5-0.2L78.1,3.8z"
	/>
<path class="st3" d="M46.5,98c0.5-0.1,1-0.2,1.5-0.3c20.9,0,41.8,0,62.8,0c0.5,0,1,0.1,1.5,0.3H47C46.8,98,46.7,98,46.5,98z"/>
<path class="st4" d="M82.1,8.1l1.4-0.6c0.3,1,0.6,2.1,1,3.1c0.5,1.2,1.1,2.3,1.6,3.4c0.3,0.7,0.7,1.4,1,2.2c0.4,0.9,0.8,1.8,1.2,2.8
	l-0.9,0.3L86,16.7l-0.8-2.2l-0.5-1.1L82.1,8.1z"/>
<path class="st4" d="M72.1,12.7l0.9-0.4c0.4,0.7,0.7,1.5,1.1,2.3l2,3.9c0.4,0.7,0.7,1.5,1.1,2.2l0.3,1.7l-0.8,0.3l-0.6-1.2L75,18.9
	c-0.4-0.8-0.7-1.6-1.1-2.5L72.1,12.7z"/>
<path class="st2" d="M87.1,16.2c-0.3-0.7-0.7-1.4-1-2.2l2.3,0.1L87.1,16.2z"/>
<path class="st4" d="M99.6,60.2l-0.3,0.1H64.6l-1.5-0.1v-3.5c0.3-0.1,0.6-0.1,1-0.1h34.4c0.3,0,0.6,0.1,0.8,0.1
	C99.4,57.8,99.5,59,99.6,60.2z"/>
<path class="st4" d="M88.5,21.7l0.9-0.5c2.5,5.4,5,10.8,7.4,16.2c0.5,1.3,0.6,2.8,0.1,4.2c-0.4,1.4-1.4,2.5-2.6,3.3
	c-2.6,1.4-6.1,0.9-7.6-1.4c-1.4-2.4-2.6-4.8-3.7-7.3c-1.7-3.6-3.3-7.2-5-10.8l0.8-0.3c1.4,3,2.7,5.9,4.1,8.9c1.2,2.7,2.5,5.3,3.7,8
	c1.4,3,4.9,3.4,6.9,2.5c0.6-0.3,1.2-0.7,1.6-1.2c0.5-0.5,0.8-1.1,1.1-1.7c0.2-0.6,0.3-1.3,0.3-2c0-0.7-0.2-1.4-0.5-2
	c-1.7-3.5-3.3-7.1-5-10.6C90.2,25.1,89.3,23.4,88.5,21.7z"/>
<path class="st2" d="M99.6,60.2c-0.1-1.2-0.2-2.3-0.3-3.5h7.6l0.3,0.2c0,0.7,0,1.4,0,2.1c0.1,1.1-0.4,1.4-1.4,1.4L99.6,60.2z"/>
<path class="st5" d="M79.1,78.5l-1.3-1.4l0.3-0.4l1.6,0.6l0.5-1.7h0.4c0.1,0.4,0.3,0.7,0.3,1c-0.2,1.3,0.4,2,1.5,2.5
	c0.7,0.4,1.3,0.8,2.3,1.4c0-1.4,0.3-2.6-0.1-3.6c-0.3-0.9-1.3-1.5-1.9-2.3l0.2-0.3l1.7,0.5l0.3-1.8l0.4-0.2l0.7,1.8l2-0.4
	c-0.9,1.1-1.8,1.8-2.1,2.8c-0.3,0.9-0.1,2.2-0.1,3.6c1.1-0.6,2.2-1.2,3.3-1.9c0.3-0.3,0.3-1,0.4-1.5c0.1-0.4,0.3-0.8,0.5-1.1
	c0.2,0.3,0.4,0.7,0.6,1c0.1,0.2,0.1,0.3,0.1,0.5l1.9-0.5l0.2,0.4L91.5,79l1.3,1.5c-1.5-0.2-2.6-0.6-3.5-0.4c-0.9,0.2-1.9,1.1-3,1.7
	c1.1,0.7,2,1.6,3.1,1.9c0.9,0.3,2-0.1,3.5-0.2l-1.5,1.3l1,1.6l-2-0.4L90,87.9h-0.5c-0.2-0.4-0.3-0.8-0.3-1.3c0.1-0.5,0-1-0.2-1.5
	c-0.3-0.4-0.7-0.8-1.1-1c-0.6-0.3-1.2-0.7-2.1-1.3c0.1,1,0.1,2,0,3c-0.2,1.2,0.7,1.6,1.5,2.1c0.2,0.1,0.2,0.5,0.4,0.8
	c-0.3,0.1-0.6,0.1-0.9,0.1c-0.3-0.1-0.5-0.2-0.7-0.3l-0.5,1.8H85l-0.5-1.8l-1.7,0.4l-0.2-0.3c0.7-0.8,1.6-1.4,1.9-2.4
	c0.3-0.9,0.1-2.2,0.1-3.7c-1.4,0.8-2.6,1.5-3.7,2.3c-0.2,0.2-0.1,0.8-0.3,1.2c-0.1,0.4-0.4,0.8-0.5,1.2l-0.6-1.2
	c0-0.1-0.1-0.1-0.1-0.2l-1.7,0.4l-0.5-0.7l1.6-0.9l-1.5-1.5c1.5,0.2,2.6,0.6,3.6,0.4c1-0.2,2-1.1,3.2-1.8c-1.1-0.8-2.2-1.5-3.3-2.1
	c-0.4-0.2-1.1,0.1-1.7,0.1c-0.6,0.1-0.9,0-1.4,0.1c0.3-0.3,0.6-0.7,0.9-1C78.8,78.6,78.9,78.6,79.1,78.5z"/>
<path class="st1" d="M44.2,32.2c-1.2,0.5-2.1,0-2.7-1.1c-0.5-1.1,0.1-2.3,1.1-3c2.1-1.4,7.3-1.3,9.3,0.3c-0.9,0.5-1.8,1.1-2.8,1.6
	C47.5,30.7,45.9,31.4,44.2,32.2z"/>
<path class="st2" d="M44.2,32.2c1.7-0.7,3.3-1.4,5-2.3c1-0.5,1.9-1,2.8-1.6l4.5-1.6l0.1,0.3c-1,0.4-1.9,0.8-2.9,1.2
	c-2.9,1.3-5.9,2.6-8.8,3.9C44.8,32.3,44.5,32.2,44.2,32.2z"/>
<path class="st2" d="M61.4,27.5c0.7,1.4,0.3,2.7-0.7,3.9l-0.3,0.1c0.2-1.1,0.9-2.4,0.5-3.3c-0.4-0.8-1.9-1.1-2.9-1.6
	c-0.1,0.1,0.1-0.1,0.2-0.3l2.4,0.5L61.4,27.5z"/>
<path class="st6" d="M59.7,31.9l0-0.1L59.7,31.9L59.7,31.9z"/>
<path class="st7" d="M88.5,21.7c0.9,1.7,1.8,3.5,2.6,5.2c1.7,3.5,3.3,7.1,5,10.6c0.6,1.2,0.7,2.6,0.2,3.9c-0.5,1.3-1.4,2.3-2.6,2.9
	c-2,1-5.5,0.6-6.9-2.5c-1.2-2.7-2.5-5.3-3.7-8c-1.4-3-2.7-5.9-4.1-8.9L88.5,21.7z M92.2,37h-0.6c-0.6-0.1-1.5-0.7-1.6,0.5
	c-0.3,0.4-0.9,0.8-0.9,1.2c-0.1,0.5,0,1,0.2,1.4c0.2,0.4,0.6,0.8,1.1,0.9c1.3,0.5,2.3,0,3-1.3l0.2-0.3c0.1-0.9,0.1-1.9-1.1-2.2
	L92.2,37z M88.8,25.6c-0.4,0-0.7,0-1.1,0.1c-0.3,0.1-0.7,0.3-0.9,0.5c-0.3,0.2-0.5,0.5-0.7,0.8c-0.2,0.3-0.3,0.7-0.3,1
	c0,0.5-0.2,1.1-0.4,1.6c-0.5,0.9-0.8,1.8,0,2.5c0.7,0.5,1.5,0.8,2.4,0.9c1.1,0,1.5-1,1.7-2c0.1-0.6,0.5-1.2,0.6-1.9
	c0.1-0.6,0.4-1.4,0.2-2C89.8,26.5,89.3,26,88.8,25.6z"/>
<path class="st7" d="M77.6,22.4c-0.1-0.6-0.2-1.1-0.3-1.7l3.3-1.4l5.4-2.5l1.4,2.5L77.6,22.4z"/>
<path class="st8" d="M76.2,21.5l0.6,1.2l-6.5,2.3L70,24.4L76.2,21.5z"/>
<path class="st9" d="M61.4,27.5l-0.8-0.6l4.9-0.9l0.1,0.5L61.4,27.5z"/>
<path class="st10" d="M74.2,14.5c-0.4-0.8-0.7-1.5-1.1-2.3l9-4.2l2.6,5.3L74.2,14.5z"/>
<path class="st11" d="M80.8,2.5l1.9,4.1l-0.5,0.2l-1.9-4.1L80.8,2.5z"/>
<path class="st11" d="M72.9,6.2l1.9,4.1l-0.4,0.2l-1.9-4.1L72.9,6.2z"/>
<path class="st11" d="M70.6,7.5c0.6,1.3,1.2,2.6,1.7,4l-0.5,0.2l-1.8-4L70.6,7.5z"/>
<path class="st11" d="M76.9,9.1l-1.8-4L75.5,5l1.8,3.9L76.9,9.1z"/>
<path class="st11" d="M78.1,3.8l1.8,3.9L79.5,8l-1.8-3.9L78.1,3.8z"/>
<path class="st7" d="M74.2,14.5l10.5-1.2l0.5,1.1c-1.5,0.9-3.8,0.7-4.2,3.1c0.1-0.6,0-1.1-0.3-1.6c-0.3-0.5-0.7-0.9-1.2-1.1
	c-0.4-0.2-0.8-0.3-1.2-0.2c-0.4,0.1-0.8,0.3-1.1,0.6c-1,0.9-0.9,2-0.4,3.1c0,0,0,0.1,0,0.1h-0.6L74.2,14.5z"/>
<path class="st12" d="M80.9,17.6c0.5-2.3,2.7-2.2,4.2-3.1l0.8,2.2l-5.4,2.5l-3.3,1.4c-0.4-0.7-0.7-1.5-1.1-2.2h0.6
	C78.7,19.7,79.8,19.5,80.9,17.6z"/>
<path class="st13" d="M93,39.5l0.5-0.1l-0.2,0.3L93,39.6L93,39.5z"/>
<g>
	<defs>
		<rect id="SVGID_1_" x="76.4" y="14.5" width="5.1" height="5.1"/>
	</defs>
	<clipPath id="SVGID_00000153675598489139678660000000617936800560420789_">
		<use xlink:href="#SVGID_1_"  style="overflow:visible;"/>
	</clipPath>
	<g style="clip-path:url(#SVGID_00000153675598489139678660000000617936800560420789_);">
		<path class="st15" d="M78.9,19.6c1.4,0,2.6-1.1,2.6-2.5c0-1.4-1.1-2.5-2.6-2.5c-1.4,0-2.6,1.1-2.6,2.5
			C76.4,18.5,77.5,19.6,78.9,19.6z"/>
		<path class="st0" d="M79.4,17.1c0,0.2-0.1,0.4-0.2,0.6c-0.1,0.2-0.3,0.3-0.5,0.4c-0.2,0.1-0.4,0.1-0.6,0.1c-0.2,0-0.4-0.1-0.6-0.3
			c-0.2-0.2-0.3-0.3-0.3-0.6c0-0.2,0-0.4,0.1-0.6c0.1-0.2,0.2-0.4,0.4-0.5c0.2-0.1,0.4-0.2,0.6-0.2c0.1,0,0.3,0,0.4,0.1
			c0.1,0.1,0.3,0.1,0.4,0.2c0.1,0.1,0.2,0.2,0.2,0.4C79.4,16.8,79.4,16.9,79.4,17.1z"/>
	</g>
</g>
<g>
	<defs>
		<polygon id="SVGID_00000098943523568384093720000012423976208446813057_" points="91.5,29.7 86.6,31 85.3,26.2 90.2,24.8 		"/>
	</defs>
	<clipPath id="SVGID_00000005244318457462650700000014513553030271910540_">
		<use xlink:href="#SVGID_00000098943523568384093720000012423976208446813057_"  style="overflow:visible;"/>
	</clipPath>
	<g style="clip-path:url(#SVGID_00000005244318457462650700000014513553030271910540_);">
		<path class="st15" d="M87.7,25.5c-1.4,0.4-2.2,1.8-1.8,3.1c0.4,1.4,1.8,2.2,3.1,1.8c1.4-0.4,2.2-1.8,1.8-3.1
			C90.5,25.9,89.1,25.1,87.7,25.5z"/>
		<path class="st0" d="M87.9,28.1c-0.1-0.2-0.1-0.4,0-0.6c0.1-0.2,0.2-0.4,0.4-0.5c0.2-0.1,0.4-0.2,0.6-0.2c0.2,0,0.4,0,0.6,0.1
			c0.2,0.1,0.3,0.3,0.4,0.5c0.1,0.2,0.1,0.4,0.1,0.6c0,0.2-0.1,0.4-0.3,0.6c-0.1,0.2-0.3,0.3-0.5,0.3c-0.1,0-0.3,0-0.4,0
			c-0.1,0-0.3-0.1-0.4-0.1c-0.1-0.1-0.2-0.2-0.3-0.3C88,28.3,88,28.2,87.9,28.1z"/>
	</g>
</g>
<g>
	<defs>
		<polygon id="SVGID_00000148648337109296626830000013407391047712956591_" points="94.2,36.7 93.1,41.6 88.1,40.6 89.2,35.7 		"/>
	</defs>
	<clipPath id="SVGID_00000155859804163855454450000011649303252470465936_">
		<use xlink:href="#SVGID_00000148648337109296626830000013407391047712956591_"  style="overflow:visible;"/>
	</clipPath>
	<g style="clip-path:url(#SVGID_00000155859804163855454450000011649303252470465936_);">
		<path class="st15" d="M88.7,38.1c-0.3,1.4,0.6,2.7,2,3c1.4,0.3,2.7-0.6,3-2c0.3-1.4-0.6-2.7-2-3C90.3,35.9,88.9,36.8,88.7,38.1z"
			/>
		<path class="st0" d="M91.1,39.1c-0.2,0-0.4-0.1-0.6-0.3c-0.2-0.2-0.3-0.3-0.3-0.6c0-0.2,0-0.4,0.1-0.6c0.1-0.2,0.2-0.4,0.4-0.5
			c0.2-0.1,0.4-0.2,0.6-0.2c0.2,0,0.4,0.1,0.6,0.2c0.2,0.1,0.3,0.3,0.4,0.5c0.1,0.2,0.1,0.4,0.1,0.6c0,0.1-0.1,0.3-0.2,0.4
			c-0.1,0.1-0.2,0.2-0.3,0.3c-0.1,0.1-0.3,0.1-0.4,0.2C91.3,39.2,91.2,39.2,91.1,39.1z"/>
	</g>
</g>
<g>
	<defs>
		<polygon id="SVGID_00000029735896013604888430000001358342250709723296_" points="83.7,29.7 88.3,27.6 90.4,32.2 85.8,34.3 		"/>
	</defs>
	<clipPath id="SVGID_00000165225867993839951000000007391013960907959960_">
		<use xlink:href="#SVGID_00000029735896013604888430000001358342250709723296_"  style="overflow:visible;"/>
	</clipPath>
	<g style="clip-path:url(#SVGID_00000165225867993839951000000007391013960907959960_);">
		<path class="st15" d="M88.1,33.2c1.3-0.6,1.8-2.1,1.3-3.4c-0.6-1.3-2.1-1.8-3.4-1.2c-1.3,0.6-1.8,2.1-1.3,3.4
			C85.3,33.3,86.8,33.8,88.1,33.2z"/>
		<path class="st0" d="M87.5,30.7c0.1,0.2,0.1,0.4,0.1,0.6c0,0.2-0.1,0.4-0.3,0.6c-0.1,0.2-0.3,0.3-0.6,0.3c-0.2,0.1-0.4,0-0.6,0
			c-0.2-0.1-0.4-0.2-0.5-0.4c-0.1-0.2-0.2-0.4-0.2-0.6c0-0.2,0-0.4,0.2-0.6c0.1-0.2,0.3-0.3,0.5-0.4c0.1-0.1,0.3-0.1,0.4-0.1
			c0.1,0,0.3,0,0.4,0.1c0.1,0,0.3,0.1,0.4,0.2C87.3,30.5,87.4,30.6,87.5,30.7z"/>
	</g>
</g>
</svg>
