<svg width="104" height="93" viewBox="0 0 104 93" fill="none" xmlns="http://www.w3.org/2000/svg">
<g clip-path="url(#clip0_484_13032)">
<path d="M52 92.9686C35.1377 92.9686 18.2754 92.9791 1.41313 93C0.238168 93 0 92.7646 0 91.5926C0.042341 61.5291 0.042341 31.4657 0 1.40219C0 0.235443 0.238168 0 1.41313 0C35.1377 0.0418565 68.8623 0.0418565 102.587 0C103.762 0 104 0.235443 104 1.40219C103.958 31.4657 103.958 61.5291 104 91.5926C104 92.7646 103.762 93.0052 102.587 93C85.7105 92.9547 68.8482 92.9442 52 92.9686ZM87.36 6.03781L71.9796 5.97502C71.2598 5.97502 70.5348 5.91747 69.815 5.91747H14.0149C13.2316 5.91747 12.4271 5.97502 11.6544 6.00641C7.23501 5.36287 6.30351 6.80169 6.35114 10.9298C6.35114 13.4621 6.11298 15.9997 6.05476 18.5163C5.84835 27.0916 5.20794 35.6461 4.83216 44.211C4.54107 50.7406 4.68397 57.2911 4.42992 63.8312C4.19705 69.7644 4.57282 75.7185 4.31349 81.6464C4.12824 85.9263 6.75338 86.9831 10.2518 87.0878C11.4268 87.1244 11.8396 86.596 11.9243 85.4554C12.009 84.3148 11.7337 82.8393 13.0146 81.997C13.8878 84.1735 14.2742 86.5122 17.3757 87.0878C25.2076 88.5582 33.1573 89.3304 41.129 89.3951L54.1435 89.5259C57.9754 89.8555 61.7966 89.3219 65.6285 89.369C68.2748 89.641 70.9211 89.1701 73.5304 88.9818C75.1182 89.2015 76.7059 88.5894 78.2937 88.5998C81.9033 88.4952 85.3858 87.5534 88.9372 87.0721L92.9225 87.475C93.8276 87.3441 94.7273 87.1401 95.6324 87.0982C98.4798 86.9831 98.8503 86.6221 98.8503 83.7026C98.8503 68.3465 98.8926 52.9904 98.8079 37.629C98.8079 35.4473 100.851 33.2707 98.8714 31.0837C98.8557 31.0548 98.8475 31.0224 98.8475 30.9895C98.8475 30.9567 98.8557 30.9243 98.8714 30.8954C100.766 28.7659 99.4007 26.2807 99.5912 23.9786C99.8982 19.7458 99.062 15.534 99.1572 11.2856C99.189 10.0089 99.2049 8.49165 98.4216 7.33536C97.2413 5.58262 95.3624 5.84945 93.5788 5.98025L87.36 6.03781Z" fill="#FEFEFE"/>
<path d="M41.129 89.3953C33.1573 89.3306 25.2076 88.5583 17.3757 87.0879C14.2742 86.5124 13.8878 84.1737 13.0146 81.9971C10.3947 73.1602 10.1777 64.025 9.6167 54.9316C14.0784 58.7249 18.9105 61.8118 24.5684 63.6587C33.3065 66.505 42.2669 67.5828 51.4125 67.5043C51.3226 68.964 49.5495 68.7652 49.0308 70.1203C47.2314 74.7978 45.0296 79.3235 43.156 83.9748C42.4362 85.7433 41.0813 87.3181 41.129 89.3953Z" fill="#D7CBAC"/>
<path d="M9.61669 54.937C10.1777 64.0303 10.3947 73.1655 13.0146 82.0025C11.7337 82.8605 12.0354 84.2627 11.9243 85.4609C11.8131 86.659 11.4268 87.1299 10.2518 87.0933C6.75339 86.9886 4.12825 85.9318 4.31349 81.6519C4.57283 75.724 4.19705 69.7699 4.42993 63.8367C4.68397 57.2966 4.54107 50.7566 4.83217 44.2165C5.20794 35.6516 5.84835 27.0972 6.04418 18.5218C6.10239 16.0052 6.36702 13.4676 6.34056 10.9353C6.30351 6.81243 7.23501 5.36838 11.6332 6.01193L11.4479 9.418C10.8393 12.3113 11.1145 15.2622 10.9557 18.1765C10.527 25.988 10.273 33.8099 9.95542 41.6266L9.59023 49.4433V49.8253V52.5983L9.61669 54.937Z" fill="#F3F3F4"/>
<path d="M93.5629 5.98052C95.3518 5.84972 97.2307 5.58289 98.411 7.33563C99.1943 8.49192 99.1784 10.0092 99.1467 11.2858C99.0567 15.5343 99.8876 19.7461 99.5807 23.9788C99.4113 26.2809 100.756 28.7662 98.8609 30.8956C98.8451 30.9246 98.8369 30.9569 98.8369 30.9898C98.8369 31.0227 98.8451 31.055 98.8609 31.084C100.84 33.271 98.7815 35.4475 98.7973 37.6293C98.882 52.9907 98.8397 68.3468 98.8397 83.7029C98.8397 86.6224 98.4692 86.9834 95.6218 87.0985C94.7167 87.1404 93.817 87.3444 92.912 87.4752C93.0271 87.0445 93.1068 86.6053 93.1501 86.162C93.1925 84.2261 93.9493 82.2065 92.5309 80.4067C93.7905 75.5042 94.3092 70.4658 94.7855 65.4744C95.119 61.9375 95.283 58.3849 95.5212 54.8376C95.553 54.0894 95.59 53.3412 95.6218 52.593C95.7719 49.0414 95.6463 45.4836 95.246 41.951C95.0343 31.1258 94.595 20.3059 94.0128 9.51217C94.1589 8.3163 94.0044 7.10327 93.5629 5.98052Z" fill="#F7F7F7"/>
<path d="M95.5106 54.8525C95.2725 58.3999 95.1084 61.9525 94.775 65.4893C94.2986 70.5017 93.7799 75.5192 92.5203 80.4217C92.2504 81.1437 91.991 81.8605 91.7158 82.5825C91.1072 84.2777 90.742 86.1194 88.916 87.0716C85.3647 87.532 81.8821 88.4947 78.2726 88.5994C78.246 87.8746 78.4043 87.1549 78.733 86.5065C81.7657 79.6159 84.8354 72.741 87.7622 65.8033C88.7361 63.4907 90.1174 61.3194 90.5091 58.7766L95.5106 54.8525Z" fill="#D7CBAC"/>
<path d="M65.6285 89.3691C61.7967 89.3221 57.9754 89.8557 54.1435 89.5261C54.7363 87.0356 55.9377 84.7806 56.9327 82.4524C59.1186 77.3092 61.4103 72.2184 63.6597 67.1015L75.5098 65.1133C75.4942 65.5002 75.4284 65.8835 75.314 66.2539C73.0911 71.3761 70.7676 76.4564 68.6241 81.61C67.5603 84.1685 65.9672 86.5334 65.6285 89.3691Z" fill="#D7CBAC"/>
<path d="M63.6597 67.1016C61.4103 72.2185 59.1186 77.3093 56.9327 82.4524C55.9377 84.7807 54.7363 87.0357 54.1435 89.5262L41.129 89.3954C41.0813 87.3026 42.4362 85.733 43.156 83.9541C45.0296 79.3027 47.2314 74.777 49.0309 70.0995C49.5601 68.7654 51.3226 68.9642 51.4125 67.4835C55.4989 67.5708 59.587 67.4433 63.6597 67.1016ZM53.0744 81.6833L53.8313 81.2543C54.6569 80.4381 54.6675 79.6219 53.8313 78.8005L53.4343 78.4133C52.3758 77.7645 51.2538 77.7488 50.5445 78.8371C50.047 79.6062 49.6977 80.6422 50.9309 81.2805C51.4549 82.374 52.2435 82.1438 53.0638 81.6833H53.0744ZM52.2223 70.1728C51.8601 70.1635 51.4998 70.2269 51.1631 70.359C50.8263 70.4912 50.5202 70.6893 50.263 70.9416C50.0058 71.1939 49.803 71.495 49.6667 71.8269C49.5305 72.1587 49.4636 72.5144 49.4701 72.8725C49.4953 73.5935 49.797 74.278 50.314 74.7872C50.8311 75.2963 51.5246 75.592 52.2541 75.6141C52.9816 75.5873 53.6708 75.2851 54.1792 74.7699C54.6875 74.2547 54.976 73.566 54.9851 72.8464C54.9898 72.4894 54.9206 72.1352 54.7817 71.8056C54.6427 71.4761 54.437 71.1781 54.1772 70.9301C53.9174 70.6821 53.609 70.4893 53.271 70.3635C52.933 70.2378 52.5725 70.1818 52.2117 70.1989L52.2223 70.1728Z" fill="#D7CBAC"/>
<path d="M11.4479 9.41724L11.6438 6.00594C12.4324 5.97454 13.2316 5.91699 14.0043 5.91699H69.7885C70.5083 5.91699 71.2334 5.95362 71.9532 5.97454L70.7729 9.41724L62.4635 9.54805L33.6187 9.50619L11.4479 9.41724Z" fill="#D7CBAC"/>
<path d="M65.6285 89.3687C65.9672 86.533 67.5603 84.1681 68.6241 81.6096C70.7676 76.456 73.0911 71.3757 75.314 66.2535C75.4284 65.8831 75.4942 65.4998 75.5098 65.1129L84.5973 61.9736C84.4754 62.5448 84.3163 63.1075 84.1209 63.6584C81.4746 69.7433 78.7701 75.8072 76.182 81.913C75.1976 84.2256 73.758 86.3917 73.5357 88.9868C70.9211 89.1699 68.2748 89.6408 65.6285 89.3687Z" fill="#D7CBAC"/>
<path d="M73.5304 88.9815C73.7527 86.3655 75.1922 84.2203 76.1767 81.9078C78.7701 75.8019 81.4693 69.738 84.1156 63.6531C84.3109 63.1022 84.4701 62.5395 84.5919 61.9683L90.5038 58.8291C90.1122 61.3719 88.7308 63.538 87.7569 65.8558C84.8301 72.7935 81.7604 79.6684 78.7277 86.5591C78.399 87.2074 78.2407 87.9271 78.2673 88.6519C76.6848 88.5891 75.1552 89.2013 73.5304 88.9815Z" fill="#D7CBAC"/>
<path d="M70.7729 9.41731L71.9796 5.97461L87.3865 6.03739C87.5399 7.2617 86.7672 8.27672 86.6084 9.43301L79.4793 9.56904L70.7729 9.41731Z" fill="#D7CBAC"/>
<path d="M86.582 9.41801C86.7408 8.26172 87.5135 7.2467 87.36 6.0224L93.563 5.96484C94.0008 7.08847 94.1517 8.30148 94.0022 9.49649L86.582 9.41801Z" fill="#D7CBAC"/>
<path d="M88.916 87.0718C90.742 86.1196 91.1072 84.2779 91.7158 82.5827C91.9805 81.8607 92.2451 81.1439 92.5203 80.4219C93.9387 82.206 93.1819 84.2256 93.1396 86.1771C93.0962 86.6205 93.0166 87.0597 92.9014 87.4904L88.916 87.0718Z" fill="#F3F3F4"/>
<path d="M90.5038 58.8035L84.5919 61.9428L75.5045 65.082L63.6543 67.0702C59.5821 67.4189 55.4939 67.5534 51.4072 67.4731C42.2616 67.5515 33.3012 66.4737 24.563 63.6275C18.9105 61.812 14.0784 58.725 9.61668 54.937C9.61668 54.1627 9.59022 53.3674 9.57434 52.6035C15.6291 58.5367 23.007 62.0212 31.1841 63.9205C39.3612 65.8197 47.7553 66.1232 56.1494 65.9034C59.4597 65.9127 62.765 65.6485 66.0307 65.1134L72.7524 63.9309C77.5475 62.7328 82.3479 61.5399 86.6137 58.8925C90.0592 57.4275 92.7955 54.9632 95.6112 52.614C95.5794 53.3622 95.5424 54.1103 95.5106 54.8585L90.5038 58.8035Z" fill="#FCF8ED"/>
<path d="M56.1494 65.9245C47.7553 66.1442 39.393 65.8617 31.1841 63.9415C22.9753 62.0214 15.6291 58.5577 9.57434 52.6246C9.57434 51.7037 9.57434 50.7776 9.57434 49.8516L63.2574 49.8882C63.1304 51.2538 61.6696 51.6776 61.2039 52.8966C60.2777 55.3976 58.9704 57.7624 58.0653 60.2634C57.4038 62.1103 55.8742 63.7113 56.1494 65.9245Z" fill="#D7CBAC"/>
<path d="M11.4479 9.41797L33.6187 9.49645V14.1268C31.5811 14.1268 29.5434 14.1844 27.5058 14.1635C26.6325 14.1635 26.172 14.3727 26.1614 15.3564C26.0979 21.9435 26.1614 28.5359 25.738 35.1126C25.6692 36.1591 26.0979 36.4939 27.1141 36.473C28.8871 36.4259 30.6654 36.473 32.4385 36.473V41.7051C24.9494 42.0504 17.4657 41.4539 9.97659 41.5847C10.2942 33.768 10.5482 25.9461 10.9769 18.1346C11.1145 15.2674 10.8393 12.3165 11.4479 9.41797Z" fill="#AEA180"/>
<path d="M9.95541 41.6314C17.4445 41.5006 24.9282 42.0971 32.4173 41.7517C33.1953 41.8093 33.9733 41.9087 34.7566 41.9087C43.0696 41.9575 51.386 41.9924 59.706 42.0133C59.6944 42.8602 59.4649 43.6903 59.0392 44.4253C58.2347 45.9949 57.4514 47.5646 57.7372 49.4063L9.57434 49.4429L9.95541 41.6314Z" fill="#D7CBAC"/>
<path d="M9.59022 49.4429L57.7531 49.4062H94.8543V49.8928H89.3553C87.9154 50.3335 86.3917 50.4374 84.9042 50.1963C82.5649 49.783 80.2361 49.8771 77.8968 49.8981H71.9638H63.268L9.58493 49.8248C9.58493 49.7045 9.58493 49.5737 9.59022 49.4429Z" fill="#D7CBAC"/>
<path d="M86.582 9.41797L93.9916 9.49645C94.5738 20.3059 95.0131 31.1258 95.2248 41.9353L91.7105 42.0242C90.1227 42.0242 88.535 41.9771 86.9842 41.9667C86.455 41.9667 85.9257 41.9143 85.7934 42.6573C85.1847 45.6553 83.2 46.8429 80.252 46.7645C79.3576 46.5238 78.3837 46.4244 77.8703 45.4826C78.5742 45.2995 79.1247 45.7704 79.7439 45.943C80.7556 46.2321 81.84 46.1381 82.7853 45.6793C83.7307 45.2205 84.4691 44.43 84.8566 43.462C85.2441 42.4939 85.2527 41.4179 84.8808 40.4439C84.5089 39.4699 83.7833 38.6679 82.8454 38.1943C81.0089 37.2578 79.4264 37.8595 77.8809 38.8588C78.4102 36.9648 80.125 35.369 79.4687 33.1402C80.9771 33.1035 82.4908 33.0303 83.9992 33.0408C84.9466 33.0408 85.4705 32.8158 85.4599 31.738C85.4247 27.4895 85.4247 23.2446 85.4599 19.0031C85.4599 17.9253 84.9677 17.6794 84.0151 17.7003C82.5014 17.7317 80.9877 17.7003 79.474 17.6637V9.5697L86.582 9.41797Z" fill="#AEA180"/>
<path d="M91.4847 41.9927L95.2891 41.9014C95.7225 45.5286 95.8585 49.1816 95.6959 52.8284C92.6478 55.2405 89.6856 57.7708 85.9556 59.275C85.0733 58.4262 85.5775 57.5881 85.9556 56.7393C86.9526 54.5045 87.9324 49.1984 88.9236 46.9582L94.8537 47.9801V49.5245H88.4939C88.4453 48.7974 88.6077 48.0715 88.9637 47.424C89.8346 45.6243 90.6482 43.8031 91.4847 41.9927Z" fill="#D7CBAC"/>
<path d="M52.2117 70.1989C52.5739 70.183 52.9354 70.2409 53.274 70.3688C53.6126 70.4968 53.921 70.6922 54.18 70.9429C54.4391 71.1936 54.6433 71.4942 54.7799 71.8261C54.9166 72.1581 54.9828 72.5142 54.9745 72.8724C54.9655 73.5921 54.6769 74.2808 54.1686 74.7959C53.6602 75.3111 52.971 75.6134 52.2435 75.6402C51.514 75.6181 50.8205 75.3224 50.3035 74.8133C49.7864 74.3041 49.4847 73.6196 49.4595 72.8986C49.453 72.5405 49.5199 72.1848 49.6561 71.853C49.7924 71.5211 49.9952 71.22 50.2524 70.9677C50.5096 70.7154 50.8157 70.5172 51.1525 70.3851C51.4892 70.253 51.8495 70.1896 52.2117 70.1989Z" fill="#FEFEFE"/>
<path d="M50.9256 81.2858C49.6924 80.6423 50.0417 79.6063 50.5392 78.8372C51.2485 77.749 52.3493 77.7646 53.429 78.4134L53.3337 78.5285C51.005 78.5913 50.534 79.1355 51.0738 81.1446L50.9256 81.2858Z" fill="#D7CBAC"/>
<path d="M53.826 78.7998C54.6569 79.6212 54.6463 80.4374 53.826 81.2536L53.7095 81.1333C53.7095 80.3904 53.7095 79.6474 53.7095 78.9044L53.826 78.7998Z" fill="#D7CBAC"/>
<path d="M53.0638 81.6834C52.2435 82.1229 51.476 82.3741 50.9468 81.2806L51.095 81.1445C51.7142 81.2701 52.2805 81.6991 52.9633 81.5317L53.0638 81.6834Z" fill="#D7CBAC"/>
<path d="M53.8207 81.2541L53.0638 81.6831L52.9421 81.5314L53.7042 81.1338L53.8207 81.2541Z" fill="#D7CBAC"/>
<path d="M53.4555 78.4131L53.8524 78.8003L53.736 78.9049L53.3602 78.5282L53.4555 78.4131Z" fill="#D7CBAC"/>
<path d="M79.4528 9.56935C79.4528 12.2586 79.4528 14.9479 79.4528 17.6372C78.8662 17.6815 78.277 17.6815 77.6904 17.6372C75.9862 17.3913 75.3881 17.993 75.4781 19.7614C75.6316 22.7385 75.5204 25.7364 75.5204 28.724C75.5204 32.784 75.5204 32.784 79.4475 33.0875C80.1197 35.3164 78.4314 36.9121 77.8598 38.8114L76.6742 40.81C75.8856 40.8623 75.9068 41.4326 75.9068 41.9925L71.5668 42.0343L62.4529 41.8564C62.4529 40.0671 62.4529 38.2777 62.4529 36.4883C63.5115 36.5354 63.6491 35.8919 63.7232 34.992C64.3001 28.4362 63.8131 21.8647 63.9984 15.3089C64.0407 14.1265 63.2521 14.1736 62.4529 14.1265C62.4529 12.6039 62.4529 11.0762 62.4529 9.55365L70.7624 9.42285L79.4528 9.56935Z" fill="#AEA180"/>
<path d="M62.4529 9.54283C62.4529 11.0654 62.4529 12.5931 62.4529 14.1157H33.6187V9.50098L62.4529 9.54283Z" fill="#AEA180"/>
<path d="M63.268 49.8613H71.9796C71.2916 52.289 69.9367 54.4446 69.0793 56.799C68.0684 59.5668 66.1366 62.0311 66.0466 65.1023C62.7765 65.6488 59.4659 65.9236 56.1494 65.9238C55.8742 63.7368 57.4038 62.1358 58.0759 60.2627C58.981 57.7617 60.2882 55.3969 61.2144 52.8959C61.6696 51.6507 63.141 51.2269 63.268 49.8613Z" fill="#D7CBAC"/>
<path d="M89.3553 49.8777C88.4397 52.0594 87.5347 54.2412 86.6137 56.4177C86.2644 57.2444 85.7987 58.0606 86.6137 58.8873C82.3479 61.5347 77.5475 62.7276 72.7524 63.9258C72.9588 61.2103 74.5942 59.0181 75.4887 56.559C76.2984 54.3354 77.7962 52.3734 77.8968 49.8829C80.2361 49.8829 82.5649 49.7678 84.9042 50.1811C86.3917 50.4222 87.9155 50.3183 89.3553 49.8777Z" fill="#D7CBAC"/>
<path d="M77.8968 49.8829C77.7962 52.3577 76.309 54.3354 75.4886 56.559C74.5942 59.0181 72.9588 61.2103 72.7524 63.9258L66.0307 65.1082C66.1207 62.0108 68.0525 59.5727 69.0634 56.8049C69.9208 54.4505 71.2757 52.2949 71.9638 49.8672L77.8968 49.8829Z" fill="#D7CBAC"/>
<path d="M33.6187 14.127H62.4529C63.2362 14.1845 64.0407 14.127 64.0037 15.3356C63.8184 21.8913 64.3053 28.4628 63.7284 35.0186C63.6543 35.9185 63.5379 36.5882 62.4582 36.515H32.4226C30.6496 36.515 28.8712 36.4417 27.0982 36.515C26.082 36.515 25.6533 36.1853 25.7221 35.1546C26.1667 28.5779 26.082 21.9855 26.1455 15.3983C26.1455 14.4147 26.6166 14.2002 27.4899 14.2054C29.5434 14.1793 31.5811 14.127 33.6187 14.127ZM55.4402 31.0213C53.9159 30.969 53.0532 31.398 53.0109 32.7217C52.9685 33.8937 53.6248 34.4954 54.8051 34.5425C55.9853 34.5896 56.8692 34.1605 56.9221 32.8421C56.9645 31.6544 56.2817 31.0788 55.4402 31.0161V31.0213ZM60.4047 34.532C61.6537 34.532 62.4159 34.0402 62.4529 32.8421C62.49 31.5497 61.7437 30.9899 60.4841 30.9899C59.3303 30.9899 58.584 31.5131 58.5417 32.6746C58.4993 34.0088 59.2773 34.532 60.4047 34.532ZM43.9976 34.532C45.0243 34.532 45.8023 34.0559 45.8394 32.8525C45.887 31.5654 45.1513 30.9899 43.8864 30.9847C42.7379 30.9847 41.9811 31.4608 41.9334 32.6589C41.8911 33.9722 42.6532 34.532 44.0081 34.532H43.9976ZM60.3359 29.4517C61.6802 29.4517 62.4794 28.9285 62.4529 27.6362C62.4529 26.4485 61.712 25.9253 60.5529 25.9096C59.3038 25.9096 58.5258 26.4328 58.5417 27.7199C58.5523 28.918 59.2773 29.4255 60.3359 29.4517ZM55.0856 29.4517C56.1124 29.4517 56.938 28.9599 56.9274 27.6414C56.9274 26.4589 56.2076 25.92 55.0432 25.8991C53.8789 25.8782 53.0109 26.3909 53.0109 27.6937C53.0109 28.8971 53.7413 29.4203 55.0803 29.4621L55.0856 29.4517ZM43.7753 29.4517C45.0614 29.4517 45.8235 28.9599 45.8553 27.7617C45.8976 26.4694 45.146 25.9096 43.8917 25.9096C42.7379 25.9096 41.9916 26.4014 41.9493 27.5943C41.9017 28.8918 42.6691 29.4412 43.77 29.4517H43.7753ZM60.2353 20.7978C59.3144 20.7978 58.5099 21.321 58.547 22.6395C58.5787 23.8324 59.3091 24.3399 60.4682 24.3504C61.7172 24.3504 62.4794 23.8272 62.4582 22.5192C62.4529 21.321 61.6802 20.824 60.23 20.7978H60.2353ZM55.4402 20.7978C53.9212 20.7403 53.0585 21.1745 53.0162 22.493C52.9738 23.665 53.6301 24.2667 54.8104 24.319C55.9906 24.3713 56.8745 23.9318 56.9274 22.6134C56.9645 21.4518 56.2817 20.8816 55.4349 20.824L55.4402 20.7978ZM43.7329 24.3556C45.0772 24.3556 45.8764 23.8324 45.85 22.5349C45.85 21.3472 45.109 20.824 43.9499 20.8135C42.7009 20.8135 41.9228 21.3367 41.9387 22.6238C41.9546 23.8167 42.6956 24.3295 43.7329 24.3556ZM60.3359 19.2544C61.6802 19.2544 62.4794 18.7312 62.4529 17.4389C62.4529 16.2512 61.712 15.728 60.5529 15.7175C59.3038 15.7175 58.5258 16.2407 58.5417 17.5278C58.5523 18.7207 59.2773 19.2282 60.3359 19.2544ZM54.5987 19.2544C56.0965 19.2805 56.9221 18.7992 56.9274 17.4859C56.9274 16.3087 56.2394 15.7489 55.0697 15.7227C53.9 15.6966 53.0268 16.1832 53.0109 17.4859C52.9831 17.7073 53.0033 17.9319 53.0702 18.1449C53.1371 18.358 53.2491 18.5544 53.3988 18.7213C53.5486 18.8881 53.7326 19.0215 53.9385 19.1125C54.1445 19.2035 54.3678 19.2501 54.5934 19.2491L54.5987 19.2544ZM43.7753 19.2544C45.0614 19.2544 45.8235 18.7312 45.8553 17.5592C45.8923 16.2721 45.1408 15.6966 43.8864 15.6966C42.7326 15.6966 41.9864 16.1936 41.944 17.3865C41.9017 18.6998 42.6691 19.2491 43.77 19.2596L43.7753 19.2544ZM49.2478 34.5634C50.6821 34.5059 51.4072 33.967 51.3649 32.7688C51.3649 31.4503 50.5286 30.9951 49.2955 31.0004C49.0473 30.9798 48.7977 31.0153 48.5655 31.1043C48.3333 31.1932 48.1246 31.3333 47.9553 31.5137C47.786 31.6942 47.6604 31.9105 47.5882 32.1461C47.5159 32.3816 47.4989 32.6304 47.5383 32.8735C47.6336 33.9199 48.2581 34.6942 49.2478 34.5634ZM49.2478 29.4517C50.5763 29.4517 51.3649 28.9599 51.3649 27.7513C51.4019 26.4485 50.6398 25.9357 49.3801 25.9043C49.1329 25.8725 48.8817 25.8968 48.6454 25.9753C48.4091 26.0538 48.194 26.1845 48.0164 26.3575C47.8389 26.5305 47.7036 26.7412 47.6207 26.9737C47.5379 27.2061 47.5097 27.4541 47.5383 27.6989C47.5701 28.7244 48.1628 29.5616 49.2637 29.4517H49.2478ZM49.2214 24.3504C50.6186 24.3504 51.4178 23.8534 51.3966 22.5349C51.3966 21.3367 50.6504 20.8606 49.4913 20.8031C49.2451 20.7641 48.9931 20.7804 48.7541 20.8508C48.5151 20.9212 48.2952 21.0438 48.1107 21.2097C47.9262 21.3755 47.7818 21.5802 47.6882 21.8087C47.5946 22.0372 47.5542 22.2836 47.5701 22.5297C47.533 23.5447 48.0887 24.4027 49.2214 24.3504ZM49.5178 19.2596C50.6186 19.1968 51.3966 18.7364 51.4019 17.5173C51.4019 16.2041 50.6186 15.7227 49.3696 15.707C49.1219 15.6819 48.8716 15.7126 48.6377 15.7969C48.4038 15.8811 48.1922 16.0168 48.019 16.1936C47.8457 16.3704 47.7153 16.5837 47.6376 16.8175C47.5598 17.0514 47.5367 17.2996 47.5701 17.5435C47.5512 17.7913 47.5902 18.04 47.684 18.2706C47.7778 18.5011 47.924 18.7072 48.1112 18.8731C48.2984 19.0389 48.5216 19.16 48.7636 19.227C49.0057 19.2941 49.2601 19.3052 49.5072 19.2596H49.5178Z" fill="#F9F6EF"/>
<path d="M32.4385 36.4941H62.4741C62.4741 38.2835 62.4741 40.0729 62.4741 41.8622L59.7166 42.0035C51.4002 41.9721 43.0837 41.9372 34.7672 41.8989C33.9839 41.8989 33.1794 41.7995 32.4279 41.7419C32.4226 39.9996 32.4332 38.2469 32.4385 36.4941Z" fill="#AEA180"/>
<path d="M58.8985 42.0718L61.952 41.9014L72.0715 42.0775C72.148 42.89 71.6361 43.5206 71.389 44.2308C70.7124 46.1682 69.2063 47.8557 69.4357 50.0772H56.7099C56.3628 48.0659 57.263 46.3842 58.1572 44.6683C58.6266 43.8768 58.8816 42.9838 58.8985 42.0718Z" fill="#D7CBAC"/>
<path d="M69.1957 49.4008C68.9893 47.3551 70.3442 45.8011 70.9529 44.017C71.1752 43.363 71.6356 42.7822 71.5668 42.034L75.9068 41.9922C76.129 43.1956 76.2296 44.4565 77.4945 45.1314L77.9074 45.5395C78.4366 46.4813 79.3946 46.5859 80.289 46.8214C80.1567 47.6899 80.0244 48.5532 79.8974 49.4374L69.1957 49.4008Z" fill="#D7CBAC"/>
<path d="M78.2574 50.0772C78.4009 49.1195 78.5504 48.1676 78.6998 47.1926C82.0299 47.2964 84.2719 45.9695 84.9594 42.6638C85.1269 41.8446 85.7187 41.9022 86.3046 41.9022C88.0982 41.9022 89.8619 41.9426 91.6436 41.9657C90.7707 43.9099 89.9217 45.8657 89.013 47.7984C88.6415 48.4938 88.4721 49.2733 88.5227 50.0541L78.2574 50.0772Z" fill="#D7CBAC"/>
<path d="M79.4528 33.1142C75.5257 32.8107 75.5257 32.8107 75.5257 28.7507C75.5257 25.7631 75.6368 22.7652 75.4834 19.7881C75.3934 18.0197 76.0126 17.418 77.6957 17.6639C78.2823 17.7082 78.8715 17.7082 79.4581 17.6639C80.9718 17.6639 82.4855 17.7319 83.9992 17.7005C84.9519 17.7005 85.4547 17.9255 85.4441 19.0033C85.4088 23.2483 85.4088 27.4932 85.4441 31.7382C85.4441 32.816 84.9148 33.0514 83.9833 33.0409C82.4749 33.0043 80.9771 33.0776 79.4528 33.1142Z" fill="#F9F6EF"/>
<path d="M53.3337 78.5283L53.7095 78.905C53.7095 79.648 53.7095 80.3909 53.7095 81.1339L52.9474 81.5315C52.2646 81.699 51.6983 81.2699 51.0791 81.1444C50.5339 79.1352 51.005 78.5911 53.3337 78.5283Z" fill="#D7CBAC"/>
<path d="M76.6742 40.8105C76.346 42.3802 77.3199 43.6777 77.4945 45.1427C76.2296 44.4573 76.1291 43.1964 75.9068 42.0035C75.9068 41.4332 75.8856 40.8629 76.6742 40.8105Z" fill="#495663"/>
<path d="M55.4402 31.0159C56.2817 31.0787 56.9645 31.6542 56.9221 32.8367C56.8692 34.1552 56.0171 34.5894 54.8051 34.5371C53.5931 34.4848 52.9686 33.8883 53.0109 32.7163C53.0532 31.3926 53.9159 30.9636 55.4402 31.0159Z" fill="#D7CBAC"/>
<path d="M60.4047 34.5314C59.2668 34.5314 58.4993 33.9768 58.5417 32.674C58.584 31.4863 59.3303 30.9893 60.4841 30.9893C61.7437 30.9893 62.49 31.5491 62.4529 32.8414C62.4159 34.0552 61.6537 34.5314 60.4047 34.5314Z" fill="#D7CBAC"/>
<path d="M44.0081 34.5317C42.6532 34.5317 41.8911 33.951 41.944 32.6586C41.9917 31.4605 42.7485 30.9844 43.897 30.9844C45.1619 30.9844 45.8976 31.5651 45.85 32.8522C45.8129 34.0765 45.0349 34.5317 44.0081 34.5317Z" fill="#D7CBAC"/>
<path d="M60.3359 29.4516C59.2773 29.4516 58.5576 28.9284 58.547 27.7198C58.547 26.4223 59.3091 25.8938 60.5582 25.9095C61.7172 25.9095 62.437 26.4327 62.4582 27.6361C62.4529 28.9389 61.6749 29.4569 60.3359 29.4516Z" fill="#D7CBAC"/>
<path d="M55.0803 29.4614C53.7413 29.4195 53.0109 28.8963 53.0056 27.7034C53.0056 26.4006 53.7942 25.8879 55.0379 25.9088C56.2817 25.9297 56.9115 26.4686 56.9221 27.6511C56.9327 28.9696 56.1018 29.4457 55.0803 29.4614Z" fill="#D7CBAC"/>
<path d="M43.77 29.4513C42.6691 29.4513 41.9017 28.8915 41.944 27.5939C41.9864 26.401 42.7326 25.9092 43.8864 25.9092C45.1408 25.9092 45.8923 26.469 45.85 27.7613C45.8182 28.9595 45.0561 29.4461 43.77 29.4513Z" fill="#D7CBAC"/>
<path d="M60.23 20.7979C61.6802 20.7979 62.4317 21.3211 62.4529 22.5192C62.4529 23.8168 61.7119 24.3557 60.4629 24.3504C59.3038 24.3504 58.5734 23.8272 58.5417 22.6395C58.5046 21.3315 59.3091 20.824 60.23 20.7979Z" fill="#D7CBAC"/>
<path d="M55.4349 20.8233C56.2817 20.8809 56.9645 21.4564 56.9221 22.6389C56.8692 23.9573 56.0171 24.3968 54.8051 24.3445C53.5931 24.2922 52.9686 23.6905 53.0109 22.5185C53.0532 21.2 53.9159 20.7658 55.4349 20.8233Z" fill="#D7CBAC"/>
<path d="M43.7329 24.3549C42.6744 24.3549 41.9546 23.8317 41.944 22.6231C41.944 21.3256 42.7062 20.7971 43.9552 20.8128C45.1143 20.8128 45.8341 21.336 45.8553 22.5342C45.8764 23.8422 45.0773 24.3602 43.7329 24.3549Z" fill="#D7CBAC"/>
<path d="M60.3359 19.254C59.2773 19.254 58.5576 18.7308 58.547 17.5274C58.547 16.2246 59.3091 15.7014 60.5582 15.7171C61.7172 15.7171 62.437 16.2403 62.4582 17.4385C62.4529 18.7465 61.6749 19.2592 60.3359 19.254Z" fill="#D7CBAC"/>
<path d="M54.5934 19.2489C54.3668 19.2507 54.1425 19.2045 53.9354 19.1135C53.7284 19.0225 53.5435 18.8888 53.3931 18.7212C53.2427 18.5537 53.1303 18.3563 53.0634 18.1423C52.9966 17.9283 52.9769 17.7026 53.0056 17.4804C53.0056 16.1776 53.8259 15.6858 55.0644 15.7172C56.3029 15.7486 56.9274 16.3032 56.9221 17.4804C56.9168 18.7937 56.1018 19.275 54.5934 19.2489Z" fill="#D7CBAC"/>
<path d="M43.77 19.2593C42.6691 19.2593 41.9017 18.6995 41.944 17.4019C41.9864 16.2195 42.7326 15.6963 43.8864 15.6963C45.1408 15.6963 45.8923 16.2561 45.85 17.5484C45.8182 18.7623 45.0561 19.2489 43.77 19.2593Z" fill="#D7CBAC"/>
<path d="M49.2478 34.5629C48.2581 34.6937 47.6177 33.9193 47.5648 32.8729C47.5254 32.6298 47.5424 32.3811 47.6147 32.1455C47.6869 31.9099 47.8125 31.6937 47.9818 31.5132C48.1511 31.3327 48.3598 31.1927 48.592 31.1037C48.8242 31.0148 49.0738 30.9792 49.3219 30.9998C50.5551 30.9998 51.3755 31.4498 51.3914 32.7683C51.4072 33.9664 50.6821 34.5315 49.2478 34.5629Z" fill="#D7CBAC"/>
<path d="M49.2637 29.4516C48.1576 29.5614 47.5701 28.7243 47.5595 27.6988C47.5309 27.454 47.5591 27.206 47.6419 26.9735C47.7247 26.7411 47.8601 26.5304 48.0376 26.3574C48.2152 26.1844 48.4303 26.0537 48.6665 25.9752C48.9028 25.8966 49.1541 25.8724 49.4013 25.9042C50.661 25.9356 51.4231 26.4274 51.3861 27.7511C51.3384 28.9597 50.5922 29.4411 49.2637 29.4516Z" fill="#D7CBAC"/>
<path d="M49.2214 24.3502C48.0993 24.4025 47.5436 23.555 47.5701 22.5295C47.5542 22.2834 47.5946 22.0371 47.6882 21.8086C47.7818 21.5801 47.9262 21.3753 48.1107 21.2095C48.2952 21.0436 48.5151 20.921 48.7541 20.8506C48.9931 20.7802 49.2451 20.7639 49.4913 20.8029C50.6504 20.8604 51.3808 21.3261 51.3966 22.5347C51.4072 23.8532 50.608 24.3607 49.2214 24.3502Z" fill="#D7CBAC"/>
<path d="M49.5072 19.2592C49.2593 19.3066 49.0037 19.2969 48.7603 19.2307C48.5169 19.1645 48.2922 19.0437 48.1037 18.8776C47.9153 18.7116 47.7681 18.5048 47.6737 18.2733C47.5793 18.0418 47.5402 17.7919 47.5595 17.5431C47.5244 17.2984 47.5461 17.049 47.6231 16.8138C47.7001 16.5786 47.8302 16.3639 48.0037 16.1859C48.1771 16.0078 48.3893 15.8712 48.6241 15.7864C48.859 15.7015 49.1103 15.6707 49.359 15.6962C50.608 15.6962 51.3913 16.1932 51.3913 17.5065C51.386 18.7308 50.608 19.1964 49.5072 19.2592Z" fill="#D7CBAC"/>
<path d="M77.4787 45.1217C77.5347 45.1139 77.5919 45.119 77.6456 45.1368C77.6993 45.1545 77.7481 45.1843 77.7881 45.2239C77.8282 45.2635 77.8584 45.3117 77.8763 45.3648C77.8942 45.4179 77.8994 45.4744 77.8915 45.5298L77.4787 45.1217Z" fill="#495663"/>
<ellipse cx="80.8317" cy="41.3904" rx="5.66337" ry="5.62088" fill="#FCF7EC"/>
</g>
<defs>
<clipPath id="clip0_484_13032">
<rect width="104" height="93" fill="white"/>
</clipPath>
</defs>
</svg>
