<?xml version="1.0" encoding="utf-8"?>
<!-- Generator: Adobe Illustrator 26.2.1, SVG Export Plug-In . SVG Version: 6.00 Build 0)  -->
<svg version="1.1" id="Layer_1" xmlns="http://www.w3.org/2000/svg" xmlns:xlink="http://www.w3.org/1999/xlink" x="0px" y="0px"
	 viewBox="0 0 130 95.8" style="enable-background:new 0 0 130 95.8;" xml:space="preserve">
<style type="text/css">
	.st0{fill-rule:evenodd;clip-rule:evenodd;fill:#CCCCCC;fill-opacity:0.2;}
	.st1{fill:#D7CBAC;}
</style>
<path class="st0" d="M33.9,70.6c2.7-1.5,5.2-3.4,7.5-5.4c9.2-7.8,13.4-6.5,24.3-5.8c2.1,0.1,5.9,0.4,6.5,1.8
	c0.1,0.3,0.2,0.6,0.1,0.9c-0.1,0.4-0.2,0.8-0.4,1.1c-0.7,1.1-2.2,1.9-4.3,1.9l-11.6-0.3c-0.3,0-0.7,0.1-0.9,0.3
	c-0.3,0.2-0.4,0.5-0.5,0.8c0,0.3,0,0.7,0.2,0.9c0.2,0.3,0.5,0.5,0.8,0.5l15.7,4.2c5.2,1.5,12.7,1.6,14.5,0.9l16.9-7l0.3-0.1
	c2.2-0.9,4.3-0.8,5.6-0.1c0.3,0.1,0.6,0.4,0.8,0.7c0.1,0.2,0.2,0.3,0.1,0.5c-0.1,0.5-0.6,1.2-1.7,1.9l-14.7,8.9
	c-0.6,0.4-5.2,2.1-9.9,3.7c-3.6,1.2-7.3,2.4-9.3,2.9c-1.9,0.1-5.5,0.2-9.4,0.4c-7.7,0.3-16.8,0.7-18,0.7c-0.8,0-2,0.3-3.3,0.7
	c-0.9,0.3-2,0.6-3,1L33.9,70.6z"/>
<path class="st0" d="M29.4,68.6l-7.2,3.3c-0.6,0.3-0.4,0.7-0.2,1.2l8.5,21.1c0.2,0.3,0.4,0.6,0.8,0.5l7.5-3.4
	c0.2-0.1,0.3-0.2,0.4-0.4c0.1-0.1,0.1-0.3,0-0.4l-0.5-1.3c-2.5-6.2-5-12.4-7.5-18.6L30.4,69C30.1,68.4,29.9,68.4,29.4,68.6
	L29.4,68.6z"/>
<path class="st0" d="M50.1,46.3c2.1-2.1,3.6-5,4.3-8.3H28.5c0.7,3.3,2.2,6.2,4.3,8.3c2.3,2.4,5.4,3.8,8.7,3.8
	C44.7,50.1,47.8,48.7,50.1,46.3L50.1,46.3z M47.5,23.4l-6.1-11.7L29.1,35.3h24.6L47.5,23.4z M96.9,46.3c2.1-2.1,3.6-5,4.3-8.3H75.3
	c0.7,3.3,2.2,6.2,4.3,8.3c2.3,2.4,5.4,3.8,8.7,3.8S94.6,48.7,96.9,46.3L96.9,46.3z M94.3,23.4l-6.1-11.7L75.9,35.4h24.6L94.3,23.4z
	 M72.6,5.4c0,0.3,0.1,0.6,0.1,0.9c0,0.3,0,0.5,0,0.8h19.3c0.8,0,1.7-0.3,2.3-0.9c0.2-0.2,0.4-0.5,0.6-0.8L72.6,5.4L72.6,5.4z
	 M57.1,7c0-0.3,0-0.5,0-0.8c0-0.3,0-0.6,0.1-0.9H34.9c0.2,0.3,0.4,0.5,0.6,0.8C36.2,6.7,37,7,37.8,7L57.1,7L57.1,7z M63.9,56.3
	c0.6,0.1,1.2,0.1,1.8,0.2V12.4c0-0.3,0.1-0.5,0.2-0.8c0.2-0.2,0.4-0.4,0.6-0.5c1-0.4,1.8-1,2.4-1.9c0.3-0.4,0.5-0.8,0.6-1.2
	c0,0,0-0.1,0-0.1C69.9,7.4,70,6.8,70,6.3c0-0.8-0.2-1.5-0.5-2.2c-0.3-0.7-0.8-1.3-1.3-1.8c-0.6-0.5-1.2-0.8-2-1.1
	C65.5,1.1,64.7,1,64,1.1c-0.7,0.1-1.4,0.4-2.1,0.8c-0.6,0.4-1.1,1-1.5,1.6c-0.4,0.6-0.6,1.4-0.7,2.1c-0.1,0.7,0,1.5,0.2,2.2
	c0,0,0,0.1,0,0.1c0.2,0.7,0.6,1.4,1.2,1.9c0.5,0.5,1.2,1,1.9,1.2c0.3,0.1,0.5,0.3,0.6,0.5c0.2,0.2,0.2,0.5,0.2,0.8L63.9,56.3
	L63.9,56.3z"/>
<path class="st1" d="M43.4,81.1V11.3h47.5v13.5H58.6v14.3h27.7v13.4H58.6v15.1h32.3v13.5H43.4z"/>
</svg>
