<svg width="133" height="97" viewBox="0 0 133 97" fill="none" xmlns="http://www.w3.org/2000/svg">
<g clip-path="url(#clip0_505_4172)">
<path d="M80.466 37.9167C74.2564 35.6419 67.5554 35.0161 61.0269 36.1011C59.163 36.4604 57.3435 37.0177 55.5999 37.7632C50.3205 40.1295 45.8983 44.0427 42.9284 48.9766C38.1717 57.0189 35.7483 66.6596 38.971 75.6481C39.8202 78.0941 40.9719 80.4262 42.3999 82.5909C46.157 87.9541 51.485 92.0426 57.6624 94.3029C59.3432 94.9492 61.0659 95.4831 62.8187 95.9011C67.6348 96.9761 72.6257 97.0295 77.4641 96.0578C82.3025 95.0861 86.8793 93.1112 90.8945 90.2625C93.021 88.7181 94.9705 86.9473 96.7082 84.9819C99.9345 81.215 102.012 76.6142 102.697 71.7183C103.382 66.8225 102.646 61.8345 100.575 57.3386C97.8569 50.9591 93.3913 45.4624 87.6847 41.4712C86.0662 40.3809 84.3382 39.4597 82.5285 38.7222C81.9097 38.4281 81.1878 38.1596 80.466 37.9167Z" fill="#C5B68F" fill-opacity="0.6"/>
<path d="M70.4499 97.0002C67.8457 97.0089 65.2496 96.7128 62.7155 96.118C60.9323 95.6981 59.1795 95.1598 57.469 94.507C51.2543 92.2306 45.8979 88.1098 42.1291 82.7055C40.7111 80.5298 39.5681 78.1895 38.726 75.7372C35.8127 67.5925 37.2436 58.0414 42.7092 48.8482C45.6899 43.8606 50.1516 39.9085 55.4838 37.5326C57.2476 36.7754 59.0888 36.2096 60.9752 35.8449C62.9764 35.4663 65.0095 35.2779 67.0467 35.2823C71.6515 35.3283 76.2166 36.132 80.5561 37.6605C81.2651 37.9162 81.987 38.1847 82.696 38.466C84.5082 39.2088 86.2364 40.1388 87.8522 41.2406C93.5653 45.274 98.0297 50.8092 100.743 57.2231C102.861 61.7564 103.623 66.7977 102.937 71.7478C102.252 76.6979 100.148 81.3487 96.8757 85.1476C95.1266 87.1235 93.164 88.9028 91.0233 90.4538C85.0249 94.7171 77.8293 97.0067 70.4499 97.0002ZM67.0467 35.8065C65.044 35.7977 63.0452 35.9819 61.0784 36.3563C59.2318 36.7122 57.4295 37.2652 55.703 38.0057C50.4665 40.3372 46.0854 44.2183 43.1604 49.1167C37.7592 58.182 36.3541 67.5669 39.2158 75.5582C40.0474 77.9672 41.1683 80.2682 42.5545 82.4114C46.2719 87.7362 51.5576 91.7911 57.6881 94.0211C59.3687 94.6649 61.0914 95.1946 62.8444 95.6066C65.3325 96.1888 67.8806 96.4806 70.437 96.476C77.7084 96.5054 84.8055 94.2692 90.7269 90.083C92.8578 88.5441 94.8079 86.7728 96.5406 84.8024C99.7619 81.0867 101.839 76.5311 102.525 71.678C103.21 66.8248 102.475 61.8784 100.408 57.4276C97.7062 51.0951 93.2723 45.6386 87.6073 41.6753C85.9919 40.5869 84.2632 39.6738 82.4511 38.9519C81.755 38.6706 81.0331 38.4021 80.337 38.1591C76.0683 36.6522 71.5774 35.8573 67.0467 35.8065Z" fill="#C5B68F" fill-opacity="0.6"/>
<path d="M79.7827 39.1179C73.8788 36.9341 67.5014 36.3214 61.2847 37.3406C59.5118 37.6771 57.7823 38.2089 56.1284 38.9261C51.0918 41.1754 46.8749 44.9073 44.0499 49.6152C39.4995 57.2356 37.2436 66.4671 40.26 75.0337C41.0579 77.3555 42.1402 79.5713 43.4827 81.6313C47.0563 86.7531 52.1332 90.6593 58.0233 92.819C59.6525 93.435 61.324 93.9349 63.0249 94.315C68.8409 95.6401 74.9106 95.3742 80.5862 93.5457C86.2618 91.7173 91.3305 88.3948 95.2515 83.9328C98.3304 80.3412 100.314 75.9537 100.969 71.2844C101.624 66.615 100.924 61.8571 98.9511 57.5681C96.3939 51.497 92.1741 46.2573 86.7695 42.4423C85.2285 41.4193 83.5821 40.5621 81.8581 39.8851C81.2007 39.5526 80.5175 39.2969 79.7827 39.1179Z" fill="#FEF9EB"/>
<path d="M79.396 40.8701C73.8322 38.8344 67.8281 38.279 61.9807 39.2591C60.3163 39.58 58.6913 40.0773 57.1339 40.7423C52.4035 42.8536 48.4429 46.3579 45.7901 50.7793C41.5362 57.9266 39.3448 66.5955 42.2452 74.6507C43.0006 76.8245 44.0132 78.9017 45.2616 80.8391C48.6255 85.6373 53.3958 89.2931 58.9257 91.3108C60.4404 91.8976 61.9956 92.3761 63.5792 92.7429C69.0581 94.0128 74.7824 93.7767 80.136 92.0599C85.4897 90.3432 90.27 87.2108 93.9624 82.9999C96.8344 79.6276 98.6823 75.5161 99.2916 71.1433C99.9009 66.7705 99.2464 62.3159 97.4042 58.2974C94.9914 52.5756 91.013 47.6374 85.9187 44.041C84.469 43.0684 82.9227 42.2458 81.3038 41.5861C80.6722 41.3304 80.0405 41.1003 79.396 40.8701Z" fill="#D7CBAC" fill-opacity="0.8"/>
<path d="M70.4241 94.0974C68.0765 94.1007 65.7363 93.8347 63.4503 93.3047C61.8453 92.9283 60.2689 92.4412 58.7323 91.8471C53.0901 89.7883 48.2336 86.0392 44.8362 81.1196C43.5484 79.154 42.5134 77.0364 41.7553 74.8162C39.1772 67.4514 40.3889 58.8209 45.3389 50.5228C48.0549 46.012 52.1057 42.4405 56.9405 40.294C58.5386 39.6095 60.207 39.0994 61.9163 38.7725C63.7255 38.4241 65.5648 38.2528 67.4077 38.261C71.5507 38.302 75.6583 39.0235 79.5636 40.3963C80.2081 40.6136 80.8527 40.8566 81.4972 41.1251C83.1591 41.8044 84.7412 42.6619 86.2152 43.6823C91.3559 47.3058 95.3777 52.2777 97.8296 58.0409C99.7367 62.1526 100.415 66.7205 99.7846 71.2031C99.154 75.6856 97.2408 79.8948 94.2718 83.3316C91.3139 86.7248 87.6513 89.4436 83.5352 91.3018C79.419 93.16 74.9465 94.1137 70.4241 94.0974ZM67.3819 39.2711C65.6037 39.2656 63.8293 39.4326 62.0839 39.7698C60.4539 40.083 58.8632 40.5718 57.3401 41.2274C52.7175 43.2912 48.8502 46.7207 46.267 51.047C43.4698 55.7395 39.3319 64.9326 42.7479 74.4709C43.4738 76.6091 44.4655 78.6492 45.6998 80.5443C49.0011 85.2408 53.6827 88.8129 59.1061 90.7731C60.6006 91.3483 62.1341 91.8183 63.6952 92.1795C65.8998 92.699 68.1581 92.9607 70.4241 92.9595C76.8959 92.9834 83.2107 90.9836 88.471 87.2441C90.3591 85.8928 92.0886 84.336 93.6273 82.6028C96.4623 79.3124 98.2872 75.285 98.8857 70.9976C99.4843 66.7102 98.8315 62.3425 97.0046 58.4117C94.5922 52.8059 90.6501 47.9793 85.6222 44.475C84.1953 43.5165 82.67 42.7107 81.0718 42.0712C80.4402 41.8155 79.7827 41.5854 79.1769 41.368C75.3886 40.0292 71.4032 39.3207 67.3819 39.2711Z" fill="#C5B68F" fill-opacity="0.6"/>
<g style="mix-blend-mode:multiply" opacity="0.5">
<path d="M97.4043 58.2973C94.9915 52.5755 91.013 47.6373 85.9187 44.0409C84.469 43.0683 82.9227 42.2457 81.3038 41.586C80.6722 41.3303 80.0148 41.1002 79.396 40.87C75.0711 39.334 70.4902 38.6309 65.8995 38.7987C67.0563 38.8129 68.2073 38.9631 69.3284 39.2462C69.8698 39.3868 70.3983 39.5658 70.9397 39.7576C74.4526 40.2102 77.8446 41.3302 80.93 43.0564C85.3386 45.5113 89.1542 49.0786 90.0953 54.1674C90.9327 59.7651 89.9863 65.4825 87.3882 70.5207C85.6636 74.0051 83.2449 77.1067 80.2783 79.6383C77.3117 82.1698 73.8587 84.0789 70.1276 85.2502C63.5276 87.2448 56.5667 87.0658 50.9721 82.693C43.0444 76.4918 39.6799 64.8821 43.328 55.7401C40.608 61.7041 40.222 68.4583 42.2452 74.6889C43.0006 76.8627 44.0132 78.94 45.2616 80.8774C48.6255 85.6755 53.3958 89.3314 58.9257 91.3491C60.4405 91.9358 61.9956 92.4144 63.5792 92.7811C69.0615 94.0465 74.7881 93.8044 80.142 92.0808C85.4959 90.3573 90.2743 87.2175 93.9625 82.9998C96.8344 79.6275 98.6823 75.516 99.2916 71.1432C99.9009 66.7703 99.2464 62.3158 97.4043 58.2973Z" fill="#F9F3E5"/>
</g>
<path d="M56.6569 54.3591C56.16 53.9402 55.5833 53.6246 54.9611 53.4308C54.3389 53.2371 53.6838 53.1692 53.0347 53.2312C52.3855 53.2932 51.7555 53.4839 51.182 53.7918C50.6085 54.0997 50.1032 54.5187 49.696 55.0239C48.1011 56.1402 47.0057 57.8272 46.6409 59.7292C46.1768 63.0152 48.4842 66.3907 52.0807 66.1222C53.3435 65.9195 54.5318 65.3961 55.5303 64.603C56.5287 63.8098 57.3032 62.7739 57.7784 61.5959C58.417 60.4345 58.6531 59.0971 58.4505 57.7895C58.2479 56.482 57.6177 55.2766 56.6569 54.3591Z" fill="#C5B68F" fill-opacity="0.6"/>
<path opacity="0.8" d="M56.6569 54.3589C55.8761 53.663 54.8815 53.2486 53.8339 53.1826L53.6792 53.2721C54.4179 53.2527 55.138 53.503 55.703 53.9753C56.6182 54.7553 57.7397 56.1234 57.4819 57.4404C57.0307 59.6779 54.3237 59.2687 53.2667 61.0844C53.019 61.7374 52.5965 62.3112 52.0445 62.7437C51.4926 63.1763 50.8321 63.4514 50.1342 63.5393C49.2788 63.5177 48.4587 63.1964 47.8193 62.6324C47.1799 62.0683 46.7624 61.298 46.6409 60.4578C46.5817 61.1969 46.6815 61.94 46.9339 62.6378C47.1862 63.3356 47.5853 63.9723 48.1046 64.5055C48.6239 65.0387 49.2515 65.4563 49.9459 65.7306C50.6403 66.0049 51.3856 66.1296 52.1323 66.0965C53.395 65.8938 54.5834 65.3704 55.5818 64.5773C56.5803 63.7841 57.3547 62.7482 57.83 61.5702C58.4559 60.4063 58.6801 59.0709 58.4683 57.7686C58.2564 56.4662 57.6202 55.2686 56.6569 54.3589Z" fill="#C5B68F" fill-opacity="0.6"/>
<path d="M56.2186 55.4458C55.587 52.9525 52.3514 53.6046 50.7917 54.7426C49.0385 56.0212 47.685 58.5784 48.871 60.6881C48.9483 60.8287 49.1803 60.6881 49.1546 60.5858C49.0832 59.7473 49.2184 58.9042 49.5485 58.1291C49.8786 57.354 50.3937 56.6701 51.0495 56.1363C51.6542 55.577 52.4122 55.2078 53.228 55.075C54.1561 54.9472 54.6331 55.6376 55.3292 56.0851C55.4281 56.1546 55.5464 56.1915 55.6676 56.1909C55.7887 56.1902 55.9066 56.1519 56.0047 56.0814C56.1028 56.0109 56.1762 55.9117 56.2146 55.7977C56.253 55.6837 56.2544 55.5606 56.2186 55.4458Z" fill="#F5F0E2"/>
</g>
<path d="M110.543 5.70533C111.197 6.07902 112.036 5.85433 112.414 5.20455C112.793 4.55506 112.57 3.72236 111.916 3.3485C111.264 2.97499 110.424 3.19968 110.046 3.84916C109.667 4.49895 109.891 5.33182 110.543 5.70533Z" fill="#D7CBAC"/>
<path d="M98.4991 15.9364C98.9697 16.2057 99.5742 16.0434 99.8468 15.5754C100.12 15.1072 99.959 14.5075 99.4884 14.2382C99.018 13.969 98.4134 14.1309 98.1407 14.5991C97.868 15.0671 98.0288 15.6673 98.4991 15.9364Z" fill="#D7CBAC"/>
<path d="M124.035 19.3811C124.506 19.6507 125.109 19.4893 125.382 19.0205C125.655 18.5517 125.495 17.9531 125.024 17.6835C124.552 17.4139 123.949 17.5753 123.676 18.0441C123.403 18.5129 123.564 19.1115 124.035 19.3811Z" fill="#D7CBAC"/>
<path d="M123.448 29.7286C123.918 29.9977 124.523 29.8358 124.796 29.3678C125.069 28.8995 124.908 28.2994 124.437 28.0303C123.967 27.761 123.362 27.9228 123.089 28.3911C122.817 28.8594 122.977 29.4593 123.448 29.7286Z" fill="#D7CBAC"/>
<path d="M107.555 13.1341L106.295 13.8576L107.297 15.5833L105.114 15.3509L104.954 16.7855L108.195 17.1305L108.887 18.324L106.703 18.0921C106.417 18.0617 106.139 18.2019 105.995 18.4499C105.851 18.6973 105.867 19.0066 106.037 19.2369L107.331 20.9945L105.943 20.9966L104.02 18.3881L102.847 19.243L104.141 21.0001L102.133 21.0032L102.131 22.4465L104.139 22.4432L102.839 24.2058L104.01 25.056L105.939 22.4401L107.329 22.4374L106.028 24.2004C105.857 24.4311 105.84 24.7402 105.984 24.9877C106.049 25.0995 106.141 25.1892 106.249 25.2512C106.38 25.3261 106.534 25.3596 106.691 25.3428L108.875 25.103L108.179 26.2987L104.937 26.6534L105.091 28.0877L107.276 27.8487L106.268 29.5786L107.526 30.2981L108.533 28.5687L109.416 30.5624L110.747 29.9779L109.436 27.0182L110.133 25.8222L111.015 27.817C111.131 28.0776 111.391 28.2462 111.679 28.2466C111.967 28.2463 112.228 28.0767 112.345 27.8147L113.235 25.8168L113.928 27.0111L112.607 29.9755L113.936 30.5553L114.825 28.5585L115.827 30.2835L117.086 29.5597L116.085 27.8344L118.268 28.067L118.428 26.6321L115.187 26.2862L114.495 25.0927L116.678 25.3253C116.964 25.3559 117.242 25.2154 117.386 24.9676C117.531 24.7199 117.514 24.4113 117.344 24.1807L116.051 22.4223L117.44 22.4199L119.362 25.0292L120.535 24.1746L119.24 22.417L121.249 22.4134L121.252 20.9705L119.243 20.9737L120.543 19.2107L119.372 18.3607L117.443 20.977L116.053 20.9794L117.354 19.2162C117.524 18.9857 117.541 18.6768 117.398 18.4294C117.254 18.1825 116.977 18.0426 116.691 18.0742L114.507 18.3138L115.203 17.1178L118.444 16.7632L118.29 15.3285L116.106 15.5675L117.114 13.8382L115.856 13.1187L114.849 14.8484L113.965 12.8538L112.635 13.4387L113.946 16.3986L113.249 17.5943L112.366 15.5996C112.25 15.3378 111.99 15.1703 111.702 15.1702C111.414 15.1707 111.153 15.3399 111.037 15.6016L110.147 17.5997L109.454 16.4061L110.775 13.4416L109.447 12.8619L108.557 14.8593L107.555 13.1341ZM108.182 19.7013L109.785 19.8715L110.434 20.9892L109.132 20.9914L108.182 19.7013ZM108.175 23.7286L109.13 22.4346L110.431 22.4325L109.779 23.552L108.175 23.7286ZM111.684 25.7366L111.037 24.272L111.689 23.1525L112.338 24.2704L111.684 25.7366ZM115.199 23.717L113.597 23.5465L112.949 22.4284L114.25 22.4264L115.199 23.717ZM115.207 19.689L114.253 20.9833L112.951 20.9854L113.604 19.865L115.207 19.689ZM111.698 17.6807L112.346 19.1455L111.694 20.2656L111.045 19.1471L111.698 17.6807Z" fill="#D7CBAC"/>
<path d="M9.07678 57.6459L7.99196 58.7899L9.57838 60.2755L7.23069 60.711L7.51535 62.254L11.0008 61.6073L12.0975 62.6348L9.74881 63.0713C9.44095 63.1286 9.19601 63.3605 9.12351 63.6635C9.05118 63.9658 9.16519 64.2828 9.41461 64.4698L11.3165 65.8975L9.8707 66.3306L7.0469 64.2119L6.09301 65.4661L7.9946 66.8934L5.90323 67.5198L6.35471 69.0229L8.44653 68.3962L7.64627 70.6344L9.13347 71.1561L10.3213 67.8343L11.768 67.4003L10.9672 69.6391C10.8622 69.9322 10.9412 70.2593 11.1687 70.4724C11.2716 70.5687 11.3957 70.6335 11.5279 70.6644C11.688 70.7018 11.8594 70.6887 12.0172 70.6226L14.2179 69.695L13.8684 71.1559L10.6024 72.5312L11.2145 73.9762L13.4153 73.0495L12.9097 75.1629L14.446 75.5217L14.9515 73.409L16.4989 75.2101L17.7015 74.1888L15.4048 71.5146L15.7544 70.0534L17.3014 71.856C17.504 72.0914 17.828 72.1862 18.1286 72.0972C18.4281 72.0075 18.647 71.75 18.686 71.4411L18.985 69.085L20.0827 70.1132L19.6393 73.6088L21.2056 73.8001L21.5042 71.4456L23.0904 72.9304L24.1753 71.786L22.5892 70.3008L24.9364 69.8656L24.6519 68.3223L21.1667 68.9678L20.07 67.9403L22.4172 67.5051C22.725 67.4482 22.9704 67.2156 23.0429 66.9129C23.1153 66.6103 23.0011 66.2941 22.7518 66.1067L20.8505 64.6779L22.2972 64.2443L25.1204 66.364L26.0742 65.1102L24.1723 63.6824L26.2642 63.0553L25.8127 61.5526L23.7208 62.1793L24.5208 59.9406L23.0332 59.4192L21.8465 62.7413L20.399 63.1752L21.1994 60.9362C21.3048 60.6432 21.2253 60.3164 20.9982 60.1034C20.7705 59.891 20.4381 59.8313 20.1493 59.9531L17.9491 60.8804L18.2987 59.4192L21.5642 58.0442L20.9519 56.5987L18.7519 57.5252L19.2574 55.4125L17.721 55.0537L17.2154 57.1668L15.6674 55.3648L14.4652 56.3865L16.7622 59.0608L16.4127 60.5216L14.8652 58.7193C14.6622 58.4826 14.3383 58.3891 14.0384 58.4783C13.7384 58.5682 13.5196 58.8254 13.4807 59.1339L13.1821 61.49L12.085 60.4624L12.5284 56.9668L10.9622 56.7755L10.6634 59.1308L9.07678 57.6459ZM11.7958 64.2875L13.5198 63.967L14.5474 64.9292L13.192 65.3354L11.7958 64.2875ZM13.0558 68.4818L13.6435 66.8385L14.9989 66.4324L14.6717 67.8001L13.0558 68.4818ZM17.3436 69.483L16.2083 68.1593L16.5356 66.7916L17.5636 67.7538L17.3436 69.483ZM20.3707 66.2898L18.6481 66.6094L17.6206 65.6468L18.9755 65.2409L20.3707 66.2898ZM19.1114 62.0945L18.5244 63.7379L17.169 64.1441L17.4965 62.7753L19.1114 62.0945ZM14.8237 61.0929L15.9601 62.4165L15.6327 63.785L14.6049 62.8219L14.8237 61.0929Z" fill="#D7CBAC" fill-opacity="0.8"/>
<path d="M1.43087 39.8162L1.38464 40.5671L2.42976 40.6343L1.69828 41.5065L2.28083 41.9895L3.36676 40.6945L4.08942 40.7412L3.35786 41.6141C3.26199 41.7285 3.2434 41.8883 3.31042 42.0221C3.37729 42.1555 3.51744 42.2379 3.66734 42.2313L4.81096 42.1816L4.41151 42.7796L2.7139 42.8538L2.75007 43.6056L3.89344 43.5559L3.31564 44.4209L3.9474 44.8386L4.52528 43.9733L4.92268 45.0416L5.63287 44.7833L5.04311 43.1978L5.44264 42.5991L5.84003 43.6678C5.89198 43.8078 6.02237 43.9045 6.17226 43.9142C6.23999 43.9185 6.30586 43.9048 6.36422 43.8761C6.43486 43.8414 6.49406 43.7847 6.53181 43.7124L7.05676 42.7032L7.37989 43.3481L6.60043 44.8454L7.27346 45.193L7.79874 44.184L8.26623 45.117L8.94414 44.7837L8.47682 43.851L9.6052 44.0465L9.73285 43.3052L8.05781 43.0148L7.7346 42.3697L8.8633 42.5658C9.01088 42.5913 9.15978 42.528 9.24313 42.4041C9.32591 42.2802 9.32697 42.1189 9.24577 41.9931L8.62694 41.0333L9.35017 41.0798L10.2684 42.5039L10.9055 42.0997L10.287 41.1406L11.3318 41.2076L11.378 40.4565L10.3331 40.3894L11.0645 39.5174L10.4818 39.0342L9.39567 40.3287L8.67301 40.2821L9.4044 39.4101C9.50036 39.2958 9.51895 39.1356 9.452 39.002C9.38506 38.8684 9.24507 38.7863 9.09509 38.7928L7.95139 38.8419L8.351 38.2434L10.0487 38.1698L10.0126 37.4181L8.86899 37.4678L9.44679 36.6024L8.81511 36.1849L8.23723 37.0501L7.83959 35.9817L7.12931 36.2403L7.71956 37.8256L7.31971 38.4244L6.92215 37.3557C6.87036 37.2157 6.7399 37.1192 6.59017 37.1095C6.44045 37.1001 6.29931 37.1789 6.23045 37.3113L5.70558 38.3203L5.38237 37.6753L6.16176 36.1782L5.48848 35.8305L4.96344 36.8392L4.49612 35.9065L3.8182 36.2398L4.28561 37.1727L3.15674 36.977L3.02934 37.7184L4.70454 38.0087L5.02767 38.6536L3.89888 38.4577C3.75073 38.432 3.60224 38.4956 3.51922 38.6194C3.43636 38.7435 3.43521 38.9047 3.51634 39.0303L4.13533 39.9901L3.41251 39.9435L2.49428 38.5195L1.85716 38.9236L2.47583 39.8831L1.43087 39.8162ZM4.48957 41.4423L5.02651 40.8016L5.70346 40.8451L5.32904 41.4057L4.48957 41.4423ZM6.25249 42.6078L5.9608 41.8234L6.33522 41.2628L6.63775 41.8665L6.25249 42.6078ZM8.14446 41.6776L7.31591 41.5333L7.01339 40.9295L7.6905 40.973L8.14446 41.6776ZM8.27319 39.582L7.7365 40.222L7.05946 40.1783L7.4338 39.6179L8.27319 39.582ZM6.51018 38.4159L6.80221 39.2001L6.42778 39.7608L6.12501 39.1565L6.51018 38.4159ZM4.61813 39.346L5.44709 39.4899L5.74978 40.094L5.0725 40.0502L4.61813 39.346Z" fill="#D7CBAC" fill-opacity="0.8"/>
<path d="M118.482 41.9275L118.436 42.6784L119.481 42.7456L118.75 43.6179L119.332 44.1008L120.418 42.8058L121.141 42.8525L120.409 43.7254C120.313 43.8398 120.295 43.9997 120.362 44.1334C120.429 44.2669 120.569 44.3492 120.719 44.3426L121.862 44.2929L121.463 44.8909L119.765 44.9651L119.801 45.717L120.945 45.6672L120.367 46.5322L120.999 46.9499L121.577 46.0846L121.974 47.1529L122.684 46.8946L122.094 45.3091L122.494 44.7105L122.891 45.7792C122.943 45.9191 123.074 46.0159 123.224 46.0255C123.291 46.0298 123.357 46.0162 123.416 45.9875C123.486 45.9527 123.545 45.896 123.583 45.8237L124.108 44.8145L124.431 45.4594L123.652 46.9567L124.325 47.3043L124.85 46.2953L125.318 47.2283L125.995 46.895L125.528 45.9623L126.656 46.1578L126.784 45.4165L125.109 45.1261L124.786 44.481L125.915 44.6772C126.062 44.7026 126.211 44.6394 126.294 44.5154C126.377 44.3916 126.378 44.2302 126.297 44.1044L125.678 43.1446L126.401 43.1912L127.32 44.6152L127.957 44.2111L127.338 43.2519L128.383 43.3189L128.429 42.5679L127.384 42.5007L128.116 41.6287L127.533 41.1456L126.447 42.4401L125.724 42.3934L126.456 41.5214C126.552 41.4071 126.57 41.2469 126.503 41.1133C126.436 40.9797 126.296 40.8976 126.146 40.9041L125.003 40.9532L125.402 40.3548L127.1 40.2811L127.064 39.5294L125.92 39.5791L126.498 38.7137L125.866 38.2962L125.289 39.1614L124.891 38.0931L124.181 38.3516L124.771 39.9369L124.371 40.5357L123.973 39.4671C123.922 39.327 123.791 39.2305 123.641 39.2208C123.492 39.2114 123.351 39.2902 123.282 39.4227L122.757 40.4316L122.434 39.7866L123.213 38.2895L122.54 37.9419L122.015 38.9505L121.547 38.0178L120.869 38.3512L121.337 39.284L120.208 39.0883L120.081 39.8297L121.756 40.1201L122.079 40.7649L120.95 40.5691C120.802 40.5433 120.654 40.6069 120.571 40.7307C120.488 40.8548 120.486 41.016 120.568 41.1416L121.187 42.1014L120.464 42.0548L119.546 40.6308L118.908 41.0349L119.527 41.9944L118.482 41.9275ZM121.541 43.5537L122.078 42.9129L122.755 42.9564L122.38 43.5171L121.541 43.5537ZM123.304 44.7191L123.012 43.9348L123.387 43.3741L123.689 43.9779L123.304 44.7191ZM125.196 43.7889L124.367 43.6446L124.065 43.0409L124.742 43.0843L125.196 43.7889ZM125.324 41.6933L124.788 42.3334L124.111 42.2897L124.485 41.7293L125.324 41.6933ZM123.561 40.5273L123.853 41.3115L123.479 41.8721L123.176 41.2679L123.561 40.5273ZM121.669 41.4574L122.498 41.6012L122.801 42.2053L122.124 42.1615L121.669 41.4574Z" fill="#D7CBAC" fill-opacity="0.8"/>
<defs>
<clipPath id="clip0_505_4172">
<rect width="65.9744" height="61.7179" fill="white" transform="translate(37.2436 35.2822)"/>
</clipPath>
</defs>
</svg>
