<?xml version="1.0" encoding="utf-8"?>
<!-- Generator: Adobe Illustrator 26.2.1, SVG Export Plug-In . SVG Version: 6.00 Build 0)  -->
<svg version="1.1" id="Layer_1" xmlns="http://www.w3.org/2000/svg" xmlns:xlink="http://www.w3.org/1999/xlink" x="0px" y="0px"
	 viewBox="0 0 543 384" style="enable-background:new 0 0 543 384;" xml:space="preserve">
<style type="text/css">
	.st0{fill-rule:evenodd;clip-rule:evenodd;fill:#D7CAAA;}
</style>
<g>
	<path class="st0" d="M213.4,233.1c-8.2-3.1-19.7-5-32.4-5c-2,0-3.9,0-5.6,0.1l-3,0.2c-0.3,1.5-0.9,2.9-1.7,4.3l-0.1,0.1l-0.1,0.2
		l-0.1,0.1l-0.1,0.1l-0.1,0.1l0,0.1l0,0l-0.1,0.1l-0.1,0.1l-0.1,0.1l-0.1,0.1l-0.1,0.1l-0.1,0.1l-0.3,0.4l-0.1,0.2
		c-1.2,1.7-2.8,3.4-4.7,4.9l0.1,0.1l0,0l0.1,0.1l0.2,0.1l0,0l0.1,0.1h0l0.1,0.1l0.1,0.1l0,0l0.1,0.1l0.1,0.1l0.1,0.1l0,0.1l0.2,0.1
		l0.1,0.1l0,0l0.1,0.1l0,0l0.1,0.1l0.1,0.1h0l0.1,0.1l0,0l0.1,0.1l0.1,0.1v0l0.1,0.1l0.1,0l0,0.1l0.1,0.1h0l0.1,0.1l0.1,0.1l0,0
		l0.1,0.1l0,0l0.1,0.1l0.1,0.1l0,0l0.1,0.1l0,0l0,0.1l0.1,0.1l0.1,0.1l0,0l0,0l0.1,0.1l0.1,0.1l0.1,0l0,0l0.1,0.1v0
		c2.5,2.8,4.1,5.6,4.7,9.5l0,0.1l0,0.1l0,0.1l0,0.1l0,0.1v0.1l0,0.1v0.5l0,0.1v0.4l0,0.1v0.4l0,0.1v0.1l0,0v0.2l0,0.1v0.1l0,0.1v0.1
		l0,0.1v0.1l0,0.1l0,0.1v0.1l0,0l0,0.1v0.1l0,0.1l0,0.1l0,0.1l0,0l0,0.1l-0.1,0.3l-0.1,0.4l0,0.1l-0.1,0.3h0.2l0.1,0h0.3l0.1,0h0.1
		l0.6,0l0.1,0h0.4l0.1,0h0.4l0.1,0h0.5l0.1,0h0.4l0.1,0h0.6l0.1,0h0.1c8.9,0.4,19-0.4,27.5-2.3c0.8-0.1,1.5-0.3,2.2-0.5l0.2,0l0.1,0
		l0.6-0.1l0.1-0.1l0.1,0l0.3-0.1v0l0.3-0.1l0.1,0l0.2-0.1l0.3-0.1h0l0.3-0.1l0.3-0.1l0.2-0.1h0l0.3-0.1l0.1,0l0.2-0.1l0.2-0.1l0.1,0
		l0.3-0.1l0.1,0l0.2-0.1l0.2-0.1l0.1,0l0.3-0.1l0.1,0l0.2-0.1l0.2-0.1l0.1,0l0.3-0.1l0.1,0l0.2-0.1l0.2-0.1l0.1-0.1l0.3-0.1h0
		l0.2-0.1l0.1-0.1l0.1,0l0.2-0.1h0.1l0.2-0.1h0l0.2-0.1l0.1,0l0.1-0.1l0.2-0.1l0.1,0l0.2-0.1h0c2-0.9,3.8-1.8,5.2-2.8
		c0.2-0.1,0.3-0.2,0.5-0.3c2.7-1.8,4.1-3.8,4.1-5.8C225.3,239.3,220.7,235.8,213.4,233.1 M219.2,256.8l-0.2,0.1l-1.1,0.5l-0.1,0
		l-0.2,0.1l-0.1,0.1l-0.1,0.1l-0.7,0.3h0c-3.2,1.3-6.9,2.4-10.9,3.3c-9,2-19.5,2.8-28.9,2.5l-0.1,0h-0.6l-0.1,0h-0.4l-0.1,0h-0.6
		l-0.1,0h-0.4l-0.1,0H174c-1.5-0.1-3-0.2-4.5-0.3l-0.1,0h0c-0.8,1.1-1.7,2.1-2.7,3.1l-1.9,1.7l0.1,0l0.1,0h0l0,0l0,0.1l0.5,0.4h0
		l0,0l0.1,0.1l0,0l0,0l0.1,0.1l0,0l0,0.1l0.2,0.1l0,0.1l0,0h0l0,0.1l0,0l0,0l0,0l0.1,0.1l0,0l0,0.1l0,0l0,0.1h0l0,0l0,0.1l0.1,0l0,0
		l0,0l0,0l0,0.1l0,0l0,0.1l0,0l0.1,0l0.1,0.1l0,0l0,0l0,0l0.1,0.1l0,0h0l0,0l0,0l0,0.1h0l0,0l0,0.1l0,0v0l0,0l0,0l0,0l0,0l0.1,0
		l0.1,0.1l0,0l0,0l0.1,0.1h0l0.1,0.1l0.1,0.1l0,0l0,0l0.1,0.1h0l0.1,0.1l0.1,0.1l0,0l0,0l0.1,0.1l0,0.1l0,0l0.1,0l0,0.1l0,0l0.1,0.1
		l0,0.1l0,0l0.1,0.1l0,0.1l0,0l0.1,0.1l0,0.1l0,0l0,0.1l0,0l0,0l0.3,0.3l0,0l0,0l0,0.1l0,0l0,0l0,0.1l0,0.1h0l0,0.1l0,0.1l0.1,0.1
		l0.1,0.1l0.1,0.1l0,0.1l0,0l0,0.1l0.1,0.1v0l0.1,0.1l0,0.1v0l0.1,0.1l0.1,0.1l0,0.1l0,0.1h0l0,0.1l0.1,0.1v0l0,0.1l0,0.1l0,0l0,0.1
		l0,0.1l0,0l0,0l0.1,0.1l0,0l0,0l0,0.1l0,0.1h0l0,0.1l0,0.1v0l0,0.1l0,0.1l0,0.1l0,0.1h0.1l4,0.3l0.1,0h0.1c9.5,0.5,20-0.1,29.3-2.2
		c6.9-1.5,12.5-3.6,16.3-6.2c0.2-0.1,0.3-0.2,0.5-0.3c2.7-1.9,4.2-3.8,4.2-5.9c0-0.9-0.3-1.8-1-2.7c-0.5-0.7-1.2-1.5-2.1-2.2
		C221.3,255.8,220.2,256.3,219.2,256.8L219.2,256.8z M217.4,274.9L217.4,274.9c-1,0.4-2,0.8-3,1.2l0,0c-2.7,0.9-5.7,1.8-8.9,2.5
		c-10.1,2.2-20.7,2.8-30.9,2.3h-0.2l-0.1,0h-0.4l-0.1,0h-0.3l-0.1,0h-0.3l-0.1,0h-0.2c0,0.4,0.1,0.9,0.1,1.3v0.1l0,0.1v0.4l0,0.1
		l0,0.1v0.1l0,0.2v0.1l0,0.1l0,0.1l0,0.1v0l0,0.1l0,0.1l0,0.1l0,0.1l0,0.1l0,0.1l0,0.1l0,0.1l0,0l0,0.1l0,0.1l0,0.1l0,0.1l0,0.1
		l0,0.1l0,0.1l0,0.1l0,0.1l0,0.1l0,0.1l0,0.1c-0.1,0.4-0.3,0.8-0.4,1.3h0c-0.3,0.9-0.7,1.7-1.2,2.6c-0.4,0.6-0.8,1.3-1.3,1.9
		l2.4,0.2l0.1,0h0.3l0.1,0h0.2l0.1,0h0.3l0.1,0h0.3l0.1,0h0.2l0.1,0h0.4l0.1,0h0.3l0.1,0h0.3l0.1,0h0.4l0.1,0h0.6l0.1,0h0.4
		c9.8,0,17.4-0.1,27.4-2.3c6.9-1.5,12.5-3.6,16.4-6.1c0.2-0.1,0.3-0.2,0.5-0.3c2.7-1.9,4.2-3.9,4.2-5.9c0-0.9-0.3-1.8-1-2.7
		c-0.5-0.8-1.3-1.5-2.2-2.3C220.7,273.4,219.1,274.2,217.4,274.9L217.4,274.9z M217.2,292.6l-0.2,0.1l-0.1,0l-0.2,0.1l-0.1,0.1
		l-0.9,0.3l-0.2,0.1l-1,0.4h-0.1l-0.2,0.1l-0.2,0.1l-0.1,0c-0.9,0.3-1.7,0.6-2.7,0.8l-0.1,0l-1.3,0.4l-0.1,0l-0.3,0.1h-0.1l-2,0.5h0
		l-0.3,0.1l-0.2,0l-1.4,0.3l-0.2,0l-0.2,0l-0.7,0.1l-0.2,0c-8.4,1.7-18.9,2.6-27.5,2.2h-0.5l-0.1,0h-0.6l-0.1,0h-0.3l-0.1,0h-0.5
		l-0.1,0H174l-0.1,0h-0.3l-0.1,0h-0.3l-0.1,0h-0.3l-0.1,0h-0.2l-0.1,0h-0.1l-0.1,0h-0.3l-0.1,0h-0.2l-0.1,0
		c-1.5-0.1-2.9-0.2-4.4-0.4h-0.1l-0.1,0l0.1,0.1h0l0.1,0.1l0,0.1l0,0l0.1,0.1h0l0.1,0.1l0,0.1l0.1,0.1l0,0l0,0l0.1,0.1l0,0l0,0.1
		l0.1,0.1l0.1,0v0l0.1,0.1l0.1,0h0l0,0.1l0.1,0.1h0l0.1,0.1l0,0.1l0,0l0,0l0.1,0.1l0.1,0.1l0.1,0.1h0l0,0l0,0.1l0,0l0,0l0.1,0.1
		l0,0.1l0.1,0.1l0.1,0v0l0.1,0l0.1,0.1l0,0l0,0l0.1,0.1l0,0l0.1,0.1l0.1,0.1l0.1,0.1l0,0.1l0,0l0.1,0.1l0,0l0,0l0.1,0.1l0.1,0l0,0.1
		l0.1,0.1l0,0l0,0l0,0.1l0.1,0.2l0,0.1l0.1,0.1l0,0.1l0,0.1l0,0l0,0.1l0,0l0.2,0.2l0,0l0.1,0.1l0,0.1l0.1,0.1l0,0.1l0.1,0.1l0,0.1
		l0.1,0.2l0,0l0.1,0.1l0,0l0.1,0.1h0l0.1,0.1l0.1,0.1l0,0l0.1,0.1l0,0l0.1,0.1l0,0.1l0.1,0.1l0,0.1l0.1,0l0,0.1l0,0.1l0,0.1l0,0
		l0.1,0.1l0,0.1l0.1,0.1v0l0.1,0.1h0l0.1,0.1l0.1,0.1l0.1,0.1l0,0.1l0,0.1l0,0.1l0,0.1l0,0.1l0,0.1l0,0.1l0,0.1l0,0.1l0,0l0.1,0.1v0
		l0.1,0.1v0l0.1,0.2v0l0,0.1v0l0.1,0.1v0l0.1,0.1l0,0.1l0,0.1l0,0.1l0,0l0,0.1l0,0.1l0,0.1v0.1l0,0.1l0,0l0,0.1l0.1,0.1l0,0.1v0
		l0,0.1l0,0.1l0,0.1v0l0,0.1l0,0.1l0,0.1l0,0.1v0.1l0,0.1l0,0.1l0,0.1l0,0.1l0,0.1l0,0l0,0.1h0l0,0.1l0,0.1v0l0,0.1v0l0,0.1l0,0.1
		v0.1l0,0.1l0,0.1v0.1l0,0.1l0,0.1v0l0,0.1v0l0,0.1v0.1h0.1l0.1,0h0.2l1.7,0.1h0.3l0.1,0h0.1c9.8,0.4,19.2-0.2,28.9-2.2
		c6.9-1.5,12.5-3.6,16.4-6.2c0.2-0.1,0.3-0.2,0.5-0.3c2.7-1.9,4.2-3.8,4.2-5.8c0-0.9-0.3-1.8-1-2.8c-0.5-0.7-1.3-1.5-2.2-2.2
		C220.6,291,219,291.8,217.2,292.6L217.2,292.6z M217.4,310L217.4,310l-0.2,0.1c-3.4,1.4-7.4,2.6-11.7,3.6
		c-9.9,2.2-20.4,2.8-30.5,2.3c-0.9-0.1-1.9-0.1-2.8-0.2H172l-0.1,0h-0.1l-0.1,0.1l0,0.1l0,0l-0.1,0.1l-0.1,0.1l0,0.1l0,0l0,0.1
		c-1,2.2-2.4,4.2-4.3,6.1c-1.2,1.2-2.5,2.3-4,3.4l4.4,0.6c4.2,0.5,8.7,0.7,13.4,0.7c12.7,0,24.2-1.9,32.4-5
		c7.3-2.7,11.8-6.2,11.8-9.6c0-0.9-0.3-1.8-1-2.7c-0.5-0.8-1.2-1.5-2.2-2.3C220.7,308.6,219.1,309.3,217.4,310L217.4,310z
		 M146.1,179.9c-13.5-5.1-32.3-8.2-53.1-8.2s-39.6,3.1-53.1,8.2c-12.6,4.7-20.4,10.9-20.4,17.4c0,3.9,2.8,7.7,7.9,11.2
		c0.2,0.1,0.3,0.1,0.5,0.3c27.7,18.5,101.6,19.2,130.3-0.1c0.1-0.1,0.3-0.2,0.4-0.2c5-3.4,7.9-7.2,7.9-11.1
		C166.4,190.8,158.6,184.6,146.1,179.9L146.1,179.9z M154.9,217.7L154.9,217.7l-0.4,0.2l-0.2,0.1l-1.3,0.6l0,0l-0.4,0.2l-0.2,0.1
		l-0.1,0.1l-0.4,0.2l-0.1,0l-0.3,0.1l-0.4,0.2h0l-0.4,0.2l-0.2,0.1l-0.2,0.1l-0.4,0.1l-0.1,0.1l-0.3,0.1l-0.4,0.1l0,0l-0.4,0.1
		l-0.2,0.1l-0.2,0.1l-0.4,0.1l0,0l-0.4,0.1l-0.3,0.1l-0.6,0.2l-0.1,0.1l-0.7,0.2l-0.1,0l-1.3,0.4l0,0l-0.5,0.1l-0.2,0.1l-0.7,0.2
		l0,0c-29.4,9.2-73.1,9-102.3-0.9l-0.1,0l-0.7-0.2l-0.1-0.1l-0.6-0.2l-0.3-0.1l-0.4-0.1l-0.1,0l-0.4-0.1l-0.2-0.1l-0.2-0.1l-0.4-0.1
		l0,0l-0.4-0.1l-0.3-0.1l-0.1-0.1l-0.4-0.1l-0.2-0.1l-0.2-0.1l-0.4-0.2h0l-0.4-0.2l-0.3-0.1l-0.1,0l-0.4-0.2l-0.1-0.1l-0.2-0.1
		l-0.4-0.2l0,0l-0.4-0.1l-0.3-0.1l-0.1-0.1l-0.5-0.2l-0.2-0.1l-0.4-0.2l0,0c-1.7-0.8-3.4-1.7-4.9-2.6c-2,1.5-3.6,3.1-4.8,4.8
		c-1.2,1.8-1.9,3.6-1.9,5.5c0,4,2.9,7.8,8.1,11.3c0.2,0.1,0.3,0.1,0.5,0.2c3.9,2.6,8.9,4.9,14.8,6.8l0.3,0.1l0.1,0l0.5,0.2
		c28.9,9.4,69.3,9,98.2,0.1l0.5-0.2l0.1,0l0.1,0l0.3-0.1l0.1,0l1.9-0.7h0.1v0h0.1l0.1,0l0.3-0.1l0.1,0l0.9-0.3l0.1,0l0.2-0.1
		l0.2-0.1l0.1,0l0.8-0.3h0c4-1.6,7.5-3.4,10.4-5.3l0.1-0.1l0,0h0l0,0c2.8-1.9,5-3.8,6.4-5.8l0.1-0.2c0.9-1.3,1.5-2.7,1.8-4.1v-0.1
		l0,0l0-0.1v-0.1l0-0.1v-0.1l0-0.1v-0.1l0,0l0-0.6c0-1.9-0.7-3.7-1.9-5.5c-1.1-1.6-2.8-3.2-4.8-4.8
		C158.3,216,156.7,216.9,154.9,217.7L154.9,217.7z M158.1,265.1L158.1,265.1L158.1,265.1c1.7-1.1,3.1-2.3,4.3-3.4
		c1.1-1.1,2-2.2,2.7-3.3l0,0l0,0l0-0.1l0,0l0-0.1h0c0.4-0.7,0.7-1.5,0.9-2.2c0.1-0.3,0.1-0.6,0.2-0.9l0-0.1l0-0.2v-0.1l0-0.1v-0.1h0
		v-0.1l0,0v-0.1l0,0v-0.1l0,0v-0.3l0-0.1v-0.2l0-0.1v-0.3l0-0.1v-0.2l0-0.1l0-0.1l0-0.1l0-0.1l0-0.1l0-0.1l0-0.1v-0.1l0-0.1l0-0.1
		l0-0.1l0-0.1c-0.4-1.4-1-2.8-1.9-3.9l0-0.1l-0.1-0.1l-0.1-0.1l-0.1-0.1l0,0h0l-0.1-0.1l-0.1-0.1l-0.1-0.1l-0.1-0.1v0l-0.4-0.4h0
		l-0.2-0.2v0c-1-1-2.1-2.1-3.5-3.1c-2.3,1.4-4.9,2.7-7.8,3.9l-0.2,0.1h0l-0.2,0.1l-0.2,0.1l-0.2,0.1l-0.6,0.2l-0.1,0L150,248l-0.1,0
		l-0.1,0.1l-1.6,0.6v0c-30.5,11.4-79.9,11.6-110.6,0v0l-0.4-0.1l-0.3-0.1l-0.1-0.1l-0.4-0.2l-0.1-0.1l-0.3-0.1l-0.4-0.1l-0.7-0.3
		l-0.1-0.1l-0.4-0.2l-0.1-0.1l-0.7-0.3v0l-0.4-0.1c-2.5-1.1-4.7-2.3-6.8-3.5c-2.1,1.6-3.8,3.2-5,4.9c-1.3,1.8-1.9,3.6-1.9,5.5
		c0,4,2.9,7.8,8.1,11.3c0.2,0.1,0.3,0.1,0.5,0.2c28,18.5,101.2,19,129.9,0L158.1,265.1z M158.1,293.5c0.9-0.6,1.7-1.2,2.6-1.9
		l0.1-0.1l0,0c1.9-1.6,3.4-3.2,4.3-4.9c0.7-1.1,1.1-2.3,1.2-3.5l0-0.1l0-0.1v-0.1l0-0.1v-0.1l0,0v-0.1l0-0.1v-0.3l0-0.1v-0.3h0v-0.4
		l0-0.1v-0.1l0-0.1c-0.1-0.6-0.2-1.3-0.4-1.9l0,0v0l-0.1-0.3v0l0-0.1v0l0,0l0-0.1l0-0.1v0h0l0-0.1h0l0-0.1l0-0.1l0,0l0-0.1l0-0.1
		l0,0l0-0.1l0,0l0,0l0-0.1l0,0l0,0l0,0l0-0.1l0-0.1v0l0-0.1l0,0l0,0l0-0.1l0-0.1l0,0l0,0l0-0.1l0,0l0,0l0-0.1l0,0v0l-0.1-0.1l0-0.1
		l0,0l0,0l0-0.1l0-0.1l0,0l0-0.1l0,0h0l0-0.1l0,0l0-0.1l0-0.1h0l-0.1-0.1l0,0l0-0.1l0-0.1l-0.1-0.1v0l0-0.1l0,0l0,0l-0.1-0.1l0-0.1
		l0-0.1l0-0.1l-0.1-0.1l-0.1-0.1v0l-0.1-0.1l0,0l0,0l0-0.1h0l-0.1-0.1v0l-0.1-0.1l0,0c-1.1-1.3-2.5-2.6-4.1-3.8
		c-1.9,1.1-4,2.2-6.3,3.3l-0.1,0l-0.1,0.1l-0.7,0.3l-0.2,0.1l-0.1,0.1l-0.1,0l-0.2,0.1l-0.2,0.1h0l-0.2,0.1l-0.2,0.1l-0.2,0.1
		l-0.2,0.1l0,0l-0.2,0.1l-0.2,0.1l-0.1,0.1l-0.1,0.1l-0.2,0.1l-0.1,0l-0.1,0.1l-0.2,0.1l-0.1,0.1l-0.1,0l-0.2,0.1l-0.4,0.1l-0.2,0.1
		h0l-0.2,0.1l-0.2,0.1l-0.4,0.2l-0.2,0.1l-0.6,0.2l-0.1,0l-0.4,0.1l-0.3,0.1l-0.1,0.1c-29.1,10.1-72.5,10.3-102.2,1.3l-0.1,0
		l-1.4-0.4h0l-1.4-0.4l-0.1,0l-0.4-0.1l-0.3-0.1l-0.1-0.1l-0.4-0.1l-0.1-0.1l-0.3-0.1l-0.9-0.3l-0.2-0.1l-0.2-0.1l-0.4-0.2l-0.4-0.1
		l-0.3-0.1l-0.1,0l-0.4-0.1l-0.1-0.1l-0.3-0.1l-0.4-0.2l-0.4-0.1l-0.3-0.1l-0.1,0l-0.4-0.2l-0.1-0.1l-0.3-0.1l-0.4-0.2l-0.4-0.2
		l-0.3-0.1l-0.1,0c-2.3-1-4.5-2.2-6.4-3.3c-2.1,1.6-3.8,3.2-5,4.9c-1.3,1.8-1.9,3.7-1.9,5.5c0,4,2.9,7.8,8.1,11.3
		c0.2,0.1,0.3,0.1,0.5,0.2c3,2,6.6,3.8,10.8,5.4l0.4,0.1l0.4,0.2l0.2,0.1l0.3,0.1c0.9,0.3,1.8,0.6,2.7,0.9l0.3,0.1l0.1,0l0.5,0.1
		l0.1,0.1c27.8,9,67.9,9,96.1,0.7l0.5-0.1l0.4-0.1l0.1,0l1.3-0.4l0.1-0.1l0.4-0.1l0.1,0l0.3-0.1c1.1-0.3,2.1-0.7,3.1-1.1l0.1,0
		l0.2-0.1l0.2-0.1l0.1,0c4.4-1.7,8.1-3.5,11.2-5.6L158.1,293.5z M152.8,324.9c0.1-0.1,0.3-0.2,0.4-0.2c4-2,7.1-4.2,9.4-6.5
		c1.8-1.8,3-3.7,3.5-5.6v0l0-0.1l0-0.1l0-0.1l0-0.1l0-0.1l0-0.1l0,0v-0.1l0-0.1l0-0.1l0-0.3v-0.1l0-0.3l0-0.6v-0.1l0-0.1v-0.3l0-0.1
		v-0.2l0-0.1l0-0.1l0-0.1l0-0.1l0-0.1l0-0.1l0-0.1V309l0-0.1l0-0.1l0-0.1v0l0-0.1l0-0.1l0-0.1l0-0.1l0-0.1l0-0.1l0-0.1l0-0.1v0
		l0-0.1l0-0.1l0-0.1l0-0.1l0-0.1l0-0.1l0-0.1l0-0.1l0-0.1l-0.1-0.1l0-0.1l-0.1-0.1l0-0.1h0l0-0.1l0-0.1l0-0.1l-0.1-0.1l0-0.1h0
		l0-0.1l0-0.1l-0.1-0.1v0l-0.1-0.1l-0.1-0.1l-0.1-0.1l0-0.1l-0.1-0.1l-0.1-0.1l-0.1-0.1l-0.1-0.1l-0.1-0.1v0l-0.1-0.1l-0.1-0.1
		l-0.1-0.1l-0.1-0.1l-0.1-0.1l-0.1-0.1l-0.1-0.1l-0.2-0.2l-0.1-0.1l-0.1-0.1h0l-0.2-0.2v0l-0.1-0.1l-0.3-0.4l0,0h0l-0.3-0.4
		l-0.4-0.4l0,0c-0.9-1-2-1.9-3.3-2.8c-1.6,1-3.4,1.9-5.2,2.8h0l-0.2,0.1l-0.2,0.1h0l-0.2,0.1l-0.2,0.1l0,0l-0.1,0.1l-0.5,0.2l-0.1,0
		l-0.1,0.1l-0.2,0.1l-0.1,0.1l-0.1,0l-0.2,0.1l-0.1,0.1l-0.1,0l-0.3,0.1h0l-0.2,0.1l-0.2,0.1l-0.2,0.1l-0.2,0.1h0l-0.2,0.1l-0.2,0.1
		l-0.1,0l-0.1,0.1l-0.2,0.1l-0.1,0l-0.1,0.1l-0.2,0.1l-0.1,0.1l-0.1,0l-0.2,0.1l-0.1,0.1l-0.1,0l-0.2,0.1l-0.2,0.1h0l-0.2,0.1
		l-0.2,0.1l-0.4,0.2l-0.2,0.1l-0.2,0.1c-30.6,11.2-79.7,11.2-110.2-0.5l-0.3-0.1l-0.1-0.1l-1.2-0.5l-0.7-0.3l-0.1-0.1l-1.2-0.5
		c-2.6-1.1-5-2.4-7.2-3.7c-2.1,1.6-3.8,3.2-5,4.9c-1.3,1.8-1.9,3.7-1.9,5.5c0,6.5,7.8,12.6,20.4,17.4c29.3,11,77,11,106.2,0
		C148.5,326.9,150.8,325.9,152.8,324.9L152.8,324.9z M102.7,165.6c4.7,0.2,9.3,0.6,13.8,1.1V77.3c0-1.7,1.4-3,3-3h329.8V62l-346.6,0
		L102.7,165.6z M452.4,80.3H122.5v87.2c5.8,0.9,11.3,2.1,16.3,3.4V96.6c0-1.7,1.4-3,3-3h327.3V80.3L452.4,80.3z M166.4,184.4
		c4.1,3.9,6.4,8.2,6.4,12.9c0,4.6-2.3,9-6.4,12.9v2.2c1.3,1.2,2.5,2.6,3.4,3.9c1.3,1.9,2.2,3.8,2.7,5.8l2.7-0.2c2-0.1,4-0.1,5.9-0.1
		c13.5,0,25.7,2.1,34.7,5.4c9.8,3.7,16,9.2,16,15.5c0,3.1-1.5,6.1-4.2,8.7c0.8,0.8,1.5,1.6,2.1,2.4c1.4,2,2.1,4.1,2.1,6.3
		c0,0.5-0.1,1-0.1,1.5h208.1c0.7-8.1,4.3-15.3,9.8-20.8c5.4-5.5,12.7-9,20.8-9.8v-79.7c-8.1-0.7-15.4-4.3-20.8-9.8
		c-5.4-5.5-9-12.7-9.8-20.8H196.9c-0.7,8.1-4.3,15.3-9.8,20.8c-5.4,5.5-12.7,9.1-20.8,9.8L166.4,184.4z M472.3,99.7H144.9v73.1
		c1.2,0.4,2.3,0.8,3.3,1.2c4.6,1.7,8.6,3.7,12,5.8l0-31.3c0-1.7,1.4-3,3-3c7.6,0,14.5-3.1,19.5-8.1c5-5,8.1-11.9,8.1-19.5
		c0-1.7,1.4-3,3-3h248.4c1.7,0,3,1.4,3,3c0,7.6,3.1,14.5,8.1,19.5c5,5,11.9,8.1,19.6,8.1c1.7,0,3,1.4,3,3v85.5c0,1.7-1.4,3-3,3
		c-7.6,0-14.5,3.1-19.6,8.1c-5,5-8.1,11.9-8.1,19.6c0,1.7-1.4,3-3,3l-214,0c-0.3,0.4-0.7,0.8-1.1,1.1c0.8,0.8,1.5,1.6,2.1,2.5
		c1.4,2,2.2,4.1,2.2,6.3c0,1.8-0.5,3.4-1.3,5h261.3l0-183L472.3,99.7z M320.5,206.3c1.6-0.3,2.8-1.1,3.8-2.2s1.5-2.5,1.5-4
		c0-1.4-0.4-2.6-1.2-3.6c-0.8-1-2.2-1.8-4-2.3L320.5,206.3z M316,173.2c-1.2,0.4-2.2,1.1-2.9,2.2c-0.7,1-1.1,2.1-1.1,3.3
		c0,1.1,0.3,2.1,1,3.1c0.6,0.9,1.6,1.7,3,2.3L316,173.2z M316,205.8v-13c-4-1.2-7-2.9-8.9-5.3c-1.9-2.4-2.8-5.2-2.8-8.5
		c0-3.4,1.1-6.2,3.2-8.5c2.1-2.3,5-3.6,8.5-4v-3.1h4.5v3.1c3.3,0.4,5.9,1.5,7.9,3.4c1.9,1.9,3.2,4.3,3.7,7.5l-7.9,1
		c-0.5-2.5-1.7-4.1-3.7-5v12.1c5,1.3,8.4,3.1,10.2,5.2c1.8,2.2,2.7,4.9,2.7,8.3c0,3.7-1.1,6.9-3.4,9.5c-2.3,2.6-5.4,4.2-9.5,4.8v5.8
		H316v-5.7c-3.6-0.4-6.5-1.8-8.7-4c-2.2-2.2-3.7-5.4-4.3-9.4l8.1-1c0.3,1.7,1,3.1,1.9,4.3C313.9,204.4,314.9,205.3,316,205.8
		L316,205.8z M349.7,159.8c-8-8-19.1-13-31.4-13c-12.3,0-23.4,5-31.4,13c-8,8-13,19.1-13,31.4s5,23.4,13,31.4c8,8.1,19.1,13,31.4,13
		c12.3,0,23.4-5,31.4-13c8-8.1,13-19.2,13-31.4C362.7,178.9,357.7,167.8,349.7,159.8z M248.1,302.3c-1.7,0-3-1.4-3-3s1.4-3,3-3
		h189.2c1.7,0,3,1.4,3,3s-1.4,3-3,3H248.1z M358.8,319.7c-1.7,0-3-1.4-3-3s1.4-3,3-3h130.9c1.7,0,3,1.4,3,3s-1.4,3-3,3H358.8z
		 M503.1,319.7c-1.7,0-3-1.4-3-3s1.4-3,3-3h16.4c1.7,0,3,1.4,3,3s-1.4,3-3,3H503.1z M240.6,319.2c-1.7,0-3-1.4-3-3c0-1.7,1.4-3,3-3
		h62c1.7,0,3,1.4,3,3c0,1.7-1.4,3-3,3H240.6z M318.2,140.4c14,0,26.7,5.7,35.9,14.9l0.1,0.1c9.2,9.2,14.8,21.8,14.8,35.8
		c0,14-5.7,26.7-14.9,35.9l-0.1,0.1c-9.2,9.1-21.8,14.8-35.8,14.8c-14,0-26.7-5.7-35.9-14.9c-9.2-9.2-14.9-21.9-14.9-35.9
		c0-14,5.7-26.7,14.9-35.9C291.5,146.1,304.2,140.4,318.2,140.4L318.2,140.4z"/>
</g>
</svg>
