<?xml version="1.0" encoding="utf-8"?>
<!-- Generator: Adobe Illustrator 26.2.1, SVG Export Plug-In . SVG Version: 6.00 Build 0)  -->
<svg version="1.1" id="Layer_1" xmlns="http://www.w3.org/2000/svg" xmlns:xlink="http://www.w3.org/1999/xlink" x="0px" y="0px"
	 viewBox="0 0 130 95.8" style="enable-background:new 0 0 130 95.8;" xml:space="preserve">
<style type="text/css">
	.st0{fill:#CCCCCC;fill-opacity:0.2;}
	.st1{fill:#D7CBAC;}
</style>
<path class="st0" d="M60.2,75c-0.6-0.5-1.4-0.8-2.1-0.8c-1,0-2,0.4-2.6,1.3l-4.4,5.4c-0.6,0.7-0.8,1.6-0.7,2.5
	c0.1,0.9,0.5,1.7,1.2,2.3c1.5,1.2,3.6,1,4.8-0.5l4.4-5.4C61.9,78.3,61.7,76.2,60.2,75L60.2,75z"/>
<path class="st0" d="M53.7,66c-0.6-0.5-1.4-0.8-2.1-0.8c-0.1,0-0.3,0-0.4,0c-0.8,0.1-1.5,0.4-2.1,1L43,73.9
	c-0.1,0.1-0.2,0.2-0.3,0.3l-0.2,0.2c-0.6,0.7-0.8,1.6-0.7,2.5c0.1,0.9,0.5,1.7,1.2,2.3c1.4,1.2,3.6,1,4.8-0.5l6.3-7.8
	C55.3,69.4,55.1,67.2,53.7,66L53.7,66z"/>
<path class="st0" d="M46.1,63.7l1.6-2c1.2-1.5,1-3.6-0.5-4.8c-1.5-1.2-3.6-1-4.8,0.5l-7.8,9.6c-1.2,1.5-1,3.6,0.5,4.8
	c1.4,1.1,3.4,1,4.6-0.3l6.1-7.5C45.9,64,46,63.9,46.1,63.7z"/>
<path class="st0" d="M33.2,57.3c-0.6-0.5-1.4-0.7-2.1-0.7c-1,0-2,0.4-2.6,1.2L26.6,60c-1.2,1.5-1,3.6,0.5,4.8
	c0.7,0.6,1.6,0.8,2.5,0.7c0.9-0.1,1.7-0.5,2.3-1.2l1.8-2.2C34.8,60.6,34.6,58.5,33.2,57.3L33.2,57.3z"/>
<path class="st0" d="M26.1,10.5l-21.4,37l7.4,4.2l21.4-37L26.1,10.5z"/>
<path class="st0" d="M99.4,54.1c-11.2-6.5-28.8-18.1-32.6-20.6l-4.1,1.1c-1.4,2-6.2,7.7-14.1,9c-1.9,0.3-3.8-0.4-5-1.9
	c-1.2-1.5-1.6-3.5-1-5.3c0.9-2.5,2.4-6,5.2-9.8C42.4,25.7,37,22.7,34.3,21L19.9,46l6.6,8.2c2.6-2.1,6.4-2.1,9.1,0.1
	c1,0.8,1.7,1.8,2.1,2.8l1.7-2c2.5-3.1,7.2-3.6,10.3-1.1c2.3,1.8,3.2,4.8,2.5,7.4c1.4,0.1,2.8,0.7,3.9,1.6c2.2,1.8,3.1,4.7,2.5,7.4
	c1.4,0.1,2.8,0.6,4,1.6c3.1,2.5,3.6,7.2,1.1,10.3l-0.4,0.5c3.7,1.7,11.3,4.4,15.9,0c-4.7-1.7-9.8-4.8-12.5-6.6
	c-0.9-0.6-1.2-1.8-0.6-2.7c0.6-0.9,1.8-1.2,2.7-0.6c7.5,4.8,15.5,8.1,17.1,7.2c2.6-1.5,3-2.4,3.1-4.1c-7.3-2-15.5-9-16.7-10
	c-0.8-0.7-0.9-2-0.2-2.8c0.7-0.8,2-0.9,2.8-0.2c5.6,4.9,15.2,11,19.1,9.3c1.5-0.7,2-2.7,2.1-4.7c-7-2.9-15.2-9-18.5-11.7
	c-0.8-0.7-1-1.9-0.3-2.8c0.7-0.8,1.9-1,2.8-0.3c9.3,7.4,21.2,14.2,23.5,12c0,0,0.1-0.1,0.2-0.1c0,0,2-1.7,1.9-4
	C105.4,58.6,103.3,56.3,99.4,54.1L99.4,54.1z"/>
<path class="st0" d="M107.1,10.2l-7.4,4.2l21.4,37l7.4-4.2L107.1,10.2z"/>
<path class="st0" d="M88.3,21.8c-1.4-0.4-3.1-0.8-4.9-1.2c-19.3-4.5-26.7,1.4-26.7,1.5c-6.2,6.3-9.1,11.9-10.3,15.5
	c-0.3,0.7,0.1,1.3,0.3,1.5c0.2,0.2,0.6,0.6,1.3,0.5c7.7-1.2,11.9-7.8,11.9-7.8c0.3-0.4,0.7-0.7,1.2-0.9l5.7-1.5
	c0.5-0.1,1.1,0,1.6,0.3c0.2,0.1,20.7,13.8,33.1,21c1.9,1.1,3.6,2.3,4.8,3.5c1.9-1.4,5.4-4.1,8.2-6.4L99.6,22.2
	C95.7,23.8,92.4,22.9,88.3,21.8L88.3,21.8z"/>
<path class="st1" d="M55.9,81.2H40.7V11.4h33.1c3.2,0,6.1,0.5,8.7,1.6c2.6,1.1,4.8,2.6,6.6,4.6c1.9,1.9,3.3,4.3,4.3,7
	s1.5,5.8,1.5,9.1c0,4.7-1.1,8.9-3.2,12.4c-2.1,3.5-5.2,6.1-9.5,7.7l13.7,27.4H79L66.8,55.6H55.9V81.2z M71.9,42.8
	c2.3,0,4-0.6,5.3-1.7c1.3-1.2,2-2.9,2-5.2v-4.4c0-2.3-0.7-4-2-5.1c-1.3-1.2-3-1.8-5.3-1.8h-16v18.2H71.9z"/>
</svg>
