<svg width="94" height="96" viewBox="0 0 94 96" fill="none" xmlns="http://www.w3.org/2000/svg">
<g clip-path="url(#clip0_486_13232)">
<path d="M93.5227 9.38455C90.9771 1.27248 83.7452 3.29688 74.4884 4.6995C65.2316 6.10212 57.2042 0 47.0072 0C36.8103 0 28.7829 6.08766 19.5261 4.6995C10.2692 3.31134 3.0229 1.27248 0.477282 9.38455C-2.06834 17.4966 5.94458 26.6498 13.4223 27.474C20.9001 28.2982 28.3634 22.3986 29.5205 20.7501C30.6776 19.1017 32.0806 18.0895 32.717 19.9837C33.3534 21.878 35.7689 23.2662 36.7813 24.9291C37.7938 26.592 34.3659 30.0334 36.6512 37.3213C38.3547 42.5033 39.4185 47.874 39.8187 53.3141C39.8187 55.4541 43.3768 55.2228 44.3893 54.7601C45.2275 54.4378 46.1106 54.2475 47.0072 54.1961C47.8992 54.2472 48.7776 54.4374 49.6107 54.7601C50.6232 55.2372 54.1812 55.4686 54.1812 53.3141C54.5815 47.874 55.6452 42.5033 57.3488 37.3213C59.6341 30.0913 56.2062 26.592 57.2186 24.9291C58.2311 23.2662 60.6465 21.8925 61.2829 19.9837C61.9194 18.075 63.3079 19.1017 64.4794 20.7501C65.651 22.3986 73.1577 28.3705 80.5776 27.474C87.9975 26.5775 96.0538 17.5111 93.5227 9.38455ZM30.3739 17.1351C25.2971 23.4686 22.3754 18.7836 17.0528 16.1085C11.7301 13.4333 6.82687 18.1473 4.16554 13.7081C2.96505 11.7126 3.8618 7.23 7.33311 6.2178C13.4224 4.36692 14.6952 8.87845 26.3674 9.10981C30.5764 9.22549 31.9504 14.5901 30.3739 17.1351ZM89.8344 13.7081C87.1731 18.1473 82.2265 13.4478 76.817 16.1085C71.4076 18.7691 68.5727 23.4686 63.4959 17.1351C61.9772 14.5901 63.3513 9.22549 67.5602 9.13873C79.2325 8.87845 80.5776 4.36692 86.5945 6.24672C90.1382 7.23 91.0349 11.7126 89.8344 13.7081Z" fill="#D7CAAA"/>
<mask id="mask0_486_13232" style="mask-type:luminance" maskUnits="userSpaceOnUse" x="-1" y="0" width="95" height="56">
<path d="M93.5227 9.38455C90.9771 1.27248 83.7452 3.29688 74.4884 4.6995C65.2316 6.10212 57.2042 0 47.0072 0C36.8103 0 28.7829 6.08766 19.5261 4.6995C10.2692 3.31134 3.0229 1.27248 0.477282 9.38455C-2.06834 17.4966 5.94458 26.6498 13.4223 27.474C20.9001 28.2982 28.3634 22.3986 29.5205 20.7501C30.6776 19.1017 32.0806 18.0895 32.717 19.9837C33.3534 21.878 35.7689 23.2662 36.7813 24.9291C37.7938 26.592 34.3659 30.0334 36.6512 37.3213C38.3547 42.5033 39.4185 47.874 39.8187 53.3141C39.8187 55.4541 43.3768 55.2228 44.3893 54.7601C45.2275 54.4378 46.1106 54.2475 47.0072 54.1961C47.8992 54.2472 48.7776 54.4374 49.6107 54.7601C50.6232 55.2372 54.1812 55.4686 54.1812 53.3141C54.5815 47.874 55.6452 42.5033 57.3488 37.3213C59.6341 30.0913 56.2062 26.592 57.2186 24.9291C58.2311 23.2662 60.6465 21.8925 61.2829 19.9837C61.9194 18.075 63.3079 19.1017 64.4794 20.7501C65.651 22.3986 73.1577 28.3705 80.5776 27.474C87.9975 26.5775 96.0538 17.5111 93.5227 9.38455ZM30.3739 17.1351C25.2971 23.4686 22.3754 18.7836 17.0528 16.1085C11.7301 13.4333 6.82687 18.1473 4.16554 13.7081C2.96505 11.7126 3.8618 7.23 7.33311 6.2178C13.4224 4.36692 14.6952 8.87845 26.3674 9.10981C30.5764 9.22549 31.9504 14.5901 30.3739 17.1351ZM89.8344 13.7081C87.1731 18.1473 82.2265 13.4478 76.817 16.1085C71.4076 18.7691 68.5727 23.4686 63.4959 17.1351C61.9772 14.5901 63.3513 9.22549 67.5602 9.13873C79.2325 8.87845 80.5776 4.36692 86.5945 6.24672C90.1382 7.23 91.0349 11.7126 89.8344 13.7081Z" fill="white"/>
</mask>
<g mask="url(#mask0_486_13232)">
<path d="M58.8675 7.73594C54.9333 7.86608 51.8381 6.50684 46.5877 6.50684C41.3374 6.50684 39.0666 7.86608 35.1324 7.73594C31.1983 7.6058 29.9255 8.12636 32.9773 9.38438C36.0292 10.6424 37.1574 11.5678 37.9239 14.214C39.4426 19.5498 44.7219 19.6799 45.7922 24.5385C46.3852 27.228 45.5753 27.8787 45.4017 31.1322C45.5139 32.4539 45.7071 33.7674 45.9803 35.0654C46.0526 36.1499 46.096 36.7716 45.5319 37.191C44.8232 37.5686 44.0125 37.7104 43.2177 37.5959C42.7302 37.5287 42.2472 37.4321 41.7713 37.3067C41.0337 37.1187 39.7753 36.5547 39.2401 37.3067C38.705 38.0586 39.6017 38.6659 40.0357 39.1865C40.8121 40.297 41.5081 41.4616 42.1184 42.6713C43.29 44.5367 42.7838 45.9827 42.697 48.8024C42.6241 51.4896 42.9408 54.1733 43.6371 56.7698H50.3628C51.0592 54.1733 51.3758 51.4896 51.3029 48.8024C51.2161 45.9827 50.7099 44.5367 51.8815 42.6713C52.4918 41.4616 53.1878 40.297 53.9643 39.1865C54.3982 38.6659 55.1503 37.8417 54.7598 37.3067C54.3692 36.7716 52.9663 37.1621 52.2286 37.3067C51.7528 37.4321 51.2698 37.5287 50.7822 37.5959C49.9874 37.7104 49.1767 37.5686 48.468 37.191C47.9039 36.7716 47.9473 36.1499 48.0197 35.0654C48.2928 33.7674 48.486 32.4539 48.5982 31.1322C48.4246 27.8787 47.6147 27.228 48.2077 24.5385C49.278 19.6799 54.5573 19.5498 56.076 14.214C56.8426 11.5678 57.9852 10.6569 61.0226 9.38438C64.06 8.1119 62.8016 7.6058 58.8675 7.73594Z" fill="#B6A680"/>
</g>
<path d="M47.0072 15.8623V57.2179" stroke="#C9BB9B" stroke-width="0.43" stroke-miterlimit="10"/>
<path d="M47.0072 57.2178C47.3563 57.2178 47.6911 57.3564 47.9379 57.6032C48.1848 57.85 48.3234 58.1846 48.3234 58.5336V60.4424H45.691V58.5336C45.691 58.1846 45.8297 57.85 46.0765 57.6032C46.3234 57.3564 46.6582 57.2178 47.0072 57.2178Z" fill="#C4B694"/>
<path d="M46.0526 59.8207H47.9474C48.2619 59.8207 48.5636 59.9456 48.786 60.168C49.0084 60.3903 49.1334 60.6919 49.1334 61.0064V62.0475H44.8376V61.0064C44.8376 60.8482 44.8692 60.6916 44.9306 60.5459C44.992 60.4001 45.082 60.2681 45.1952 60.1576C45.3084 60.0471 45.4426 59.9603 45.5898 59.9025C45.7371 59.8446 45.8944 59.8168 46.0526 59.8207Z" fill="#D7CAAA"/>
<path d="M45.4741 61.9326H48.5259C49.1435 61.9326 49.7358 62.1779 50.1725 62.6145C50.6092 63.0511 50.8546 63.6432 50.8546 64.2607V91.0985H43.1454V64.2607C43.1454 63.6432 43.3907 63.0511 43.8274 62.6145C44.2641 62.1779 44.8565 61.9326 45.4741 61.9326Z" fill="#EFEAE1"/>
<path d="M50.2326 68.9739H43.7673V64.0719C43.7673 63.7268 43.9045 63.3957 44.1486 63.1517C44.3927 62.9076 44.7238 62.7705 45.0691 62.7705H48.9309C49.2761 62.7705 49.6072 62.9076 49.8514 63.1517C50.0955 63.3957 50.2326 63.7268 50.2326 64.0719V68.9739Z" fill="#D7CAAA"/>
<path d="M53.2411 95.1328H40.7589V96.0004H53.2411V95.1328Z" fill="#D7CAAA"/>
<path d="M49.1334 69.1338H44.8666V95.7547H49.1334V69.1338Z" fill="#D7CAAA"/>
<path d="M50.869 67.7598H43.1454V70.8542H50.869V67.7598Z" fill="#C4B694"/>
<path d="M46.3998 63.9131H49.6107" stroke="#B2A17D" stroke-width="0.43" stroke-miterlimit="10"/>
<path d="M48.0197 65.2725H49.6107" stroke="#B2A17D" stroke-width="0.43" stroke-miterlimit="10"/>
<path d="M48.0197 66.6318H49.6107" stroke="#B2A17D" stroke-width="0.43" stroke-miterlimit="10"/>
<path d="M46.3998 68.0059H49.6107" stroke="#B2A17D" stroke-width="0.43" stroke-miterlimit="10"/>
<path d="M48.0197 69.3643H49.6107" stroke="#B2A17D" stroke-width="0.43" stroke-miterlimit="10"/>
<path d="M48.0197 70.7236H49.6107" stroke="#B2A17D" stroke-width="0.43" stroke-miterlimit="10"/>
<path d="M46.3998 72.083H49.6107" stroke="#B2A17D" stroke-width="0.43" stroke-miterlimit="10"/>
<path d="M48.0197 73.457H49.6107" stroke="#B2A17D" stroke-width="0.43" stroke-miterlimit="10"/>
<path d="M48.0197 74.8164H49.6107" stroke="#B2A17D" stroke-width="0.43" stroke-miterlimit="10"/>
<path d="M46.3998 76.1758H49.6107" stroke="#B2A17D" stroke-width="0.43" stroke-miterlimit="10"/>
<path d="M48.0197 77.5342H49.6107" stroke="#B2A17D" stroke-width="0.43" stroke-miterlimit="10"/>
<path d="M48.0197 78.9082H49.6107" stroke="#B2A17D" stroke-width="0.43" stroke-miterlimit="10"/>
<path d="M46.3998 80.2676H49.6107" stroke="#B2A17D" stroke-width="0.43" stroke-miterlimit="10"/>
<path d="M48.0197 81.627H49.6107" stroke="#B2A17D" stroke-width="0.43" stroke-miterlimit="10"/>
<path d="M48.0197 82.9863H49.6107" stroke="#B2A17D" stroke-width="0.43" stroke-miterlimit="10"/>
<path d="M46.3998 84.3594H49.6107" stroke="#B2A17D" stroke-width="0.43" stroke-miterlimit="10"/>
<path d="M48.0197 85.7188H49.6107" stroke="#B2A17D" stroke-width="0.43" stroke-miterlimit="10"/>
<path d="M48.0197 87.0781H49.6107" stroke="#B2A17D" stroke-width="0.43" stroke-miterlimit="10"/>
<path d="M46.3998 88.4375H49.6107" stroke="#B2A17D" stroke-width="0.43" stroke-miterlimit="10"/>
<path d="M53.2411 90.418H40.7589V91.2856H53.2411V90.418Z" fill="#E4DBC6"/>
<path d="M43.0008 90.3027H50.9993" stroke="#B2A17D" stroke-width="0.43" stroke-miterlimit="10"/>
<path d="M44.6497 95.0889H49.0322" stroke="#B2A17D" stroke-width="0.43" stroke-miterlimit="10"/>
<path d="M45.7199 20.2441C44.8923 20.1321 44.0949 19.858 43.3734 19.4374C42.6519 19.0169 42.0205 18.4582 41.5153 17.7933C41.0102 17.1284 40.6412 16.3704 40.4294 15.5627C40.2177 14.755 40.1675 13.9135 40.2816 13.0864C40.4815 11.3642 41.3533 9.79047 42.7076 8.70738C44.0618 7.62429 45.7889 7.11938 47.5134 7.30241C49.3085 7.62516 50.9266 8.58545 52.0695 10.0064C52.6795 10.6642 53.1431 11.4437 53.4298 12.2936C53.7165 13.1436 53.8198 14.0446 53.7329 14.9373C53.2411 18.5523 49.09 20.7213 45.7199 20.2441Z" fill="white"/>
<path d="M53.2122 13.2454C53.6172 16.4122 50.5075 19.4054 47.3399 19.8103C46.5858 19.9055 45.8203 19.8512 45.0872 19.6505C44.3541 19.4499 43.6677 19.1067 43.0673 18.6408C42.4669 18.1748 41.9642 17.5951 41.588 16.9348C41.2117 16.2745 40.9693 15.5466 40.8746 14.7926C40.6692 13.2439 41.0731 11.6759 42.0012 10.4189C42.9293 9.16196 44.3092 8.31422 45.8502 8.05428C49.0322 7.6494 52.8217 10.1221 53.2122 13.2454Z" fill="#DDD5C4"/>
<path d="M44.6062 12.783C44.747 13.2743 44.7007 13.8004 44.4764 14.2597C44.252 14.719 43.8654 15.079 43.3913 15.2701C42.9519 15.4589 42.4557 15.466 42.0111 15.2898C41.5665 15.1137 41.2099 14.7686 41.0192 14.3302C40.822 13.8807 40.8084 13.372 40.9814 12.9126C41.1543 12.4533 41.5001 12.0798 41.9449 11.872C42.4234 11.6737 42.9578 11.6568 43.4478 11.8246C43.9378 11.9923 44.3497 12.3331 44.6062 12.783Z" fill="#B2A38A"/>
<path d="M41.9449 14.0114C41.9449 14.2283 41.9449 14.4307 41.7424 14.4452C41.5399 14.4596 41.4821 14.2861 41.4532 14.0548C41.4242 13.8234 41.5255 13.6354 41.6556 13.621C41.7858 13.6065 41.9449 13.78 41.9449 14.0114Z" fill="#998661"/>
<path d="M45.9224 16.6149C45.9647 17.0647 45.841 17.5144 45.5746 17.8793C45.3082 18.2442 44.9174 18.4991 44.4761 18.5959C44.2632 18.6493 44.0417 18.6593 43.8249 18.6253C43.608 18.5912 43.4003 18.5139 43.214 18.3978C43.0277 18.2817 42.8667 18.1294 42.7406 17.9498C42.6145 17.7701 42.5259 17.567 42.4801 17.3524C42.3878 16.9216 42.4657 16.4719 42.6975 16.0972C42.9294 15.7226 43.2972 15.4521 43.7239 15.3424C44.1822 15.2544 44.6569 15.3346 45.0608 15.5684C45.4647 15.8021 45.7706 16.1737 45.9224 16.6149Z" fill="#B2A38A"/>
<path d="M44.8377 16.4702C44.8377 16.2678 45.0112 16.1232 45.1414 16.1521C45.2716 16.181 45.3294 16.369 45.2716 16.5715C45.2137 16.7739 45.098 16.9185 44.9678 16.8896C44.8377 16.8607 44.7509 16.6727 44.8377 16.4702Z" fill="#998661"/>
<path d="M48.3523 12.1459C48.3678 12.623 48.2066 13.0889 47.8997 13.4545C47.5927 13.8201 47.1616 14.0595 46.689 14.1269C46.4665 14.1617 46.2392 14.1516 46.0206 14.0974C45.802 14.0432 45.5964 13.9459 45.4159 13.8112C45.2354 13.6766 45.0836 13.5072 44.9694 13.3131C44.8552 13.119 44.7809 12.9041 44.7509 12.6809C44.6755 12.2209 44.7853 11.7498 45.0563 11.3705C45.3274 10.9911 45.7375 10.7345 46.1972 10.6565C46.6752 10.6063 47.1554 10.7289 47.5508 11.0021C47.9461 11.2753 48.2305 11.6811 48.3523 12.1459Z" fill="#B2A38A"/>
<path d="M45.3294 11.568C45.4162 11.3655 45.5898 11.2499 45.7055 11.2932C45.8212 11.3366 45.8501 11.5391 45.7055 11.7415C45.5609 11.9439 45.4596 12.0596 45.3439 12.0162C45.2282 11.9729 45.2571 11.8138 45.3294 11.568Z" fill="#998661"/>
<path d="M46.2841 15.9064C46.1903 15.4666 46.2625 15.0077 46.4868 14.618C46.7111 14.2283 47.0716 13.9352 47.499 13.7952C47.6975 13.7271 47.9074 13.6989 48.1168 13.7122C48.3262 13.7255 48.5309 13.7801 48.7191 13.8729C48.9073 13.9656 49.0753 14.0946 49.2135 14.2525C49.3516 14.4105 49.4571 14.5941 49.5239 14.793C49.6694 15.1997 49.6493 15.6473 49.4681 16.0394C49.2869 16.4315 48.959 16.7368 48.5549 16.8897C48.1216 17.0314 47.6513 17.0097 47.2329 16.8285C46.8146 16.6474 46.477 16.3194 46.2841 15.9064Z" fill="#B2A38A"/>
<path d="M49.1768 15.0822C49.1768 15.2846 49.0755 15.4582 48.9454 15.4582C48.8152 15.4582 48.7284 15.2846 48.7284 15.0822C48.7284 14.8798 48.8296 14.7207 48.9598 14.7207C49.09 14.7207 49.1768 14.8798 49.1768 15.0822Z" fill="#998661"/>
<path d="M49.7409 13.6791C49.6018 13.2533 49.6219 12.7915 49.7974 12.3793C49.9729 11.9672 50.292 11.6327 50.6955 11.4378C51.078 11.2569 51.5161 11.2328 51.9161 11.3706C52.3161 11.5084 52.6464 11.7972 52.8362 12.1753C52.9395 12.3749 53.0017 12.5933 53.019 12.8174C53.0363 13.0415 53.0084 13.2668 52.9369 13.4799C52.8654 13.6931 52.7518 13.8896 52.6028 14.058C52.4538 14.2263 52.2725 14.363 52.0696 14.46C51.6519 14.6275 51.1882 14.6409 50.7616 14.4978C50.3349 14.3548 49.9731 14.0645 49.7409 13.6791Z" fill="#B2A38A"/>
<path d="M50.5075 13.3896C50.5075 13.5921 50.3773 13.7511 50.2616 13.7367C50.1459 13.7222 50.0447 13.5632 50.0591 13.3607C50.0736 13.1583 50.1893 13.0137 50.305 13.0137C50.4207 13.0137 50.522 13.1872 50.5075 13.3896Z" fill="#998661"/>
<path d="M50.9992 10.3969C50.9642 10.8156 50.7772 11.2069 50.4735 11.4973C50.1698 11.7876 49.7703 11.9568 49.3504 11.973C49.1488 11.9974 48.9443 11.9791 48.7503 11.9192C48.5563 11.8594 48.3771 11.7594 48.2242 11.6257C48.0714 11.492 47.9485 11.3277 47.8634 11.1434C47.7783 10.9591 47.733 10.7589 47.7304 10.5559C47.7066 10.1463 47.8449 9.74373 48.1156 9.43526C48.3862 9.12679 48.7674 8.93721 49.1768 8.90751C49.6099 8.89122 50.0341 9.03356 50.3696 9.3078C50.7052 9.58204 50.9291 9.96931 50.9992 10.3969Z" fill="#B2A38A"/>
<path d="M48.1788 10.3827C48.1788 10.1947 48.3813 10.079 48.4825 10.1224C48.5838 10.1658 48.6272 10.3393 48.5693 10.5128C48.5115 10.6863 48.3668 10.8165 48.2656 10.7731C48.1643 10.7297 48.121 10.5562 48.1788 10.3827Z" fill="#998661"/>
<path d="M47.8027 8.67553C47.9311 9.01802 47.9248 9.3964 47.7853 9.73447C47.6457 10.0725 47.3832 10.3452 47.0506 10.4975C46.8988 10.5743 46.7333 10.6203 46.5637 10.6328C46.394 10.6453 46.2235 10.624 46.0621 10.5702C45.9007 10.5164 45.7516 10.4312 45.6234 10.3194C45.4951 10.2077 45.3903 10.0716 45.315 9.9191C45.1587 9.60685 45.1286 9.24646 45.2309 8.91263C45.3333 8.57881 45.5602 8.29715 45.8646 8.12605C46.1957 7.94775 46.5833 7.9054 46.9451 8.00798C47.3069 8.11056 47.6145 8.35001 47.8027 8.67553Z" fill="#B2A38A"/>
<path d="M45.5319 9.55854C45.5319 9.38502 45.6187 9.25488 45.72 9.25488C45.8212 9.25488 45.8935 9.39948 45.8791 9.573C45.8646 9.74652 45.7923 9.8622 45.691 9.8622C45.5898 9.8622 45.5175 9.7176 45.5319 9.55854Z" fill="#998661"/>
<path d="M42.5379 11.1919C42.3729 10.8359 42.3466 10.431 42.4643 10.0566C42.582 9.68223 42.8352 9.36519 43.1743 9.16754C43.4907 8.98882 43.8628 8.93571 44.2165 9.01877C44.5703 9.10183 44.8798 9.31497 45.0836 9.6158C45.2795 9.93098 45.3467 10.3094 45.2714 10.6728C45.196 11.0361 44.9837 11.3566 44.6786 11.5679C44.336 11.7723 43.9313 11.8468 43.5383 11.7778C43.1454 11.7088 42.7903 11.5009 42.5379 11.1919Z" fill="#B2A38A"/>
<path d="M44.9245 10.1216C44.9245 10.3096 44.8087 10.4398 44.7075 10.4398C44.6062 10.4398 44.5195 10.2807 44.5339 10.1072C44.5484 9.93366 44.6352 9.78906 44.7509 9.78906C44.8666 9.78906 44.9245 9.97704 44.9245 10.1216Z" fill="#998661"/>
<path d="M49.6107 16.759C49.4939 16.3843 49.521 15.9796 49.6869 15.6239C49.8527 15.2682 50.1453 14.9872 50.5074 14.8358C50.8465 14.7002 51.2244 14.6979 51.5651 14.8294C51.9058 14.9608 52.1842 15.2162 52.3443 15.5443C52.4993 15.8865 52.515 16.2755 52.3881 16.6291C52.2613 16.9826 52.0018 17.2729 51.6646 17.4386C51.2982 17.595 50.8873 17.6123 50.509 17.4871C50.1308 17.362 49.8114 17.103 49.6107 16.759Z" fill="#B2A38A"/>
<path d="M50.3483 16.6142C50.3483 16.8022 50.3483 16.9468 50.1892 16.9613C50.0301 16.9757 49.9867 16.8311 49.9723 16.6576C49.9578 16.4841 49.9723 16.325 50.1314 16.3106C50.2905 16.2961 50.3339 16.4407 50.3483 16.6142Z" fill="#998661"/>
<path d="M45.691 19.073C45.552 18.6968 45.5562 18.2826 45.7029 17.9093C45.8496 17.536 46.1285 17.2296 46.4865 17.0486C46.8231 16.8794 47.2125 16.8482 47.5717 16.9617C47.931 17.0751 48.2318 17.3242 48.4102 17.6559C48.5047 17.8227 48.565 18.0066 48.5878 18.1969C48.6106 18.3872 48.5952 18.5801 48.5428 18.7644C48.4903 18.9488 48.4017 19.1208 48.2821 19.2706C48.1625 19.4204 48.0143 19.5449 47.8461 19.637C47.4801 19.8228 47.0586 19.8681 46.6614 19.7642C46.2643 19.6602 45.919 19.4143 45.691 19.073Z" fill="#B2A38A"/>
<path d="M46.4287 18.4506C46.4287 18.6386 46.2985 18.7687 46.1973 18.7542C46.096 18.7398 46.0092 18.5807 46.0382 18.4072C46.0671 18.2337 46.1683 18.0891 46.2696 18.1035C46.3708 18.118 46.4576 18.2771 46.4287 18.4506Z" fill="#998661"/>
</g>
<defs>
<clipPath id="clip0_486_13232">
<rect width="94" height="96" fill="white"/>
</clipPath>
</defs>
</svg>
