<svg width="25" height="25" viewBox="0 0 25 25" fill="none" xmlns="http://www.w3.org/2000/svg">
<g clip-path="url(#clip0_270_1254)">
<path d="M12.5 25C19.4036 25 25 19.4036 25 12.5C25 5.59644 19.4036 0 12.5 0C5.59644 0 0 5.59644 0 12.5C0 19.4036 5.59644 25 12.5 25Z" fill="#31C139"/>
<path d="M12.5001 6.03007C14.4874 6.0496 16.3185 6.56718 17.9103 7.79765C18.9845 8.62284 19.7755 9.66288 20.132 10.991C20.547 12.5486 20.2492 13.9842 19.3605 15.3123C18.7257 16.2547 17.8859 16.9969 17.0216 17.7146C15.63 18.867 14.1359 19.868 12.5441 20.7225C12.4025 20.7957 12.256 20.8641 12.1046 20.908C11.8556 20.9764 11.6798 20.8152 11.7238 20.5613C11.7433 20.4392 11.8068 20.3221 11.8361 20.2C11.9142 19.824 12.007 19.448 12.0509 19.0623C12.0851 18.7693 11.9289 18.6424 11.6359 18.618C9.82925 18.4519 8.18862 17.8514 6.8019 16.6648C5.60073 15.6394 4.85366 14.3504 4.71694 12.7635C4.59975 11.3865 5.00991 10.1512 5.84487 9.05741C6.98256 7.57304 8.52065 6.72343 10.3078 6.28397C11.0207 6.10331 11.7531 6.0203 12.5001 6.03007ZM12.3732 11.9529C12.4269 12.0213 12.4562 12.0506 12.4757 12.0799C12.9494 12.7244 13.423 13.3689 13.9015 14.0135C14.0431 14.2039 14.2238 14.2771 14.4044 14.2185C14.5851 14.16 14.6876 14.0135 14.6876 13.7791C14.6876 12.7781 14.6876 11.7771 14.6828 10.7713C14.6828 10.5223 14.5021 10.3416 14.2726 10.3416C14.0431 10.3416 13.8673 10.532 13.8673 10.7908C13.8673 11.3377 13.8673 11.8846 13.8624 12.4363C13.8624 12.4851 13.8527 12.5291 13.8429 12.6121C13.7892 12.5486 13.7599 12.5096 13.7355 12.4754C13.2716 11.8455 12.8126 11.2156 12.3488 10.5906C12.1876 10.3758 12.0363 10.3074 11.841 10.366C11.6408 10.4295 11.5529 10.5808 11.5529 10.8543C11.548 11.8162 11.548 12.7781 11.548 13.74C11.548 14.0428 11.7091 14.2234 11.9582 14.2283C12.2121 14.2332 12.3732 14.0525 12.3781 13.7547C12.383 13.3885 12.3732 13.0174 12.3732 12.6512C12.3732 12.4363 12.3732 12.2166 12.3732 11.9529ZM16.0597 11.1668C16.4162 11.1668 16.758 11.1668 17.1046 11.1668C17.3927 11.1668 17.5783 11.0057 17.5832 10.7664C17.588 10.5125 17.4074 10.3367 17.1144 10.3367C16.6457 10.3318 16.1818 10.3318 15.713 10.3367C15.381 10.3416 15.2296 10.493 15.2248 10.8348C15.2199 11.1277 15.2248 11.4207 15.2248 11.7185C15.2248 12.4021 15.2199 13.0808 15.2199 13.7644C15.2199 14.0818 15.3712 14.2332 15.6837 14.2332C16.1769 14.2332 16.6701 14.2332 17.1681 14.2332C17.3683 14.2332 17.5001 14.1355 17.5685 13.9598C17.671 13.701 17.4562 13.4178 17.1583 13.4129C16.7921 13.408 16.4259 13.4129 16.0548 13.4129C16.0548 13.1639 16.0548 12.9441 16.0548 12.7049C16.4259 12.7049 16.7873 12.7049 17.1437 12.7049C17.3976 12.7049 17.5734 12.5389 17.5832 12.3094C17.5929 12.0701 17.4171 11.8943 17.1486 11.8846C17.0363 11.8797 16.924 11.8846 16.8068 11.8846C16.5578 11.8846 16.3039 11.8846 16.0548 11.8846C16.0597 11.6258 16.0597 11.4109 16.0597 11.1668ZM8.2521 13.4129C8.2521 13.3103 8.2521 13.2322 8.2521 13.1541C8.2521 12.3728 8.2521 11.5916 8.24721 10.8103C8.24721 10.5223 8.07632 10.3416 7.83706 10.3416C7.5978 10.3416 7.43178 10.5271 7.43178 10.8152C7.4269 11.7967 7.4269 12.7781 7.4269 13.7596C7.4269 14.0721 7.58315 14.2234 7.89565 14.2283C8.36928 14.2283 8.84292 14.2283 9.31655 14.2283C9.60464 14.2283 9.7853 14.0721 9.79018 13.8279C9.79506 13.5838 9.59487 13.4178 9.3019 13.4129C8.96499 13.4129 8.62807 13.4129 8.2521 13.4129ZM10.1564 12.2752H10.1515C10.1515 12.7683 10.1515 13.2615 10.1515 13.7596C10.1515 14.0428 10.3175 14.2234 10.5617 14.2283C10.8058 14.2283 10.9718 14.0525 10.9718 13.7693C10.9718 12.7732 10.9669 11.782 10.9621 10.7859C10.9621 10.7029 10.9425 10.6101 10.8986 10.5418C10.796 10.3758 10.6349 10.3221 10.4494 10.3709C10.2687 10.4197 10.1613 10.5711 10.1564 10.8006C10.1564 11.2889 10.1564 11.782 10.1564 12.2752Z" fill="white"/>
</g>
<defs>
<clipPath id="clip0_270_1254">
<rect width="25" height="25" fill="white"/>
</clipPath>
</defs>
</svg>
