<svg width="25" height="25" viewBox="0 0 25 25" fill="none" xmlns="http://www.w3.org/2000/svg">
<g clip-path="url(#clip0_270_1232)">
<path d="M24.9992 12.5762C24.9992 5.6293 19.4023 -0.00195312 12.4992 -0.00195312C5.59297 -0.000390625 -0.00390625 5.6293 -0.00390625 12.5777C-0.00390625 18.8543 4.56797 24.0574 10.543 25.0012V16.2121H7.37109V12.5777H10.5461V9.8043C10.5461 6.65273 12.4133 4.91211 15.268 4.91211C16.6367 4.91211 18.0664 5.15742 18.0664 5.15742V8.25117H16.4898C14.9383 8.25117 14.4539 9.22148 14.4539 10.2168V12.5762H17.9195L17.3664 16.2105H14.4523V24.9996C20.4273 24.0559 24.9992 18.8527 24.9992 12.5762Z" fill="#1877F2"/>
</g>
<defs>
<clipPath id="clip0_270_1232">
<rect width="25" height="25" fill="white"/>
</clipPath>
</defs>
</svg>
