<svg width="85" height="85" viewBox="0 0 85 85" fill="none" xmlns="http://www.w3.org/2000/svg">
<path d="M55.6502 53.5936H55.5131C53.4586 54.1413 49.7597 54.9632 45.9245 55.1003L55.1019 45.923C54.9648 47.7038 54.8277 49.3477 54.5542 50.9908H54.6913H54.8284C55.239 50.8537 57.7047 50.1689 61.1294 49.6212C61.2665 47.9774 61.4036 46.1965 61.4036 44.2792C60.034 43.5944 59.212 42.2247 59.212 40.5811V39.485C57.4311 39.0744 55.7873 38.3889 54.2807 37.4305C54.6913 38.8001 54.9655 40.4439 55.1026 42.0877L42.09 55.1003C40.4462 54.9632 38.8024 54.6896 37.4328 54.2784L54.2803 37.4309C54.1432 37.4309 54.0061 37.2938 54.0061 37.2938L53.1842 38.1157C52.3623 38.9376 51.4033 39.3483 50.3079 39.3483C49.7602 39.3483 49.3489 39.2112 48.9383 39.0741L34.6925 53.1828C34.1448 52.7721 33.5965 52.498 33.1858 51.9502C32.7752 51.5396 32.3639 50.9913 31.9533 50.4435L46.199 36.1978C46.199 35.9236 46.0619 35.6501 46.0619 35.2388C46.0619 34.1427 46.4726 33.1843 47.2945 32.3625L48.1164 31.5406C47.1574 29.8968 46.3355 28.1159 45.9248 26.1986H44.8287C43.0479 26.1986 41.6783 25.1026 40.9934 23.5959C39.0754 23.5959 37.2952 23.733 35.5143 23.8701C34.9666 27.1577 34.2818 29.4863 34.1447 30.1711C34.1447 30.3082 34.1447 30.3082 34.0076 30.4453C35.5143 30.1711 37.2953 30.0347 39.0755 29.8976L29.8981 39.0749C30.1723 35.1025 30.8571 31.4043 31.5419 29.3499C31.8161 28.528 37.1582 10.0358 28.6656 0.995794C27.4331 -0.236735 25.5152 -0.373823 24.1455 0.858703C22.9129 2.09123 22.7758 4.00914 24.0084 5.37885C24.2825 5.65303 24.419 5.92657 24.6932 6.20075L24.1455 5.65303L5.65303 24.4182L5.37885 24.1441C4.14632 22.9115 2.0912 23.048 0.858699 24.2812C-0.37383 25.5143 -0.236724 27.5688 0.995792 28.802C6.33777 33.8698 15.1045 34.0069 21.406 33.1851C21.9537 29.8974 22.6385 27.5688 22.7756 26.884C22.7756 26.7469 22.7756 26.7469 22.9127 26.6099C20.8582 27.0205 18.5296 27.1576 16.0639 27.1576L27.0222 16.1993C27.0222 20.7195 26.0632 25.3767 25.3784 27.7053C25.1042 28.5272 19.6251 47.4302 28.5288 56.4702C37.4326 65.5102 56.472 59.8949 57.2937 59.6206H57.4308C59.7594 58.9358 64.2796 57.9768 68.7997 57.9768L57.8415 68.9351C57.8415 66.6065 58.1156 64.1408 58.3892 62.0863H58.2521H57.9779C57.5673 62.2234 55.1016 62.9082 51.6769 63.4559C50.9921 69.757 50.9921 78.5236 56.06 83.8661C57.2925 85.0986 59.2104 85.2357 60.5801 84.0032L60.7172 83.8661C61.9498 82.6336 61.9498 80.7157 60.7172 79.483C60.5801 79.3459 60.5801 79.2089 60.4431 79.0724L60.5801 79.2095L79.209 60.5807L78.799 60.4436C79.0732 60.7178 79.3467 60.8542 79.6209 61.1284C80.8534 62.2245 82.7713 62.2245 84.004 61.1284L84.1411 60.9913C85.3736 59.7588 85.2371 57.7036 84.004 56.4711C74.8266 47.9786 56.3352 53.3207 55.6499 53.5948L55.6502 53.5936ZM12.5028 27.0193C10.859 26.8822 9.35238 26.4715 7.98267 25.7867L25.7898 7.97958C26.3375 9.34919 26.7488 10.8559 27.0224 12.4997L12.5028 27.0193ZM29.8991 43.0454L42.9117 30.0328C44.5555 30.1699 46.0621 30.4434 47.5689 30.8547L30.7215 47.7021C30.3108 46.3325 30.0367 44.6888 29.8996 43.0449L29.8991 43.0454ZM59.2113 77.1527C58.6635 75.7831 58.2523 74.2764 57.9787 72.6326L72.4981 58.1133C74.1418 58.3874 75.6485 58.661 77.0182 59.3458L59.2113 77.1527Z" fill="#D7CBAC"/>
<path d="M81.812 20.7187H78.3873C78.1131 17.5683 76.8806 14.692 74.9626 12.3634L77.4282 9.89773C77.7024 9.62356 77.8389 9.35001 77.8389 8.93875C77.8389 8.52812 77.7018 8.25394 77.4282 7.97976C76.8805 7.43204 76.0586 7.43204 75.5103 7.97976L73.0446 10.4454C70.716 8.52748 67.8397 7.29499 64.6893 7.02071L64.6899 3.59667C64.6899 2.77477 64.1422 2.22705 63.3203 2.22705C62.6355 2.22705 61.9507 2.77477 61.9507 3.59667V7.02138C58.8002 7.29555 55.9239 8.52808 53.5953 10.4461L51.1297 7.98043C50.8555 7.70625 50.4449 7.5698 50.1707 7.5698C49.76 7.5698 49.4859 7.70689 49.2117 7.98043C48.664 8.52815 48.664 9.35004 49.2117 9.89836L51.6773 12.364C49.7594 14.6926 48.5269 17.5689 48.2526 20.7194H44.8279C44.1431 20.7194 43.4583 21.2671 43.4583 22.089C43.4583 22.7738 44.1431 23.4586 44.8279 23.4586H48.2526C48.5268 26.609 49.7593 29.4854 51.6773 31.814L49.2117 34.2796C48.664 34.8274 48.664 35.6492 49.2117 36.1976C49.7594 36.7453 50.5813 36.7453 51.1296 36.1976L53.5953 33.7319C55.9239 35.6498 58.8002 36.8823 61.9506 37.1566V40.5813C61.9506 41.2661 62.6355 41.9509 63.3203 41.9509C64.1422 41.9509 64.6899 41.2661 64.6899 40.5813V37.156C67.8403 36.8818 70.7166 35.6492 73.0452 33.7312L75.5109 36.1969C75.7851 36.4711 76.1957 36.6075 76.4699 36.6075C76.8805 36.6075 77.1547 36.4704 77.4289 36.1969C77.9766 35.6492 77.9766 34.8273 77.4289 34.279L74.9632 31.8133C76.8811 29.4847 78.1136 26.6084 78.3879 23.4579H81.8126C82.4974 23.4579 83.1822 22.7731 83.1822 22.0883C83.1822 21.4035 82.6339 20.7187 81.812 20.7187ZM56.1973 23.8692C54.8277 23.8692 53.5946 22.6367 53.5946 21.2665C53.5946 19.8969 54.6907 18.6638 56.1973 18.6638C57.7041 18.6638 58.8001 19.8963 58.8001 21.2665C58.8001 22.7738 57.5675 23.8692 56.1973 23.8692ZM66.3336 32.2245C64.5527 32.2245 63.0459 30.7178 63.0459 28.9369C63.0459 27.1559 64.5526 25.6492 66.3336 25.6492C68.1145 25.6492 69.6212 27.1559 69.6212 28.9369C69.6212 30.8548 68.1145 32.2245 66.3336 32.2245ZM67.7039 18.8013C65.7859 18.8013 64.2791 17.2946 64.2791 15.3766C64.2791 13.4586 65.7859 11.9519 67.7039 11.9519C69.6211 11.9525 71.2649 13.3222 71.2649 15.2395C71.2649 17.1575 69.6212 18.8013 67.7039 18.8013Z" fill="#D7CBAC"/>
</svg>
