<?xml version="1.0" encoding="utf-8"?>
<!-- Generator: Adobe Illustrator 26.2.1, SVG Export Plug-In . SVG Version: 6.00 Build 0)  -->
<svg version="1.1" id="Layer_1" xmlns="http://www.w3.org/2000/svg" xmlns:xlink="http://www.w3.org/1999/xlink" x="0px" y="0px"
	 viewBox="0 0 543 384" style="enable-background:new 0 0 543 384;" xml:space="preserve">
<style type="text/css">
	.st0{fill-rule:evenodd;clip-rule:evenodd;fill:#D7CAAA;}
	.st1{fill:#D7CAAA;}
</style>
<g>
	<path class="st0" d="M-557.6,233.1c-8.2-3.1-19.7-5-32.4-5c-2,0-3.9,0-5.6,0.1l-3,0.2c-0.3,1.5-0.9,2.9-1.7,4.3l-0.1,0.1l-0.1,0.2
		l-0.1,0.1l-0.1,0.1l-0.1,0.1l0,0.1l0,0l-0.1,0.1l-0.1,0.1l-0.1,0.1l-0.1,0.1l-0.1,0.1l-0.1,0.1l-0.3,0.4l-0.1,0.2
		c-1.2,1.7-2.8,3.4-4.7,4.9l0.1,0.1l0,0l0.1,0.1l0.2,0.1l0,0l0.1,0.1h0l0.1,0.1l0.1,0.1l0,0l0.1,0.1l0.1,0.1l0.1,0.1l0,0.1l0.2,0.1
		l0.1,0.1l0,0l0.1,0.1l0,0l0.1,0.1l0.1,0.1h0l0.1,0.1l0,0l0.1,0.1l0.1,0.1v0l0.1,0.1l0.1,0l0,0.1l0.1,0.1h0l0.1,0.1l0.1,0.1l0,0
		l0.1,0.1l0,0l0.1,0.1l0.1,0.1l0,0l0.1,0.1l0,0l0,0.1l0.1,0.1l0.1,0.1l0,0l0,0l0.1,0.1l0.1,0.1l0.1,0l0,0l0.1,0.1v0
		c2.5,2.8,4.1,5.6,4.7,9.5l0,0.1l0,0.1l0,0.1l0,0.1l0,0.1v0.1l0,0.1v0.5l0,0.1v0.4l0,0.1v0.4l0,0.1v0.1l0,0v0.2l0,0.1v0.1l0,0.1v0.1
		l0,0.1v0.1l0,0.1l0,0.1v0.1l0,0l0,0.1v0.1l0,0.1l0,0.1l0,0.1l0,0l0,0.1l-0.1,0.3l-0.1,0.4l0,0.1l-0.1,0.3h0.2l0.1,0h0.3l0.1,0h0.1
		l0.6,0l0.1,0h0.4l0.1,0h0.4l0.1,0h0.5l0.1,0h0.4l0.1,0h0.6l0.1,0h0.1c8.9,0.4,19-0.4,27.5-2.3c0.8-0.1,1.5-0.3,2.2-0.5l0.2,0l0.1,0
		l0.6-0.1l0.1-0.1l0.1,0l0.3-0.1v0l0.3-0.1l0.1,0l0.2-0.1l0.3-0.1h0l0.3-0.1l0.3-0.1l0.2-0.1h0l0.3-0.1l0.1,0l0.2-0.1l0.2-0.1l0.1,0
		l0.3-0.1l0.1,0l0.2-0.1l0.2-0.1l0.1,0l0.3-0.1l0.1,0l0.2-0.1l0.2-0.1l0.1,0l0.3-0.1l0.1,0l0.2-0.1l0.2-0.1l0.1-0.1l0.3-0.1h0
		l0.2-0.1l0.1-0.1l0.1,0l0.2-0.1h0.1l0.2-0.1h0l0.2-0.1l0.1,0l0.1-0.1l0.2-0.1l0.1,0l0.2-0.1h0c2-0.9,3.8-1.8,5.2-2.8
		c0.2-0.1,0.3-0.2,0.5-0.3c2.7-1.8,4.1-3.8,4.1-5.8C-545.7,239.3-550.3,235.8-557.6,233.1 M-551.8,256.8l-0.2,0.1l-1.1,0.5l-0.1,0
		l-0.2,0.1l-0.1,0.1l-0.1,0.1l-0.7,0.3h0c-3.2,1.3-6.9,2.4-10.9,3.3c-9,2-19.5,2.8-28.9,2.5l-0.1,0h-0.6l-0.1,0h-0.4l-0.1,0h-0.6
		l-0.1,0h-0.4l-0.1,0h-0.4c-1.5-0.1-3-0.2-4.5-0.3l-0.1,0h0c-0.8,1.1-1.7,2.1-2.7,3.1l-1.9,1.7l0.1,0l0.1,0h0l0,0l0,0.1l0.5,0.4h0
		l0,0l0.1,0.1l0,0l0,0l0.1,0.1l0,0l0,0.1l0.2,0.1l0,0.1l0,0h0l0,0.1l0,0l0,0l0,0l0.1,0.1l0,0l0,0.1l0,0l0,0.1h0l0,0l0,0.1l0.1,0l0,0
		l0,0l0,0l0,0.1l0,0l0,0.1l0,0l0.1,0l0.1,0.1l0,0l0,0l0,0l0.1,0.1l0,0h0l0,0l0,0l0,0.1h0l0,0l0,0.1l0,0v0l0,0l0,0l0,0l0,0l0.1,0
		l0.1,0.1l0,0l0,0l0.1,0.1h0l0.1,0.1l0.1,0.1l0,0l0,0l0.1,0.1h0l0.1,0.1l0.1,0.1l0,0l0,0l0.1,0.1l0,0.1l0,0l0.1,0l0,0.1l0,0l0.1,0.1
		l0,0.1l0,0l0.1,0.1l0,0.1l0,0l0.1,0.1l0,0.1l0,0l0,0.1l0,0l0,0l0.3,0.3l0,0l0,0l0,0.1l0,0l0,0l0,0.1l0,0.1h0l0,0.1l0,0.1l0.1,0.1
		l0.1,0.1l0.1,0.1l0,0.1l0,0l0,0.1l0.1,0.1v0l0.1,0.1l0,0.1v0l0.1,0.1l0.1,0.1l0,0.1l0,0.1h0l0,0.1l0.1,0.1v0l0,0.1l0,0.1l0,0l0,0.1
		l0,0.1l0,0l0,0l0.1,0.1l0,0l0,0l0,0.1l0,0.1h0l0,0.1l0,0.1v0l0,0.1l0,0.1l0,0.1l0,0.1h0.1l4,0.3l0.1,0h0.1c9.5,0.5,20-0.1,29.3-2.2
		c6.9-1.5,12.5-3.6,16.3-6.2c0.2-0.1,0.3-0.2,0.5-0.3c2.7-1.9,4.2-3.8,4.2-5.9c0-0.9-0.3-1.8-1-2.7c-0.5-0.7-1.2-1.5-2.1-2.2
		C-549.7,255.8-550.8,256.3-551.8,256.8L-551.8,256.8z M-553.6,274.9L-553.6,274.9c-1,0.4-2,0.8-3,1.2l0,0c-2.7,0.9-5.7,1.8-8.9,2.5
		c-10.1,2.2-20.7,2.8-30.9,2.3h-0.2l-0.1,0h-0.4l-0.1,0h-0.3l-0.1,0h-0.3l-0.1,0h-0.2c0,0.4,0.1,0.9,0.1,1.3v0.1l0,0.1v0.4l0,0.1
		l0,0.1v0.1l0,0.2v0.1l0,0.1l0,0.1l0,0.1v0l0,0.1l0,0.1l0,0.1l0,0.1l0,0.1l0,0.1l0,0.1l0,0.1l0,0l0,0.1l0,0.1l0,0.1l0,0.1l0,0.1
		l0,0.1l0,0.1l0,0.1l0,0.1l0,0.1l0,0.1l0,0.1c-0.1,0.4-0.3,0.8-0.4,1.3h0c-0.3,0.9-0.7,1.7-1.2,2.6c-0.4,0.6-0.8,1.3-1.3,1.9
		l2.4,0.2l0.1,0h0.3l0.1,0h0.2l0.1,0h0.3l0.1,0h0.3l0.1,0h0.2l0.1,0h0.4l0.1,0h0.3l0.1,0h0.3l0.1,0h0.4l0.1,0h0.6l0.1,0h0.4
		c9.8,0,17.4-0.1,27.4-2.3c6.9-1.5,12.5-3.6,16.4-6.1c0.2-0.1,0.3-0.2,0.5-0.3c2.7-1.9,4.2-3.9,4.2-5.9c0-0.9-0.3-1.8-1-2.7
		c-0.5-0.8-1.3-1.5-2.2-2.3C-550.3,273.4-551.9,274.2-553.6,274.9L-553.6,274.9z M-553.8,292.6l-0.2,0.1l-0.1,0l-0.2,0.1l-0.1,0.1
		l-0.9,0.3l-0.2,0.1l-1,0.4h-0.1l-0.2,0.1l-0.2,0.1l-0.1,0c-0.9,0.3-1.7,0.6-2.7,0.8l-0.1,0l-1.3,0.4l-0.1,0l-0.3,0.1h-0.1l-2,0.5h0
		l-0.3,0.1l-0.2,0l-1.4,0.3l-0.2,0l-0.2,0l-0.7,0.1l-0.2,0c-8.4,1.7-18.9,2.6-27.5,2.2h-0.5l-0.1,0h-0.6l-0.1,0h-0.3l-0.1,0h-0.5
		l-0.1,0h-0.3l-0.1,0h-0.3l-0.1,0h-0.3l-0.1,0h-0.3l-0.1,0h-0.2l-0.1,0h-0.1l-0.1,0h-0.3l-0.1,0h-0.2l-0.1,0
		c-1.5-0.1-2.9-0.2-4.4-0.4h-0.1l-0.1,0l0.1,0.1h0l0.1,0.1l0,0.1l0,0l0.1,0.1h0l0.1,0.1l0,0.1l0.1,0.1l0,0l0,0l0.1,0.1l0,0l0,0.1
		l0.1,0.1l0.1,0v0l0.1,0.1l0.1,0h0l0,0.1l0.1,0.1h0l0.1,0.1l0,0.1l0,0l0,0l0.1,0.1l0.1,0.1l0.1,0.1h0l0,0l0,0.1l0,0l0,0l0.1,0.1
		l0,0.1l0.1,0.1l0.1,0v0l0.1,0l0.1,0.1l0,0l0,0l0.1,0.1l0,0l0.1,0.1l0.1,0.1l0.1,0.1l0,0.1l0,0l0.1,0.1l0,0l0,0l0.1,0.1l0.1,0l0,0.1
		l0.1,0.1l0,0l0,0l0,0.1l0.1,0.2l0,0.1l0.1,0.1l0,0.1l0,0.1l0,0l0,0.1l0,0l0.2,0.2l0,0l0.1,0.1l0,0.1l0.1,0.1l0,0.1l0.1,0.1l0,0.1
		l0.1,0.2l0,0l0.1,0.1l0,0l0.1,0.1h0l0.1,0.1l0.1,0.1l0,0l0.1,0.1l0,0l0.1,0.1l0,0.1l0.1,0.1l0,0.1l0.1,0l0,0.1l0,0.1l0,0.1l0,0
		l0.1,0.1l0,0.1l0.1,0.1v0l0.1,0.1h0l0.1,0.1l0.1,0.1l0.1,0.1l0,0.1l0,0.1l0,0.1l0,0.1l0,0.1l0,0.1l0,0.1l0,0.1l0,0.1l0,0l0.1,0.1v0
		l0.1,0.1v0l0.1,0.2v0l0,0.1v0l0.1,0.1v0l0.1,0.1l0,0.1l0,0.1l0,0.1l0,0l0,0.1l0,0.1l0,0.1v0.1l0,0.1l0,0l0,0.1l0.1,0.1l0,0.1v0
		l0,0.1l0,0.1l0,0.1v0l0,0.1l0,0.1l0,0.1l0,0.1v0.1l0,0.1l0,0.1l0,0.1l0,0.1l0,0.1l0,0l0,0.1h0l0,0.1l0,0.1v0l0,0.1v0l0,0.1l0,0.1
		v0.1l0,0.1l0,0.1v0.1l0,0.1l0,0.1v0l0,0.1v0l0,0.1v0.1h0.1l0.1,0h0.2l1.7,0.1h0.3l0.1,0h0.1c9.8,0.4,19.2-0.2,28.9-2.2
		c6.9-1.5,12.5-3.6,16.4-6.2c0.2-0.1,0.3-0.2,0.5-0.3c2.7-1.9,4.2-3.8,4.2-5.8c0-0.9-0.3-1.8-1-2.8c-0.5-0.7-1.3-1.5-2.2-2.2
		C-550.4,291-552,291.8-553.8,292.6L-553.8,292.6z M-553.6,310L-553.6,310l-0.2,0.1c-3.4,1.4-7.4,2.6-11.7,3.6
		c-9.9,2.2-20.4,2.8-30.5,2.3c-0.9-0.1-1.9-0.1-2.8-0.2h-0.2l-0.1,0h-0.1l-0.1,0.1l0,0.1l0,0l-0.1,0.1l-0.1,0.1l0,0.1l0,0l0,0.1
		c-1,2.2-2.4,4.2-4.3,6.1c-1.2,1.2-2.5,2.3-4,3.4l4.4,0.6c4.2,0.5,8.7,0.7,13.4,0.7c12.7,0,24.2-1.9,32.4-5
		c7.3-2.7,11.8-6.2,11.8-9.6c0-0.9-0.3-1.8-1-2.7c-0.5-0.8-1.2-1.5-2.2-2.3C-550.3,308.6-551.9,309.3-553.6,310L-553.6,310z
		 M-624.9,179.9c-13.5-5.1-32.3-8.2-53.1-8.2c-20.8,0-39.6,3.1-53.1,8.2c-12.6,4.7-20.4,10.9-20.4,17.4c0,3.9,2.8,7.7,7.9,11.2
		c0.2,0.1,0.3,0.1,0.5,0.3c27.7,18.5,101.6,19.2,130.3-0.1c0.1-0.1,0.3-0.2,0.4-0.2c5-3.4,7.9-7.2,7.9-11.1
		C-604.6,190.8-612.4,184.6-624.9,179.9L-624.9,179.9z M-616.1,217.7L-616.1,217.7l-0.4,0.2l-0.2,0.1l-1.3,0.6l0,0l-0.4,0.2
		l-0.2,0.1l-0.1,0.1l-0.4,0.2l-0.1,0l-0.3,0.1l-0.4,0.2h0l-0.4,0.2l-0.2,0.1l-0.2,0.1l-0.4,0.1l-0.1,0.1l-0.3,0.1l-0.4,0.1l0,0
		l-0.4,0.1l-0.2,0.1l-0.2,0.1l-0.4,0.1l0,0l-0.4,0.1l-0.3,0.1l-0.6,0.2l-0.1,0.1l-0.7,0.2l-0.1,0l-1.3,0.4l0,0l-0.5,0.1l-0.2,0.1
		l-0.7,0.2l0,0c-29.4,9.2-73.1,9-102.3-0.9l-0.1,0l-0.7-0.2l-0.1-0.1l-0.6-0.2l-0.3-0.1l-0.4-0.1l-0.1,0l-0.4-0.1l-0.2-0.1l-0.2-0.1
		l-0.4-0.1l0,0l-0.4-0.1l-0.3-0.1l-0.1-0.1l-0.4-0.1l-0.2-0.1l-0.2-0.1l-0.4-0.2h0l-0.4-0.2l-0.3-0.1l-0.1,0l-0.4-0.2l-0.1-0.1
		l-0.2-0.1l-0.4-0.2l0,0l-0.4-0.1l-0.3-0.1l-0.1-0.1l-0.5-0.2l-0.2-0.1l-0.4-0.2l0,0c-1.7-0.8-3.4-1.7-4.9-2.6
		c-2,1.5-3.6,3.1-4.8,4.8c-1.2,1.8-1.9,3.6-1.9,5.5c0,4,2.9,7.8,8.1,11.3c0.2,0.1,0.3,0.1,0.5,0.2c3.9,2.6,8.9,4.9,14.8,6.8l0.3,0.1
		l0.1,0l0.5,0.2c28.9,9.4,69.3,9,98.2,0.1l0.5-0.2l0.1,0l0.1,0l0.3-0.1l0.1,0l1.9-0.7h0.1v0h0.1l0.1,0l0.3-0.1l0.1,0l0.9-0.3l0.1,0
		l0.2-0.1l0.2-0.1l0.1,0l0.8-0.3h0c4-1.6,7.5-3.4,10.4-5.3l0.1-0.1l0,0h0l0,0c2.8-1.9,5-3.8,6.4-5.8l0.1-0.2
		c0.9-1.3,1.5-2.7,1.8-4.1v-0.1l0,0l0-0.1v-0.1l0-0.1v-0.1l0-0.1v-0.1l0,0l0-0.6c0-1.9-0.7-3.7-1.9-5.5c-1.1-1.6-2.8-3.2-4.8-4.8
		C-612.7,216-614.3,216.9-616.1,217.7L-616.1,217.7z M-612.9,265.1L-612.9,265.1L-612.9,265.1c1.7-1.1,3.1-2.3,4.3-3.4
		c1.1-1.1,2-2.2,2.7-3.3l0,0l0,0l0-0.1l0,0l0-0.1h0c0.4-0.7,0.7-1.5,0.9-2.2c0.1-0.3,0.1-0.6,0.2-0.9l0-0.1l0-0.2v-0.1l0-0.1v-0.1h0
		v-0.1l0,0v-0.1l0,0v-0.1l0,0v-0.3l0-0.1v-0.2l0-0.1v-0.3l0-0.1v-0.2l0-0.1l0-0.1l0-0.1l0-0.1l0-0.1l0-0.1l0-0.1v-0.1l0-0.1l0-0.1
		l0-0.1l0-0.1c-0.4-1.4-1-2.8-1.9-3.9l0-0.1l-0.1-0.1l-0.1-0.1l-0.1-0.1l0,0h0l-0.1-0.1l-0.1-0.1l-0.1-0.1l-0.1-0.1v0l-0.4-0.4h0
		l-0.2-0.2v0c-1-1-2.1-2.1-3.5-3.1c-2.3,1.4-4.9,2.7-7.8,3.9l-0.2,0.1h0l-0.2,0.1l-0.2,0.1l-0.2,0.1l-0.6,0.2l-0.1,0l-0.3,0.1
		l-0.1,0l-0.1,0.1l-1.6,0.6v0c-30.5,11.4-79.9,11.6-110.6,0v0l-0.4-0.1l-0.3-0.1l-0.1-0.1l-0.4-0.2l-0.1-0.1l-0.3-0.1l-0.4-0.1
		l-0.7-0.3l-0.1-0.1l-0.4-0.2l-0.1-0.1l-0.7-0.3v0l-0.4-0.1c-2.5-1.1-4.7-2.3-6.8-3.5c-2.1,1.6-3.8,3.2-5,4.9
		c-1.3,1.8-1.9,3.6-1.9,5.5c0,4,2.9,7.8,8.1,11.3c0.2,0.1,0.3,0.1,0.5,0.2c28,18.5,101.2,19,129.9,0L-612.9,265.1z M-612.9,293.5
		c0.9-0.6,1.7-1.2,2.6-1.9l0.1-0.1l0,0c1.9-1.6,3.4-3.2,4.3-4.9c0.7-1.1,1.1-2.3,1.2-3.5l0-0.1l0-0.1v-0.1l0-0.1v-0.1l0,0v-0.1
		l0-0.1v-0.3l0-0.1v-0.3h0v-0.4l0-0.1v-0.1l0-0.1c-0.1-0.6-0.2-1.3-0.4-1.9l0,0v0l-0.1-0.3v0l0-0.1v0l0,0l0-0.1l0-0.1v0h0l0-0.1h0
		l0-0.1l0-0.1l0,0l0-0.1l0-0.1l0,0l0-0.1l0,0l0,0l0-0.1l0,0l0,0l0,0l0-0.1l0-0.1v0l0-0.1l0,0l0,0l0-0.1l0-0.1l0,0l0,0l0-0.1l0,0l0,0
		l0-0.1l0,0v0l-0.1-0.1l0-0.1l0,0l0,0l0-0.1l0-0.1l0,0l0-0.1l0,0h0l0-0.1l0,0l0-0.1l0-0.1h0l-0.1-0.1l0,0l0-0.1l0-0.1l-0.1-0.1v0
		l0-0.1l0,0l0,0l-0.1-0.1l0-0.1l0-0.1l0-0.1l-0.1-0.1l-0.1-0.1v0l-0.1-0.1l0,0l0,0l0-0.1h0l-0.1-0.1v0l-0.1-0.1l0,0
		c-1.1-1.3-2.5-2.6-4.1-3.8c-1.9,1.1-4,2.2-6.3,3.3l-0.1,0l-0.1,0.1l-0.7,0.3l-0.2,0.1l-0.1,0.1l-0.1,0l-0.2,0.1l-0.2,0.1h0
		l-0.2,0.1l-0.2,0.1l-0.2,0.1l-0.2,0.1l0,0l-0.2,0.1l-0.2,0.1l-0.1,0.1l-0.1,0.1l-0.2,0.1l-0.1,0l-0.1,0.1l-0.2,0.1l-0.1,0.1l-0.1,0
		l-0.2,0.1l-0.4,0.1l-0.2,0.1h0l-0.2,0.1l-0.2,0.1l-0.4,0.2l-0.2,0.1l-0.6,0.2l-0.1,0l-0.4,0.1l-0.3,0.1l-0.1,0.1
		c-29.1,10.1-72.5,10.3-102.2,1.3l-0.1,0l-1.4-0.4h0l-1.4-0.4l-0.1,0l-0.4-0.1l-0.3-0.1l-0.1-0.1l-0.4-0.1l-0.1-0.1l-0.3-0.1
		l-0.9-0.3l-0.2-0.1l-0.2-0.1l-0.4-0.2l-0.4-0.1l-0.3-0.1l-0.1,0l-0.4-0.1l-0.1-0.1l-0.3-0.1l-0.4-0.2l-0.4-0.1l-0.3-0.1l-0.1,0
		l-0.4-0.2l-0.1-0.1l-0.3-0.1l-0.4-0.2l-0.4-0.2l-0.3-0.1l-0.1,0c-2.3-1-4.5-2.2-6.4-3.3c-2.1,1.6-3.8,3.2-5,4.9
		c-1.3,1.8-1.9,3.7-1.9,5.5c0,4,2.9,7.8,8.1,11.3c0.2,0.1,0.3,0.1,0.5,0.2c3,2,6.6,3.8,10.8,5.4l0.4,0.1l0.4,0.2l0.2,0.1l0.3,0.1
		c0.9,0.3,1.8,0.6,2.7,0.9l0.3,0.1l0.1,0l0.5,0.1l0.1,0.1c27.8,9,67.9,9,96.1,0.7l0.5-0.1l0.4-0.1l0.1,0l1.3-0.4l0.1-0.1l0.4-0.1
		l0.1,0l0.3-0.1c1.1-0.3,2.1-0.7,3.1-1.1l0.1,0l0.2-0.1l0.2-0.1l0.1,0c4.4-1.7,8.1-3.5,11.2-5.6L-612.9,293.5z M-618.2,324.9
		c0.1-0.1,0.3-0.2,0.4-0.2c4-2,7.1-4.2,9.4-6.5c1.8-1.8,3-3.7,3.5-5.6v0l0-0.1l0-0.1l0-0.1l0-0.1l0-0.1l0-0.1l0,0v-0.1l0-0.1l0-0.1
		l0-0.3v-0.1l0-0.3l0-0.6v-0.1l0-0.1v-0.3l0-0.1v-0.2l0-0.1l0-0.1l0-0.1l0-0.1l0-0.1l0-0.1l0-0.1V309l0-0.1l0-0.1l0-0.1v0l0-0.1
		l0-0.1l0-0.1l0-0.1l0-0.1l0-0.1l0-0.1l0-0.1v0l0-0.1l0-0.1l0-0.1l0-0.1l0-0.1l0-0.1l0-0.1l0-0.1l0-0.1l-0.1-0.1l0-0.1l-0.1-0.1
		l0-0.1h0l0-0.1l0-0.1l0-0.1l-0.1-0.1l0-0.1h0l0-0.1l0-0.1l-0.1-0.1v0l-0.1-0.1l-0.1-0.1l-0.1-0.1l0-0.1l-0.1-0.1l-0.1-0.1l-0.1-0.1
		l-0.1-0.1l-0.1-0.1v0l-0.1-0.1l-0.1-0.1l-0.1-0.1l-0.1-0.1l-0.1-0.1l-0.1-0.1l-0.1-0.1l-0.2-0.2l-0.1-0.1l-0.1-0.1h0l-0.2-0.2v0
		l-0.1-0.1l-0.3-0.4l0,0h0l-0.3-0.4l-0.4-0.4l0,0c-0.9-1-2-1.9-3.3-2.8c-1.6,1-3.4,1.9-5.2,2.8h0l-0.2,0.1l-0.2,0.1h0l-0.2,0.1
		l-0.2,0.1l0,0l-0.1,0.1l-0.5,0.2l-0.1,0l-0.1,0.1l-0.2,0.1l-0.1,0.1l-0.1,0l-0.2,0.1l-0.1,0.1l-0.1,0l-0.3,0.1h0l-0.2,0.1l-0.2,0.1
		l-0.2,0.1l-0.2,0.1h0l-0.2,0.1l-0.2,0.1l-0.1,0l-0.1,0.1l-0.2,0.1l-0.1,0l-0.1,0.1l-0.2,0.1l-0.1,0.1l-0.1,0l-0.2,0.1l-0.1,0.1
		l-0.1,0l-0.2,0.1l-0.2,0.1h0l-0.2,0.1l-0.2,0.1l-0.4,0.2l-0.2,0.1l-0.2,0.1c-30.6,11.2-79.7,11.2-110.2-0.5l-0.3-0.1l-0.1-0.1
		l-1.2-0.5l-0.7-0.3l-0.1-0.1l-1.2-0.5c-2.6-1.1-5-2.4-7.2-3.7c-2.1,1.6-3.8,3.2-5,4.9c-1.3,1.8-1.9,3.7-1.9,5.5
		c0,6.5,7.8,12.6,20.4,17.4c29.3,11,77,11,106.2,0C-622.5,326.9-620.2,325.9-618.2,324.9L-618.2,324.9z M-668.3,165.6
		c4.7,0.2,9.3,0.6,13.8,1.1V77.3c0-1.7,1.4-3,3-3h329.8V62l-346.7,0L-668.3,165.6z M-318.6,80.3h-329.9v87.2
		c5.8,0.9,11.3,2.1,16.3,3.4V96.6c0-1.7,1.4-3,3-3h327.3V80.3L-318.6,80.3z M-604.6,184.4c4.1,3.9,6.4,8.2,6.4,12.9
		c0,4.6-2.3,9-6.4,12.9v2.2c1.3,1.2,2.5,2.6,3.4,3.9c1.3,1.9,2.2,3.8,2.7,5.8l2.7-0.2c2-0.1,4-0.1,5.9-0.1c13.5,0,25.7,2.1,34.7,5.4
		c9.8,3.7,16,9.2,16,15.5c0,3.1-1.5,6.1-4.2,8.7c0.8,0.8,1.5,1.6,2.1,2.4c1.4,2,2.1,4.1,2.1,6.3c0,0.5-0.1,1-0.1,1.5h208.1
		c0.7-8.1,4.3-15.3,9.8-20.8c5.4-5.5,12.7-9,20.8-9.8v-79.7c-8.1-0.7-15.4-4.3-20.8-9.8c-5.4-5.5-9-12.7-9.8-20.8h-242.6
		c-0.7,8.1-4.3,15.3-9.8,20.8c-5.4,5.5-12.7,9.1-20.8,9.8L-604.6,184.4z M-298.7,99.7h-327.4v73.1c1.2,0.4,2.3,0.8,3.3,1.2
		c4.6,1.7,8.6,3.7,12,5.8l0-31.3c0-1.7,1.4-3,3-3c7.6,0,14.5-3.1,19.5-8.1c5-5,8.1-11.9,8.1-19.5c0-1.7,1.4-3,3-3h248.4
		c1.7,0,3,1.4,3,3c0,7.6,3.1,14.5,8.1,19.5c5,5,11.9,8.1,19.6,8.1c1.7,0,3,1.4,3,3v85.5c0,1.7-1.4,3-3,3c-7.6,0-14.5,3.1-19.6,8.1
		c-5,5-8.1,11.9-8.1,19.6c0,1.7-1.4,3-3,3l-214,0c-0.3,0.4-0.7,0.8-1.1,1.1c0.8,0.8,1.5,1.6,2.1,2.5c1.4,2,2.2,4.1,2.2,6.3
		c0,1.8-0.5,3.4-1.3,5h261.3l0-183L-298.7,99.7z M-450.5,206.3c1.6-0.3,2.8-1.1,3.8-2.2s1.5-2.5,1.5-4c0-1.4-0.4-2.6-1.2-3.6
		c-0.8-1-2.2-1.8-4-2.3L-450.5,206.3z M-455,173.2c-1.2,0.4-2.2,1.1-2.9,2.2c-0.7,1-1.1,2.1-1.1,3.3c0,1.1,0.3,2.1,1,3.1
		c0.6,0.9,1.6,1.7,3,2.3L-455,173.2z M-455,205.8v-13c-4-1.2-7-2.9-8.9-5.3c-1.9-2.4-2.8-5.2-2.8-8.5c0-3.4,1.1-6.2,3.2-8.5
		c2.1-2.3,5-3.6,8.5-4v-3.1h4.5v3.1c3.3,0.4,5.9,1.5,7.9,3.4c1.9,1.9,3.2,4.3,3.7,7.5l-7.9,1c-0.5-2.5-1.7-4.1-3.7-5v12.1
		c5,1.3,8.4,3.1,10.2,5.2c1.8,2.2,2.7,4.9,2.7,8.3c0,3.7-1.1,6.9-3.4,9.5c-2.3,2.6-5.4,4.2-9.5,4.8v5.8h-4.5v-5.7
		c-3.6-0.4-6.5-1.8-8.7-4c-2.2-2.2-3.7-5.4-4.3-9.4l8.1-1c0.3,1.7,1,3.1,1.9,4.3C-457.1,204.4-456.1,205.3-455,205.8L-455,205.8z
		 M-421.3,159.8c-8-8-19.1-13-31.4-13c-12.3,0-23.4,5-31.4,13c-8,8-13,19.1-13,31.4s5,23.4,13,31.4c8,8.1,19.1,13,31.4,13
		c12.3,0,23.4-5,31.4-13c8-8.1,13-19.2,13-31.4C-408.3,178.9-413.3,167.8-421.3,159.8z M-522.9,302.3c-1.7,0-3-1.4-3-3s1.4-3,3-3
		h189.2c1.7,0,3,1.4,3,3s-1.4,3-3,3H-522.9z M-412.2,319.7c-1.7,0-3-1.4-3-3s1.4-3,3-3h130.9c1.7,0,3,1.4,3,3s-1.4,3-3,3H-412.2z
		 M-267.9,319.7c-1.7,0-3-1.4-3-3s1.4-3,3-3h16.4c1.7,0,3,1.4,3,3s-1.4,3-3,3H-267.9z M-530.4,319.2c-1.7,0-3-1.4-3-3
		c0-1.7,1.4-3,3-3h62c1.7,0,3,1.4,3,3c0,1.7-1.4,3-3,3H-530.4z M-452.8,140.4c14,0,26.7,5.7,35.9,14.9l0.1,0.1
		c9.2,9.2,14.8,21.8,14.8,35.8c0,14-5.7,26.7-14.9,35.9l-0.1,0.1c-9.2,9.1-21.8,14.8-35.8,14.8c-14,0-26.7-5.7-35.9-14.9
		c-9.2-9.2-14.9-21.9-14.9-35.9c0-14,5.7-26.7,14.9-35.9C-479.5,146.1-466.8,140.4-452.8,140.4L-452.8,140.4z"/>
</g>
<path class="st1" d="M201.5,196.9c41.1,0,74.7-7.2,74.7-16.1c0-8.9-33.5-16.1-74.7-16.1s-74.7,7.2-74.7,16.1
	C126.8,189.7,160.4,196.9,201.5,196.9z"/>
<path class="st1" d="M341,72.6c41.1,0,74.7-7.2,74.7-16.1S382.2,40.4,341,40.4s-74.7,7.2-74.7,16.1C266.4,65.4,299.9,72.6,341,72.6
	L341,72.6z"/>
<path class="st1" d="M264.1,154v8.9c9.8,3.1,17.4,7.2,20.1,13c13,3.1,32.2,6.3,57.7,6.3c51,0,76-12.1,76-12.1v-15.2
	c0,0-25,12.1-76,12.1C291,166.9,264.1,154,264.1,154L264.1,154z"/>
<path class="st1" d="M285.6,182.1c0,0.9-0.4,2.2-0.9,3.1c1.8,1.8,2.7,4,2.7,6.3v6.7c-3.1,1.3-6.3,2.2-8.9,4v-10.7
	c0,0-25,12.1-76,12.1s-77.4-12.5-77.4-12.5v15.2c0,0,26.8,12.5,77.4,12.5c28.6,0,49.2-3.6,61.3-7.2c-3.1,2.7-5.8,5.4-8.5,8.5
	c-12.5,2.7-30,4.9-52.8,4.9c-51,0-77.4-12.5-77.4-12.5v15.2c0,0,26.8,12.5,77.4,12.5c16.5,0,30.4-1.3,41.6-3.1
	c-0.9,2.2-1.8,4.5-2.7,6.7c-10.7,1.3-23.7,2.7-38.9,2.7c-51,0-77.4-12.5-77.4-12.5v15.2c0,0,26.8,12.5,77.4,12.5
	c13.4,0,25-0.9,34.9-2.2c-0.4,2.2-0.4,4.5-0.4,6.7c-9.8,1.3-21,2.2-34.4,2.2c-51,0-77.4-12.5-77.4-12.5v15.2
	c0,0,26.8,12.5,77.4,12.5c13.9,0,25.5-0.9,35.3-2.2c0.4,2.2,0.9,4,1.3,6.3c-10.3,1.3-22.4,2.2-36.7,2.2c-51,0-77.4-12.5-77.4-12.5
	v15.2c0,0,26.8,12.5,77.4,12.5c16.5,0,30.4-1.3,41.6-3.1c12.5,25.9,38.9,43.8,69.3,43.8c42.5,0,76.9-34.4,76.9-76.9
	c0-1.8,0-3.6-0.4-5.4c18.3-3.6,27.7-7.6,27.7-7.6v-15.2c0,0-9.8,4.9-30.4,8c-0.4-2.2-1.3-4-1.8-6.3c21.5-3.6,32.2-8.5,32.2-8.5
	v-15.2c0,0-13,6.3-39.4,9.4c-1.3-2.2-2.7-4-4-5.8c29.1-3.1,43.4-10.3,43.4-10.3v-13.9c0,0-18.8,8.9-57.2,11.2
	c-2.7-2.2-5.8-4-8.9-5.8c44.3-1.3,66.2-11.6,66.2-11.6v-15.2c0,0-25,12.1-76,12.1C317.3,188.4,298.6,185.3,285.6,182.1L285.6,182.1z
	 M313.3,333.3c-34.9,0-63.5-28.6-63.5-63.5s28.6-63.5,63.5-63.5s63.5,28.6,63.5,63.5S348.2,333.3,313.3,333.3z"/>
<path class="st1" d="M264.1,88.2v15.2c0,0,26.8,12.5,77.4,12.5c50.5,0,76-12.1,76-12.1V88.7c0,0-25,12.1-76,12.1
	S264.1,88.2,264.1,88.2L264.1,88.2z"/>
<path class="st1" d="M341.9,79.3c-51,0-77.4-12.5-77.4-12.5V82c0,0,26.8,12.5,77.4,12.5c50.5,0,76-12.1,76-12.1V67.2
	C417.5,67.2,392.5,79.3,341.9,79.3L341.9,79.3z"/>
<path class="st1" d="M264.1,110.1v15.2c0,0,26.8,12.5,77.4,12.5c50.5,0,76-12.1,76-12.1v-15.2c0,0-25,12.1-76,12.1
	S264.1,110.1,264.1,110.1L264.1,110.1z"/>
<path class="st1" d="M264.1,132v15.2c0,0,26.8,12.5,77.4,12.5c50.5,0,76-12.1,76-12.1v-15.2c0,0-25,12.1-76,12.1
	S264.1,132,264.1,132L264.1,132z"/>
</svg>
