<svg width="24" height="24" viewBox="0 0 24 24" fill="none" xmlns="http://www.w3.org/2000/svg">
<path d="M20.1377 2.03251C20.623 2.03251 21.0886 2.2252 21.4318 2.5684C21.775 2.91159 21.9677 3.37716 21.9677 3.86247C21.9677 4.34778 21.775 4.81339 21.4318 5.15654C21.0886 5.49973 20.623 5.69243 20.1377 5.69243C19.6524 5.69243 19.1868 5.49974 18.8436 5.15654C18.5004 4.81335 18.3077 4.34778 18.3077 3.86247C18.3097 3.37767 18.5031 2.9134 18.846 2.57071C19.1887 2.22786 19.6529 2.03448 20.1377 2.03247L20.1377 2.03251ZM20.1377 4.49997C20.2996 4.49796 20.4539 4.43234 20.5678 4.31716C20.6814 4.20215 20.7452 4.04679 20.7452 3.8849C20.7452 3.54941 20.4732 3.27753 20.1377 3.27753C19.9758 3.27134 19.8181 3.32943 19.6987 3.43891C19.5794 3.5484 19.5081 3.70058 19.5002 3.86246C19.4938 4.03339 19.5589 4.19929 19.6798 4.32035C19.8009 4.44122 19.9668 4.50633 20.1377 4.49997Z" fill="#B8A492"/>
<path d="M3.86218 5.69239C3.37687 5.69239 2.91127 5.4997 2.56811 5.1565C2.22492 4.81331 2.03222 4.34774 2.03222 3.86243C2.03222 3.37711 2.22491 2.91151 2.56811 2.56836C2.9113 2.22516 3.37687 2.03247 3.86218 2.03247C4.3475 2.03247 4.8131 2.22516 5.15625 2.56836C5.49944 2.91155 5.69214 3.37711 5.69214 3.86243C5.69214 4.34774 5.49945 4.81334 5.15625 5.1565C4.81306 5.49969 4.3475 5.69239 3.86218 5.69239ZM3.86218 3.25488C3.52669 3.25488 3.25464 3.52693 3.25464 3.86243C3.25464 4.02431 3.31842 4.1795 3.43209 4.29469C3.54593 4.40986 3.70029 4.47549 3.86217 4.4775C4.02907 4.48352 4.19146 4.42141 4.31165 4.3054C4.43185 4.18938 4.49982 4.02951 4.49965 3.86243C4.49781 3.69669 4.42901 3.53866 4.30897 3.4243C4.18894 3.30996 4.02793 3.24885 3.86218 3.25488Z" fill="#B8A492"/>
<path d="M3.25496 17.895H4.88254V7.575C3.81077 7.8663 2.66554 7.68131 1.74009 7.06723C0.814631 6.45334 0.199072 5.47011 0.0507431 4.36941C-0.097414 3.26884 0.236233 2.15777 0.966299 1.32086C1.69637 0.483986 2.7519 0.00248571 3.8625 0H20.1375C21.4783 0.0590957 22.6929 0.808586 23.3468 1.98064C24.0007 3.1527 24.0007 4.57984 23.3468 5.7519C22.6929 6.92396 21.4783 7.67344 20.1375 7.73254C19.792 7.72585 19.449 7.67295 19.1175 7.57501V17.895H20.745V20.3401H24V24H0V20.3401H3.25496V17.895ZM6.10496 17.895H7.32004V7.11729C7.32105 6.78129 7.15531 6.46654 6.87758 6.27737C6.66079 6.55845 6.40869 6.81056 6.12758 7.02737L6.10496 17.895ZM10.98 17.895H13.02V7.11729C13.02 6.75283 12.8257 6.41619 12.51 6.23404C12.1944 6.05173 11.8056 6.05173 11.4901 6.23404C11.1743 6.41619 10.98 6.75283 10.98 7.11729L10.98 17.895ZM12 4.88271C12.5968 4.88271 13.169 5.11977 13.5911 5.54164C14.0129 5.96369 14.25 6.53589 14.25 7.13271V17.895H15.4575V7.11729C15.4681 6.35893 15.86 5.6568 16.5 5.24983C16.4059 5.00775 16.3379 4.75629 16.2974 4.49983H7.68015C7.647 4.75546 7.58656 5.00691 7.50018 5.24983C8.15778 5.65714 8.55991 6.37384 8.56527 7.14724V17.895H9.75018V7.11724C9.7542 6.52311 9.99293 5.95474 10.4145 5.53603C10.836 5.11717 11.4061 4.88229 12.0002 4.88229L12 4.88271ZM22.7777 3.86267C22.7757 3.16307 22.497 2.49274 22.0023 1.99804C21.5076 1.50334 20.8372 1.2246 20.1376 1.22259H3.86263C3.15999 1.22259 2.48619 1.50199 1.98965 1.99903C1.4931 2.49606 1.21453 3.17006 1.21522 3.8727C1.21589 4.57534 1.4958 5.2488 1.99316 5.74487C2.49069 6.24107 3.16504 6.51896 3.86764 6.51763C4.57028 6.51629 5.24344 6.23571 5.73913 5.73784C6.23464 5.2398 6.51206 4.56531 6.51004 3.86267V3.25513H17.49V3.86267C17.3908 4.61837 17.6221 5.38024 18.1248 5.95311C18.6276 6.52616 19.3528 6.85461 20.115 6.85461C20.8773 6.85461 21.6025 6.52615 22.1051 5.95311C22.6078 5.38024 22.8392 4.61833 22.74 3.86267H22.7777ZM17.895 6.99759C17.6137 6.78096 17.3616 6.52881 17.145 6.24759C16.8673 6.43693 16.7013 6.7515 16.7025 7.08767V17.8954H17.895V6.99759ZM19.5 19.1176H4.49996V20.34L19.5 20.3402V19.1176ZM1.19996 21.5626V22.7777H22.7777V21.5626H1.19996Z" fill="#B8A492"/>
</svg>
