<svg width="28" height="13" viewBox="0 0 28 13" fill="none" xmlns="http://www.w3.org/2000/svg">
<path d="M1.15178 7.2485H25.2952L21.2084 11.3064C20.9544 11.5586 20.9531 11.9687 21.2051 12.2227C21.3316 12.3505 21.4983 12.4141 21.6646 12.4141C21.8297 12.4141 21.9946 12.3511 22.1211 12.2258L27.3051 7.07887C27.5591 6.82665 27.5603 6.41653 27.3084 6.16249L22.1627 0.977638C21.9108 0.723306 21.5004 0.722403 21.2463 0.974323C20.9923 1.22624 20.9905 1.63667 21.243 1.8907L25.2744 5.95243H1.15178C0.793793 5.95243 0.503906 6.24262 0.503906 6.60031C0.503605 6.95769 0.79349 7.2485 1.15178 7.2485Z" fill="black"/>
</svg>
