<?xml version="1.0" encoding="utf-8"?>
<!-- Generator: Adobe Illustrator 26.2.1, SVG Export Plug-In . SVG Version: 6.00 Build 0)  -->
<svg version="1.1" id="Layer_1" xmlns="http://www.w3.org/2000/svg" xmlns:xlink="http://www.w3.org/1999/xlink" x="0px" y="0px"
	 viewBox="0 0 130 95.8" style="enable-background:new 0 0 130 95.8;" xml:space="preserve">
<style type="text/css">
	.st0{fill:#CCCCCC;fill-opacity:0.2;}
	.st1{fill:#D7CBAC;}
</style>
<path class="st0" d="M84.8,34.7v-0.6v-0.3c-0.1,0-0.3,0.1-0.4,0.1C84.7,34.2,84.7,34.5,84.8,34.7z"/>
<path class="st0" d="M71.2,85.9C88.9,85.3,95,81.6,95,81.6s-1.2-11.3-3.5-14.5C89.4,63.8,75,58.2,75,58.2h-0.6
	C73.8,69.4,72.8,79,71.2,85.9L71.2,85.9z"/>
<path class="st0" d="M58,58.1h-0.4c-0.9,0.4-14.1,5.2-16.7,9.2c-2.9,4.1-3.6,14.5-3.6,14.5s7,3.3,23.7,4.1
	C59.4,79,58.2,69.3,58,58.1L58,58.1z"/>
<path class="st0" d="M84.8,32.5c-0.3-5.2-1.2-22.1-10.3-18.9c-2.9-5.1-11-4.9-15.7-2.8c-4.7,2.2-7.6,6.7-9.2,11.3
	c-3.5,10-2.9,21.2-2.3,31.7c5.5,1.3,29.5,1.7,37.2,0.6C84.7,52.1,85.4,42.1,84.8,32.5L84.8,32.5z M81.4,36.4c-0.7,1.7-2,3.2-3.3,3.2
	c-0.9,5.5-4.2,13.2-10.9,13.2c-6.7,0-10.2-7.7-11.1-13.4c-1.2,0-2.3-1-2.9-2.2c3.3-1,14.2-4.1,18.3-13.1c1.3,3.8,4.9,11.3,10,9.9
	C81.6,34.8,81.6,35.6,81.4,36.4L81.4,36.4z"/>
<path class="st0" d="M130.1,71.5c-0.6-3.9-1-9.3-3.3-12.4c-2.8-3.5-8.4-5.7-12.5-7.6c-2.5,7.9-4.9,15.8-7.4,23.8l-2.3-18.5l1.6-2.3
	c0,0-0.1-0.6-1.2-2.3c2.9-0.1,5.8-1.9,8.3-3.1c-0.6-1.5-0.6-3.3-0.6-4.9c1.6-1.7,1.7-5.5,2.2-7.7c2.2-2.3,3.8-5.5,3.3-8.7
	c-0.1-1.2-0.9-3.9-2.5-3.8c0.7-3.9,1.5-11-3.6-12.4c-1-0.3-2-0.4-3.1-0.3c0.1-2.3-3.6-3.2-5.2-3.3c-3.9-0.7-8.4,0.4-11.6,3.1
	c-3.8,3.3-4.8,8.3-4.4,13.1c-0.6,0-1.2,0.3-1.5,0.9c0.4,2.9,0.6,5.7,0.7,7.6v0.1c0,0.7,0,1.2,0.1,1.9c0.6,0.9,1.2,1.5,1.6,2.2
	c0.4,2.2,0.7,6,2.2,7.7c0.1,1.3-0.1,3.2-0.3,3.9c-0.1,0.4-0.1,0.6-0.1,0.6v0.1c2.6,1.2,5.8,3.1,8.7,3.2c-1.2,1.7-1.2,2.3-1.2,2.3
	c0.6,0.9,1.2,1.6,1.7,2.5c-0.9,6-1.5,12.1-2.3,18.2c-2-8.1-4.7-16.3-7.1-24.3c-1.2,0.4-2,1-3.2,1.5v4.4c0,0-4.9,0.9-6.8,0.9
	c4.9,2.2,11.3,5.4,13.1,7.9c2.2,3.2,3.3,11,3.8,14.5C109.4,81.2,122.1,78.7,130.1,71.5L130.1,71.5z"/>
<path class="st0" d="M32.7,80.2c0.4-3.5,1.6-11.5,3.8-14.5c1.7-2.6,8.1-5.7,13.1-7.9c-1.9,0-6.8-0.9-6.8-0.9v-4.4
	c-1.2-0.6-2-1.2-3.2-1.5c-2.5,8-5.1,16.1-7.1,24.3c-0.9-6-1.5-12.1-2.3-18.2c0.6-0.9,1.2-1.6,1.7-2.5c0,0-0.1-0.6-1.2-2.3
	c2.9-0.1,6.1-1.9,8.7-3.2v-0.1c0,0,0-0.1-0.1-0.6c-0.1-0.9-0.4-2.6-0.3-3.9c1.5-1.7,1.7-5.5,2.2-7.7c0.6-0.7,1.2-1.3,1.6-2.2
	c0.1-0.7,0.1-1.2,0.1-1.9v-0.1c0.1-1.7,0.3-4.7,0.7-7.6c-0.4-0.6-1-0.9-1.5-0.9c0.4-4.8-0.6-9.9-4.4-13.1C34.5,8.5,30,7.5,26.1,8.1
	c-1.5,0.1-5.4,1-5.2,3.3c-1-0.1-2,0-3.1,0.3c-5.2,1.3-4.4,8.4-3.6,12.4c-1.6-0.1-2.3,2.6-2.5,3.8c-0.4,3.2,1.2,6.4,3.3,8.7
	c0.4,2.2,0.6,6,2.2,7.7c0,1.5,0,3.3-0.6,4.9c2.5,1.2,5.5,2.9,8.3,3.1c-1.2,1.7-1.2,2.3-1.2,2.3l1.6,2.3l-1.9,18.5
	c-2.5-8-4.9-16-7.4-23.8c-4.1,1.7-9.9,3.9-12.5,7.6c-2.5,3.2-2.9,8.4-3.3,12.4C8.2,78.7,20.9,81.2,32.7,80.2L32.7,80.2z"/>
<path class="st1" d="M84.2,35.1h-0.3l-5.1,10.2L65.2,70L51.9,45.4l-5.3-11h-0.3v46.5H32V11.1h16.1l17.1,32.7h0.2l16.9-32.7h16.2
	v69.8H84.2V35.1z"/>
</svg>
