<svg width="302" height="117" viewBox="0 0 302 117" fill="none" xmlns="http://www.w3.org/2000/svg">
<g clip-path="url(#clip0_578_324)">
<path d="M0 102.176H11.2956V103.322H1.97058V106.973H11.2165V108.12H1.97058V112.706H11.2165V113.843H0V102.176Z" fill="white" class="logo-wcolor"/>
<path d="M14.3838 105.218H16.2576V106.708C16.8533 106.19 17.5352 105.781 18.2722 105.5C19.2328 105.16 20.2444 104.987 21.2632 104.988C21.9423 104.987 22.6189 105.07 23.2778 105.235C23.828 105.369 24.3536 105.589 24.8349 105.888C25.2659 106.197 25.6234 106.597 25.8818 107.061C26.5296 106.369 27.3314 105.84 28.2218 105.517C29.1902 105.159 30.2157 104.979 31.2481 104.988C32.1487 104.974 33.0441 105.129 33.8872 105.447C34.5912 105.672 35.2068 106.113 35.6467 106.708C36.0727 107.441 36.2688 108.286 36.2097 109.133V113.842H34.3095V109.133C34.363 108.48 34.2479 107.824 33.9752 107.228C33.7023 106.815 33.2999 106.505 32.8316 106.346C32.2147 106.121 31.5613 106.014 30.905 106.029C30.0516 106.018 29.2048 106.18 28.4154 106.505C27.7488 106.751 27.1723 107.194 26.7615 107.775C26.3518 108.593 26.1723 109.508 26.2425 110.421V113.798H24.3335V109.389C24.3903 108.667 24.2758 107.941 23.9992 107.272C23.7272 106.858 23.3245 106.548 22.8555 106.39C22.2359 106.151 21.5751 106.037 20.9113 106.055C20.077 106.047 19.2491 106.203 18.4745 106.514C17.8084 106.761 17.2279 107.196 16.803 107.766C16.3893 108.494 16.1996 109.329 16.2576 110.165V113.825H14.3838V105.218Z" fill="white" class="logo-wcolor"/>
<path d="M40.2646 113.843V101.885H42.1473V106.709C42.947 106.131 43.8397 105.696 44.7864 105.421C45.8287 105.13 46.9067 104.987 47.9886 104.998C49.8367 104.947 51.6631 105.408 53.2669 106.329C54.7273 107.211 55.4575 108.287 55.4575 109.557C55.4575 110.827 54.7185 111.891 53.2406 112.75C51.6339 113.664 49.809 114.121 47.9622 114.072C46.8696 114.086 45.7812 113.934 44.7336 113.623C43.8034 113.34 42.9368 112.879 42.1824 112.265V113.852L40.2646 113.843ZM47.7687 112.961C48.7523 112.973 49.7309 112.818 50.663 112.503C51.4597 112.266 52.1873 111.84 52.7831 111.259C53.0247 111.033 53.2185 110.76 53.353 110.457C53.4874 110.154 53.5599 109.827 53.5661 109.495C53.5459 108.827 53.2647 108.194 52.7831 107.732C52.1893 107.137 51.4625 106.692 50.663 106.435C49.7481 106.124 48.7876 105.969 47.8215 105.977C46.8267 105.97 45.8373 106.125 44.892 106.435C44.092 106.669 43.3632 107.099 42.7719 107.688C42.5367 107.917 42.3494 108.191 42.221 108.494C42.0926 108.797 42.0257 109.122 42.0241 109.451C42.0485 109.983 42.217 110.498 42.5115 110.941C42.806 111.384 43.2154 111.738 43.6956 111.965C44.9333 112.676 46.3423 113.033 47.7687 112.997V112.961Z" fill="white" class="logo-wcolor"/>
<path d="M58.1582 105.218H60.076V106.479C60.6099 106.002 61.2233 105.623 61.8882 105.359C62.5191 105.112 63.1905 104.987 63.8676 104.988C64.4346 104.995 64.9964 105.097 65.5303 105.288L64.5538 106.223C64.0907 106.086 63.6053 106.042 63.1252 106.093C62.6452 106.145 62.1799 106.291 61.7563 106.523C61.1674 106.834 60.6997 107.334 60.4279 107.943C60.125 108.905 60.0057 109.916 60.076 110.923V113.842H58.1582V105.218Z" fill="white" class="logo-wcolor"/>
<path d="M65.5566 105.218H67.5448L72.5592 111.858L77.4153 105.218H79.4123L70.7118 117H68.7412L71.5476 113.19L65.5566 105.218Z" fill="white" class="logo-wcolor"/>
<path d="M88.7463 104.989C90.7095 104.913 92.6518 105.416 94.3326 106.435C94.9096 106.734 95.3989 107.178 95.7522 107.724C96.1056 108.27 96.3106 108.899 96.3471 109.548C96.3471 110.757 95.6433 111.815 94.2182 112.714C92.5282 113.601 90.6492 114.063 88.7419 114.063C86.8346 114.063 84.9557 113.601 83.2656 112.714C81.8493 111.832 81.1367 110.757 81.1367 109.548C81.173 108.9 81.378 108.272 81.7315 107.727C82.0849 107.183 82.5744 106.74 83.1513 106.444C84.8332 105.419 86.7792 104.913 88.7463 104.989ZM88.7463 106.083C87.337 106.039 85.944 106.394 84.726 107.106C84.2477 107.325 83.8379 107.671 83.5404 108.106C83.2429 108.541 83.0689 109.048 83.0369 109.575C83.0414 109.906 83.1123 110.233 83.2453 110.536C83.3783 110.839 83.5707 111.112 83.8111 111.339C84.389 111.918 85.0984 112.347 85.8784 112.591C87.7424 113.179 89.7414 113.179 91.6054 112.591C92.388 112.347 93.1003 111.918 93.6816 111.339C93.9192 111.11 94.1092 110.836 94.2405 110.534C94.3719 110.231 94.4421 109.905 94.4469 109.575C94.415 109.048 94.241 108.541 93.9435 108.106C93.646 107.671 93.2362 107.325 92.7579 107.106C91.5417 106.397 90.1524 106.043 88.7463 106.083Z" fill="white" class="logo-wcolor"/>
<path d="M107.722 102.176H111.645C113.166 102.143 114.688 102.202 116.202 102.352C117.191 102.461 118.139 102.809 118.965 103.366C119.291 103.569 119.561 103.852 119.749 104.188C119.936 104.525 120.036 104.903 120.038 105.289C120.036 105.671 119.94 106.047 119.757 106.383C119.574 106.718 119.311 107.003 118.991 107.211C118.126 107.78 117.135 108.128 116.105 108.225C114.439 108.392 112.765 108.456 111.091 108.419H109.683V113.843H107.722V102.176ZM109.683 103.322V107.273H113.026C114.02 107.304 115.013 107.23 115.991 107.052C116.532 106.949 117.038 106.71 117.46 106.356C117.626 106.228 117.761 106.064 117.853 105.876C117.946 105.688 117.994 105.481 117.994 105.271C117.994 105.061 117.946 104.854 117.853 104.666C117.761 104.478 117.626 104.314 117.46 104.186C117.055 103.844 116.571 103.607 116.053 103.498C115.103 103.331 114.139 103.263 113.176 103.296L109.683 103.322Z" fill="white" class="logo-wcolor"/>
<path d="M123.39 101.885H125.263V113.843H123.39V101.885Z" fill="white" class="logo-wcolor"/>
<path d="M143.694 105.218V113.843H141.846V112.361C141.043 112.931 140.151 113.363 139.207 113.64C138.162 113.931 137.081 114.074 135.996 114.063C134.149 114.117 132.323 113.659 130.718 112.74C129.258 111.847 128.527 110.768 128.527 109.504C128.527 108.24 129.263 107.179 130.735 106.32C132.341 105.402 134.166 104.941 136.014 104.989C137.116 104.974 138.214 105.128 139.269 105.447C140.199 105.726 141.065 106.185 141.82 106.797V105.218H143.694ZM136.199 106.1C135.216 106.09 134.238 106.241 133.304 106.55C132.507 106.801 131.783 107.243 131.193 107.837C130.939 108.055 130.734 108.325 130.594 108.63C130.454 108.934 130.382 109.266 130.382 109.601C130.382 109.936 130.454 110.268 130.594 110.572C130.734 110.877 130.939 111.147 131.193 111.365C131.785 111.961 132.513 112.406 133.313 112.661C134.234 112.974 135.2 113.129 136.172 113.12C137.164 113.127 138.15 112.972 139.093 112.661C139.89 112.425 140.617 111.998 141.213 111.418C141.685 110.952 141.954 110.318 141.961 109.654C141.935 109.124 141.765 108.611 141.471 108.169C141.177 107.728 140.768 107.376 140.289 107.149C139.051 106.418 137.636 106.042 136.199 106.065V106.1Z" fill="white" class="logo-wcolor"/>
<path d="M147.917 105.218H149.791V106.761C150.54 106.174 151.385 105.724 152.289 105.429C153.251 105.128 154.255 104.979 155.263 104.988C156.252 104.972 157.237 105.14 158.166 105.482C158.905 105.732 159.556 106.192 160.04 106.805C160.495 107.589 160.704 108.493 160.638 109.398V113.807H158.764V109.689C158.805 109.02 158.734 108.349 158.553 107.705C158.441 107.416 158.272 107.153 158.058 106.931C157.843 106.708 157.587 106.531 157.304 106.408C156.54 106.095 155.718 105.948 154.893 105.976C153.838 105.96 152.793 106.189 151.841 106.646C151.079 106.971 150.456 107.555 150.081 108.295C149.857 109.056 149.765 109.849 149.808 110.641V113.807H147.935L147.917 105.218Z" fill="white" class="logo-wcolor"/>
<path d="M176.939 110.977L178.522 111.471C178.018 112.067 177.406 112.564 176.719 112.935C176 113.321 175.23 113.603 174.432 113.772C173.484 113.976 172.516 114.074 171.546 114.063C169.587 114.176 167.641 113.693 165.96 112.679C165.389 112.369 164.904 111.92 164.552 111.372C164.2 110.825 163.991 110.198 163.945 109.548C163.974 108.96 164.144 108.387 164.441 107.879C164.738 107.37 165.154 106.942 165.652 106.629C167.346 105.46 169.378 104.884 171.432 104.989C173.549 104.882 175.643 105.471 177.396 106.664C177.881 106.991 178.281 107.43 178.561 107.944C178.841 108.459 178.994 109.033 179.006 109.619H165.881C165.912 110.135 166.078 110.634 166.362 111.066C166.646 111.498 167.038 111.847 167.499 112.079C168.678 112.755 170.022 113.088 171.379 113.04C172.11 113.045 172.838 112.968 173.552 112.811C174.163 112.687 174.754 112.483 175.311 112.203C175.914 111.881 176.463 111.467 176.939 110.977ZM176.939 108.657C176.708 108.095 176.332 107.605 175.848 107.238C175.273 106.83 174.629 106.531 173.948 106.356C173.137 106.134 172.299 106.024 171.458 106.029C170.181 105.995 168.915 106.277 167.772 106.85C167.026 107.235 166.427 107.855 166.065 108.613L176.939 108.657Z" fill="white" class="logo-wcolor"/>
<path d="M184.135 102.008H186.018V105.218H188.991V106.17H186.018V113.843H184.135V106.17H181.575V105.218H184.135V102.008Z" fill="white" class="logo-wcolor"/>
<path d="M218.075 104.345L216.517 105.051C215.594 104.355 214.546 103.843 213.43 103.543C212.139 103.192 210.807 103.02 209.471 103.031C207.978 103.018 206.493 103.244 205.072 103.701C203.912 104.039 202.845 104.643 201.958 105.465C201.611 105.793 201.333 106.187 201.143 106.625C200.952 107.064 200.852 107.536 200.85 108.014C200.85 109.434 201.676 110.66 203.322 111.541C205.242 112.559 207.397 113.052 209.568 112.97C212.017 113.06 214.434 112.392 216.491 111.056L218.048 111.753C216.944 112.568 215.697 113.167 214.371 113.517C212.762 113.932 211.106 114.134 209.444 114.117C205.996 114.117 203.275 113.438 201.281 112.079C200.554 111.656 199.947 111.054 199.516 110.33C199.085 109.607 198.845 108.785 198.817 107.943C198.817 106.232 199.829 104.795 201.852 103.631C204.191 102.385 206.815 101.777 209.462 101.867C211.147 101.845 212.826 102.062 214.45 102.511C215.77 102.87 217.003 103.494 218.075 104.345Z" fill="white" class="logo-wcolor"/>
<path d="M228.622 104.989C230.585 104.914 232.527 105.417 234.209 106.435C234.786 106.734 235.275 107.178 235.628 107.724C235.982 108.27 236.187 108.899 236.223 109.548C236.223 110.757 235.519 111.815 234.094 112.714C232.404 113.601 230.525 114.063 228.618 114.063C226.711 114.063 224.832 113.601 223.142 112.714C221.722 111.815 221.013 110.759 221.013 109.548C221.049 108.9 221.254 108.272 221.607 107.727C221.961 107.183 222.45 106.74 223.027 106.444C224.709 105.419 226.655 104.913 228.622 104.989ZM228.622 106.083C227.21 106.04 225.815 106.395 224.593 107.106C224.117 107.327 223.71 107.674 223.414 108.108C223.118 108.543 222.945 109.05 222.913 109.575C222.918 109.905 222.988 110.231 223.119 110.534C223.251 110.836 223.441 111.11 223.678 111.339C224.261 111.916 224.973 112.345 225.754 112.591C227.618 113.178 229.617 113.178 231.481 112.591C232.264 112.347 232.976 111.918 233.558 111.339C233.795 111.11 233.985 110.836 234.117 110.534C234.248 110.231 234.318 109.905 234.323 109.575C234.291 109.048 234.117 108.541 233.819 108.106C233.522 107.671 233.112 107.325 232.634 107.106C231.418 106.397 230.028 106.043 228.622 106.083Z" fill="white" class="logo-wcolor"/>
<path d="M241.765 112.097C242.172 112.085 242.573 112.185 242.926 112.388C243.066 112.441 243.187 112.536 243.272 112.66C243.357 112.783 243.402 112.93 243.402 113.08C243.402 113.23 243.357 113.377 243.272 113.5C243.187 113.624 243.066 113.719 242.926 113.772C242.573 113.975 242.172 114.075 241.765 114.063C241.356 114.075 240.951 113.974 240.595 113.772C240.455 113.719 240.335 113.624 240.25 113.5C240.165 113.377 240.119 113.23 240.119 113.08C240.119 112.93 240.165 112.783 240.25 112.66C240.335 112.536 240.455 112.441 240.595 112.388C240.951 112.185 241.356 112.085 241.765 112.097Z" fill="white" class="logo-wcolor"/>
<path d="M249.164 111.7L250.924 112.212L248.205 115.21L246.877 114.875L249.164 111.7Z" fill="white" class="logo-wcolor"/>
<path d="M259.659 102.211H261.63V112.749H269.195V113.878H259.659V102.211Z" fill="white" class="logo-wcolor"/>
<path d="M273.664 102.043H275.547V105.253H278.521V106.205H275.547V113.878H273.664V106.205H271.104V105.253H273.664V102.043Z" fill="white" class="logo-wcolor"/>
<path d="M295.895 101.92V113.878H294.048V112.397C293.244 112.966 292.353 113.398 291.408 113.675C290.363 113.966 289.282 114.109 288.197 114.099C286.35 114.152 284.524 113.695 282.919 112.776C281.453 111.888 280.72 110.809 280.72 109.539C280.72 108.27 281.459 107.208 282.937 106.356C284.542 105.436 286.367 104.976 288.215 105.024C289.314 105.013 290.408 105.168 291.461 105.483C292.393 105.764 293.262 106.222 294.021 106.832V101.92H295.895ZM288.391 106.1C287.41 106.089 286.435 106.244 285.505 106.559C284.706 106.802 283.981 107.242 283.394 107.837C283.152 108.064 282.958 108.336 282.824 108.639C282.689 108.942 282.617 109.27 282.611 109.601C282.621 109.933 282.696 110.259 282.832 110.562C282.968 110.865 283.162 111.138 283.403 111.365C283.994 111.964 284.722 112.409 285.523 112.661C286.444 112.974 287.41 113.129 288.382 113.12C289.374 113.126 290.36 112.971 291.303 112.661C292.099 112.423 292.826 111.996 293.423 111.418C293.892 110.951 294.158 110.317 294.162 109.654C294.138 109.125 293.97 108.612 293.677 108.171C293.384 107.729 292.977 107.376 292.499 107.15C291.252 106.429 289.83 106.066 288.391 106.1Z" fill="white" class="logo-wcolor"/>
<path d="M300.355 112.096C300.76 112.086 301.161 112.184 301.516 112.379C301.659 112.43 301.783 112.525 301.87 112.65C301.957 112.774 302.004 112.923 302.004 113.075C302.004 113.228 301.957 113.376 301.87 113.501C301.783 113.626 301.659 113.72 301.516 113.772C301.163 113.974 300.762 114.075 300.355 114.063C299.946 114.075 299.541 113.974 299.185 113.772C299.042 113.72 298.919 113.626 298.831 113.501C298.744 113.376 298.697 113.228 298.697 113.075C298.697 112.923 298.744 112.774 298.831 112.65C298.919 112.525 299.042 112.43 299.185 112.379C299.544 112.183 299.947 112.086 300.355 112.096Z" fill="white" class="logo-wcolor"/>
<path d="M176.797 43.6978L153.089 31.8805V25.9189L182.788 40.7347L176.797 43.6978Z" fill="#CCCCCC" class="logo-gcolor"/>
<path d="M160.883 75.2954V40.7871L153.089 44.641V79.1404L160.883 75.2954Z" fill="#CCCCCC" class="logo-gcolor"/>
<path d="M119.678 64.3863L149.553 49.4824V55.444L125.677 67.3495L119.678 64.3863Z" fill="#CCCCCC" class="logo-gcolor"/>
<path d="M106.825 29.4731L136.481 14.6927L130.481 11.7207L106.825 23.5204V29.4731Z" fill="#CCCCCC" class="logo-gcolor"/>
<path d="M106.825 53.2045L149.553 31.8981V25.9365L106.834 47.2429L106.825 53.2045Z" fill="#CCCCCC" class="logo-gcolor"/>
<path d="M106.825 47.2432L149.553 68.3732V79.1587L106.825 58.0287V47.2432Z" fill="white" class="logo-wcolor"/>
<path d="M106.825 23.5195L149.553 44.6584V55.4439L106.825 34.305V23.5195Z" fill="white" class="logo-wcolor"/>
<path d="M149.553 31.9419L106.825 10.8031V0.0175781L149.553 21.1564V31.9419Z" fill="white" class="logo-wcolor"/>
<path d="M195.818 29.4555L166.162 14.6751L172.162 11.7031L195.818 23.5028V29.4555Z" fill="#CCCCCC" class="logo-gcolor"/>
<path d="M195.817 23.502L153.098 44.6408V55.4263L195.817 34.2874V23.502Z" fill="white" class="logo-wcolor"/>
<path d="M153.098 31.9243L195.817 10.7855V0L153.098 21.1388V31.9243Z" fill="white" class="logo-wcolor"/>
</g>
<defs>
<clipPath id="clip0_578_324">
<rect width="302" height="117" fill="white"/>
</clipPath>
</defs>
</svg>
