<svg width="68" height="60" viewBox="0 0 68 60" fill="none" xmlns="http://www.w3.org/2000/svg">
<g clip-path="url(#clip0_251_603)">
<path d="M53.4602 33.1214L35.3511 24.1642V19.6455L58.0446 30.8755L53.4602 33.1214Z" fill="#98865F" class="logo-gcolor"/>
<path d="M41.3068 57.0724V30.916L35.3511 33.8371V59.9869L41.3068 57.0724Z" fill="#98865F" class="logo-gcolor"/>
<path d="M9.82092 48.8036L32.6489 37.5068V42.0256L14.4053 51.0496L9.82092 48.8036Z" fill="#98865F" class="logo-gcolor"/>
<path d="M0 22.3397L22.6599 11.1365L18.0755 8.88379L0 17.8276V22.3397Z" fill="#98865F" class="logo-gcolor"/>
<path d="M0 40.3276L32.6556 24.1779V19.6592L0.00672202 35.8089L0 40.3276Z" fill="#98865F" class="logo-gcolor"/>
<path d="M0 35.8086L32.6422 51.8246V59.9998L0 43.9837V35.8086Z" fill="#444444" class="logo-wcolor"/>
<path d="M0 17.8271L32.6422 33.8499V42.025L0 26.0023V17.8271Z" fill="#444444" class="logo-wcolor"/>
<path d="M32.6422 24.2115L0 8.1888V0.0136719L32.6422 16.0364V24.2115Z" fill="#444444" class="logo-wcolor"/>
<path d="M68 22.326L45.3401 11.1228L49.9245 8.87012L68 17.814V22.326Z" fill="#98865F" class="logo-gcolor"/>
<path d="M67.9999 17.8145L35.3578 33.8372V42.0123L67.9999 25.9896V17.8145Z" fill="#444444" class="logo-wcolor"/>
<path d="M35.3578 24.1979L67.9999 8.17513V0L35.3578 16.0227V24.1979Z" fill="#444444" class="logo-wcolor"/>
</g>
<defs>
<clipPath id="clip0_251_603">
<rect width="68" height="60" fill="white"/>
</clipPath>
</defs>
</svg>
